<svg xmlns="http://www.w3.org/2000/svg" width="202.152" height="186.191" viewBox="0 0 202.152 186.191"><defs><style>.a{fill:#e0dcd1;}.b{fill:#c1b5a7;}.c{fill:#aca89d;}.d{fill:#dfdbd0;}.e{fill:#faf6ea;}.f{fill:#9b8062;}.g{fill:#4f3524;}.h{fill:#dbd7ce;}.i{fill:#e8d9c8;}.j{fill:#69504c;}.k{fill:#dbecff;}.l{fill:#949086;}.m{fill:#e3e3e3;}.n{fill:#fff;}.o{opacity:0.1;}.p{fill:#f0ece0;}.q{fill:#e3bc8f;}.r{fill:#785037;}.s{fill:#bf9e78;}.t{fill:#d1cdc3;}.u{fill:#d2cec3;}.v{fill:#faf8f0;}.w{fill:#d9cbbc;}.x{fill:#9c988e;}.y{fill:#dbd8cd;}.z{fill:#ebe7da;}.aa{fill:#f5f1e4;}.ab{fill:#e6e2d6;}.ac{fill:#f7f3e7;}.ad{fill:#ede9dd;}.ae{opacity:0.05;}.af{opacity:0.04;}</style></defs><g transform="translate(-151.124 -18.615)"><g transform="translate(151.124 18.615)"><g transform="translate(4.085 7.405)"><path class="a" d="M254.338,226.375l131.256-65.717V78.741L254.338,144.458Z" transform="translate(-193.54 -48.35)"/><path class="b" d="M218.455,126.513,349.71,60.807,288.913,30.4,157.658,96.1Z" transform="translate(-157.635 -30.395)"/><path class="c" d="M157.621,216.81l60.8,30.419V165.313l-60.8-30.419Z" transform="translate(-157.621 -69.204)"/></g><g transform="translate(172.28 116.912)"><g transform="translate(0 0.35)"><path class="d" d="M450.952,205.781v2.513L426.4,220.549l0-2.55Z" transform="translate(-425.637 -205.386)"/><path class="e" d="M425.185,217.388l.767.378L450.5,205.551l-.776-.4Z" transform="translate(-425.185 -205.153)"/><path class="f" d="M425.185,227.165l.765.379,0-2.527-.767-.4Z" transform="translate(-425.185 -212.382)"/></g><path class="e" d="M464.592,205.344l-1.453-.747v1.068Z" transform="translate(-439.28 -204.597)"/></g><g transform="translate(172.278 128.32)"><path class="c" d="M425.182,224.74v2.513l17.171,8.632v-2.513Z" transform="translate(-425.182 -223.486)"/><path class="e" d="M444.885,231.357l-2.529,1.274L425.189,224l2.513-1.257Z" transform="translate(-425.185 -222.745)"/><path class="d" d="M455.028,238.993l-2.529,1.238v-2.513l2.529-1.274Z" transform="translate(-435.327 -227.833)"/></g><g transform="translate(92.907 129.559)"><g transform="translate(13.542 8.556)"><path class="d" d="M325.143,280.764l79.438-39.254v-.841l-79.438,39.254Z" transform="translate(-322.2 -239.197)"/><path class="e" d="M323.407,279.054,402.844,239.8l-2.943-1.472-79.438,39.254Z" transform="translate(-320.462 -238.328)"/><path class="g" d="M320.462,301.612l2.943,1.472v-.841l-2.943-1.472Z" transform="translate(-320.462 -261.518)"/></g><g transform="translate(10.618 6.243)"><path class="d" d="M320.492,277.083l79.438-39.255v-.841l-79.438,39.255Z" transform="translate(-317.55 -235.516)"/><path class="e" d="M318.756,275.373l79.438-39.254-2.943-1.472L315.813,273.9Z" transform="translate(-315.812 -234.647)"/><path class="g" d="M315.811,297.932l2.943,1.472v-.841l-2.943-1.472Z" transform="translate(-315.811 -257.837)"/></g><g transform="translate(0 0)"><path class="d" d="M315.842,273.4l79.438-39.255v-.841l-79.438,39.254Z" transform="translate(-305.204 -227.906)"/><path class="e" d="M309.559,269.371,389,230.117l-10.637-5.4L298.922,263.97Z" transform="translate(-298.92 -224.716)"/><path class="g" d="M298.92,288l10.637,5.4v-.841l-10.637-5.4Z" transform="translate(-298.92 -247.906)"/></g><path class="g" d="M315.4,298.03l-16.485-8.357V287.16l10.637,5.4v.841l2.924,1.472v.841l2.924,1.472Z" transform="translate(-298.92 -247.906)"/></g><g transform="translate(90.408 168.812)"><path class="c" d="M294.944,289.154v2.513l17.105,8.567v-2.513Z" transform="translate(-294.944 -287.9)"/><path class="e" d="M314.581,295.706l-2.529,1.274-17.1-8.564,2.513-1.257Z" transform="translate(-294.946 -287.16)"/><path class="d" d="M324.684,303.3l-2.529,1.238v-2.513l2.529-1.274Z" transform="translate(-305.049 -292.209)"/></g><g transform="translate(2.759 151.935)"><g transform="translate(61.359 18.131)"><path class="d" d="M280.657,289.781v2.513l-26.321,13.218,0-2.55Z" transform="translate(-253.573 -289.387)"/><path class="e" d="M253.122,302.388l.766.378L280.2,289.551l-.776-.4Z" transform="translate(-253.122 -289.154)"/></g><path class="c" d="M155.512,261.365v2.513l62.126,31.081v-2.513Z" transform="translate(-155.512 -260.703)"/><path class="h" d="M217.64,291.449l-.766.386-61.355-30.7.776-.4Z" transform="translate(-155.514 -260.47)"/><path class="i" d="M155.518,260.977l1.322-.665v.662Z" transform="translate(-155.514 -260.312)"/></g><g transform="translate(7.438 132.182)"><g transform="translate(43.085 21.662)"><g transform="translate(1.63)"><path class="j" d="M241.31,283.522V266.961l-7.224-3.613V279.91Z" transform="translate(-234.086 -263.348)"/><path class="k" d="M234.8,280.083l6.328,3.165V267.582l-6.328-3.165Z" transform="translate(-234.351 -263.745)"/><path class="j" d="M239.431,282.4l.5.252V266.986l-.5-.252Z" transform="translate(-236.071 -264.606)"/></g><path class="l" d="M231.494,280.725l1.63-.815V263.365l-1.63.815Z" transform="translate(-231.494 -263.355)"/><rect class="c" width="2.671" height="19.62" transform="translate(9.683 21.749) rotate(180)"/><path class="m" d="M231.494,290.5l7.011,3.521v-1.638l-5.382-2.7Z" transform="translate(-231.494 -273.129)"/><path class="c" d="M231.494,264.18l9.683,4.848v-3.545l-8.053-2.118Z" transform="translate(-231.494 -263.355)"/><path class="j" d="M239.614,273.549l-5.147-2.574v-.465l5.147,2.574Z" transform="translate(-232.598 -266.008)"/><path class="j" d="M239.614,286.258l-5.147-2.574v-.464l5.147,2.574Z" transform="translate(-232.598 -270.728)"/></g><g transform="translate(28.723 14.441)"><g transform="translate(1.63)"><path class="j" d="M218.464,272.036V255.475l-7.224-3.613v16.561Z" transform="translate(-211.24 -251.862)"/><path class="k" d="M211.953,268.6l6.328,3.165V256.1l-6.328-3.165Z" transform="translate(-211.505 -252.259)"/><path class="j" d="M216.585,270.913l.5.252V255.5l-.5-.252Z" transform="translate(-213.225 -253.119)"/></g><path class="l" d="M208.648,269.238l1.63-.815V251.879l-1.63.815Z" transform="translate(-208.648 -251.868)"/><rect class="c" width="2.671" height="19.62" transform="translate(9.683 21.749) rotate(180)"/><path class="m" d="M208.648,279.013l7.011,3.521V280.9l-5.382-2.7Z" transform="translate(-208.648 -261.643)"/><path class="c" d="M208.648,252.694l9.683,4.848V254l-8.053-2.118Z" transform="translate(-208.648 -251.868)"/><path class="j" d="M216.768,262.063l-5.147-2.574v-.465l5.147,2.574Z" transform="translate(-209.752 -254.522)"/><path class="j" d="M216.768,274.771l-5.147-2.574v-.464l5.147,2.574Z" transform="translate(-209.752 -259.242)"/></g><g transform="translate(14.362 7.221)"><g transform="translate(1.63)"><path class="j" d="M195.618,260.549V243.988l-7.224-3.613v16.561Z" transform="translate(-188.394 -240.375)"/><path class="k" d="M189.107,257.11l6.328,3.165V244.609l-6.328-3.165Z" transform="translate(-188.659 -240.772)"/><path class="j" d="M193.739,259.426l.5.252V244.013l-.5-.252Z" transform="translate(-190.379 -241.633)"/></g><path class="l" d="M185.8,257.752l1.63-.815V240.392l-1.63.815Z" transform="translate(-185.802 -240.382)"/><rect class="c" width="2.671" height="19.62" transform="translate(9.683 21.749) rotate(180)"/><path class="m" d="M185.8,267.526l7.011,3.521v-1.638l-5.382-2.7Z" transform="translate(-185.802 -250.156)"/><path class="c" d="M185.8,241.207l9.683,4.848V242.51l-8.053-2.118Z" transform="translate(-185.802 -240.382)"/><path class="j" d="M193.922,250.576,188.775,248v-.464l5.147,2.574Z" transform="translate(-186.906 -243.035)"/><path class="j" d="M193.922,263.285l-5.147-2.574v-.464l5.147,2.574Z" transform="translate(-186.906 -247.755)"/></g><g transform="translate(0 0)"><g transform="translate(1.63)"><path class="j" d="M172.771,249.063V232.5l-7.224-3.613V245.45Z" transform="translate(-165.548 -228.889)"/><path class="k" d="M166.26,245.623l6.328,3.165V233.123l-6.328-3.165Z" transform="translate(-165.812 -229.286)"/><path class="j" d="M170.893,247.94l.5.252V232.527l-.5-.252Z" transform="translate(-167.533 -230.146)"/></g><path class="l" d="M162.955,246.265l1.63-.815V228.906l-1.63.815Z" transform="translate(-162.955 -228.895)"/><rect class="c" width="2.671" height="19.62" transform="translate(9.683 21.749) rotate(180)"/><path class="m" d="M162.955,256.04l7.011,3.521v-1.638l-5.382-2.7Z" transform="translate(-162.955 -238.67)"/><path class="c" d="M162.955,229.721l9.683,4.848v-3.545l-8.053-2.118Z" transform="translate(-162.955 -228.895)"/><path class="j" d="M171.076,239.09l-5.147-2.574v-.465l5.147,2.574Z" transform="translate(-164.06 -231.549)"/><path class="j" d="M171.076,251.8l-5.147-2.574v-.465l5.147,2.574Z" transform="translate(-164.06 -236.269)"/></g></g><g transform="translate(7.438 108.098)"><g transform="translate(43.085 21.662)"><g transform="translate(1.63)"><path class="j" d="M241.31,245.21V228.649l-7.224-3.613V241.6Z" transform="translate(-234.086 -225.036)"/><path class="k" d="M234.8,241.771l6.328,3.165V229.27l-6.328-3.165Z" transform="translate(-234.351 -225.433)"/><path class="j" d="M239.431,244.087l.5.252V228.674l-.5-.252Z" transform="translate(-236.071 -226.294)"/></g><path class="l" d="M231.494,242.413l1.63-.815V225.053l-1.63.815Z" transform="translate(-231.494 -225.042)"/><rect class="c" width="2.671" height="19.62" transform="translate(9.683 21.749) rotate(180)"/><path class="m" d="M231.494,252.187l7.011,3.521V254.07l-5.382-2.7Z" transform="translate(-231.494 -234.817)"/><path class="c" d="M231.494,225.868l9.683,4.848v-3.545l-8.053-2.118Z" transform="translate(-231.494 -225.042)"/><path class="j" d="M239.614,235.237l-5.147-2.574V232.2l5.147,2.574Z" transform="translate(-232.598 -227.696)"/><path class="j" d="M239.614,247.945l-5.147-2.574v-.464l5.147,2.574Z" transform="translate(-232.598 -232.416)"/></g><g transform="translate(28.723 14.441)"><g transform="translate(1.63)"><path class="j" d="M218.464,233.724V217.162l-7.224-3.613v16.561Z" transform="translate(-211.24 -213.55)"/><path class="k" d="M211.953,230.284l6.328,3.165V217.783l-6.328-3.165Z" transform="translate(-211.505 -213.947)"/><path class="j" d="M216.585,232.6l.5.252V217.187l-.5-.252Z" transform="translate(-213.225 -214.807)"/></g><path class="l" d="M208.648,230.926l1.63-.815V213.566l-1.63.815Z" transform="translate(-208.648 -213.556)"/><rect class="c" width="2.671" height="19.62" transform="translate(9.683 21.749) rotate(180)"/><path class="m" d="M208.648,240.7l7.011,3.521v-1.638l-5.382-2.7Z" transform="translate(-208.648 -223.33)"/><path class="c" d="M208.648,214.381l9.683,4.848v-3.545l-8.053-2.118Z" transform="translate(-208.648 -213.556)"/><path class="j" d="M216.768,223.75l-5.147-2.574v-.465l5.147,2.574Z" transform="translate(-209.752 -216.21)"/><path class="j" d="M216.768,236.459l-5.147-2.574v-.464l5.147,2.574Z" transform="translate(-209.752 -220.929)"/></g><g transform="translate(14.362 7.221)"><g transform="translate(1.63)"><path class="j" d="M195.618,222.237V205.676l-7.224-3.613v16.561Z" transform="translate(-188.394 -202.063)"/><path class="k" d="M189.107,218.8l6.328,3.165V206.3l-6.328-3.165Z" transform="translate(-188.659 -202.46)"/><path class="j" d="M193.739,221.114l.5.252V205.7l-.5-.252Z" transform="translate(-190.379 -203.321)"/></g><path class="l" d="M185.8,219.44l1.63-.815V202.08l-1.63.815Z" transform="translate(-185.802 -202.069)"/><rect class="c" width="2.671" height="19.62" transform="translate(9.683 21.749) rotate(180)"/><path class="m" d="M185.8,229.214l7.011,3.521V231.1l-5.382-2.7Z" transform="translate(-185.802 -211.844)"/><path class="c" d="M185.8,202.895l9.683,4.848V204.2l-8.053-2.118Z" transform="translate(-185.802 -202.069)"/><path class="j" d="M193.922,212.264l-5.147-2.574v-.464l5.147,2.574Z" transform="translate(-186.906 -204.723)"/><path class="j" d="M193.922,224.973l-5.147-2.574v-.464l5.147,2.574Z" transform="translate(-186.906 -209.443)"/></g><g transform="translate(1.63)"><path class="j" d="M172.771,210.751V194.189l-7.224-3.613v16.561Z" transform="translate(-165.548 -190.577)"/><path class="k" d="M166.26,207.311l6.328,3.165V194.81l-6.328-3.165Z" transform="translate(-165.812 -190.974)"/><path class="j" d="M170.893,209.628l.5.252V194.214l-.5-.252Z" transform="translate(-167.533 -191.834)"/></g><path class="l" d="M162.955,207.953l1.63-.815V190.594l-1.63.815Z" transform="translate(-162.955 -190.583)"/><rect class="c" width="2.671" height="19.62" transform="translate(9.683 21.748) rotate(180)"/><path class="m" d="M162.955,217.728l7.011,3.521V219.61l-5.382-2.7Z" transform="translate(-162.955 -200.357)"/><path class="c" d="M162.955,191.408l9.683,4.848v-3.545l-8.053-2.118Z" transform="translate(-162.955 -190.583)"/><path class="j" d="M171.076,200.777l-5.147-2.574v-.464l5.147,2.574Z" transform="translate(-164.06 -193.237)"/><path class="j" d="M171.076,213.486l-5.147-2.574v-.464l5.147,2.574Z" transform="translate(-164.06 -197.956)"/></g><g transform="translate(7.438 82.115)"><g transform="translate(43.085 21.662)"><g transform="translate(1.63)"><path class="j" d="M241.31,203.877V187.316l-7.224-3.613v16.561Z" transform="translate(-234.086 -183.703)"/><path class="k" d="M234.8,200.437l6.328,3.165V187.937l-6.328-3.165Z" transform="translate(-234.351 -184.1)"/><path class="j" d="M239.431,202.754l.5.252V187.341l-.5-.252Z" transform="translate(-236.071 -184.96)"/></g><path class="l" d="M231.494,201.079l1.63-.815V183.72l-1.63.815Z" transform="translate(-231.494 -183.709)"/><rect class="c" width="2.671" height="19.62" transform="translate(9.683 21.748) rotate(180)"/><path class="m" d="M231.494,210.854l7.011,3.521v-1.638l-5.382-2.7Z" transform="translate(-231.494 -193.484)"/><path class="g" d="M231.494,184.535l9.683,4.848v-3.545l-8.053-2.118Z" transform="translate(-231.494 -183.709)"/><path class="j" d="M239.614,193.9l-5.147-2.574v-.464l5.147,2.574Z" transform="translate(-232.598 -186.363)"/><path class="j" d="M239.614,206.612l-5.147-2.574v-.464l5.147,2.574Z" transform="translate(-232.598 -191.083)"/></g><g transform="translate(28.723 14.441)"><g transform="translate(1.63)"><path class="j" d="M218.464,192.39V175.829l-7.224-3.613v16.561Z" transform="translate(-211.24 -172.217)"/><path class="k" d="M211.953,188.951l6.328,3.165V176.45l-6.328-3.165Z" transform="translate(-211.505 -172.614)"/><path class="j" d="M216.585,191.268l.5.252V175.854l-.5-.252Z" transform="translate(-213.225 -173.474)"/></g><path class="l" d="M208.648,189.593l1.63-.815V172.233l-1.63.815Z" transform="translate(-208.648 -172.223)"/><rect class="c" width="2.671" height="19.62" transform="translate(9.683 21.749) rotate(180)"/><path class="m" d="M208.648,199.367l7.011,3.521V201.25l-5.382-2.7Z" transform="translate(-208.648 -181.997)"/><path class="g" d="M208.648,173.048l9.683,4.848v-3.545l-8.053-2.118Z" transform="translate(-208.648 -172.223)"/><path class="j" d="M216.768,182.417l-5.147-2.574v-.464l5.147,2.574Z" transform="translate(-209.752 -174.876)"/><path class="j" d="M216.768,195.126l-5.147-2.574v-.464l5.147,2.574Z" transform="translate(-209.752 -179.596)"/></g><g transform="translate(14.362 7.221)"><g transform="translate(1.63)"><path class="j" d="M195.618,180.9V164.343l-7.224-3.613v16.561Z" transform="translate(-188.394 -160.73)"/><path class="k" d="M189.107,177.464l6.328,3.165V164.964l-6.328-3.165Z" transform="translate(-188.659 -161.127)"/><path class="j" d="M193.739,179.781l.5.252V164.368l-.5-.252Z" transform="translate(-190.379 -161.987)"/></g><path class="l" d="M185.8,178.106l1.63-.815V160.747l-1.63.815Z" transform="translate(-185.802 -160.736)"/><rect class="c" width="2.671" height="19.62" transform="translate(9.683 21.749) rotate(180)"/><path class="m" d="M185.8,187.881l7.011,3.521v-1.638l-5.382-2.7Z" transform="translate(-185.802 -170.511)"/><path class="g" d="M185.8,161.562l9.683,4.848v-3.545l-8.053-2.118Z" transform="translate(-185.802 -160.736)"/><path class="j" d="M193.922,170.931l-5.147-2.574v-.464l5.147,2.574Z" transform="translate(-186.906 -163.39)"/><path class="j" d="M193.922,183.639l-5.147-2.574V180.6l5.147,2.574Z" transform="translate(-186.906 -168.11)"/></g><g transform="translate(1.63)"><path class="j" d="M172.771,169.418V152.856l-7.224-3.613V165.8Z" transform="translate(-165.548 -149.244)"/><path class="k" d="M166.26,165.978l6.328,3.165V153.477l-6.328-3.165Z" transform="translate(-165.812 -149.641)"/><path class="j" d="M170.893,168.295l.5.252V152.881l-.5-.252Z" transform="translate(-167.533 -150.501)"/></g><path class="l" d="M162.955,166.62l1.63-.815V149.26l-1.63.815Z" transform="translate(-162.955 -149.25)"/><rect class="c" width="2.671" height="19.62" transform="translate(9.683 21.749) rotate(180)"/><path class="m" d="M162.955,176.395l7.011,3.521v-1.638l-5.382-2.7Z" transform="translate(-162.955 -159.024)"/><path class="g" d="M162.955,150.075l9.683,4.848v-3.545l-8.053-2.118Z" transform="translate(-162.955 -149.25)"/><path class="j" d="M171.076,159.444l-5.147-2.574v-.465l5.147,2.574Z" transform="translate(-164.06 -151.904)"/><path class="j" d="M171.076,172.153l-5.147-2.574v-.464l5.147,2.574Z" transform="translate(-164.06 -156.623)"/></g><g transform="translate(67.138 57.897)"><g transform="translate(5.106 45.054)"><g transform="translate(0 50.541)"><g transform="translate(0.83)"><path class="j" d="M267.369,282.962V266.4l7.224-3.613V279.35Z" transform="translate(-267.369 -262.788)"/><path class="k" d="M274.41,279.523l-6.328,3.165V267.022l6.328-3.165Z" transform="translate(-267.634 -263.185)"/><path class="j" d="M273.218,281.839l-.5.252V266.426l.5-.252Z" transform="translate(-269.354 -264.046)"/></g><path class="c" d="M280.491,280.165l-1.63-.815V262.8l1.63.815Z" transform="translate(-270.808 -262.794)"/><rect class="d" width="2.671" height="19.62" transform="translate(0 2.128)"/><path class="n" d="M277.311,289.939,270.3,293.46v-1.638l5.382-2.7Z" transform="translate(-267.628 -272.569)"/><path class="d" d="M275.733,263.62l-9.683,4.848v-3.545L274.1,262.8Z" transform="translate(-266.05 -262.794)"/><path class="j" d="M270.292,272.989l5.147-2.574v-.465l-5.147,2.574Z" transform="translate(-267.625 -265.448)"/><path class="j" d="M270.292,285.7l5.147-2.574v-.464l-5.147,2.574Z" transform="translate(-267.625 -270.168)"/></g><g transform="translate(0 26.938)"><g transform="translate(0.83)"><path class="j" d="M267.369,245.416V228.855l7.224-3.613V241.8Z" transform="translate(-267.369 -225.242)"/><path class="k" d="M274.41,241.976l-6.328,3.165V229.476l6.328-3.165Z" transform="translate(-267.634 -225.639)"/><path class="j" d="M273.218,244.293l-.5.252V228.88l.5-.252Z" transform="translate(-269.354 -226.499)"/></g><path class="c" d="M280.491,242.618l-1.63-.815V225.259l1.63.815Z" transform="translate(-270.808 -225.248)"/><rect class="d" width="2.671" height="19.62" transform="translate(0 2.128)"/><path class="n" d="M277.311,252.393l-7.011,3.521v-1.638l5.382-2.7Z" transform="translate(-267.628 -235.023)"/><path class="d" d="M275.733,226.074l-9.683,4.848v-3.545l8.053-2.118Z" transform="translate(-266.05 -225.248)"/><path class="j" d="M270.292,235.443l5.147-2.574V232.4l-5.147,2.574Z" transform="translate(-267.625 -227.902)"/><path class="j" d="M270.292,248.151l5.147-2.574v-.465l-5.147,2.574Z" transform="translate(-267.625 -232.622)"/></g><g transform="translate(0.83)"><path class="j" d="M267.369,202.563V186l7.224-3.613V198.95Z" transform="translate(-267.369 -182.389)"/><path class="k" d="M274.41,199.123l-6.328,3.165V186.622l6.328-3.165Z" transform="translate(-267.634 -182.786)"/><path class="j" d="M273.218,201.44l-.5.252V186.026l.5-.252Z" transform="translate(-269.354 -183.646)"/></g><path class="c" d="M280.491,199.765l-1.63-.815V182.405l1.63.815Z" transform="translate(-270.808 -182.395)"/><rect class="d" width="2.671" height="19.62" transform="translate(0 2.128)"/><path class="n" d="M277.311,209.54,270.3,213.06v-1.638l5.382-2.7Z" transform="translate(-267.628 -192.169)"/><path class="d" d="M275.733,183.22l-9.683,4.848v-3.545l8.053-2.118Z" transform="translate(-266.05 -182.395)"/><path class="j" d="M270.292,192.589l5.147-2.574v-.464l-5.147,2.574Z" transform="translate(-267.625 -185.049)"/><path class="j" d="M270.292,205.3l5.147-2.574v-.465l-5.147,2.574Z" transform="translate(-267.625 -189.768)"/><path class="o" d="M276.464,184.524l-2.813,16.327-1.244,2.258,5.687-2.856V183.708Z" transform="translate(-268.41 -182.878)"/><path class="o" d="M276.464,227.4l-2.813,16.327-1.244,2.258,5.687-2.856V226.582Z" transform="translate(-268.41 -198.801)"/><path class="o" d="M276.464,264.932l-2.813,16.327-1.244,2.258,5.687-2.856V264.116Z" transform="translate(-268.41 -212.741)"/></g><g transform="translate(22.704 36.039)"><g transform="translate(0 50.541)"><g transform="translate(0.83)"><path class="j" d="M295.364,268.621V252.059l7.224-3.613v16.561Z" transform="translate(-295.364 -248.447)"/><path class="k" d="M302.4,265.181l-6.328,3.165V252.68l6.328-3.165Z" transform="translate(-295.628 -248.844)"/><path class="j" d="M301.213,267.5l-.5.252V252.084l.5-.252Z" transform="translate(-297.349 -249.704)"/></g><path class="c" d="M308.485,265.823l-1.63-.815V248.463l1.63.815Z" transform="translate(-298.802 -248.453)"/><rect class="d" width="2.671" height="19.62" transform="translate(0 2.128)"/><path class="n" d="M305.305,275.6l-7.011,3.521V277.48l5.382-2.7Z" transform="translate(-295.622 -258.227)"/><path class="d" d="M303.727,249.278l-9.683,4.848v-3.545l8.053-2.118Z" transform="translate(-294.044 -248.453)"/><path class="j" d="M298.287,258.647l5.147-2.574v-.464l-5.147,2.574Z" transform="translate(-295.62 -251.107)"/><path class="j" d="M298.287,271.356l5.147-2.574v-.464l-5.147,2.574Z" transform="translate(-295.62 -255.826)"/></g><g transform="translate(0 26.938)"><g transform="translate(0.83)"><path class="j" d="M295.364,231.074V214.513l7.224-3.613v16.561Z" transform="translate(-295.364 -210.9)"/><path class="k" d="M302.4,227.635l-6.328,3.165V215.134l6.328-3.165Z" transform="translate(-295.628 -211.297)"/><path class="j" d="M301.213,229.951l-.5.252V214.538l.5-.252Z" transform="translate(-297.349 -212.158)"/></g><path class="c" d="M308.485,228.277l-1.63-.815V210.917l1.63.815Z" transform="translate(-298.802 -210.906)"/><rect class="d" width="2.671" height="19.62" transform="translate(0 2.128)"/><path class="n" d="M305.305,238.051l-7.011,3.521v-1.638l5.382-2.7Z" transform="translate(-295.622 -220.681)"/><path class="d" d="M303.727,211.732l-9.683,4.848v-3.545l8.053-2.118Z" transform="translate(-294.044 -210.906)"/><path class="j" d="M298.287,221.1l5.147-2.574v-.464l-5.147,2.574Z" transform="translate(-295.62 -213.56)"/><path class="j" d="M298.287,233.81l5.147-2.574v-.464l-5.147,2.574Z" transform="translate(-295.62 -218.28)"/></g><g transform="translate(0.83)"><path class="j" d="M295.364,188.221V171.66l7.224-3.613v16.561Z" transform="translate(-295.364 -168.047)"/><path class="k" d="M302.4,184.781l-6.328,3.165V172.281l6.328-3.165Z" transform="translate(-295.628 -168.444)"/><path class="j" d="M301.213,187.1l-.5.252V171.685l.5-.252Z" transform="translate(-297.349 -169.304)"/></g><path class="c" d="M308.485,185.423l-1.63-.815V168.064l1.63.815Z" transform="translate(-298.802 -168.053)"/><rect class="d" width="2.671" height="19.62" transform="translate(0 2.128)"/><path class="n" d="M305.305,195.2l-7.011,3.521V197.08l5.382-2.7Z" transform="translate(-295.622 -177.828)"/><path class="d" d="M303.727,168.879l-9.683,4.848v-3.545l8.053-2.118Z" transform="translate(-294.044 -168.053)"/><path class="j" d="M298.287,178.248l5.147-2.574v-.464l-5.147,2.574Z" transform="translate(-295.62 -170.707)"/><path class="j" d="M298.287,190.956l5.147-2.574v-.465l-5.147,2.574Z" transform="translate(-295.62 -175.427)"/><path class="o" d="M304.458,250.563l-2.813,16.327-1.244,2.258,5.687-2.856V249.748Z" transform="translate(-296.405 -198.389)"/><path class="o" d="M304.458,213.04l-2.813,16.327-1.244,2.258,5.687-2.856V212.224Z" transform="translate(-296.405 -184.454)"/><path class="o" d="M304.458,170.181l-2.813,16.327-1.244,2.258,5.687-2.856V169.365Z" transform="translate(-296.405 -168.536)"/></g><g transform="translate(0 44.291)"><path class="c" d="M258.7,261.952l-.77-.385V183.512l.77.385Z" transform="translate(-257.927 -182.042)"/><path class="p" d="M262.2,259.75l-3.054,1.527V183.222l3.054-1.527Z" transform="translate(-258.381 -181.367)"/><path class="q" d="M257.927,182.644l.769.385,3.054-1.527-.748-.327Z" transform="translate(-257.927 -181.174)"/></g><g transform="translate(17.926 35.331)"><path class="c" d="M287.213,247.7l-.769-.385V169.259l.769.385Z" transform="translate(-286.444 -167.79)"/><path class="p" d="M290.722,245.5l-3.054,1.527V168.969l3.054-1.527Z" transform="translate(-286.898 -167.115)"/><path class="q" d="M286.444,168.391l.769.385,3.054-1.527-.748-.327Z" transform="translate(-286.444 -166.921)"/></g><g transform="translate(40.238 27.61)"><g transform="translate(0 26.938)"><g transform="translate(0.83)"><path class="j" d="M323.258,217.666V201.1l7.224-3.613v16.561Z" transform="translate(-323.258 -197.492)"/><path class="k" d="M330.3,214.226l-6.328,3.165V201.725l6.328-3.165Z" transform="translate(-323.522 -197.889)"/><path class="j" d="M329.106,216.543l-.5.252V201.13l.5-.252Z" transform="translate(-325.243 -198.749)"/></g><path class="c" d="M336.379,214.868l-1.629-.815V197.509l1.629.815Z" transform="translate(-326.696 -197.498)"/><rect class="d" width="2.671" height="19.62" transform="translate(0 2.128)"/><path class="n" d="M333.2,224.643l-7.011,3.521v-1.638l5.382-2.7Z" transform="translate(-323.516 -207.273)"/><path class="d" d="M331.621,198.324l-9.683,4.848v-3.545l8.053-2.118Z" transform="translate(-321.938 -197.498)"/><path class="j" d="M326.18,207.693l5.147-2.574v-.464l-5.147,2.574Z" transform="translate(-323.513 -200.152)"/><path class="j" d="M326.18,220.4l5.147-2.574v-.464l-5.147,2.574Z" transform="translate(-323.513 -204.872)"/></g><g transform="translate(0.83)"><path class="j" d="M323.258,174.813V158.251l7.224-3.613V171.2Z" transform="translate(-323.258 -154.639)"/><path class="k" d="M330.3,171.373l-6.328,3.165V158.872l6.328-3.165Z" transform="translate(-323.522 -155.036)"/><path class="j" d="M329.106,173.69l-.5.252V158.276l.5-.252Z" transform="translate(-325.243 -155.896)"/></g><path class="c" d="M336.379,172.015l-1.629-.815V154.655l1.629.815Z" transform="translate(-326.696 -154.645)"/><rect class="d" width="2.671" height="19.62" transform="translate(0 2.128)"/><path class="n" d="M333.2,181.789l-7.011,3.521v-1.638l5.382-2.7Z" transform="translate(-323.516 -164.419)"/><path class="d" d="M331.621,155.47l-9.683,4.848v-3.545l8.053-2.118Z" transform="translate(-321.938 -154.645)"/><path class="j" d="M326.18,164.839l5.147-2.574V161.8l-5.147,2.574Z" transform="translate(-323.513 -157.299)"/><path class="j" d="M326.18,177.548l5.147-2.574v-.464l-5.147,2.574Z" transform="translate(-323.513 -162.018)"/></g><g transform="translate(53.058 17.887)"><path class="c" d="M343.1,219.949l-.769-.385V141.509l.769.385Z" transform="translate(-342.332 -140.04)"/><path class="p" d="M346.61,217.747l-3.054,1.527V141.219l3.054-1.527Z" transform="translate(-342.786 -139.365)"/><path class="q" d="M342.332,140.641l.769.385,3.054-1.527-.748-.327Z" transform="translate(-342.332 -139.171)"/></g><g transform="translate(58.363 18.71)"><g transform="translate(0 26.938)"><g transform="translate(0.83)"><path class="j" d="M352.09,203.507V186.946l7.224-3.613v16.561Z" transform="translate(-352.09 -183.333)"/><path class="k" d="M359.131,200.068l-6.328,3.165V187.567l6.328-3.165Z" transform="translate(-352.355 -183.73)"/><path class="j" d="M357.939,202.384l-.5.252V186.971l.5-.252Z" transform="translate(-354.075 -184.59)"/></g><path class="c" d="M365.211,200.71l-1.63-.815V183.35l1.63.815Z" transform="translate(-355.529 -183.339)"/><rect class="d" width="2.671" height="19.62" transform="translate(0 2.128)"/><path class="n" d="M362.032,210.484,355.021,214v-1.638l5.382-2.7Z" transform="translate(-352.349 -193.114)"/><path class="d" d="M360.454,184.165l-9.683,4.848v-3.545l8.053-2.118Z" transform="translate(-350.771 -183.339)"/><path class="j" d="M355.013,193.534l5.147-2.574V190.5l-5.147,2.574Z" transform="translate(-352.346 -185.993)"/><path class="j" d="M355.013,206.242l5.147-2.574V203.2l-5.147,2.574Z" transform="translate(-352.346 -190.713)"/></g><g transform="translate(0.83)"><path class="j" d="M352.09,160.654V144.093l7.224-3.613v16.561Z" transform="translate(-352.09 -140.48)"/><path class="k" d="M359.131,157.214l-6.328,3.165V144.714l6.328-3.165Z" transform="translate(-352.355 -140.877)"/><path class="j" d="M357.939,159.531l-.5.252V144.118l.5-.252Z" transform="translate(-354.075 -141.737)"/></g><path class="c" d="M365.211,157.856l-1.63-.815V140.5l1.63.815Z" transform="translate(-355.529 -140.486)"/><rect class="d" width="2.671" height="19.62" transform="translate(0 2.128)"/><path class="n" d="M362.032,167.631l-7.011,3.521v-1.638l5.382-2.7Z" transform="translate(-352.349 -150.261)"/><path class="d" d="M360.454,141.312l-9.683,4.848v-3.545l8.053-2.118Z" transform="translate(-350.771 -140.486)"/><path class="j" d="M355.013,150.681l5.147-2.574v-.464l-5.147,2.574Z" transform="translate(-352.346 -143.14)"/><path class="j" d="M355.013,163.389l5.147-2.574v-.465l-5.147,2.574Z" transform="translate(-352.346 -147.86)"/></g><g transform="translate(71.183 8.987)"><path class="c" d="M371.934,205.79l-.769-.385V127.35l.769.385Z" transform="translate(-371.165 -125.881)"/><path class="p" d="M375.442,203.588l-3.054,1.527V127.06l3.054-1.527Z" transform="translate(-371.619 -125.206)"/><path class="q" d="M371.165,126.482l.769.385,3.054-1.527-.748-.327Z" transform="translate(-371.165 -125.013)"/></g><g transform="translate(76.728 9.867)"><g transform="translate(0 26.938)"><g transform="translate(0.83)"><path class="j" d="M381.3,189.44V172.879l7.224-3.613v16.561Z" transform="translate(-381.304 -169.266)"/><path class="k" d="M388.345,186l-6.328,3.165V173.5l6.328-3.165Z" transform="translate(-381.569 -169.663)"/><path class="j" d="M387.153,188.317l-.5.252V172.9l.5-.252Z" transform="translate(-383.289 -170.524)"/></g><path class="c" d="M394.426,186.643l-1.63-.815V169.283l1.63.815Z" transform="translate(-384.743 -169.272)"/><rect class="d" width="2.672" height="19.62" transform="translate(0 2.128)"/><path class="n" d="M391.246,196.417l-7.011,3.521V198.3l5.382-2.7Z" transform="translate(-381.563 -179.047)"/><path class="d" d="M389.668,170.1l-9.683,4.848V171.4l8.053-2.118Z" transform="translate(-379.985 -169.272)"/><path class="j" d="M384.227,179.467l5.147-2.574v-.464L384.227,179Z" transform="translate(-381.56 -171.926)"/><path class="j" d="M384.227,192.176l5.147-2.574v-.465l-5.147,2.574Z" transform="translate(-381.56 -176.646)"/></g><g transform="translate(0.83)"><path class="j" d="M381.3,146.587V130.026l7.224-3.613v16.561Z" transform="translate(-381.304 -126.413)"/><path class="k" d="M388.345,143.147l-6.328,3.165V130.647l6.328-3.165Z" transform="translate(-381.569 -126.81)"/><path class="j" d="M387.153,145.464l-.5.252V130.051l.5-.252Z" transform="translate(-383.289 -127.67)"/></g><path class="c" d="M394.426,143.789l-1.63-.815V126.43l1.63.815Z" transform="translate(-384.743 -126.419)"/><rect class="d" width="2.672" height="19.62" transform="translate(0 2.128)"/><path class="n" d="M391.246,153.564l-7.011,3.521v-1.638l5.382-2.7Z" transform="translate(-381.563 -136.194)"/><path class="d" d="M389.668,127.245l-9.683,4.848v-3.545l8.053-2.118Z" transform="translate(-379.985 -126.419)"/><path class="j" d="M384.227,136.614l5.147-2.574v-.464l-5.147,2.574Z" transform="translate(-381.56 -129.073)"/><path class="j" d="M384.227,149.322l5.147-2.574v-.464l-5.147,2.574Z" transform="translate(-381.56 -133.793)"/></g><g transform="translate(89.548)"><path class="c" d="M401.148,191.494l-.77-.385V113.054l.77.385Z" transform="translate(-400.379 -111.585)"/><path class="p" d="M404.657,189.292,401.6,190.82V112.764l3.054-1.527Z" transform="translate(-400.833 -110.91)"/><path class="q" d="M400.379,112.186l.769.385,3.054-1.527-.748-.327Z" transform="translate(-400.379 -110.717)"/></g><g transform="translate(95.092 1.216)"><g transform="translate(0 50.541)"><g transform="translate(0.83)"><path class="j" d="M410.519,213.225V196.663l7.224-3.613v16.561Z" transform="translate(-410.519 -193.051)"/><path class="k" d="M417.559,209.785l-6.328,3.165V197.284l6.328-3.165Z" transform="translate(-410.783 -193.448)"/><path class="j" d="M416.367,212.1l-.5.252V196.688l.5-.252Z" transform="translate(-412.504 -194.308)"/></g><path class="c" d="M423.64,210.427l-1.63-.815V193.067l1.63.815Z" transform="translate(-413.957 -193.057)"/><rect class="d" width="2.671" height="19.62" transform="translate(0 2.128)"/><path class="n" d="M420.46,220.2l-7.011,3.521v-1.638l5.382-2.7Z" transform="translate(-410.777 -202.831)"/><path class="d" d="M418.882,193.882,409.2,198.73v-3.545l8.053-2.118Z" transform="translate(-409.199 -193.057)"/><path class="j" d="M413.441,203.251l5.147-2.574v-.464l-5.147,2.574Z" transform="translate(-410.775 -195.711)"/><path class="j" d="M413.441,215.96l5.147-2.574v-.464l-5.147,2.574Z" transform="translate(-410.775 -200.43)"/></g><g transform="translate(0 26.938)"><g transform="translate(0.83)"><path class="j" d="M410.519,175.678V159.117l7.224-3.613v16.561Z" transform="translate(-410.519 -155.504)"/><path class="k" d="M417.559,172.239l-6.328,3.165V159.738l6.328-3.165Z" transform="translate(-410.783 -155.901)"/><path class="j" d="M416.367,174.555l-.5.252V159.142l.5-.252Z" transform="translate(-412.504 -156.762)"/></g><path class="c" d="M423.64,172.881l-1.63-.815V155.521l1.63.815Z" transform="translate(-413.957 -155.51)"/><rect class="d" width="2.671" height="19.62" transform="translate(0 2.128)"/><path class="n" d="M420.46,182.655l-7.011,3.521v-1.638l5.382-2.7Z" transform="translate(-410.777 -165.285)"/><path class="d" d="M418.882,156.336l-9.683,4.848v-3.545l8.053-2.118Z" transform="translate(-409.199 -155.51)"/><path class="j" d="M413.441,165.7l5.147-2.574v-.464l-5.147,2.574Z" transform="translate(-410.775 -158.164)"/><path class="j" d="M413.441,178.414l5.147-2.574v-.464l-5.147,2.574Z" transform="translate(-410.775 -162.884)"/></g><g transform="translate(0.83)"><path class="j" d="M410.519,132.825V116.264l7.224-3.613v16.561Z" transform="translate(-410.519 -112.651)"/><path class="k" d="M417.559,129.385l-6.328,3.165V116.885l6.328-3.165Z" transform="translate(-410.783 -113.048)"/><path class="j" d="M416.367,131.7l-.5.252V116.289l.5-.252Z" transform="translate(-412.504 -113.908)"/></g><path class="c" d="M423.64,130.027l-1.63-.815V112.668l1.63.815Z" transform="translate(-413.957 -112.657)"/><rect class="d" width="2.671" height="19.62" transform="translate(0 2.128)"/><path class="n" d="M420.46,139.8l-7.011,3.521v-1.638l5.382-2.7Z" transform="translate(-410.777 -122.432)"/><path class="d" d="M418.882,113.483,409.2,118.33v-3.545l8.053-2.118Z" transform="translate(-409.199 -112.657)"/><path class="j" d="M413.441,122.852l5.147-2.574v-.464l-5.147,2.574Z" transform="translate(-410.775 -115.311)"/><path class="j" d="M413.441,135.56l5.147-2.574v-.464l-5.147,2.574Z" transform="translate(-410.775 -120.031)"/></g></g><g transform="translate(173.578 40.453)"><g transform="translate(5.106 9.723)"><g transform="translate(0 50.541)"><g transform="translate(0.83)"><path class="j" d="M436.693,199.008V182.446l7.224-3.613V195.4Z" transform="translate(-436.693 -178.834)"/><path class="k" d="M443.734,195.568l-6.328,3.165V183.067l6.328-3.165Z" transform="translate(-436.958 -179.231)"/><path class="j" d="M442.542,197.885l-.5.252V182.472l.5-.252Z" transform="translate(-438.678 -180.091)"/></g><path class="c" d="M449.814,196.21l-1.63-.815V178.851l1.63.815Z" transform="translate(-440.132 -178.84)"/><rect class="d" width="2.671" height="19.62" transform="translate(0 2.128)"/><path class="n" d="M446.635,205.985l-7.011,3.521v-1.638l5.382-2.7Z" transform="translate(-436.952 -188.615)"/><path class="d" d="M445.057,179.666l-9.683,4.848v-3.545l8.053-2.118Z" transform="translate(-435.374 -178.84)"/><path class="j" d="M439.616,189.035l5.147-2.574V186l-5.147,2.574Z" transform="translate(-436.949 -181.494)"/><path class="j" d="M439.616,201.743l5.147-2.574V198.7l-5.147,2.574Z" transform="translate(-436.949 -186.214)"/></g><g transform="translate(0 26.938)"><g transform="translate(0.83)"><path class="j" d="M436.693,161.462V144.9l7.224-3.613v16.561Z" transform="translate(-436.693 -141.288)"/><path class="k" d="M443.734,158.022l-6.328,3.165V145.521l6.328-3.165Z" transform="translate(-436.958 -141.685)"/><path class="j" d="M442.542,160.339l-.5.252V144.925l.5-.252Z" transform="translate(-438.678 -142.545)"/></g><path class="c" d="M449.814,158.664l-1.63-.815V141.3l1.63.815Z" transform="translate(-440.132 -141.294)"/><rect class="d" width="2.671" height="19.62" transform="translate(0 2.128)"/><path class="n" d="M446.635,168.438l-7.011,3.521v-1.638l5.382-2.7Z" transform="translate(-436.952 -151.068)"/><path class="d" d="M445.057,142.119l-9.683,4.848v-3.545l8.053-2.118Z" transform="translate(-435.374 -141.294)"/><path class="j" d="M439.616,151.488l5.147-2.574v-.464l-5.147,2.574Z" transform="translate(-436.949 -143.947)"/><path class="j" d="M439.616,164.2l5.147-2.574v-.464l-5.147,2.574Z" transform="translate(-436.949 -148.667)"/></g><g transform="translate(0.83)"><path class="j" d="M436.693,118.608V102.047l7.224-3.613V115Z" transform="translate(-436.693 -98.434)"/><path class="k" d="M443.734,115.169l-6.328,3.165V102.668l6.328-3.165Z" transform="translate(-436.958 -98.831)"/><path class="j" d="M442.542,117.485l-.5.252V102.072l.5-.252Z" transform="translate(-438.678 -99.692)"/></g><path class="c" d="M449.814,115.811l-1.63-.815V98.451l1.63.815Z" transform="translate(-440.132 -98.441)"/><rect class="d" width="2.671" height="19.62" transform="translate(0 2.128)"/><path class="n" d="M446.635,125.585l-7.011,3.521v-1.638l5.382-2.7Z" transform="translate(-436.952 -108.215)"/><path class="d" d="M445.057,99.266l-9.683,4.848v-3.545l8.053-2.118Z" transform="translate(-435.374 -98.441)"/><path class="j" d="M439.616,108.635l5.147-2.574V105.6l-5.147,2.574Z" transform="translate(-436.949 -101.094)"/><path class="j" d="M439.616,121.344l5.147-2.574v-.465l-5.147,2.574Z" transform="translate(-436.949 -105.814)"/></g><g transform="translate(0 8.96)"><path class="r" d="M428.02,178l-.77-.385V99.558l.77.385Z" transform="translate(-427.251 -98.088)"/><path class="s" d="M431.529,175.8l-3.054,1.527V99.267l3.054-1.527Z" transform="translate(-427.705 -97.413)"/><path class="q" d="M427.251,98.689l.769.385,3.054-1.527-.748-.327Z" transform="translate(-427.251 -97.22)"/></g><g transform="translate(17.926)"><path class="c" d="M456.537,163.745l-.769-.385V85.3l.769.385Z" transform="translate(-455.768 -83.835)"/><path class="p" d="M460.045,161.543l-3.054,1.527V85.015l3.054-1.527Z" transform="translate(-456.222 -83.16)"/><path class="q" d="M455.768,84.437l.769.385,3.054-1.527-.748-.327Z" transform="translate(-455.768 -82.967)"/></g><path class="o" d="M445.788,100.563l-2.813,16.327-1.244,2.258,5.687-2.856V99.747Z" transform="translate(-432.628 -89.199)"/><path class="o" d="M445.788,143.411l-2.813,16.327L441.73,162l5.687-2.856V142.6Z" transform="translate(-432.628 -105.112)"/><path class="o" d="M445.788,181.024l-2.813,16.327-1.244,2.258,5.687-2.856V180.209Z" transform="translate(-432.628 -119.081)"/></g><g transform="translate(1.192 77.268)"><path class="l" d="M216.71,176.854l-63.691-31.887v-2.189l63.691,31.887Z" transform="translate(-153.019 -141.995)"/><path class="e" d="M216.711,174.2,153.02,142.32l1.574-.787,63.691,31.885Z" transform="translate(-153.02 -141.533)"/><g transform="translate(62.114 13.489)"><path class="t" d="M254.334,185.317l35.4-17.62v-2.13l-35.4,17.561Z" transform="translate(-252.76 -163.948)"/><path class="e" d="M253.4,182.174l36.973-18.337-1.573-.846-36.974,18.4Z" transform="translate(-251.83 -162.991)"/></g></g><g transform="translate(0 4.291)"><g transform="translate(134.532)"><path class="r" d="M430.066,63.122,365.136,30.642V27.327l64.929,32.479Z" transform="translate(-365.136 -26.142)"/><path class="e" d="M430.067,59.109,365.138,26.633l2.383-1.192L432.45,57.918Z" transform="translate(-365.137 -25.442)"/></g><g transform="translate(1.689 0.287)"><path class="r" d="M157.6,98.954,290.454,32.566V29.251L157.6,95.639Z" transform="translate(-155.219 -27.143)"/><path class="e" d="M156.194,94.4,290.9,27.111,288.468,25.9,153.81,93.205Z" transform="translate(-153.81 -25.897)"/></g><g transform="translate(0 67.244)"><path class="c" d="M216.053,170.093l-64.929-32.479V134.3l64.929,32.479Z" transform="translate(-151.124 -133.113)"/><path class="e" d="M216.054,166.08,151.125,133.6l2.383-1.192,64.929,32.476Z" transform="translate(-151.124 -132.413)"/></g><g transform="translate(62.542 76.427)"><path class="d" d="M254.407,177.012l41.636-20.856V152.93L254.407,173.7Z" transform="translate(-252.023 -149.216)"/><path class="e" d="M253,171.506l41.635-20.764,2.489-3.721-46.508,23.293Z" transform="translate(-250.614 -147.021)"/></g></g><g transform="translate(164.637 42.119)"><path class="d" d="M415.531,105.96l33.681-16.874v-2.13l-33.68,16.816Z" transform="translate(-413.957 -86.115)"/><path class="e" d="M414.6,103.277l33.68-16.813-1.573-.845-33.68,16.872Z" transform="translate(-413.027 -85.618)"/></g><g transform="translate(158.131 35.709)"><path class="d" d="M406.471,101.455,448.107,80.6l-.046-3.295L406.471,98.14Z" transform="translate(-404.086 -76.12)"/><path class="e" d="M405.061,97.443l41.59-20.833-2.382-1.19L402.678,96.252Z" transform="translate(-402.678 -75.421)"/></g><path class="u" d="M218.829,160.416,186.14,123.523,158.73,130.3Z" transform="translate(-153.949 -57.576)"/><g transform="translate(146.533 119.286)"><path class="j" d="M393.38,226.957l-9.153,4.578V212.951l9.153-4.578Z" transform="translate(-384.227 -208.374)"/><path class="c" d="M396.568,209.072v17.307l1.4.578V208.374Z" transform="translate(-388.81 -208.374)"/><path class="e" d="M384.227,242.171l9.153-4.578-1.4-.578-7.757,3.761Z" transform="translate(-384.227 -219.011)"/></g><g transform="translate(127.493 128.581)"><path class="j" d="M363.092,241.743l-9.153,4.578V227.738l9.153-4.578Z" transform="translate(-353.939 -223.161)"/><path class="c" d="M366.279,223.859v17.307l1.4.578V223.161Z" transform="translate(-358.522 -223.161)"/><path class="e" d="M353.939,256.958l9.153-4.578-1.4-.578-7.757,3.761Z" transform="translate(-353.939 -233.798)"/></g><g transform="translate(109.67 137.398)"><path class="j" d="M334.74,255.77l-9.153,4.578V241.765l9.153-4.578Z" transform="translate(-325.587 -237.187)"/><path class="c" d="M337.927,237.885v17.307l1.4.578V237.187Z" transform="translate(-330.17 -237.187)"/><path class="e" d="M325.587,270.985l9.153-4.578-1.4-.578-7.757,3.761Z" transform="translate(-325.587 -247.824)"/></g><path class="v" d="M202.334,84.562,334.5,18.615l33.336,36.991-132.609,66.08Z" transform="translate(-170.142 -18.615)"/><g transform="translate(89.842 37.764)"><path class="o" d="M342.94,256.237l-5.732-2.867-5.155-.955L326.176,228.3l-1.246-1.351-.8.738-3.475,2.694,5.154,25.121,8.131,3.184Z" transform="translate(-303.929 -133.75)"/><g transform="translate(80.375 23.35)"><g transform="translate(0 6.85)"><g transform="translate(0 61.685)"><path class="c" d="M427.636,234.063,421.9,231.2v-1.777l5.732,2.867Z" transform="translate(-421.904 -226.553)"/><path class="e" d="M427.636,230.592l-5.732-2.866,5.732-2.866,5.732,2.866Z" transform="translate(-421.904 -224.86)"/><path class="d" d="M436.754,231.2l-5.732,2.867v-1.777l5.732-2.867Z" transform="translate(-425.29 -226.553)"/></g><g transform="translate(0.899 60.541)"><path class="c" d="M428.167,230.8l-4.833-2.417v-1.5l4.833,2.417Z" transform="translate(-423.333 -224.467)"/><path class="e" d="M428.167,227.873l-4.833-2.417,4.833-2.417L433,225.456Z" transform="translate(-423.333 -223.04)"/><path class="d" d="M435.856,228.383l-4.833,2.417v-1.5l4.833-2.417Z" transform="translate(-426.189 -224.467)"/></g><g transform="translate(2.54)"><g transform="translate(0 58.693)"><path class="p" d="M429.136,222.639h-3.192V225.1h6.384v-2.462Z" transform="translate(-425.944 -221.043)"/><path class="p" d="M431.394,224.484c1.247.624,1.247,1.634,0,2.257a5.685,5.685,0,0,1-4.514,0c-1.247-.624-1.247-1.634,0-2.257A5.685,5.685,0,0,1,431.394,224.484Z" transform="translate(-425.944 -221.555)"/><ellipse class="e" cx="3.192" cy="1.596" rx="3.192" ry="1.596" transform="translate(0)"/></g><g transform="translate(0.372)"><path class="p" d="M429.356,128.975h-2.82V187.3h5.64V128.975Z" transform="translate(-426.536 -127.565)"/><ellipse class="p" cx="2.82" cy="1.41" rx="2.82" ry="1.41" transform="translate(0 58.324)"/><path class="w" d="M431.35,127.145c1.1.551,1.1,1.443,0,1.994a5.025,5.025,0,0,1-3.988,0c-1.1-.551-1.1-1.443,0-1.994A5.02,5.02,0,0,1,431.35,127.145Z" transform="translate(-426.536 -126.732)"/></g></g></g><g transform="translate(2.54 4.757)"><path class="p" d="M429.136,125.94h-3.192V128.4h6.384V125.94Z" transform="translate(-425.944 -124.344)"/><ellipse class="p" cx="3.192" cy="1.596" rx="3.192" ry="1.596" transform="translate(0 2.462)"/><ellipse class="w" cx="3.192" cy="1.596" rx="3.192" ry="1.596" transform="translate(0)"/></g><g transform="translate(0.899 2.34)"><path class="x" d="M428.167,127.317l-4.833-2.417v-1.5l4.833,2.417Z" transform="translate(-423.333 -120.984)"/><path class="w" d="M428.167,124.39l-4.833-2.417,4.833-2.417L433,121.973Z" transform="translate(-423.333 -119.557)"/><path class="y" d="M435.856,124.9l-4.833,2.417v-1.5l4.833-2.417Z" transform="translate(-426.189 -120.984)"/></g><path class="c" d="M427.636,125.037l-5.732-2.867v-1.777l5.732,2.867Z" transform="translate(-421.904 -117.528)"/><path class="w" d="M427.636,121.566,421.9,118.7l5.732-2.866,5.732,2.866Z" transform="translate(-421.904 -115.834)"/><path class="p" d="M436.754,122.171l-5.732,2.867V123.26l5.732-2.867Z" transform="translate(-425.29 -117.528)"/></g><path class="o" d="M385.747,126.555l.583-1.291-9.241,4.548.429-3.154L310.683,158l4.312,36.134,5.435-4.213,5.382-4.991,1.63-1.511,3.137.1.84-.513,2.984-2.512v-1.353l6.49-3.967,4.674-5.269,3.137-.544.769.221L352.526,168v-.562l4.388-2.831.005,4.417L367.067,158l.769.6,3.058-2.674,0,38.578,13.838.08.512-1.521.563-.263.526-1.235L385,190.393l.015-2.465.726-.628.108-57.572-.652-.085-.041-2.221,1.173-.576Z" transform="translate(-300.223 -95.987)"/><g transform="translate(10.437 57.971)"><g transform="translate(0 6.85)"><g transform="translate(0 61.685)"><path class="c" d="M316.38,289.139l-5.732-2.867V284.5l5.732,2.867Z" transform="translate(-310.648 -281.63)"/><path class="e" d="M316.38,285.668l-5.732-2.866,5.732-2.866,5.732,2.866Z" transform="translate(-310.648 -279.936)"/><path class="d" d="M325.5,286.273l-5.732,2.867v-1.777L325.5,284.5Z" transform="translate(-314.034 -281.63)"/></g><g transform="translate(0.899 60.541)"><path class="c" d="M316.911,285.876l-4.833-2.417v-1.5l4.833,2.417Z" transform="translate(-312.077 -279.543)"/><path class="e" d="M316.911,282.949l-4.833-2.417,4.833-2.417,4.833,2.417Z" transform="translate(-312.077 -278.116)"/><path class="d" d="M324.6,283.459l-4.833,2.417v-1.5l4.833-2.417Z" transform="translate(-314.933 -279.543)"/></g><g transform="translate(2.54)"><g transform="translate(0 58.693)"><path class="p" d="M317.88,277.715h-3.192v2.462h6.384v-2.462Z" transform="translate(-314.688 -276.12)"/><ellipse class="p" cx="3.192" cy="1.596" rx="3.192" ry="1.596" transform="translate(0 2.462)"/><path class="e" d="M320.138,275.644c1.247.624,1.247,1.634,0,2.257a5.685,5.685,0,0,1-4.514,0c-1.247-.624-1.247-1.634,0-2.257A5.685,5.685,0,0,1,320.138,275.644Z" transform="translate(-314.689 -275.177)"/></g><g transform="translate(0.372)"><path class="p" d="M318.1,184.051h-2.82v58.324h5.64V184.051Z" transform="translate(-315.28 -182.641)"/><ellipse class="p" cx="2.82" cy="1.41" rx="2.82" ry="1.41" transform="translate(0 58.324)"/><ellipse class="w" cx="2.82" cy="1.41" rx="2.82" ry="1.41" transform="translate(0)"/></g></g></g><g transform="translate(2.54 4.757)"><path class="p" d="M317.88,181.016h-3.192v2.462h6.384v-2.462Z" transform="translate(-314.688 -179.42)"/><ellipse class="p" cx="3.192" cy="1.596" rx="3.192" ry="1.596" transform="translate(0 2.462)"/><path class="w" d="M320.138,178.945c1.247.623,1.247,1.634,0,2.257a5.68,5.68,0,0,1-4.514,0c-1.247-.623-1.247-1.634,0-2.257A5.68,5.68,0,0,1,320.138,178.945Z" transform="translate(-314.689 -178.477)"/></g><g transform="translate(0.899 2.34)"><path class="x" d="M316.911,182.393l-4.833-2.417v-1.5l4.833,2.417Z" transform="translate(-312.077 -176.06)"/><path class="w" d="M316.911,179.466l-4.833-2.417,4.833-2.417,4.833,2.417Z" transform="translate(-312.077 -174.633)"/><path class="y" d="M324.6,179.976l-4.833,2.417v-1.5l4.833-2.417Z" transform="translate(-314.933 -176.06)"/></g><path class="c" d="M316.38,180.114l-5.732-2.867V175.47l5.732,2.867Z" transform="translate(-310.648 -172.604)"/><path class="w" d="M316.38,176.642l-5.732-2.866,5.732-2.866,5.732,2.866Z" transform="translate(-310.648 -170.91)"/><path class="p" d="M325.5,177.247l-5.732,2.867v-1.777l5.732-2.867Z" transform="translate(-314.034 -172.604)"/></g><g transform="translate(33.279 46.442)"><g transform="translate(0 6.85)"><g transform="translate(0 61.685)"><path class="c" d="M352.716,270.8l-5.732-2.867v-1.777l5.732,2.867Z" transform="translate(-346.984 -263.288)"/><path class="e" d="M352.716,267.327l-5.732-2.866,5.732-2.866,5.732,2.866Z" transform="translate(-346.984 -261.595)"/><path class="d" d="M361.835,267.932,356.1,270.8v-1.777l5.732-2.867Z" transform="translate(-350.371 -263.288)"/></g><g transform="translate(0.899 60.541)"><path class="c" d="M353.247,267.535l-4.833-2.417v-1.5l4.833,2.417Z" transform="translate(-348.414 -261.202)"/><path class="e" d="M353.247,264.608l-4.833-2.417,4.833-2.417,4.833,2.417Z" transform="translate(-348.414 -259.774)"/><path class="d" d="M360.936,265.117l-4.833,2.417v-1.5l4.833-2.417Z" transform="translate(-351.269 -261.202)"/></g><g transform="translate(2.54)"><g transform="translate(0 58.693)"><path class="p" d="M354.217,259.374h-3.192v2.462h6.384v-2.462Z" transform="translate(-351.025 -257.778)"/><ellipse class="p" cx="3.192" cy="1.596" rx="3.192" ry="1.596" transform="translate(0 2.462)"/><ellipse class="e" cx="3.192" cy="1.596" rx="3.192" ry="1.596" transform="translate(0)"/></g><g transform="translate(0.372)"><path class="p" d="M354.437,165.709h-2.82v58.324h5.64V165.709Z" transform="translate(-351.617 -164.299)"/><ellipse class="p" cx="2.82" cy="1.41" rx="2.82" ry="1.41" transform="translate(0 58.324)"/><ellipse class="w" cx="2.82" cy="1.41" rx="2.82" ry="1.41"/></g></g></g><g transform="translate(2.54 4.757)"><path class="p" d="M354.217,162.675h-3.192v2.462h6.384v-2.462Z" transform="translate(-351.025 -161.079)"/><ellipse class="p" cx="3.192" cy="1.596" rx="3.192" ry="1.596" transform="translate(0 2.462)"/><ellipse class="w" cx="3.192" cy="1.596" rx="3.192" ry="1.596" transform="translate(0)"/></g><g transform="translate(0.899 2.34)"><path class="x" d="M353.247,164.052l-4.833-2.417v-1.5l4.833,2.417Z" transform="translate(-348.414 -157.719)"/><path class="w" d="M353.247,161.125l-4.833-2.417,4.833-2.417,4.833,2.417Z" transform="translate(-348.414 -156.291)"/><path class="y" d="M360.936,161.634l-4.833,2.417v-1.5l4.833-2.417Z" transform="translate(-351.269 -157.719)"/></g><path class="c" d="M352.716,161.772l-5.732-2.867v-1.777l5.732,2.867Z" transform="translate(-346.984 -154.262)"/><path class="w" d="M352.716,158.3l-5.732-2.866,5.732-2.866,5.732,2.866Z" transform="translate(-346.984 -152.569)"/><path class="p" d="M361.835,158.906l-5.732,2.867v-1.777l5.732-2.867Z" transform="translate(-350.371 -154.262)"/></g><g transform="translate(56.378 35.006)"><g transform="translate(0 6.85)"><g transform="translate(0 61.685)"><path class="c" d="M389.462,252.606l-5.732-2.867v-1.777l5.732,2.867Z" transform="translate(-383.729 -245.096)"/><path class="e" d="M389.462,249.135l-5.732-2.866,5.732-2.866,5.732,2.866Z" transform="translate(-383.729 -243.403)"/><path class="d" d="M398.58,249.739l-5.732,2.867v-1.777l5.732-2.867Z" transform="translate(-387.116 -245.096)"/></g><g transform="translate(0.899 60.541)"><path class="c" d="M389.992,249.342l-4.833-2.417v-1.5l4.833,2.417Z" transform="translate(-385.159 -243.01)"/><path class="e" d="M389.992,246.415,385.159,244l4.833-2.417L394.826,244Z" transform="translate(-385.159 -241.582)"/><path class="d" d="M397.681,246.925l-4.833,2.417v-1.5l4.833-2.417Z" transform="translate(-388.015 -243.01)"/></g><g transform="translate(2.54)"><g transform="translate(0 58.693)"><path class="p" d="M390.962,241.182H387.77v2.462h6.384v-2.462Z" transform="translate(-387.77 -239.586)"/><ellipse class="p" cx="3.192" cy="1.596" rx="3.192" ry="1.596" transform="translate(0 2.462)"/><path class="e" d="M393.219,239.111c1.247.623,1.247,1.634,0,2.257a5.68,5.68,0,0,1-4.514,0c-1.247-.623-1.247-1.634,0-2.257A5.68,5.68,0,0,1,393.219,239.111Z" transform="translate(-387.77 -238.643)"/></g><g transform="translate(0.372)"><path class="p" d="M391.182,147.517h-2.82v58.324H394V147.517Z" transform="translate(-388.362 -146.107)"/><ellipse class="p" cx="2.82" cy="1.41" rx="2.82" ry="1.41" transform="translate(0 58.324)"/><ellipse class="w" cx="2.82" cy="1.41" rx="2.82" ry="1.41"/></g></g></g><g transform="translate(2.54 4.757)"><path class="p" d="M390.962,144.483H387.77v2.462h6.384v-2.462Z" transform="translate(-387.77 -142.887)"/><ellipse class="p" cx="3.192" cy="1.596" rx="3.192" ry="1.596" transform="translate(0 2.462)"/><path class="w" d="M393.219,142.411c1.247.624,1.247,1.634,0,2.257a5.685,5.685,0,0,1-4.514,0c-1.247-.624-1.247-1.634,0-2.257A5.685,5.685,0,0,1,393.219,142.411Z" transform="translate(-387.77 -141.944)"/></g><g transform="translate(0.899 2.34)"><path class="x" d="M389.992,145.86l-4.833-2.417v-1.5l4.833,2.417Z" transform="translate(-385.159 -139.527)"/><path class="w" d="M389.992,142.933l-4.833-2.417,4.833-2.417,4.833,2.417Z" transform="translate(-385.159 -138.099)"/><path class="y" d="M397.681,143.442l-4.833,2.417v-1.5l4.833-2.417Z" transform="translate(-388.015 -139.527)"/></g><path class="c" d="M389.462,143.58l-5.732-2.867v-1.777l5.732,2.867Z" transform="translate(-383.729 -136.07)"/><path class="w" d="M389.462,140.109l-5.732-2.866,5.732-2.866,5.732,2.866Z" transform="translate(-383.729 -134.377)"/><path class="p" d="M398.58,140.713l-5.732,2.867V141.8l5.732-2.867Z" transform="translate(-387.116 -136.07)"/></g><path class="z" d="M341.6,87.006,324.515,78.69l-30.471,36.048,8.053,12.492,2.384,1.279Z" transform="translate(-294.044 -78.69)"/><path class="aa" d="M342.517,78.69l40.2,6.514,10.7,5.461L359.6,87.006Z" transform="translate(-312.046 -78.69)"/><g transform="translate(16.169 9.666)"><path class="p" d="M395.528,110.811l-75.762,37.305V137.273l36.361-43.207,39.4,5.9Z" transform="translate(-319.766 -94.066)"/><g transform="translate(2.958 3.097)"><path class="u" d="M393.447,107.174l.235,5.44-69.209,34.014v1.918L395.1,113.838l-.234-6.449Z" transform="translate(-324.472 -102.031)"/><path class="ab" d="M393.447,104.136l-34.37-5.143-34.6,40.263v4.334l69.209-34.014Z" transform="translate(-324.472 -98.993)"/></g></g><path class="c" d="M316.38,161v10.843l-5.732-2.878V157.942Z" transform="translate(-300.21 -108.123)"/><path class="u" d="M310.648,132.519l5.732,3.054,36.387-43.207-5.732-2.878Z" transform="translate(-300.21 -82.7)"/><path class="ac" d="M368.532,89.488l5.732,2.878,39.375,5.913L407.907,95.4Z" transform="translate(-321.708 -82.7)"/><path class="e" d="M315.453,165.967l-1.538.769-5.763-2.884,1.58-.79Z" transform="translate(-299.283 -110.024)"/><path class="x" d="M314.841,167.667V169.7l-4.172-1.979-.022-2.154Z" transform="translate(-300.21 -110.955)"/><path class="p" d="M318.857,167.683v2.029l-1.538.79v-2.05Z" transform="translate(-302.688 -111.741)"/></g><path class="ad" d="M158.73,91.338l27.41-6.776L318.306,18.615,290.872,25.3Z" transform="translate(-153.949 -18.615)"/><path class="o" d="M440.855,233.728v.834l1.213,2.327v.832l1.335,2.267v.84l4.772-1.761v-2.513l-6.466-3.246Z" transform="translate(-258.725 -98.348)"/><path class="o" d="M366.073,195.793l1.4,23.46.769,1.074,3.054,5.917v3.438l4.075.683,5.732,2.867-10.822.934-6.545-1.531-1.271-26.364-.956-1.149-.289-5.515,3.115-3.511Z" transform="translate(-229.149 -84.416)"/><path class="o" d="M389.461,144.051l-.673,1.092.673.337-1.162.581v2.21l.681.091v57.583l-.681.651v2.462l1.162,1.137-1.162.917-.558.265-1.006,1.275-3.006-1.5v-1.777l.9-.449v-1.145l1.641-.82v-1.848a1.105,1.105,0,0,1,.41-.783l-.064-56.82a.953.953,0,0,1-.346-.722v-1.162Z" transform="translate(-237.509 -65.2)"/><path class="o" d="M352.716,162.136l-.685,1.154.685.343-.824.75v2.1l.558.048v57.582l-.8.658v2.462l1.067,1.12-1.514.742-.512.288-1.055,1.25-2.651-1.326v-1.778l.9-.449V225.93l1.641-.821v-1.848a.829.829,0,0,1,.372-.749V165.685a1,1,0,0,1-.372-.749v-1.23Z" transform="translate(-223.863 -71.916)"/><path class="ae" d="M315.768,181.131l.685.343-.824.75v2.1l.558.048V241.95l-.8.658v2.462l1.067,1.12-1.514.742-.512.288-1.055,1.25-2.652-1.326v-1.778l.9-.449v-1.144l1.641-.821V241.1a.829.829,0,0,1,.372-.749V183.527a1.057,1.057,0,0,1-.366-.655c-.031-.207-.006-.712-.006-1.753v-.079l-1.641-.82v-1.163Z" transform="translate(-210.395 -78.2)"/></g><path class="ae" d="M209.453,156.4l-8.679-1.957-49.649-24.833,4.78,0,27.41-6.775Z" transform="translate(-0.001 -38.703)"/><path class="af" d="M321.513,84.434l-37.822,33.493.374,10.213-20.488,13.5,7.5-.426,16.89-8.423,5.2-2.58,35.683-42.2Z" transform="translate(-41.763 -24.444)"/></g></svg>