<svg xmlns="http://www.w3.org/2000/svg" width="196.765" height="152.153" viewBox="0 0 196.765 152.153"><defs><style>.a{fill:#7ba302;}.a,.b,.c,.d,.e,.f,.g,.h,.i,.j,.k,.l{fill-rule:evenodd;}.b{fill:#bab2c4;}.c{fill:#7c7187;}.d{fill:#a096ab;}.e{fill:#739900;}.f{fill:#769d01;}.g{fill:#96c40a;}.h{fill:#56321a;}.i{fill:#325c0f;}.j{fill:#44731d;}.k{fill:#54872a;}.l{fill:#659e36;}</style></defs><g transform="translate(-827.276 -438.531)"><g transform="translate(827.276 453.652)"><g transform="translate(0 53.756)"><path class="a" d="M91.439,174.072l-82.4,46.872Z" transform="translate(-9.041 -174.072)"/><path class="a" d="M225.908,325.248l21.076,5.9,21-12.659-21.433-12.6Z" transform="translate(-134.887 -250.567)"/></g><g transform="translate(28.538 0)"><path class="b" d="M233.029,251.642l-13.334,8.35,1.06-24.82-3.432-14.027L216.3,202.132l18.869-11.768-1.754,24.226-.309,10.317,1.682,10.119-1.037,2.157Z" transform="translate(-157.847 -129.77)"/><path class="c" d="M280.749,255.588l-13.573-4.077.235-35.566,4.7-22.631,8.895,1.246.712,8.121,5.06,25.832-1,13.818-3.192-2.636Z" transform="translate(-187.373 -131.482)"/><path class="b" d="M403.783,214.465l-16.861,18.7-12.933-27.385-2.86-38.751,8.553,9.537,3.212,8.081L400.31,199.61Z" transform="translate(-247.695 -116.227)"/><path class="b" d="M339.429,154.3l-18.272,16.4-2.776,16.111,9.955,21.034.892,27.53,6.244-10.345,9.368-23.173Z" transform="translate(-217.086 -108.841)"/><path class="d" d="M376.346,225.776l-20.841-.744,2.873-28.558L352.9,183.62l6.559-29.321,6.147,30.125,6.863,7.769Z" transform="translate(-237.12 -108.841)"/><path class="b" d="M158.543,218.676l4.3,47.539L144.3,270.739l5.384-17.551-1.552-16.56,4.249-4.45.022-13.453Z" transform="translate(-116.071 -146.199)"/><path class="d" d="M210.077,302.549l-8.406-3.725.622-18.929-2.572-10.039L207.7,263.7l3.432,14.027Z" transform="translate(-148.23 -172.328)"/><path class="c" d="M89.958,246.313,77.036,235.681l1.838-24.726,4.916-4.316,1.117-11.568-1.164-11.892,17.029,2.495-7.109,21.367,4.308-1.085-7.19,21.736Z" transform="translate(-77.036 -125.6)"/><path class="d" d="M123.134,253.59l-15.311-3.828.823-18.62,7.19-21.737-4.308,1.084,7.109-21.367,12.6,10.653-.025,15.252-4.248,4.45,1.552,16.56Z" transform="translate(-94.902 -129.05)"/><path class="e" d="M179.1,118.083l22.152,2.753-.691,2.187-4.428,5.28,11.332,2.755-1.064,2.226-18.272,16.4-10.646,3.463-8.684-3.493-7.424-1.238-20.94,13.059-8.682-11.451L126,160.709l-5.605-.358L107.8,147.9,90.767,145.4l-1.628-3.451L99.66,129.666l13.4-3.8,35.214-6.077,27.933,1.874Z" transform="translate(-84.06 -87.826)"/><path class="c" d="M195.3,238.089l-7.983,6.154,2.571,10.039-.622,18.929-6.67-6.48-4.129-27-.125-20.168Z" transform="translate(-135.821 -146.714)"/><path class="b" d="M348.494,129.851l2.934,8.851-7.362-3.571Z" transform="translate(-231.991 -94.655)"/><path class="f" d="M176.964,199.619,194.5,218.11l16.1,5.7,4.383-.816,31.289,2.746,9.156-2.892,16.109-2.692,16.1-10.038,1.133-2.221-7.706-1.475L246.4,217.535l-36.39-4.6L191.4,200.389l-8.585-15.255Z" transform="translate(-135.023 -126.735)"/><path class="d" d="M309.236,193.383l-2.776,16.111,8.013,10.192-11.615.107-5.02-14.916.753-8.031Z" transform="translate(-205.165 -131.522)"/><path class="d" d="M258.828,190.365l7.424,1.238-4.7,22.631-4.474.358Z" transform="translate(-181.511 -129.77)"/><path class="g" d="M178.335,111.687l22.918,5.437-5.886,4.783,12.1,5.439-20.1,15.946-8.571,3.914-9.9-2.985-6.721-2.856L139.6,156.285l-12.261-.048-6.943-1.4L107.029,141.5l-17.891-3.262,9.755-14.971,13.4-3.8,35.214-6.077,27.933,1.874Z" transform="translate(-84.059 -84.114)"/><path class="g" d="M180.159,195.677l16.769,16.952,14,6.155,6.452-.489,30.772,2.49,9.821-3.716,15.227-1.73,17.423-10.622-4.547-5.634-7.756-1.23,3.943,3.711-10.2,5.158-15.737.227-10.146,4.771-11.615.107-17.654-3.808-4.475.358-18.612-13.468-8.585-15.255Z" transform="translate(-136.877 -123.555)"/><path class="d" d="M305.48,279.395l-.937,12.888-3.192-2.636-1.836,15.894,18.765,2.429-.892-27.53Z" transform="translate(-206.139 -181.434)"/><path class="d" d="M256.559,276.157l1.36,8.182-1.037,2.157-.719,14.458,4.622-1.842.157-23.77Z" transform="translate(-180.982 -179.082)"/><path class="a" d="M99.623,144.753l11.968,3.2,15.069,3.306,12.514-3.448,17.633,10.078L154.94,137.91l-42.952-3.365-7.01,1.99Z" transform="translate(-90.143 -97.378)"/><path class="d" d="M217.044,131.672l7.9,9.471-.771-11.417,5.357-17.343-1.51-6.692-9.7.668,4.17,6.236Z" transform="translate(-158.282 -80.635)"/><path class="c" d="M261.33,93.836l1.723,33.761,10.647.8-2.644-21.148-5.022-12.915Z" transform="translate(-183.98 -73.755)"/><path class="b" d="M234.8,134.263l12.409-6.666-.893-18.722-.83-15.039-7.61,4.976,1.51,6.692-5.357,17.343Z" transform="translate(-168.141 -73.755)"/><path class="b" d="M293.8,107.071l2.307-14L290.28,79.328l-4.332-.39-7.107-11.6-4.248,2.138,3.012,6.563,4.342,5.39Z" transform="translate(-191.676 -58.38)"/><path class="d" d="M280.2,125.053l12.4-5.952-11.853-25.64-4.342-5.39-3.874,2.918,4.921,15.3Z" transform="translate(-190.485 -70.41)"/><path class="e" d="M298.2,89.38l1.438,2.347-1.457,2.6.479.527,5.311-2.742,1.148-1.555Z" transform="translate(-205.362 -71.17)"/><path class="c" d="M204.869,107.283l4.17,6.236-5.45,19.076-9.732-.607,4.536-9.595-.915-10.886Z" transform="translate(-144.826 -81.558)"/><path class="b" d="M164.04,137l12.514-3.448,4.536-9.595-.915-10.885-8.293-3.092-2.166,8.9L169.7,130.3Z" transform="translate(-127.524 -83.125)"/><path class="d" d="M152.167,111.792l9.167-1.81-2.166,8.9-.02,11.411L153.492,137l-7.629-5.338.664-5.4Z" transform="translate(-116.976 -83.125)"/><path class="c" d="M133.007,114.494l.664-5.4,5.641-14.471L126.43,80.393l-.476,23.282-2.244,7.179Z" transform="translate(-104.12 -65.955)"/><path class="e" d="M148.208,47.973c-8.965,4.917-16.676,7.271-19.889,10.42l.785,2.037,12.883,14.229,9.167-1.809,8.293,3.092,7.391-4.225,9.7-.668,7.61-4.976,4.7.5,3.874-2.918-3.012-6.563,4.248-2.138.832-.9-17.19-6.3L166.645,49.83l-12.282-3.838Z" transform="translate(-106.795 -45.992)"/><path class="g" d="M128.319,58.393,142.7,72.454l8.832-1.905,8.389,4.195,7.487-5.615,9.218.29,7.61-4.976,4.7.5,3.247-2.446-2.481-5.405.1-1.629,4.984-1.405-7.685-3.81-9.5-2.487L166.645,49.83l-12.282-3.838-6.155,1.981C138.863,53.095,131.306,55.1,128.319,58.393Z" transform="translate(-106.795 -45.992)"/><path class="g" d="M296.839,87.126l1.889,3.083L297.4,93.024l6.938-3.77Z" transform="translate(-204.586 -69.861)"/><path class="e" d="M106.282,249.06l14.548,1.831,4.2,2.066,6.939.877-1.456,1.52-10.011,4.481-16.1-6.041-7.568-6.361-1.414-2.267Z" transform="translate(-87.707 -161.571)"/><path class="g" d="M106.282,249.06l14.7,1.674,4.053,2.223,6.938.877-11.684,4.117L105.047,252.8l-9.622-7.63Z" transform="translate(-87.707 -161.571)"/></g><g transform="translate(144.605 99.117)"><path class="a" d="M362.451,328.119c-3.7.243-6.3,2.123-5.816,4.2s3.873,3.562,7.569,3.319,6.3-2.123,5.815-4.2S366.146,327.876,362.451,328.119Z" transform="translate(-355.317 -308.81)"/><path class="h" d="M369.979,319.44v-.01l0-.031c.386-4.182.445-12.538,1.158-12.546s.726,8.367,1.088,12.553v.01l0,.035,0,.028c0,.012,0,.024-.007.037l0,.027c0,.013-.009.024-.013.035l-.012.028c-.005.012-.012.023-.018.036l-.014.026-.026.034-.018.023c-.011.013-.024.025-.035.038l-.02.02c-.014.013-.031.027-.047.04l-.018.014c-.024.018-.05.035-.077.053a.9.9,0,0,1-.1.049l-.007,0-.017.009-.089.035-.019.008-.018,0a.559.559,0,0,1-.063.02l-.025.008-.015,0-.054.013-.032.007-.017,0-.044.009-.036.006-.022,0-.045,0-.029,0-.029,0-.044,0-.026,0h-.134a.514.514,0,0,1-.054,0l-.021,0-.031,0-.062-.006-.024,0-.02,0-.1-.017-.021,0-.01,0c-.031-.007-.06-.015-.088-.023l-.021-.005c-.036-.01-.071-.022-.106-.034h0l-.07-.029-.018-.007c-.028-.013-.055-.026-.082-.041h0a.894.894,0,0,1-.083-.052l0,0-.022-.016-.047-.035,0,0h0l-.02-.021a.234.234,0,0,1-.036-.035l-.013-.012,0-.005-.011-.013-.023-.03-.009-.015,0-.005-.007-.013-.016-.029,0-.008,0-.007v0l-.006-.018-.01-.025-.007-.015v-.005l0-.016-.005-.024,0-.012v-.03Z" transform="translate(-363.095 -296.485)"/><g transform="translate(0 3.675)"><path class="i" d="M362.925,307.5c.555.347,1.526.262,1.693-.217.362-1.034.613-1.186,1.711-.869.534.155,1.348-.1,1.366-.787.027-1.02.572-1.507,1.433-1.119.835.376.309-.582.247-.692l-6.428-11.258a1.515,1.515,0,0,0-2.721,0L353.8,303.814c-.063.11-.588,1.068.246.692.862-.388,1.406.1,1.433,1.119.018.685.832.942,1.366.787,1.1-.318,1.349-.165,1.711.869.167.479,1.168.606,1.694.217C361.243,306.76,361.716,306.742,362.925,307.5Z" transform="translate(-353.576 -291.371)"/><path class="j" d="M363.728,305.718c.511.325,1.4.246,1.559-.2.334-.97.565-1.113,1.575-.815.491.145,1.24-.1,1.257-.738.025-.957.526-1.414,1.319-1.05.768.353.285-.545.227-.649l-5.918-10.56a1.383,1.383,0,0,0-2.505,0l-5.917,10.56c-.058.1-.541,1,.227.649.793-.364,1.294.094,1.319,1.05.017.643.766.883,1.257.738,1.01-.3,1.242-.154,1.575.815.154.449,1.075.568,1.559.2C362.179,305.025,362.614,305.009,363.728,305.718Z" transform="translate(-354.473 -290.906)"/><path class="k" d="M365.1,305.561c.432.276,1.189.208,1.32-.172.282-.821.478-.942,1.333-.69.416.123,1.05-.081,1.064-.625.021-.809.445-1.2,1.116-.889.651.3.241-.462.192-.549L365.12,293.7a1.171,1.171,0,0,0-2.121,0l-5.009,8.939c-.049.087-.458.848.192.549.671-.308,1.1.079,1.116.889.014.544.648.747,1.064.625.855-.252,1.051-.131,1.333.69.131.379.91.481,1.319.172C363.792,304.975,364.161,304.961,365.1,305.561Z" transform="translate(-356.038 -292.135)"/><path class="l" d="M366.362,305.366c.361.23.992.173,1.1-.144.235-.684.4-.785,1.112-.575.347.1.876-.068.888-.521.018-.675.371-1,.931-.741.543.249.2-.385.16-.458l-4.177-7.455a.977.977,0,0,0-1.769,0l-4.178,7.455c-.041.073-.382.707.16.458.56-.257.913.066.931.741.012.454.541.624.887.521.714-.21.877-.109,1.112.575.109.317.759.4,1.1.144C365.27,304.877,365.577,304.866,366.362,305.366Z" transform="translate(-357.47 -293.23)"/></g><g transform="translate(1.462)"><path class="i" d="M364.7,295.713c.453.284,1.247.214,1.384-.177.3-.845.5-.969,1.4-.71.436.126,1.1-.083,1.117-.643.022-.833.467-1.232,1.171-.915.682.308.253-.475.2-.565l-5.255-9.2a1.238,1.238,0,0,0-2.225,0l-5.255,9.2c-.051.09-.481.873.2.565.7-.317,1.149.082,1.171.915.015.56.68.77,1.116.643.9-.259,1.1-.135,1.4.71.137.391.954.5,1.385.177C363.327,295.109,363.714,295.094,364.7,295.713Z" transform="translate(-357.059 -282.529)"/><path class="j" d="M365.358,294.257c.418.266,1.148.2,1.275-.166.272-.792.461-.91,1.287-.666.4.118,1.014-.078,1.028-.6.021-.782.43-1.156,1.078-.858.628.288.233-.446.185-.531l-4.838-8.633a1.13,1.13,0,0,0-2.048,0l-4.838,8.633c-.047.084-.442.819.186.531.648-.3,1.058.076,1.078.858.014.525.626.722,1.028.6.826-.243,1.015-.126,1.287.666.126.367.879.465,1.275.166C364.092,293.691,364.448,293.678,365.358,294.257Z" transform="translate(-357.792 -282.15)"/><path class="k" d="M366.483,294.129c.353.225.972.17,1.079-.141.231-.671.39-.77,1.09-.564.34.1.859-.066.87-.511.018-.662.364-.978.913-.727.532.244.2-.377.157-.449l-4.095-7.307a.957.957,0,0,0-1.734,0l-4.095,7.307c-.04.071-.375.693.157.449.549-.252.9.065.913.727.011.445.53.611.87.511.7-.206.859-.107,1.09.564.107.31.744.393,1.079.141C365.411,293.65,365.712,293.638,366.483,294.129Z" transform="translate(-359.071 -283.154)"/><path class="l" d="M367.512,293.97c.295.188.811.142.9-.117.192-.559.326-.642.909-.47.284.084.716-.055.726-.426.014-.551.3-.816.761-.606s.165-.315.131-.374l-3.415-6.094a.8.8,0,0,0-1.446,0l-3.415,6.094c-.033.06-.312.578.131.374s.747.054.761.606c.01.371.442.51.726.426.583-.172.716-.089.909.47.089.259.62.328.9.117C366.618,293.571,366.87,293.561,367.512,293.97Z" transform="translate(-360.243 -284.049)"/></g></g><g transform="translate(43.711 29.618)"><path class="a" d="M122.061,162.53c-3.7.243-6.3,2.123-5.816,4.2s3.874,3.562,7.569,3.319,6.3-2.123,5.815-4.2S125.756,162.287,122.061,162.53Z" transform="translate(-114.928 -143.221)"/><path class="h" d="M129.589,153.85v-.01l0-.031c.386-4.182.445-12.538,1.158-12.546s.726,8.367,1.088,12.553v.009l0,.035,0,.029-.007.036,0,.026c0,.013-.009.024-.013.035l-.012.028c-.005.012-.012.024-.018.037l-.014.026-.026.034-.018.023c-.011.013-.024.026-.035.039l-.021.02c-.014.014-.031.027-.047.04l-.018.014c-.024.018-.05.035-.076.052a.958.958,0,0,1-.1.049l-.007,0-.017.009-.088.035-.019.008-.018,0a.575.575,0,0,1-.063.021l-.025.008-.015,0-.054.014-.033.007-.017,0-.044.009-.036.005-.022,0-.045,0-.029,0-.029,0-.044,0-.026,0h-.134c-.02,0-.037,0-.054,0l-.021,0-.031,0-.063-.007-.023,0-.02,0-.1-.017-.021,0-.01,0c-.031-.007-.06-.015-.089-.023l-.021-.005c-.036-.01-.071-.023-.106-.034h0l-.07-.029-.017-.007c-.028-.013-.055-.026-.082-.042h0c-.03-.016-.057-.035-.082-.052l0,0-.021-.016c-.015-.013-.033-.024-.047-.035l0,0h0l-.02-.021a.284.284,0,0,1-.036-.035l-.013-.012,0-.005-.011-.013-.023-.029-.01-.015,0-.005-.007-.013-.016-.029,0-.008,0-.006v0l-.006-.018-.01-.025-.007-.015v0l0-.016-.005-.023,0-.012v-.03Z" transform="translate(-122.705 -130.895)"/><g transform="translate(0 3.675)"><path class="i" d="M122.536,141.908c.554.347,1.526.261,1.693-.217.362-1.034.613-1.187,1.711-.869.534.154,1.348-.1,1.366-.787.027-1.019.571-1.508,1.432-1.119.835.376.309-.582.247-.692l-6.428-11.258a1.515,1.515,0,0,0-2.721,0l-6.428,11.258c-.063.11-.588,1.068.247.692.861-.388,1.406.1,1.432,1.119.018.685.832.941,1.366.787,1.1-.318,1.349-.165,1.711.869.168.478,1.168.606,1.694.217C120.854,141.17,121.327,141.152,122.536,141.908Z" transform="translate(-113.187 -125.781)"/><path class="j" d="M123.338,140.128c.511.326,1.4.245,1.559-.2.333-.97.565-1.113,1.575-.815.491.145,1.24-.1,1.257-.738.025-.956.526-1.414,1.319-1.05.768.353.285-.546.227-.649l-5.917-10.56a1.383,1.383,0,0,0-2.506,0l-5.917,10.56c-.057.1-.541,1,.227.649.793-.364,1.294.094,1.319,1.05.017.643.766.883,1.257.738,1.011-.3,1.242-.155,1.575.815.154.449,1.075.568,1.559.2C121.789,139.436,122.225,139.419,123.338,140.128Z" transform="translate(-114.083 -125.317)"/><path class="k" d="M124.713,139.971c.432.275,1.189.208,1.32-.172.282-.821.478-.942,1.333-.69.416.123,1.05-.081,1.064-.625.021-.81.445-1.2,1.116-.889.651.3.241-.462.192-.549l-5.009-8.939a1.171,1.171,0,0,0-2.12,0l-5.009,8.939c-.049.087-.458.848.192.549.671-.308,1.1.079,1.116.889.014.544.648.747,1.064.625.855-.252,1.051-.131,1.333.69.131.38.91.481,1.32.172C123.4,139.385,123.772,139.371,124.713,139.971Z" transform="translate(-115.648 -126.545)"/><path class="l" d="M125.973,139.777c.361.23.992.173,1.1-.144.235-.685.4-.786,1.112-.575.347.1.876-.068.888-.521.018-.675.371-1,.931-.741.542.249.2-.385.16-.458l-4.178-7.455a.977.977,0,0,0-1.769,0l-4.178,7.455c-.041.073-.382.707.16.458.56-.257.914.066.931.741.012.453.541.623.888.521.713-.21.876-.109,1.112.575.109.316.759.4,1.1.144C124.88,139.288,125.187,139.276,125.973,139.777Z" transform="translate(-117.08 -127.64)"/></g><g transform="translate(1.462)"><path class="i" d="M124.312,130.123c.453.283,1.247.214,1.384-.177.3-.845.5-.97,1.4-.71.436.126,1.1-.084,1.116-.643.022-.834.467-1.232,1.171-.915.682.308.253-.476.2-.566l-5.255-9.2a1.238,1.238,0,0,0-2.224,0l-5.255,9.2c-.051.09-.481.873.2.566.7-.317,1.149.081,1.171.915.015.56.68.77,1.116.643.9-.26,1.1-.135,1.4.71.137.391.954.5,1.384.177C122.937,129.52,123.324,129.5,124.312,130.123Z" transform="translate(-116.67 -116.94)"/><path class="j" d="M124.968,128.668c.417.266,1.148.2,1.274-.166.273-.793.462-.91,1.287-.667.4.119,1.014-.078,1.028-.6.021-.782.43-1.156,1.079-.858.628.288.233-.446.186-.531l-4.838-8.633a1.131,1.131,0,0,0-2.048,0l-4.838,8.633c-.047.084-.442.819.186.531.648-.3,1.058.076,1.078.858.014.525.626.722,1.028.6.826-.243,1.015-.126,1.288.667.126.366.878.464,1.274.166C123.7,128.1,124.058,128.088,124.968,128.668Z" transform="translate(-117.403 -116.56)"/><path class="k" d="M126.093,128.54c.353.225.972.17,1.079-.141.231-.671.391-.77,1.09-.564.34.1.858-.066.87-.511.017-.662.364-.979.912-.727.532.244.2-.378.157-.449l-4.1-7.307a.957.957,0,0,0-1.734,0l-4.095,7.307c-.04.071-.375.693.157.449.549-.252.9.065.913.727.012.444.53.611.87.511.7-.206.859-.107,1.09.564.107.311.744.393,1.079.141C125.021,128.061,125.322,128.049,126.093,128.54Z" transform="translate(-118.682 -117.564)"/><path class="l" d="M127.122,128.381c.295.188.811.141.9-.117.192-.559.326-.642.909-.47.284.084.716-.055.726-.426.015-.552.3-.816.761-.606s.164-.315.131-.374l-3.415-6.094a.8.8,0,0,0-1.446,0l-3.415,6.094c-.033.06-.312.578.131.374s.747.054.761.606c.01.371.442.51.726.426.583-.172.716-.089.909.47.089.259.62.328.9.117C126.228,127.981,126.48,127.971,127.122,128.381Z" transform="translate(-119.853 -118.459)"/></g></g><g transform="translate(175.546 78.905)"><g transform="translate(5.199)"><path class="a" d="M448.56,279.962c-3.7.243-6.3,2.123-5.816,4.2s3.874,3.563,7.569,3.319,6.3-2.123,5.815-4.2S452.255,279.719,448.56,279.962Z" transform="translate(-441.427 -260.653)"/><path class="h" d="M456.088,271.283v-.01l0-.031c.386-4.182.445-12.538,1.158-12.546s.726,8.367,1.088,12.553v.01l0,.035,0,.028c0,.012,0,.024-.007.036l0,.027c0,.013-.009.024-.013.035l-.012.028c-.005.012-.012.023-.018.036l-.014.026-.026.034-.018.023c-.011.013-.024.025-.035.038l-.021.02c-.014.013-.031.027-.047.04l-.019.014c-.024.018-.05.035-.076.053a.97.97,0,0,1-.1.049l-.007,0-.017.009-.088.035-.019.008-.018,0a.525.525,0,0,1-.063.02l-.025.008-.015,0-.054.013-.032.007-.017,0-.044.009-.036.005-.022,0-.044,0-.028,0-.029,0-.044,0-.026,0h-.134a.536.536,0,0,1-.054,0l-.021,0-.031,0-.062-.006-.023,0-.02,0-.1-.017-.021,0-.01,0-.089-.023-.021-.005c-.036-.01-.071-.022-.106-.034h0l-.07-.029-.017-.007c-.029-.013-.055-.026-.082-.041h0a.879.879,0,0,1-.082-.052l0,0-.021-.016-.047-.035,0,0h0l-.02-.021a.276.276,0,0,1-.036-.035l-.013-.012,0-.005-.011-.013-.023-.03-.009-.015,0-.005-.007-.013-.016-.029,0-.008,0-.007v0l-.006-.018-.01-.025-.007-.015v-.005l0-.016,0-.023,0-.012v-.03Z" transform="translate(-449.204 -248.328)"/><g transform="translate(0 3.675)"><path class="i" d="M449.035,259.341c.554.347,1.526.262,1.693-.217.362-1.034.613-1.187,1.711-.869.534.154,1.348-.1,1.366-.787.027-1.02.571-1.507,1.432-1.119.835.376.309-.582.247-.692L449.056,244.4a1.515,1.515,0,0,0-2.721,0l-6.428,11.258c-.063.11-.588,1.068.247.692.861-.388,1.406.1,1.432,1.119.019.685.832.941,1.366.787,1.1-.318,1.349-.165,1.711.869.167.478,1.168.606,1.694.217C447.353,258.6,447.826,258.585,449.035,259.341Z" transform="translate(-439.686 -243.214)"/><path class="j" d="M449.837,257.561c.511.325,1.4.245,1.559-.2.333-.969.565-1.113,1.575-.815.491.145,1.24-.1,1.257-.738.025-.957.526-1.414,1.319-1.05.768.353.285-.546.227-.649l-5.918-10.56a1.384,1.384,0,0,0-2.506,0l-5.917,10.56c-.058.1-.541,1,.227.649.793-.364,1.294.094,1.319,1.05.017.643.766.883,1.257.738,1.011-.3,1.242-.154,1.575.815.154.448,1.075.568,1.559.2C448.288,256.868,448.724,256.852,449.837,257.561Z" transform="translate(-440.582 -242.749)"/><path class="k" d="M451.212,257.4c.432.276,1.189.208,1.319-.172.282-.82.478-.942,1.333-.69.416.123,1.05-.081,1.064-.625.021-.809.445-1.2,1.116-.889.651.3.241-.462.192-.549l-5.009-8.939a1.171,1.171,0,0,0-2.12,0l-5.009,8.939c-.049.087-.458.848.192.549.671-.308,1.095.079,1.116.889.014.544.648.748,1.064.625.855-.252,1.051-.131,1.333.69.13.38.91.481,1.32.172C449.9,256.818,450.27,256.8,451.212,257.4Z" transform="translate(-442.147 -243.978)"/><path class="l" d="M452.472,257.209c.36.23.992.173,1.1-.144.236-.684.4-.785,1.112-.575.347.1.876-.068.888-.521.018-.675.371-1,.931-.741.542.249.2-.385.16-.458l-4.178-7.455a.977.977,0,0,0-1.769,0l-4.178,7.455c-.041.073-.382.707.16.458.56-.257.914.066.931.741.012.454.541.623.888.521.713-.21.876-.109,1.112.575.109.317.758.4,1.1.144C451.379,256.72,451.686,256.709,452.472,257.209Z" transform="translate(-443.579 -245.073)"/></g><g transform="translate(1.462)"><path class="i" d="M450.811,247.555c.453.284,1.247.214,1.384-.177.3-.845.5-.97,1.4-.71.436.126,1.1-.083,1.116-.643.022-.833.467-1.232,1.171-.915.682.308.253-.475.2-.565l-5.255-9.2a1.238,1.238,0,0,0-2.224,0l-5.255,9.2c-.051.09-.481.873.2.565.7-.317,1.149.082,1.171.915.015.56.68.77,1.116.643.9-.26,1.1-.135,1.4.71.137.391.954.5,1.384.177C449.436,246.952,449.823,246.937,450.811,247.555Z" transform="translate(-443.169 -234.372)"/><path class="j" d="M451.467,246.1c.417.266,1.148.2,1.274-.166.273-.792.461-.91,1.287-.666.4.118,1.014-.078,1.028-.6.021-.781.43-1.156,1.078-.858.628.289.233-.446.186-.53l-4.838-8.633a1.131,1.131,0,0,0-2.048,0l-4.837,8.633c-.047.084-.442.819.185.53.648-.3,1.058.077,1.078.858.014.526.626.722,1.028.6.826-.243,1.015-.126,1.287.666.126.367.879.465,1.275.166C450.2,245.534,450.557,245.521,451.467,246.1Z" transform="translate(-443.902 -233.993)"/><path class="k" d="M452.592,245.972c.353.225.972.17,1.079-.141.231-.671.391-.77,1.09-.564.34.1.858-.066.87-.511.017-.661.364-.978.912-.727.532.244.2-.377.157-.449l-4.1-7.307a.957.957,0,0,0-1.734,0l-4.095,7.307c-.04.071-.375.693.157.449.548-.252.9.065.913.727.012.445.53.611.87.511.7-.206.859-.107,1.09.564.107.31.744.393,1.079.141C451.52,245.493,451.822,245.481,452.592,245.972Z" transform="translate(-445.181 -234.997)"/><path class="l" d="M453.621,245.813c.295.188.811.142.9-.117.192-.559.326-.642.909-.47.284.084.716-.055.726-.426.015-.551.3-.816.761-.606s.164-.315.131-.374l-3.415-6.095a.8.8,0,0,0-1.446,0l-3.415,6.095c-.033.059-.312.578.131.374s.747.054.761.606c.01.371.442.51.726.426.583-.172.716-.089.909.47.089.259.62.328.9.117C452.727,245.413,452.979,245.4,453.621,245.813Z" transform="translate(-446.352 -235.891)"/></g></g><g transform="translate(0 11.124)"><path class="a" d="M434.339,296.969c-2.932.193-5,1.685-4.614,3.332s3.073,2.826,6.006,2.634,5-1.685,4.614-3.332S437.27,296.777,434.339,296.969Z" transform="translate(-428.679 -281.649)"/><path class="h" d="M440.312,290.083v-.008l0-.025c.306-3.318.353-9.948.919-9.954s.576,6.639.863,9.96v.008l0,.028,0,.023c0,.009,0,.018-.005.029l0,.021c0,.01-.007.019-.01.028l-.01.022c0,.01-.01.019-.014.029l-.011.021-.021.027-.014.018c-.009.011-.019.02-.028.03l-.016.016c-.011.011-.025.022-.037.032l-.015.011c-.019.014-.04.028-.06.042a.827.827,0,0,1-.078.039l-.005,0-.013.007-.07.028-.015.006-.015,0a.416.416,0,0,1-.05.016l-.02.006-.012,0-.043.011-.026.005-.014,0-.035.007-.029,0-.018,0-.035,0-.022,0-.023,0-.035,0-.021,0h-.106a.354.354,0,0,1-.043,0h-.016l-.024,0-.05-.005-.018,0-.016,0-.078-.014-.016,0-.008,0c-.025-.005-.048-.012-.07-.018l-.017,0c-.029-.008-.056-.018-.084-.027h0l-.055-.024-.014-.005c-.023-.01-.044-.021-.065-.033h0c-.024-.013-.045-.028-.066-.042l0,0-.017-.013-.037-.027,0,0h0l-.016-.017a.235.235,0,0,1-.028-.028l-.01-.009,0,0-.009-.011-.019-.023-.007-.012,0,0-.006-.011-.012-.023,0-.006,0-.005h0l0-.014-.008-.02-.005-.011v0l0-.013,0-.018,0-.009V290.1Z" transform="translate(-434.85 -271.87)"/><g transform="translate(0 2.916)"><path class="i" d="M434.715,280.608c.44.275,1.211.207,1.344-.172.287-.82.487-.941,1.357-.689.424.123,1.069-.081,1.084-.625.021-.809.453-1.2,1.137-.888.662.3.246-.461.2-.549l-5.1-8.932a1.2,1.2,0,0,0-2.159,0l-5.1,8.932c-.05.087-.466.847.2.549.683-.308,1.115.079,1.137.888.015.543.66.747,1.084.625.871-.252,1.07-.131,1.357.689.133.379.926.481,1.343.172C433.381,280.023,433.756,280.008,434.715,280.608Z" transform="translate(-427.298 -267.813)"/><path class="j" d="M435.352,279.2c.4.258,1.115.195,1.237-.161.265-.769.448-.883,1.249-.647.39.115.984-.076,1-.586.02-.759.418-1.122,1.047-.833.609.28.226-.433.18-.515l-4.7-8.378a1.1,1.1,0,0,0-1.988,0l-4.7,8.378c-.046.082-.429.795.18.515.629-.289,1.027.074,1.047.833.013.51.608.7,1,.586.8-.236.985-.123,1.25.647.122.356.853.451,1.237.161C434.123,278.647,434.469,278.633,435.352,279.2Z" transform="translate(-428.009 -267.444)"/><path class="k" d="M436.443,279.071c.343.219.944.165,1.047-.136.224-.651.379-.748,1.058-.547.33.1.833-.064.844-.5.017-.642.353-.949.886-.7.516.237.191-.366.152-.436l-3.975-7.092a.929.929,0,0,0-1.683,0l-3.974,7.092c-.039.069-.364.673.152.436.533-.245.869.063.886.7.011.432.515.593.844.5.679-.2.834-.1,1.058.547.1.3.722.382,1.047.136C435.4,278.606,435.7,278.6,436.443,279.071Z" transform="translate(-429.251 -268.419)"/><path class="l" d="M437.443,278.917c.286.183.787.138.873-.114.187-.543.316-.623.882-.456.275.081.695-.054.7-.414.014-.536.295-.792.739-.588s.159-.306.127-.363l-3.314-5.915a.775.775,0,0,0-1.4,0l-3.314,5.915c-.032.057-.3.561.127.363s.724.052.739.588c.009.36.429.495.7.414.566-.167.7-.087.882.456.086.251.6.318.873.114C436.575,278.529,436.819,278.52,437.443,278.917Z" transform="translate(-430.387 -269.288)"/></g><g transform="translate(1.16)"><path class="i" d="M436.125,271.257c.36.225.99.17,1.1-.141.235-.67.4-.769,1.11-.563.346.1.874-.066.886-.51.018-.661.371-.978.929-.726.541.244.2-.377.16-.449l-4.169-7.3a.983.983,0,0,0-1.765,0l-4.169,7.3c-.041.071-.381.693.16.449.559-.252.912.065.929.726.012.445.54.611.886.51.712-.206.875-.107,1.11.563.108.31.757.393,1.1.141C435.034,270.778,435.341,270.767,436.125,271.257Z" transform="translate(-430.061 -260.797)"/><path class="j" d="M436.646,270.1c.331.211.911.159,1.011-.132.216-.629.366-.722,1.021-.528.319.094.8-.062.816-.479.016-.62.341-.917.855-.681.5.229.185-.354.147-.421l-3.838-6.849a.9.9,0,0,0-1.625,0l-3.838,6.849c-.037.067-.351.65.147.421.514-.236.839.06.855.681.011.417.5.573.815.479.656-.193.805-.1,1.022.528.1.291.7.368,1.011.132C435.641,269.654,435.924,269.643,436.646,270.1Z" transform="translate(-430.643 -260.496)"/><path class="k" d="M437.538,270c.28.179.771.135.856-.112.183-.532.31-.611.865-.447.27.079.681-.052.69-.405.014-.525.289-.776.724-.576s.156-.3.125-.356l-3.249-5.8a.759.759,0,0,0-1.375,0l-3.249,5.8c-.032.057-.3.55.125.356s.71.051.724.576c.009.353.42.485.69.405.555-.164.682-.085.865.447.085.246.59.312.856.112C436.688,269.621,436.927,269.611,437.538,270Z" transform="translate(-431.657 -261.293)"/><path class="l" d="M438.355,269.875c.234.149.643.112.714-.093.153-.444.259-.51.721-.373.225.066.568-.044.576-.338.011-.438.241-.648.6-.481s.13-.25.1-.3l-2.71-4.835a.633.633,0,0,0-1.147,0l-2.71,4.835c-.026.047-.248.459.1.3s.592.043.6.481c.007.294.351.4.575.338.463-.136.569-.071.721.373.071.205.492.26.714.093C437.646,269.558,437.845,269.55,438.355,269.875Z" transform="translate(-432.587 -262.003)"/></g></g></g><g transform="translate(105.221 112.453)"><path class="d" d="M297.656,348.726l3.21,3.847-.313-4.638,2.176-7.045-.613-2.718-3.939.272,1.694,2.533Z" transform="translate(-281.743 -327.994)"/><path class="c" d="M315.645,333.357l.7,13.714,4.325.325-1.074-8.591-2.04-5.246Z" transform="translate(-292.182 -325.2)"/><path class="b" d="M304.87,349.779l5.041-2.708-.363-7.605-.337-6.109-3.091,2.021.613,2.718-2.176,7.045Z" transform="translate(-285.748 -325.2)"/><path class="b" d="M328.834,338.733l.937-5.687-2.367-5.582-1.76-.159-2.887-4.711-1.726.868,1.224,2.666,1.764,2.19Z" transform="translate(-295.308 -318.954)"/><path class="d" d="M323.312,346.037l5.038-2.418L323.535,333.2l-1.764-2.19L320.2,332.2l2,6.216Z" transform="translate(-294.824 -323.841)"/><path class="c" d="M292.71,338.819l1.694,2.533L292.19,349.1l-3.953-.247,1.843-3.9-.372-4.422Z" transform="translate(-276.277 -328.37)"/><path class="b" d="M276.124,350.892l5.083-1.4,1.843-3.9-.372-4.422-3.369-1.256-.88,3.616-.008,4.635Z" transform="translate(-269.248 -329.006)"/><path class="d" d="M271.3,340.651l3.724-.735-.88,3.616-.008,4.635-2.3,2.724-3.1-2.168.27-2.194Z" transform="translate(-264.964 -329.006)"/><path class="c" d="M263.519,341.748l.27-2.194,2.291-5.878-5.233-5.78-.193,9.457-.911,2.916Z" transform="translate(-259.742 -322.031)"/><path class="f" d="M269.693,314.727c-3.641,2-6.774,2.953-8.079,4.233l.319.828,5.233,5.78,3.724-.735,3.369,1.256,3-1.716,3.939-.272,3.091-2.021,1.911.2,1.574-1.185-1.224-2.666,1.725-.868.338-.364-6.982-2.558-4.451.841-4.989-1.559Z" transform="translate(-260.828 -313.922)"/><path class="g" d="M261.614,318.959l5.844,5.712,3.588-.774,3.407,1.7,3.042-2.281,3.744.118,3.091-2.021,1.911.2,1.319-.993-1.008-2.2.039-.662,2.024-.571-3.121-1.548-3.861-1.01-4.451.841-4.989-1.559-2.5.8C265.9,316.807,262.827,317.623,261.614,318.959Z" transform="translate(-260.828 -313.922)"/></g></g><g transform="translate(880.035 438.531)"><path class="a" d="M145.482,69.772c-4.527.3-7.718,2.6-7.125,5.144s4.745,4.364,9.273,4.066,7.716-2.6,7.123-5.144S150.009,69.474,145.482,69.772Z" transform="translate(-136.799 -44.652)"/><path class="h" d="M155.308,63.116v-.01l0-.031c.386-4.182.445-12.538,1.158-12.546s.726,8.367,1.088,12.553v.01l0,.035,0,.028-.007.037,0,.027c0,.013-.009.024-.013.034l-.012.029c-.005.012-.012.024-.018.036l-.014.026-.026.034-.018.023c-.011.013-.024.025-.035.038l-.02.02c-.014.013-.031.027-.047.04l-.018.014c-.024.018-.05.035-.076.053a.917.917,0,0,1-.1.049l-.007,0-.017.009-.088.035-.019.008-.018,0a.524.524,0,0,1-.063.02l-.025.008-.015,0-.054.013-.032.007-.017,0-.044.009-.036.005-.022,0-.045,0-.029,0-.029,0-.044,0-.026,0h-.134a.437.437,0,0,1-.054,0l-.021,0-.031,0-.063-.006-.023,0-.02,0-.1-.017-.021,0-.01,0c-.031-.007-.06-.015-.089-.023l-.021-.005c-.036-.01-.071-.022-.106-.034h0l-.07-.029-.017-.007c-.029-.013-.056-.026-.083-.041h0a.839.839,0,0,1-.082-.052l0,0-.021-.016-.047-.035,0,0h0l-.02-.021a.235.235,0,0,1-.036-.035l-.013-.012,0-.005-.011-.013-.024-.029-.009-.015,0-.005-.007-.013-.016-.029,0-.008,0-.007v0l-.006-.018-.01-.026-.007-.014v-.005l0-.016-.005-.024,0-.012v-.03Z" transform="translate(-146.676 -33.504)"/><g transform="translate(0 7.241)"><path class="i" d="M146.131,47.427c.675.423,1.858.319,2.062-.264.442-1.259.747-1.445,2.084-1.058.65.188,1.641-.124,1.664-.959.033-1.242.7-1.836,1.745-1.364,1.017.458.377-.708.3-.842l-7.83-13.714a1.846,1.846,0,0,0-3.315,0l-7.83,13.714c-.076.134-.716,1.3.3.842,1.049-.473,1.712.122,1.746,1.364.022.834,1.014,1.147,1.664.959,1.337-.387,1.643-.2,2.084,1.058.2.583,1.422.738,2.063.264C144.082,46.528,144.658,46.506,146.131,47.427Z" transform="translate(-134.742 -27.783)"/><path class="j" d="M147.108,45.259c.622.4,1.711.3,1.9-.248.406-1.181.688-1.356,1.918-.993.6.177,1.511-.116,1.532-.9.03-1.165.64-1.722,1.607-1.279.936.43.347-.664.277-.79l-7.208-12.864a1.685,1.685,0,0,0-3.052,0L136.872,41.05c-.071.125-.659,1.22.277.79.966-.444,1.576.114,1.607,1.279.021.783.933,1.076,1.532.9,1.231-.363,1.512-.188,1.918.993.188.546,1.309.692,1.9.248C145.222,44.415,145.753,44.395,147.108,45.259Z" transform="translate(-135.835 -27.217)"/><path class="k" d="M148.784,45.067c.526.336,1.448.253,1.607-.209.344-1,.582-1.147,1.624-.84.507.149,1.279-.1,1.3-.761.026-.986.542-1.458,1.36-1.082.792.363.293-.563.234-.669l-6.1-10.889a1.426,1.426,0,0,0-2.583,0l-6.1,10.889c-.059.107-.558,1.033.234.669.818-.376,1.334.1,1.36,1.082.017.663.789.91,1.3.761,1.042-.307,1.28-.159,1.624.84.159.463,1.108.586,1.607.209C147.188,44.354,147.636,44.336,148.784,45.067Z" transform="translate(-137.741 -28.713)"/><path class="l" d="M150.318,44.831c.439.28,1.208.211,1.341-.175.287-.834.485-.957,1.354-.7.422.125,1.066-.082,1.081-.635.021-.823.452-1.216,1.134-.9.661.3.245-.469.2-.558l-5.089-9.081a1.189,1.189,0,0,0-2.154,0l-5.089,9.081c-.05.089-.465.862.2.558.682-.313,1.113.08,1.134.9.015.552.659.759,1.082.635.869-.256,1.067-.133,1.354.7.133.386.925.489,1.341.175C148.986,44.235,149.361,44.221,150.318,44.831Z" transform="translate(-139.486 -30.047)"/></g><g transform="translate(1.747 3.675)"><path class="i" d="M148.254,35.313c.555.347,1.526.262,1.694-.217.362-1.034.613-1.187,1.711-.869.534.154,1.348-.1,1.366-.787.027-1.019.572-1.507,1.433-1.119.835.376.309-.582.247-.692l-6.428-11.258a1.515,1.515,0,0,0-2.721,0l-6.428,11.258c-.063.11-.588,1.068.246.692.862-.388,1.406.1,1.433,1.119.018.685.832.941,1.366.787,1.1-.318,1.349-.165,1.711.869.167.478,1.168.606,1.694.217C146.572,34.575,147.046,34.556,148.254,35.313Z" transform="translate(-138.905 -19.186)"/><path class="j" d="M149.057,33.533c.511.325,1.4.246,1.559-.2.334-.97.564-1.113,1.575-.815.491.145,1.24-.1,1.257-.738.025-.956.526-1.414,1.319-1.05.768.353.285-.546.227-.649l-5.918-10.56a1.383,1.383,0,0,0-2.505,0l-5.917,10.56c-.057.1-.541,1,.227.649.793-.364,1.294.094,1.319,1.05.017.643.766.883,1.257.738,1.01-.3,1.242-.154,1.575.815.154.449,1.075.568,1.559.2C147.508,32.84,147.944,32.823,149.057,33.533Z" transform="translate(-139.802 -18.721)"/><path class="k" d="M150.432,33.376c.432.276,1.189.208,1.32-.172.282-.821.478-.942,1.333-.69.416.123,1.05-.081,1.064-.625.021-.809.445-1.2,1.116-.889.651.3.241-.462.192-.549l-5.009-8.939a1.171,1.171,0,0,0-2.121,0l-5.009,8.939c-.049.087-.458.848.192.549.671-.308,1.1.079,1.117.889.014.544.648.748,1.064.625.855-.252,1.051-.131,1.333.69.131.38.909.481,1.319.172C149.122,32.79,149.49,32.776,150.432,33.376Z" transform="translate(-141.367 -19.95)"/><path class="l" d="M151.691,33.181c.361.23.992.173,1.1-.144.235-.684.4-.785,1.112-.575.347.1.876-.068.888-.521.018-.675.371-1,.931-.741.542.249.2-.385.16-.458l-4.177-7.455a.976.976,0,0,0-1.769,0l-4.178,7.455c-.041.073-.382.707.16.458.56-.257.913.066.931.741.012.454.541.623.887.521.714-.21.877-.109,1.112.575.109.317.759.4,1.1.144C150.6,32.692,150.906,32.681,151.691,33.181Z" transform="translate(-142.799 -21.045)"/></g><g transform="translate(3.209)"><path class="i" d="M150.031,23.527c.453.284,1.247.214,1.384-.177.3-.845.5-.97,1.4-.71.437.126,1.1-.083,1.117-.643.022-.833.467-1.232,1.171-.915.682.308.253-.475.2-.565l-5.255-9.2a1.238,1.238,0,0,0-2.225,0l-5.255,9.2c-.051.09-.481.873.2.565.7-.317,1.149.082,1.171.915.015.56.68.77,1.116.643.9-.26,1.1-.135,1.4.71.137.391.954.5,1.385.177C148.656,22.924,149.043,22.909,150.031,23.527Z" transform="translate(-142.388 -10.344)"/><path class="j" d="M150.687,22.073c.417.266,1.148.2,1.274-.166.272-.792.461-.91,1.287-.666.4.118,1.014-.078,1.028-.6.021-.782.43-1.156,1.078-.858.628.288.233-.446.186-.531L150.7,10.616a1.131,1.131,0,0,0-2.048,0l-4.838,8.633c-.047.084-.443.819.186.531.648-.3,1.058.076,1.078.858.014.525.626.722,1.028.6.826-.243,1.015-.126,1.287.666.126.367.879.465,1.275.166C149.421,21.506,149.777,21.492,150.687,22.073Z" transform="translate(-143.121 -9.965)"/><path class="k" d="M151.812,21.944c.353.225.972.17,1.079-.141.231-.671.391-.77,1.09-.564.34.1.859-.066.87-.511.018-.661.364-.978.913-.727.532.244.2-.377.157-.449l-4.095-7.308a.957.957,0,0,0-1.734,0L146,19.553c-.04.071-.375.693.157.449.549-.252.9.065.913.727.011.445.53.611.87.511.7-.206.859-.107,1.09.564.107.31.744.393,1.079.141C150.74,21.465,151.041,21.453,151.812,21.944Z" transform="translate(-144.401 -10.969)"/><path class="l" d="M152.841,21.785c.295.188.811.142.9-.117.192-.559.326-.642.909-.47.284.084.716-.055.726-.426.014-.551.3-.816.761-.606s.164-.315.131-.374L152.852,13.7a.8.8,0,0,0-1.446,0l-3.415,6.094c-.033.059-.312.578.131.374s.747.054.761.606c.01.371.442.51.726.426.583-.172.716-.089.909.47.089.259.62.328.9.117C151.947,21.385,152.2,21.376,152.841,21.785Z" transform="translate(-145.572 -11.864)"/></g><path class="a" d="M172.308,82.179c-3.7.243-6.3,2.124-5.816,4.2s3.873,3.562,7.569,3.319,6.3-2.123,5.815-4.2S176,81.937,172.308,82.179Z" transform="translate(-153.133 -51.855)"/><path class="h" d="M179.836,73.5v-.01l0-.031c.386-4.182.445-12.538,1.158-12.546s.726,8.367,1.088,12.553v.009l0,.035,0,.029-.007.037,0,.026c0,.013-.009.024-.013.035l-.012.028c-.005.012-.012.024-.018.036l-.014.026-.026.034-.018.024c-.011.013-.024.025-.035.038l-.02.02c-.014.013-.031.027-.047.04l-.018.014c-.024.018-.05.035-.076.053a1,1,0,0,1-.1.049l-.007,0-.017.009-.088.035-.019.008-.018,0a.615.615,0,0,1-.063.021l-.025.008-.015,0-.054.013-.032.007-.017,0-.045.009-.036.005-.022,0-.044,0-.029,0-.029,0-.044,0-.026,0h-.134c-.02,0-.037,0-.054,0l-.021,0-.031,0-.063-.007-.024,0-.02,0-.1-.017-.021,0-.01,0c-.032-.007-.06-.015-.089-.023l-.021-.005c-.036-.01-.071-.023-.106-.034h0l-.07-.029-.017-.007c-.029-.013-.056-.026-.083-.042h0a.93.93,0,0,1-.082-.052l0,0-.021-.016c-.016-.013-.033-.024-.047-.035l0-.005h0l-.02-.021a.281.281,0,0,1-.036-.035l-.013-.012,0-.005-.011-.013-.023-.029-.009-.015,0-.005-.007-.013-.016-.029,0-.008,0-.006v0l-.006-.018-.01-.025-.007-.015v0l0-.017-.005-.023,0-.012v-.03Z" transform="translate(-160.91 -39.529)"/><g transform="translate(12.042 14.691)"><path class="i" d="M172.783,61.558c.554.347,1.526.262,1.693-.217.362-1.033.613-1.186,1.711-.868.534.154,1.348-.1,1.366-.787.027-1.019.572-1.508,1.433-1.119.835.376.309-.582.247-.692L172.8,46.617a1.515,1.515,0,0,0-2.721,0l-6.428,11.258c-.063.11-.588,1.068.246.692.862-.388,1.406.1,1.433,1.119.018.685.832.941,1.366.787,1.1-.318,1.349-.165,1.711.868.167.478,1.168.606,1.693.217C171.1,60.82,171.574,60.8,172.783,61.558Z" transform="translate(-163.433 -45.431)"/><path class="j" d="M173.585,59.778c.511.326,1.4.246,1.559-.2.334-.97.565-1.113,1.575-.815.491.145,1.24-.1,1.257-.738.025-.956.526-1.414,1.319-1.05.768.353.285-.546.227-.649L173.6,45.764a1.384,1.384,0,0,0-2.506,0l-5.917,10.56c-.057.1-.541,1,.227.649.793-.364,1.294.094,1.319,1.05.017.643.766.883,1.257.738,1.01-.3,1.241-.155,1.575.815.154.449,1.075.568,1.559.2C172.036,59.086,172.472,59.069,173.585,59.778Z" transform="translate(-164.33 -44.967)"/><path class="k" d="M174.96,59.621c.432.275,1.189.208,1.32-.172.282-.821.478-.942,1.333-.69.416.123,1.05-.081,1.064-.625.021-.81.445-1.2,1.116-.889.651.3.241-.462.192-.549l-5.009-8.939a1.171,1.171,0,0,0-2.121,0L167.847,56.7c-.049.087-.458.848.192.549.672-.308,1.1.079,1.117.889.014.544.648.748,1.064.625.855-.252,1.051-.131,1.333.69.131.38.91.481,1.32.172C173.65,59.035,174.018,59.021,174.96,59.621Z" transform="translate(-165.895 -46.195)"/><path class="l" d="M176.219,59.427c.361.23.992.173,1.1-.143.235-.685.4-.786,1.112-.575.347.1.876-.068.888-.521.018-.675.371-1,.931-.741.543.249.2-.385.16-.458l-4.177-7.455a.977.977,0,0,0-1.769,0l-4.178,7.455c-.041.073-.382.707.16.458.56-.257.913.066.931.741.012.454.541.624.887.521.713-.21.877-.109,1.112.575.109.316.759.4,1.1.143C175.127,58.938,175.434,58.926,176.219,59.427Z" transform="translate(-167.327 -47.29)"/></g><g transform="translate(13.504 11.015)"><path class="i" d="M174.559,49.773c.453.283,1.247.214,1.384-.177.3-.845.5-.97,1.4-.71.436.126,1.1-.084,1.117-.643.022-.834.467-1.232,1.171-.915.682.308.253-.476.2-.566l-5.255-9.2a1.238,1.238,0,0,0-2.225,0l-5.255,9.2c-.051.09-.481.873.2.566.7-.317,1.149.081,1.171.915.015.56.68.77,1.116.643.9-.26,1.1-.135,1.4.71.137.391.954.5,1.385.177C173.184,49.17,173.571,49.155,174.559,49.773Z" transform="translate(-166.916 -36.589)"/><path class="j" d="M175.215,48.318c.417.266,1.148.2,1.274-.166.272-.793.461-.91,1.287-.667.4.119,1.014-.078,1.028-.6.021-.782.43-1.156,1.078-.858.628.288.233-.446.186-.531l-4.838-8.633a1.131,1.131,0,0,0-2.048,0l-4.838,8.633c-.047.084-.443.819.186.531.648-.3,1.058.076,1.078.858.014.525.626.722,1.028.6.826-.243,1.015-.126,1.287.667.126.366.879.464,1.275.166C173.949,47.752,174.305,47.738,175.215,48.318Z" transform="translate(-167.649 -36.21)"/><path class="k" d="M176.34,48.19c.353.225.972.17,1.079-.141.231-.671.39-.77,1.09-.564.34.1.859-.066.87-.511.018-.662.364-.979.913-.727.532.244.2-.378.157-.449l-4.095-7.307a.957.957,0,0,0-1.734,0L170.525,45.8c-.04.071-.375.693.157.449.549-.252.9.065.913.727.011.444.53.611.87.511.7-.206.859-.107,1.09.564.107.311.744.393,1.079.141C175.268,47.711,175.569,47.7,176.34,48.19Z" transform="translate(-168.929 -37.214)"/><path class="l" d="M177.369,48.031c.295.188.811.141.9-.118.192-.559.326-.642.909-.47.284.084.716-.055.726-.426.014-.552.3-.816.761-.606s.164-.315.131-.374l-3.415-6.094a.8.8,0,0,0-1.446,0l-3.415,6.094c-.033.06-.312.578.131.374s.747.054.761.606c.01.371.442.51.726.426.583-.172.716-.089.909.47.089.259.62.328.9.118C176.475,47.631,176.727,47.621,177.369,48.031Z" transform="translate(-170.1 -38.109)"/></g></g></g></svg>