<svg xmlns="http://www.w3.org/2000/svg" xmlns:xlink="http://www.w3.org/1999/xlink" width="54.923" height="50.587" viewBox="0 0 54.923 50.587"><defs><style>.a{fill:#e0dcd1;}.b{fill:#c1b5a7;}.c{fill:#aca89d;}.d{fill:#dfdbd0;}.e{fill:#faf6ea;}.f{fill:#9b8062;}.g{fill:#4f3524;}.h{fill:#dbd7ce;}.i{fill:#e8d9c8;}.j{fill:#69504c;}.k{fill:#dbecff;}.l{fill:#949086;}.m{fill:#e3e3e3;}.n{fill:#fff;}.o{opacity:0.1;}.p{fill:#f0ece0;}.q{fill:#e3bc8f;}.r{fill:#785037;}.s{fill:#bf9e78;}.t{fill:#d1cdc3;}.u{fill:#d2cec3;}.v{fill:#faf8f0;}.w{fill:#d9cbbc;}.x{fill:#9c988e;}.y{fill:#dbd8cd;}.z{fill:#ebe7da;}.aa{fill:#f5f1e4;}.ab{fill:#e6e2d6;}.ac{fill:#f7f3e7;}.ad{fill:#ede9dd;}.ae{opacity:0.05;}.af{opacity:0.04;}.ag{fill:url(#a);}.ah{fill:url(#b);}.ai{fill:url(#c);}.aj{fill:#fcc156;}.ak{fill:#ffe0ae;}</style><linearGradient id="a" x1="0.394" y1="0.879" x2="0.854" y2="-0.769" gradientUnits="objectBoundingBox"><stop offset="0" stop-color="#fcbe51"/><stop offset="0.015" stop-color="#fbb544"/><stop offset="0.047" stop-color="#fba82e"/><stop offset="0.084" stop-color="#fb9d1d"/><stop offset="0.131" stop-color="#fb9611"/><stop offset="0.196" stop-color="#fb920a"/><stop offset="0.377" stop-color="#fb9109"/><stop offset="0.48" stop-color="#fcc156"/><stop offset="0.512" stop-color="#fbb340"/><stop offset="0.555" stop-color="#fba52a"/><stop offset="0.605" stop-color="#fb9a19"/><stop offset="0.668" stop-color="#fb930d"/><stop offset="0.756" stop-color="#fb8f06"/><stop offset="1" stop-color="#fb8e05"/></linearGradient><linearGradient id="b" x1="0.267" y1="0.783" x2="1.266" y2="-0.429" xlink:href="#a"/><linearGradient id="c" x1="0.286" y1="0.917" x2="0.716" y2="0.145" xlink:href="#a"/></defs><g transform="translate(1841 -135)"><g transform="translate(-1841 135)"><g transform="translate(0 0)"><g transform="translate(1.11 2.012)"><path class="a" d="M254.338,118.852,290,101V78.741L254.338,96.6Z" transform="translate(-237.82 -70.484)"/><path class="b" d="M174.176,56.509l35.661-17.852L193.319,30.4,157.658,48.247Z" transform="translate(-157.652 -30.395)"/><path class="c" d="M157.621,157.15l16.518,8.265V143.158l-16.518-8.265Z" transform="translate(-157.621 -117.046)"/></g><g transform="translate(46.807 31.764)"><g transform="translate(0 0.095)"><path class="d" d="M433.072,205.781v.683l-6.67,3.33V209.1Z" transform="translate(-426.194 -205.674)"/><path class="e" d="M425.185,208.478l.208.1,6.669-3.319-.211-.108Z" transform="translate(-425.185 -205.153)"/><path class="f" d="M425.185,225.309l.208.1v-.687l-.208-.109Z" transform="translate(-425.185 -221.292)"/></g><path class="e" d="M463.533,204.8l-.395-.2v.29Z" transform="translate(-456.656 -204.597)"/></g><g transform="translate(46.807 34.864)"><path class="c" d="M425.182,224.74v.683l4.665,2.345v-.683Z" transform="translate(-425.182 -224.399)"/><path class="e" d="M430.54,225.085l-.687.346-4.664-2.344.683-.341Z" transform="translate(-425.187 -222.745)"/><path class="d" d="M453.186,237.137l-.687.336v-.683l.687-.346Z" transform="translate(-447.833 -234.104)"/></g><g transform="translate(25.242 35.2)"><g transform="translate(3.679 2.325)"><path class="d" d="M325.143,251.562,346.726,240.9v-.229l-21.583,10.665Z" transform="translate(-324.344 -240.268)"/><path class="e" d="M321.263,249.393l21.583-10.665-.8-.4-21.583,10.665Z" transform="translate(-320.463 -238.328)"/><path class="g" d="M320.462,301l.8.4v-.229l-.8-.4Z" transform="translate(-320.462 -290.106)"/></g><g transform="translate(2.885 1.696)"><path class="d" d="M320.492,247.881l21.583-10.665v-.229l-21.583,10.665Z" transform="translate(-319.693 -236.587)"/><path class="e" d="M316.612,245.712,338.2,235.047l-.8-.4-21.583,10.665Z" transform="translate(-315.812 -234.647)"/><path class="g" d="M315.811,297.319l.8.4v-.229l-.8-.4Z" transform="translate(-315.811 -286.426)"/></g><g transform="translate(0 0)"><path class="d" d="M315.842,244.2l21.583-10.665v-.229l-21.583,10.665Z" transform="translate(-312.952 -231.839)"/><path class="e" d="M301.812,236.848l21.583-10.665-2.89-1.467-21.583,10.665Z" transform="translate(-298.921 -224.716)"/><path class="g" d="M298.92,287.388l2.89,1.468v-.229l-2.89-1.468Z" transform="translate(-298.92 -276.495)"/></g><path class="g" d="M303.4,290.113l-4.479-2.271v-.683l2.89,1.468v.229l.794.4v.229l.794.4Z" transform="translate(-298.92 -276.495)"/></g><g transform="translate(24.563 45.865)"><path class="c" d="M294.944,289.154v.683l4.647,2.328v-.683Z" transform="translate(-294.944 -288.813)"/><path class="e" d="M300.283,289.482l-.687.346L294.95,287.5l.683-.341Z" transform="translate(-294.949 -287.16)"/><path class="d" d="M322.842,301.448l-.687.336V301.1l.687-.346Z" transform="translate(-317.507 -298.433)"/></g><g transform="translate(0.749 41.28)"><g transform="translate(16.671 4.926)"><path class="d" d="M261.487,289.781v.683l-7.151,3.591v-.693Z" transform="translate(-254.129 -289.674)"/><path class="e" d="M253.122,292.749l.208.1,7.149-3.59-.211-.108Z" transform="translate(-253.122 -289.154)"/></g><path class="c" d="M155.512,261.365v.683l16.879,8.444v-.683Z" transform="translate(-155.512 -261.185)"/><path class="h" d="M172.4,269.082l-.208.1-16.67-8.341.211-.108Z" transform="translate(-155.517 -260.665)"/><path class="i" d="M155.518,260.492l.359-.181v.18Z" transform="translate(-155.517 -260.312)"/></g><g transform="translate(2.021 35.913)"><g transform="translate(11.706 5.885)"><g transform="translate(0.443)"><path class="j" d="M236.049,268.83v-4.5l-1.963-.982v4.5Z" transform="translate(-234.086 -263.348)"/><path class="k" d="M234.8,268.674l1.719.86v-4.256l-1.719-.86Z" transform="translate(-234.677 -264.235)"/><path class="j" d="M239.431,270.99l.137.068V266.8l-.137-.068Z" transform="translate(-238.518 -266.156)"/></g><path class="l" d="M231.494,268.082l.443-.221v-4.5l-.443.221Z" transform="translate(-231.494 -263.362)"/><rect class="c" width="0.726" height="5.331" transform="translate(2.631 5.909) rotate(180)"/><path class="m" d="M231.494,289.906l1.9.957v-.445l-1.462-.733Z" transform="translate(-231.494 -285.186)"/><path class="c" d="M231.494,263.587l2.631,1.317v-.963l-2.188-.575Z" transform="translate(-231.494 -263.362)"/><path class="j" d="M235.866,271.336l-1.4-.7v-.126l1.4.7Z" transform="translate(-233.96 -269.287)"/><path class="j" d="M235.866,284.045l-1.4-.7v-.126l1.4.7Z" transform="translate(-233.96 -279.826)"/></g><g transform="translate(7.804 3.924)"><g transform="translate(0.443)"><path class="j" d="M213.2,257.343v-4.5l-1.963-.982v4.5Z" transform="translate(-211.24 -251.862)"/><path class="k" d="M211.953,257.187l1.719.86v-4.256l-1.719-.86Z" transform="translate(-211.831 -252.748)"/><path class="j" d="M216.585,259.5l.137.068v-4.256l-.137-.068Z" transform="translate(-215.672 -254.669)"/></g><path class="l" d="M208.648,256.6l.443-.221v-4.5l-.443.221Z" transform="translate(-208.648 -251.876)"/><rect class="c" width="0.726" height="5.331" transform="translate(2.631 5.909) rotate(180)"/><path class="m" d="M208.648,278.419l1.9.957v-.445l-1.462-.733Z" transform="translate(-208.648 -273.7)"/><path class="c" d="M208.648,252.1l2.631,1.317v-.963l-2.188-.575Z" transform="translate(-208.648 -251.876)"/><path class="j" d="M213.02,259.85l-1.4-.7v-.126l1.4.7Z" transform="translate(-211.114 -257.801)"/><path class="j" d="M213.02,272.558l-1.4-.7v-.126l1.4.7Z" transform="translate(-211.114 -268.339)"/></g><g transform="translate(3.902 1.962)"><g transform="translate(0.443)"><path class="j" d="M190.357,245.857v-4.5l-1.963-.982v4.5Z" transform="translate(-188.394 -240.375)"/><path class="k" d="M189.107,245.7l1.719.86V242.3l-1.719-.86Z" transform="translate(-188.985 -241.262)"/><path class="j" d="M193.739,248.017l.137.068V243.83l-.137-.068Z" transform="translate(-192.826 -243.183)"/></g><path class="l" d="M185.8,245.109l.443-.221v-4.5l-.443.221Z" transform="translate(-185.802 -240.389)"/><rect class="c" width="0.726" height="5.331" transform="translate(2.631 5.909) rotate(180)"/><path class="m" d="M185.8,266.933l1.9.957v-.445l-1.462-.733Z" transform="translate(-185.802 -262.213)"/><path class="c" d="M185.8,240.614l2.631,1.317v-.963l-2.188-.575Z" transform="translate(-185.802 -240.389)"/><path class="j" d="M190.174,248.363l-1.4-.7v-.126l1.4.7Z" transform="translate(-188.268 -246.315)"/><path class="j" d="M190.174,261.072l-1.4-.7v-.126l1.4.7Z" transform="translate(-188.268 -256.853)"/></g><g transform="translate(0 0)"><g transform="translate(0.443)"><path class="j" d="M167.51,234.37v-4.5l-1.963-.982v4.5Z" transform="translate(-165.548 -228.889)"/><path class="k" d="M166.26,234.214l1.719.86v-4.256l-1.719-.86Z" transform="translate(-166.139 -229.775)"/><path class="j" d="M170.893,236.531l.137.068v-4.256l-.137-.068Z" transform="translate(-169.98 -231.696)"/></g><path class="l" d="M162.955,233.622l.443-.221v-4.5l-.443.221Z" transform="translate(-162.955 -228.903)"/><rect class="c" width="0.726" height="5.331" transform="translate(2.631 5.909) rotate(180)"/><path class="m" d="M162.955,255.446l1.9.957v-.445l-1.462-.733Z" transform="translate(-162.955 -250.727)"/><path class="c" d="M162.955,229.127l2.631,1.317v-.963l-2.188-.575Z" transform="translate(-162.955 -228.903)"/><path class="j" d="M167.328,236.877l-1.4-.7v-.126l1.4.7Z" transform="translate(-165.421 -234.828)"/><path class="j" d="M167.328,249.585l-1.4-.7v-.126l1.4.7Z" transform="translate(-165.421 -245.366)"/></g></g><g transform="translate(2.021 29.37)"><g transform="translate(11.706 5.885)"><g transform="translate(0.443)"><path class="j" d="M236.049,230.517v-4.5l-1.963-.982v4.5Z" transform="translate(-234.086 -225.036)"/><path class="k" d="M234.8,230.361l1.719.86v-4.256l-1.719-.86Z" transform="translate(-234.677 -225.923)"/><path class="j" d="M239.431,232.678l.137.068V228.49l-.137-.068Z" transform="translate(-238.518 -227.844)"/></g><path class="l" d="M231.494,229.769l.443-.221v-4.5l-.443.221Z" transform="translate(-231.494 -225.05)"/><rect class="c" width="0.726" height="5.331" transform="translate(2.631 5.909) rotate(180)"/><path class="m" d="M231.494,251.594l1.9.957v-.445l-1.462-.733Z" transform="translate(-231.494 -246.874)"/><path class="c" d="M231.494,225.274l2.631,1.317v-.963l-2.188-.575Z" transform="translate(-231.494 -225.05)"/><path class="j" d="M235.866,233.024l-1.4-.7V232.2l1.4.7Z" transform="translate(-233.96 -230.975)"/><path class="j" d="M235.866,245.733l-1.4-.7v-.126l1.4.7Z" transform="translate(-233.96 -241.513)"/></g><g transform="translate(7.804 3.924)"><g transform="translate(0.443)"><path class="j" d="M213.2,219.031v-4.5l-1.963-.982v4.5Z" transform="translate(-211.24 -213.55)"/><path class="k" d="M211.953,218.875l1.719.86v-4.256l-1.719-.86Z" transform="translate(-211.831 -214.436)"/><path class="j" d="M216.585,221.192l.137.068V217l-.137-.068Z" transform="translate(-215.672 -216.357)"/></g><path class="l" d="M208.648,218.283l.443-.221v-4.5l-.443.221Z" transform="translate(-208.648 -213.564)"/><rect class="c" width="0.726" height="5.331" transform="translate(2.631 5.909) rotate(180)"/><path class="m" d="M208.648,240.107l1.9.957v-.445l-1.462-.733Z" transform="translate(-208.648 -235.388)"/><path class="c" d="M208.648,213.788l2.631,1.317v-.963l-2.188-.575Z" transform="translate(-208.648 -213.564)"/><path class="j" d="M213.02,221.538l-1.4-.7v-.126l1.4.7Z" transform="translate(-211.114 -219.489)"/><path class="j" d="M213.02,234.246l-1.4-.7v-.126l1.4.7Z" transform="translate(-211.114 -230.027)"/></g><g transform="translate(3.902 1.962)"><g transform="translate(0.443)"><path class="j" d="M190.357,207.544v-4.5l-1.963-.982v4.5Z" transform="translate(-188.394 -202.063)"/><path class="k" d="M189.107,207.388l1.719.86v-4.256l-1.719-.86Z" transform="translate(-188.985 -202.95)"/><path class="j" d="M193.739,209.705l.137.068v-4.256l-.137-.068Z" transform="translate(-192.826 -204.871)"/></g><path class="l" d="M185.8,206.8l.443-.221v-4.5l-.443.221Z" transform="translate(-185.802 -202.077)"/><rect class="c" width="0.726" height="5.331" transform="translate(2.631 5.909) rotate(180)"/><path class="m" d="M185.8,228.621l1.9.957v-.445l-1.462-.733Z" transform="translate(-185.802 -223.901)"/><path class="c" d="M185.8,202.3l2.631,1.317v-.963l-2.188-.575Z" transform="translate(-185.802 -202.077)"/><path class="j" d="M190.174,210.051l-1.4-.7v-.126l1.4.7Z" transform="translate(-188.268 -208.002)"/><path class="j" d="M190.174,222.76l-1.4-.7v-.126l1.4.7Z" transform="translate(-188.268 -218.54)"/></g><g transform="translate(0.443)"><path class="j" d="M167.51,196.058v-4.5l-1.963-.982v4.5Z" transform="translate(-165.548 -190.577)"/><path class="k" d="M166.26,195.9l1.719.86v-4.256l-1.719-.86Z" transform="translate(-166.139 -191.463)"/><path class="j" d="M170.893,198.219l.137.068v-4.256l-.137-.068Z" transform="translate(-169.98 -193.384)"/></g><path class="l" d="M162.955,195.31l.443-.221v-4.5l-.443.221Z" transform="translate(-162.955 -190.591)"/><rect class="c" width="0.726" height="5.331" transform="translate(2.631 5.909) rotate(180)"/><path class="m" d="M162.955,217.134l1.9.957v-.445l-1.462-.733Z" transform="translate(-162.955 -212.415)"/><path class="c" d="M162.955,190.815l2.631,1.317v-.963l-2.188-.575Z" transform="translate(-162.955 -190.591)"/><path class="j" d="M167.328,198.565l-1.4-.7v-.126l1.4.7Z" transform="translate(-165.421 -196.516)"/><path class="j" d="M167.328,211.273l-1.4-.7v-.126l1.4.7Z" transform="translate(-165.421 -207.054)"/></g><g transform="translate(2.021 22.31)"><g transform="translate(11.706 5.885)"><g transform="translate(0.443)"><path class="j" d="M236.049,189.184v-4.5l-1.963-.982v4.5Z" transform="translate(-234.086 -183.703)"/><path class="k" d="M234.8,189.028l1.719.86v-4.256l-1.719-.86Z" transform="translate(-234.677 -184.589)"/><path class="j" d="M239.431,191.345l.137.068v-4.256l-.137-.068Z" transform="translate(-238.518 -186.51)"/></g><path class="l" d="M231.494,188.436l.443-.221v-4.5l-.443.221Z" transform="translate(-231.494 -183.717)"/><rect class="c" width="0.726" height="5.331" transform="translate(2.631 5.909) rotate(180)"/><path class="m" d="M231.494,210.26l1.9.957v-.445l-1.462-.733Z" transform="translate(-231.494 -205.541)"/><path class="g" d="M231.494,183.941l2.631,1.317V184.3l-2.188-.575Z" transform="translate(-231.494 -183.717)"/><path class="j" d="M235.866,191.691l-1.4-.7v-.126l1.4.7Z" transform="translate(-233.96 -189.642)"/><path class="j" d="M235.866,204.4l-1.4-.7v-.126l1.4.7Z" transform="translate(-233.96 -200.18)"/></g><g transform="translate(7.804 3.924)"><g transform="translate(0.443)"><path class="j" d="M213.2,177.7v-4.5l-1.963-.982v4.5Z" transform="translate(-211.24 -172.217)"/><path class="k" d="M211.953,177.542l1.719.86v-4.256l-1.719-.86Z" transform="translate(-211.831 -173.103)"/><path class="j" d="M216.585,179.858l.137.068v-4.256l-.137-.068Z" transform="translate(-215.672 -175.024)"/></g><path class="l" d="M208.648,176.95l.443-.221v-4.5l-.443.221Z" transform="translate(-208.648 -172.23)"/><rect class="c" width="0.726" height="5.331" transform="translate(2.631 5.909) rotate(180)"/><path class="m" d="M208.648,198.774l1.9.957v-.445l-1.462-.733Z" transform="translate(-208.648 -194.054)"/><path class="g" d="M208.648,172.455l2.631,1.317v-.963l-2.188-.575Z" transform="translate(-208.648 -172.23)"/><path class="j" d="M213.02,180.2l-1.4-.7v-.126l1.4.7Z" transform="translate(-211.114 -178.156)"/><path class="j" d="M213.02,192.913l-1.4-.7v-.126l1.4.7Z" transform="translate(-211.114 -188.694)"/></g><g transform="translate(3.902 1.962)"><g transform="translate(0.443)"><path class="j" d="M190.357,166.211v-4.5l-1.963-.982v4.5Z" transform="translate(-188.394 -160.73)"/><path class="k" d="M189.107,166.055l1.719.86v-4.256l-1.719-.86Z" transform="translate(-188.985 -161.617)"/><path class="j" d="M193.739,168.372l.137.068v-4.256l-.137-.068Z" transform="translate(-192.826 -163.537)"/></g><path class="l" d="M185.8,165.463l.443-.221v-4.5l-.443.221Z" transform="translate(-185.802 -160.744)"/><rect class="c" width="0.726" height="5.331" transform="translate(2.631 5.909) rotate(180)"/><path class="m" d="M185.8,187.287l1.9.957V187.8l-1.462-.733Z" transform="translate(-185.802 -182.568)"/><path class="g" d="M185.8,160.968l2.631,1.317v-.963l-2.188-.575Z" transform="translate(-185.802 -160.744)"/><path class="j" d="M190.174,168.718l-1.4-.7v-.126l1.4.7Z" transform="translate(-188.268 -166.669)"/><path class="j" d="M190.174,181.427l-1.4-.7V180.6l1.4.7Z" transform="translate(-188.268 -177.207)"/></g><g transform="translate(0.443)"><path class="j" d="M167.51,154.725v-4.5l-1.963-.982v4.5Z" transform="translate(-165.548 -149.244)"/><path class="k" d="M166.26,154.569l1.719.86v-4.256l-1.719-.86Z" transform="translate(-166.139 -150.13)"/><path class="j" d="M170.893,156.885l.137.068V152.7l-.137-.068Z" transform="translate(-169.98 -152.051)"/></g><path class="l" d="M162.955,153.977l.443-.221v-4.5l-.443.221Z" transform="translate(-162.955 -149.257)"/><rect class="c" width="0.726" height="5.331" transform="translate(2.631 5.909) rotate(180)"/><path class="m" d="M162.955,175.8l1.9.957v-.445l-1.462-.733Z" transform="translate(-162.955 -171.082)"/><path class="g" d="M162.955,149.482l2.631,1.317v-.963l-2.188-.575Z" transform="translate(-162.955 -149.257)"/><path class="j" d="M167.328,157.231l-1.4-.7v-.126l1.4.7Z" transform="translate(-165.421 -155.183)"/><path class="j" d="M167.328,169.94l-1.4-.7v-.126l1.4.7Z" transform="translate(-165.421 -165.721)"/></g><g transform="translate(18.241 15.73)"><g transform="translate(1.387 12.241)"><g transform="translate(0 13.732)"><g transform="translate(0.225)"><path class="j" d="M267.369,268.269v-4.5l1.963-.982v4.5Z" transform="translate(-267.369 -262.788)"/><path class="k" d="M269.8,268.113l-1.719.86v-4.256l1.719-.86Z" transform="translate(-267.96 -263.675)"/><path class="j" d="M272.851,270.43l-.137.068v-4.256l.137-.068Z" transform="translate(-271.801 -265.596)"/></g><path class="c" d="M279.3,267.521l-.443-.221v-4.5l.443.221Z" transform="translate(-276.673 -262.802)"/><rect class="d" width="0.726" height="5.331" transform="translate(0 0.578)"/><path class="n" d="M272.2,289.346l-1.9.957v-.445l1.462-.733Z" transform="translate(-269.574 -284.626)"/><path class="d" d="M268.681,263.026l-2.631,1.317v-.963l2.188-.575Z" transform="translate(-266.05 -262.802)"/><path class="j" d="M270.292,270.776l1.4-.7v-.126l-1.4.7Z" transform="translate(-269.568 -268.727)"/><path class="j" d="M270.292,283.485l1.4-.7v-.126l-1.4.7Z" transform="translate(-269.568 -279.265)"/></g><g transform="translate(0 7.319)"><g transform="translate(0.225)"><path class="j" d="M267.369,230.723v-4.5l1.963-.982v4.5Z" transform="translate(-267.369 -225.242)"/><path class="k" d="M269.8,230.567l-1.719.86v-4.256l1.719-.86Z" transform="translate(-267.96 -226.128)"/><path class="j" d="M272.851,232.884l-.137.068V228.7l.137-.068Z" transform="translate(-271.801 -228.049)"/></g><path class="c" d="M279.3,229.975l-.443-.221v-4.5l.443.221Z" transform="translate(-276.673 -225.256)"/><rect class="d" width="0.726" height="5.331" transform="translate(0 0.578)"/><path class="n" d="M272.2,251.8l-1.9.957v-.445l1.462-.733Z" transform="translate(-269.574 -247.08)"/><path class="d" d="M268.681,225.48,266.05,226.8v-.963l2.188-.575Z" transform="translate(-266.05 -225.256)"/><path class="j" d="M270.292,233.23l1.4-.7V232.4l-1.4.7Z" transform="translate(-269.568 -231.181)"/><path class="j" d="M270.292,245.938l1.4-.7v-.126l-1.4.7Z" transform="translate(-269.568 -241.719)"/></g><g transform="translate(0.225)"><path class="j" d="M267.369,187.87v-4.5l1.963-.982v4.5Z" transform="translate(-267.369 -182.389)"/><path class="k" d="M269.8,187.714l-1.719.86v-4.256l1.719-.86Z" transform="translate(-267.96 -183.275)"/><path class="j" d="M272.851,190.03l-.137.068v-4.256l.137-.068Z" transform="translate(-271.801 -185.196)"/></g><path class="c" d="M279.3,187.122l-.443-.221v-4.5l.443.221Z" transform="translate(-276.673 -182.403)"/><rect class="d" width="0.726" height="5.331" transform="translate(0 0.578)"/><path class="n" d="M272.2,208.946l-1.9.957v-.445l1.462-.733Z" transform="translate(-269.574 -204.227)"/><path class="d" d="M268.681,182.627l-2.631,1.317v-.963l2.188-.575Z" transform="translate(-266.05 -182.403)"/><path class="j" d="M270.292,190.377l1.4-.7v-.126l-1.4.7Z" transform="translate(-269.568 -188.328)"/><path class="j" d="M270.292,203.085l1.4-.7v-.126l-1.4.7Z" transform="translate(-269.568 -198.866)"/><path class="o" d="M273.509,183.929l-.764,4.436-.338.613,1.545-.776v-4.5Z" transform="translate(-271.321 -183.482)"/><path class="o" d="M273.509,226.8l-.764,4.436-.338.613,1.545-.776v-4.5Z" transform="translate(-271.321 -219.034)"/><path class="o" d="M273.509,264.338l-.764,4.436-.338.613,1.545-.776v-4.5Z" transform="translate(-271.321 -250.158)"/></g><g transform="translate(6.168 9.792)"><g transform="translate(0 13.732)"><g transform="translate(0.225)"><path class="j" d="M295.364,253.928v-4.5l1.963-.982v4.5Z" transform="translate(-295.364 -248.447)"/><path class="k" d="M297.8,253.772l-1.719.86v-4.256l1.719-.86Z" transform="translate(-295.955 -249.333)"/><path class="j" d="M300.846,256.088l-.137.068V251.9l.137-.068Z" transform="translate(-299.796 -251.254)"/></g><path class="c" d="M307.3,253.18l-.443-.221v-4.5l.443.221Z" transform="translate(-304.667 -248.46)"/><rect class="d" width="0.726" height="5.331" transform="translate(0 0.578)"/><path class="n" d="M300.2,275l-1.9.957v-.445l1.462-.733Z" transform="translate(-297.568 -270.285)"/><path class="d" d="M296.675,248.685,294.044,250v-.963l2.188-.575Z" transform="translate(-294.044 -248.46)"/><path class="j" d="M298.287,256.434l1.4-.7v-.126l-1.4.7Z" transform="translate(-297.562 -254.386)"/><path class="j" d="M298.287,269.143l1.4-.7v-.126l-1.4.7Z" transform="translate(-297.562 -264.924)"/></g><g transform="translate(0 7.319)"><g transform="translate(0.225)"><path class="j" d="M295.364,216.381v-4.5l1.963-.982v4.5Z" transform="translate(-295.364 -210.9)"/><path class="k" d="M297.8,216.225l-1.719.86v-4.256l1.719-.86Z" transform="translate(-295.955 -211.787)"/><path class="j" d="M300.846,218.542l-.137.068v-4.256l.137-.068Z" transform="translate(-299.796 -213.708)"/></g><path class="c" d="M307.3,215.633l-.443-.221v-4.5l.443.221Z" transform="translate(-304.667 -210.914)"/><rect class="d" width="0.726" height="5.331" transform="translate(0 0.578)"/><path class="n" d="M300.2,237.458l-1.9.957v-.445l1.462-.733Z" transform="translate(-297.568 -232.738)"/><path class="d" d="M296.675,211.138l-2.631,1.317v-.963l2.188-.575Z" transform="translate(-294.044 -210.914)"/><path class="j" d="M298.287,218.888l1.4-.7v-.126l-1.4.7Z" transform="translate(-297.562 -216.839)"/><path class="j" d="M298.287,231.6l1.4-.7v-.126l-1.4.7Z" transform="translate(-297.562 -227.377)"/></g><g transform="translate(0.225)"><path class="j" d="M295.364,173.528v-4.5l1.963-.982v4.5Z" transform="translate(-295.364 -168.047)"/><path class="k" d="M297.8,173.372l-1.719.86v-4.256l1.719-.86Z" transform="translate(-295.955 -168.933)"/><path class="j" d="M300.846,175.689l-.137.068V171.5l.137-.068Z" transform="translate(-299.796 -170.854)"/></g><path class="c" d="M307.3,172.78l-.443-.221v-4.5l.443.221Z" transform="translate(-304.667 -168.061)"/><rect class="d" width="0.726" height="5.331" transform="translate(0 0.578)"/><path class="n" d="M300.2,194.6l-1.9.957v-.445l1.462-.733Z" transform="translate(-297.568 -189.885)"/><path class="d" d="M296.675,168.285l-2.631,1.317v-.963l2.188-.575Z" transform="translate(-294.044 -168.061)"/><path class="j" d="M298.287,176.035l1.4-.7v-.126l-1.4.7Z" transform="translate(-297.562 -173.986)"/><path class="j" d="M298.287,188.743l1.4-.7v-.126l-1.4.7Z" transform="translate(-297.562 -184.524)"/><path class="o" d="M301.5,249.969l-.764,4.436-.338.613,1.545-.776v-4.5Z" transform="translate(-299.315 -235.794)"/><path class="o" d="M301.5,212.446l-.764,4.436-.338.613,1.545-.776v-4.5Z" transform="translate(-299.315 -204.679)"/><path class="o" d="M301.5,169.586l-.764,4.436-.338.613,1.545-.776v-4.5Z" transform="translate(-299.315 -169.14)"/></g><g transform="translate(0 12.034)"><path class="c" d="M258.136,204.823l-.209-.1V183.512l.209.1Z" transform="translate(-257.927 -183.113)"/><path class="p" d="M259.98,202.9l-.83.415V182.11l.83-.415Z" transform="translate(-258.942 -181.606)"/><path class="q" d="M257.927,181.573l.209.1.83-.415-.2-.089Z" transform="translate(-257.927 -181.174)"/></g><g transform="translate(4.87 9.599)"><path class="c" d="M286.653,190.571l-.209-.1V169.259l.209.1Z" transform="translate(-286.444 -168.86)"/><path class="p" d="M288.5,188.649l-.83.415V167.857l.83-.415Z" transform="translate(-287.459 -167.353)"/><path class="q" d="M286.444,167.321l.209.1.83-.415-.2-.089Z" transform="translate(-286.444 -166.921)"/></g><g transform="translate(10.932 7.501)"><g transform="translate(0 7.319)"><g transform="translate(0.225)"><path class="j" d="M323.258,202.973v-4.5l1.963-.982v4.5Z" transform="translate(-323.258 -197.492)"/><path class="k" d="M325.689,202.817l-1.719.86v-4.256l1.719-.86Z" transform="translate(-323.848 -198.378)"/><path class="j" d="M328.739,205.134l-.137.068v-4.256l.137-.068Z" transform="translate(-327.69 -200.299)"/></g><path class="c" d="M335.192,202.225l-.443-.221v-4.5l.443.221Z" transform="translate(-332.561 -197.506)"/><rect class="d" width="0.726" height="5.331" transform="translate(0 0.578)"/><path class="n" d="M328.093,224.049l-1.9.957v-.445l1.462-.733Z" transform="translate(-325.462 -219.33)"/><path class="d" d="M324.569,197.73l-2.631,1.317v-.963l2.188-.575Z" transform="translate(-321.938 -197.506)"/><path class="j" d="M326.18,205.48l1.4-.7v-.126l-1.4.7Z" transform="translate(-325.456 -203.431)"/><path class="j" d="M326.18,218.188l1.4-.7v-.126l-1.4.7Z" transform="translate(-325.456 -213.969)"/></g><g transform="translate(0.225)"><path class="j" d="M323.258,160.12v-4.5l1.963-.982v4.5Z" transform="translate(-323.258 -154.639)"/><path class="k" d="M325.689,159.964l-1.719.86v-4.256l1.719-.86Z" transform="translate(-323.848 -155.525)"/><path class="j" d="M328.739,162.28l-.137.068v-4.256l.137-.068Z" transform="translate(-327.69 -157.446)"/></g><path class="c" d="M335.192,159.372l-.443-.221v-4.5l.443.221Z" transform="translate(-332.561 -154.652)"/><rect class="d" width="0.726" height="5.331" transform="translate(0 0.578)"/><path class="n" d="M328.093,181.2l-1.9.957v-.445l1.462-.733Z" transform="translate(-325.462 -176.477)"/><path class="d" d="M324.569,154.877l-2.631,1.317v-.963l2.188-.575Z" transform="translate(-321.938 -154.652)"/><path class="j" d="M326.18,162.626l1.4-.7V161.8l-1.4.7Z" transform="translate(-325.456 -160.578)"/><path class="j" d="M326.18,175.335l1.4-.7v-.126l-1.4.7Z" transform="translate(-325.456 -171.116)"/></g><g transform="translate(14.416 4.86)"><path class="c" d="M342.541,162.821l-.209-.1V141.509l.209.1Z" transform="translate(-342.332 -141.11)"/><path class="p" d="M344.385,160.9l-.83.415V140.107l.83-.415Z" transform="translate(-343.347 -139.603)"/><path class="q" d="M342.332,139.571l.209.1.83-.415-.2-.089Z" transform="translate(-342.332 -139.171)"/></g><g transform="translate(15.857 5.083)"><g transform="translate(0 7.319)"><g transform="translate(0.225)"><path class="j" d="M352.09,188.814v-4.5l1.963-.982v4.5Z" transform="translate(-352.09 -183.333)"/><path class="k" d="M354.522,188.658l-1.719.86v-4.256l1.719-.86Z" transform="translate(-352.681 -184.22)"/><path class="j" d="M357.572,190.975l-.137.068v-4.256l.137-.068Z" transform="translate(-356.522 -186.141)"/></g><path class="c" d="M364.025,188.066l-.443-.221v-4.5l.443.221Z" transform="translate(-361.394 -183.347)"/><rect class="d" width="0.726" height="5.331" transform="translate(0 0.578)"/><path class="n" d="M356.925,209.891l-1.9.957V210.4l1.462-.733Z" transform="translate(-354.295 -205.171)"/><path class="d" d="M353.4,183.571l-2.631,1.317v-.963l2.188-.575Z" transform="translate(-350.771 -183.347)"/><path class="j" d="M355.013,191.321l1.4-.7V190.5l-1.4.7Z" transform="translate(-354.289 -189.272)"/><path class="j" d="M355.013,204.03l1.4-.7V203.2l-1.4.7Z" transform="translate(-354.289 -199.81)"/></g><g transform="translate(0.225)"><path class="j" d="M352.09,145.961v-4.5l1.963-.982v4.5Z" transform="translate(-352.09 -140.48)"/><path class="k" d="M354.522,145.805l-1.719.86v-4.256l1.719-.86Z" transform="translate(-352.681 -141.366)"/><path class="j" d="M357.572,148.122l-.137.068v-4.256l.137-.068Z" transform="translate(-356.522 -143.287)"/></g><path class="c" d="M364.025,145.213l-.443-.221v-4.5l.443.221Z" transform="translate(-361.394 -140.494)"/><rect class="d" width="0.726" height="5.331" transform="translate(0 0.578)"/><path class="n" d="M356.925,167.037l-1.9.957v-.445l1.462-.733Z" transform="translate(-354.295 -162.318)"/><path class="d" d="M353.4,140.718l-2.631,1.317v-.963l2.188-.575Z" transform="translate(-350.771 -140.494)"/><path class="j" d="M355.013,148.468l1.4-.7v-.126l-1.4.7Z" transform="translate(-354.289 -146.419)"/><path class="j" d="M355.013,161.176l1.4-.7v-.126l-1.4.7Z" transform="translate(-354.289 -156.957)"/></g><g transform="translate(19.34 2.442)"><path class="c" d="M371.374,148.662l-.209-.1V127.35l.209.1Z" transform="translate(-371.165 -126.951)"/><path class="p" d="M373.218,146.74l-.83.415V125.948l.83-.415Z" transform="translate(-372.18 -125.444)"/><path class="q" d="M371.165,125.412l.209.1.83-.415-.2-.089Z" transform="translate(-371.165 -125.013)"/></g><g transform="translate(20.846 2.681)"><g transform="translate(0 7.319)"><g transform="translate(0.225)"><path class="j" d="M381.3,174.747v-4.5l1.963-.982v4.5Z" transform="translate(-381.304 -169.266)"/><path class="k" d="M383.736,174.591l-1.719.86V171.2l1.719-.86Z" transform="translate(-381.895 -170.153)"/><path class="j" d="M386.786,176.908l-.137.068V172.72l.137-.068Z" transform="translate(-385.737 -172.074)"/></g><path class="c" d="M393.239,174l-.443-.221v-4.5l.443.221Z" transform="translate(-390.608 -169.28)"/><rect class="d" width="0.726" height="5.331" transform="translate(0 0.578)"/><path class="n" d="M386.14,195.824l-1.9.957v-.445l1.462-.733Z" transform="translate(-383.509 -191.104)"/><path class="d" d="M382.616,169.5l-2.631,1.317v-.963l2.188-.575Z" transform="translate(-379.985 -169.28)"/><path class="j" d="M384.227,177.254l1.4-.7v-.126l-1.4.7Z" transform="translate(-383.503 -175.205)"/><path class="j" d="M384.227,189.963l1.4-.7v-.126l-1.4.7Z" transform="translate(-383.503 -185.743)"/></g><g transform="translate(0.225)"><path class="j" d="M381.3,131.894v-4.5l1.963-.982v4.5Z" transform="translate(-381.304 -126.413)"/><path class="k" d="M383.736,131.738l-1.719.86v-4.256l1.719-.86Z" transform="translate(-381.895 -127.299)"/><path class="j" d="M386.786,134.055l-.137.068v-4.256l.137-.068Z" transform="translate(-385.737 -129.22)"/></g><path class="c" d="M393.239,131.146l-.443-.221v-4.5l.443.221Z" transform="translate(-390.608 -126.427)"/><rect class="d" width="0.726" height="5.331" transform="translate(0 0.578)"/><path class="n" d="M386.14,152.97l-1.9.957v-.445l1.462-.733Z" transform="translate(-383.509 -148.251)"/><path class="d" d="M382.616,126.651l-2.631,1.317v-.963l2.188-.575Z" transform="translate(-379.985 -126.427)"/><path class="j" d="M384.227,134.4l1.4-.7v-.126l-1.4.7Z" transform="translate(-383.503 -132.352)"/><path class="j" d="M384.227,147.109l1.4-.7v-.126l-1.4.7Z" transform="translate(-383.503 -142.89)"/></g><g transform="translate(24.33)"><path class="c" d="M400.588,134.366l-.209-.1V113.054l.209.1Z" transform="translate(-400.379 -112.655)"/><path class="p" d="M402.432,132.444l-.83.415V111.652l.83-.415Z" transform="translate(-401.394 -111.148)"/><path class="q" d="M400.379,111.116l.209.1.83-.415-.2-.089Z" transform="translate(-400.379 -110.717)"/></g><g transform="translate(25.836 0.33)"><g transform="translate(0 13.732)"><g transform="translate(0.225)"><path class="j" d="M410.519,198.532v-4.5l1.963-.982v4.5Z" transform="translate(-410.519 -193.051)"/><path class="k" d="M412.951,198.376l-1.719.86v-4.256l1.719-.86Z" transform="translate(-411.11 -193.937)"/><path class="j" d="M416,200.692l-.137.068V196.5l.137-.068Z" transform="translate(-414.951 -195.858)"/></g><path class="c" d="M422.453,197.784l-.443-.221v-4.5l.443.221Z" transform="translate(-419.822 -193.064)"/><rect class="d" width="0.726" height="5.331" transform="translate(0 0.578)"/><path class="n" d="M415.354,219.608l-1.9.957v-.445l1.462-.733Z" transform="translate(-412.723 -214.889)"/><path class="d" d="M411.83,193.289l-2.631,1.317v-.963l2.188-.575Z" transform="translate(-409.199 -193.064)"/><path class="j" d="M413.441,201.038l1.4-.7v-.126l-1.4.7Z" transform="translate(-412.717 -198.99)"/><path class="j" d="M413.441,213.747l1.4-.7v-.126l-1.4.7Z" transform="translate(-412.717 -209.528)"/></g><g transform="translate(0 7.319)"><g transform="translate(0.225)"><path class="j" d="M410.519,160.985v-4.5l1.963-.982V160Z" transform="translate(-410.519 -155.504)"/><path class="k" d="M412.951,160.829l-1.719.86v-4.256l1.719-.86Z" transform="translate(-411.11 -156.391)"/><path class="j" d="M416,163.146l-.137.068v-4.256l.137-.068Z" transform="translate(-414.951 -158.312)"/></g><path class="c" d="M422.453,160.238l-.443-.221v-4.5l.443.221Z" transform="translate(-419.822 -155.518)"/><rect class="d" width="0.726" height="5.331" transform="translate(0 0.578)"/><path class="n" d="M415.354,182.062l-1.9.957v-.445l1.462-.733Z" transform="translate(-412.723 -177.342)"/><path class="d" d="M411.83,155.742,409.2,157.06V156.1l2.188-.575Z" transform="translate(-409.199 -155.518)"/><path class="j" d="M413.441,163.492l1.4-.7v-.126l-1.4.7Z" transform="translate(-412.717 -161.443)"/><path class="j" d="M413.441,176.2l1.4-.7v-.126l-1.4.7Z" transform="translate(-412.717 -171.981)"/></g><g transform="translate(0.225)"><path class="j" d="M410.519,118.132v-4.5l1.963-.982v4.5Z" transform="translate(-410.519 -112.651)"/><path class="k" d="M412.951,117.976l-1.719.86V114.58l1.719-.86Z" transform="translate(-411.11 -113.538)"/><path class="j" d="M416,120.293l-.137.068v-4.256l.137-.068Z" transform="translate(-414.951 -115.458)"/></g><path class="c" d="M422.453,117.384l-.443-.221v-4.5l.443.221Z" transform="translate(-419.822 -112.665)"/><rect class="d" width="0.726" height="5.331" transform="translate(0 0.578)"/><path class="n" d="M415.354,139.208l-1.9.957v-.445l1.462-.733Z" transform="translate(-412.723 -134.489)"/><path class="d" d="M411.83,112.889l-2.631,1.317v-.963l2.188-.575Z" transform="translate(-409.199 -112.665)"/><path class="j" d="M413.441,120.639l1.4-.7v-.126l-1.4.7Z" transform="translate(-412.717 -118.59)"/><path class="j" d="M413.441,133.348l1.4-.7v-.126l-1.4.7Z" transform="translate(-412.717 -129.128)"/></g></g><g transform="translate(47.16 10.991)"><g transform="translate(1.387 2.642)"><g transform="translate(0 13.732)"><g transform="translate(0.225)"><path class="j" d="M436.693,184.315v-4.5l1.963-.982v4.5Z" transform="translate(-436.693 -178.834)"/><path class="k" d="M439.125,184.159l-1.719.86v-4.256l1.719-.86Z" transform="translate(-437.284 -179.72)"/><path class="j" d="M442.175,186.476l-.137.068v-4.256l.137-.068Z" transform="translate(-441.125 -181.641)"/></g><path class="c" d="M448.628,183.567l-.443-.221v-4.5l.443.221Z" transform="translate(-445.997 -178.848)"/><rect class="d" width="0.726" height="5.331" transform="translate(0 0.578)"/><path class="n" d="M441.528,205.391l-1.9.957V205.9l1.462-.733Z" transform="translate(-438.898 -200.672)"/><path class="d" d="M438,179.072l-2.631,1.317v-.963l2.188-.575Z" transform="translate(-435.374 -178.848)"/><path class="j" d="M439.616,186.822l1.4-.7V186l-1.4.7Z" transform="translate(-438.892 -184.773)"/><path class="j" d="M439.616,199.53l1.4-.7V198.7l-1.4.7Z" transform="translate(-438.892 -195.311)"/></g><g transform="translate(0 7.319)"><g transform="translate(0.225)"><path class="j" d="M436.693,146.769v-4.5l1.963-.982v4.5Z" transform="translate(-436.693 -141.288)"/><path class="k" d="M439.125,146.613l-1.719.86v-4.256l1.719-.86Z" transform="translate(-437.284 -142.174)"/><path class="j" d="M442.175,148.929l-.137.068v-4.256l.137-.068Z" transform="translate(-441.125 -144.095)"/></g><path class="c" d="M448.628,146.021l-.443-.221v-4.5l.443.221Z" transform="translate(-445.997 -141.301)"/><rect class="d" width="0.726" height="5.331" transform="translate(0 0.578)"/><path class="n" d="M441.528,167.845l-1.9.957v-.445l1.462-.733Z" transform="translate(-438.898 -163.126)"/><path class="d" d="M438,141.526l-2.631,1.317v-.963l2.188-.575Z" transform="translate(-435.374 -141.301)"/><path class="j" d="M439.616,149.275l1.4-.7v-.126l-1.4.7Z" transform="translate(-438.892 -147.227)"/><path class="j" d="M439.616,161.984l1.4-.7v-.126l-1.4.7Z" transform="translate(-438.892 -157.765)"/></g><g transform="translate(0.225)"><path class="j" d="M436.693,103.915v-4.5l1.963-.982v4.5Z" transform="translate(-436.693 -98.434)"/><path class="k" d="M439.125,103.759l-1.719.86v-4.256l1.719-.86Z" transform="translate(-437.284 -99.321)"/><path class="j" d="M442.175,106.076l-.137.068v-4.256l.137-.068Z" transform="translate(-441.125 -101.242)"/></g><path class="c" d="M448.628,103.168l-.443-.221v-4.5l.443.221Z" transform="translate(-445.997 -98.448)"/><rect class="d" width="0.726" height="5.331" transform="translate(0 0.578)"/><path class="n" d="M441.528,124.992l-1.9.957V125.5l1.462-.733Z" transform="translate(-438.898 -120.272)"/><path class="d" d="M438,98.673l-2.631,1.317v-.963l2.188-.575Z" transform="translate(-435.374 -98.448)"/><path class="j" d="M439.616,106.422l1.4-.7V105.6l-1.4.7Z" transform="translate(-438.892 -104.373)"/><path class="j" d="M439.616,119.131l1.4-.7v-.126l-1.4.7Z" transform="translate(-438.892 -114.911)"/></g><g transform="translate(0 2.434)"><path class="r" d="M427.46,120.869l-.209-.1V99.558l.209.1Z" transform="translate(-427.251 -99.158)"/><path class="s" d="M429.3,118.947l-.83.415V98.155l.83-.415Z" transform="translate(-428.266 -97.651)"/><path class="q" d="M427.251,97.619l.209.1.83-.415-.2-.089Z" transform="translate(-427.251 -97.22)"/></g><g transform="translate(4.87)"><path class="c" d="M455.977,106.616l-.209-.1V85.3l.209.1Z" transform="translate(-455.768 -84.906)"/><path class="p" d="M457.821,104.695l-.83.415V83.9l.83-.415Z" transform="translate(-456.782 -83.399)"/><path class="q" d="M455.768,83.366l.209.1.83-.415-.2-.089Z" transform="translate(-455.768 -82.967)"/></g><path class="o" d="M442.833,99.969l-.764,4.436-.338.613,1.545-.776v-4.5Z" transform="translate(-439.257 -96.882)"/><path class="o" d="M442.833,142.817l-.764,4.436-.338.613,1.545-.776v-4.5Z" transform="translate(-439.257 -132.412)"/><path class="o" d="M442.833,180.43l-.764,4.436-.338.613,1.545-.776v-4.5Z" transform="translate(-439.257 -163.601)"/></g><g transform="translate(0.324 20.993)"><path class="l" d="M170.324,152.036l-17.3-8.664v-.595l17.3,8.664Z" transform="translate(-153.019 -142.565)"/><path class="e" d="M170.325,150.41l-17.3-8.663.427-.214,17.3,8.663Z" transform="translate(-153.02 -141.533)"/><g transform="translate(16.876 3.665)"><path class="t" d="M254.334,170.934l9.618-4.787v-.579l-9.618,4.771Z" transform="translate(-253.907 -165.128)"/><path class="e" d="M252.258,168.2l10.045-4.982-.427-.23-10.045,5Z" transform="translate(-251.83 -162.991)"/></g></g><g transform="translate(0 1.166)"><g transform="translate(36.551)"><path class="r" d="M382.777,37.053l-17.641-8.824v-.9l17.641,8.824Z" transform="translate(-365.136 -27.005)"/><path class="e" d="M382.779,34.589l-17.641-8.823.648-.324,17.641,8.824Z" transform="translate(-365.138 -25.442)"/></g><g transform="translate(0.459 0.078)"><path class="r" d="M157.6,48.189,193.7,30.152v-.9L157.6,47.288Z" transform="translate(-156.955 -28.678)"/><path class="e" d="M154.458,44.508l36.6-18.281-.66-.33L153.81,44.185Z" transform="translate(-153.81 -25.897)"/></g><g transform="translate(0 18.27)"><path class="c" d="M168.764,144.023,151.124,135.2v-.9l17.641,8.824Z" transform="translate(-151.124 -133.976)"/><path class="e" d="M168.766,141.56l-17.641-8.824.648-.324,17.641,8.824Z" transform="translate(-151.125 -132.413)"/></g><g transform="translate(16.992 20.765)"><path class="d" d="M254.407,159.473l11.312-5.666v-.876l-11.312,5.642Z" transform="translate(-253.759 -151.921)"/><path class="e" d="M251.262,153.674l11.312-5.641.676-1.011-12.636,6.328Z" transform="translate(-250.614 -147.021)"/></g></g><g transform="translate(44.731 11.443)"><path class="d" d="M415.531,92.119l9.151-4.585v-.579l-9.151,4.569Z" transform="translate(-415.104 -86.728)"/><path class="e" d="M413.455,90.416l9.151-4.568-.427-.23L413.028,90.2Z" transform="translate(-413.028 -85.618)"/></g><g transform="translate(42.963 9.702)"><path class="d" d="M406.471,83.866,417.783,78.2l-.012-.9-11.3,5.661Z" transform="translate(-405.823 -76.982)"/><path class="e" d="M403.325,81.4l11.3-5.66-.647-.323-11.3,5.66Z" transform="translate(-402.678 -75.421)"/></g><path class="u" d="M175.058,133.547l-8.881-10.024-7.447,1.841Z" transform="translate(-157.431 -105.606)"/><g transform="translate(39.812 32.409)"><path class="j" d="M386.714,213.423l-2.487,1.244v-5.049l2.487-1.244Z" transform="translate(-384.227 -208.374)"/><path class="c" d="M396.568,208.563v4.7l.379.157v-5.049Z" transform="translate(-394.46 -208.374)"/><path class="e" d="M384.227,238.417l2.487-1.244-.379-.157-2.108,1.022Z" transform="translate(-384.227 -232.124)"/></g><g transform="translate(34.639 34.935)"><path class="j" d="M356.425,228.209l-2.487,1.244V224.4l2.487-1.244Z" transform="translate(-353.939 -223.16)"/><path class="c" d="M366.279,223.35v4.7l.379.157V223.16Z" transform="translate(-364.171 -223.16)"/><path class="e" d="M353.939,253.2l2.487-1.244-.379-.157-2.108,1.022Z" transform="translate(-353.939 -246.911)"/></g><g transform="translate(29.797 37.33)"><path class="j" d="M328.073,242.236l-2.487,1.244v-5.049l2.487-1.244Z" transform="translate(-325.587 -237.187)"/><path class="c" d="M337.927,237.377v4.7l.379.157v-5.049Z" transform="translate(-335.819 -237.187)"/><path class="e" d="M325.587,267.23l2.487-1.244-.379-.157-2.108,1.022Z" transform="translate(-325.587 -260.938)"/></g><path class="v" d="M202.334,36.532l35.909-17.917,9.057,10.05L211.27,46.619Z" transform="translate(-193.587 -18.615)"/><g transform="translate(24.41 10.26)"><path class="o" d="M326.713,234.9l-1.557-.779-1.4-.259-1.6-6.553-.338-.367-.216.2-.944.732,1.4,6.825,2.209.865Z" transform="translate(-316.114 -201.625)"/><g transform="translate(21.837 6.344)"><g transform="translate(0 1.861)"><g transform="translate(0 16.759)"><path class="c" d="M423.461,230.681,421.9,229.9v-.483l1.557.779Z" transform="translate(-421.904 -228.641)"/><path class="e" d="M423.461,226.418l-1.557-.779,1.557-.779,1.557.779Z" transform="translate(-421.904 -224.86)"/><path class="d" d="M432.58,229.9l-1.557.779V230.2l1.557-.779Z" transform="translate(-429.465 -228.641)"/></g><g transform="translate(0.244 16.448)"><path class="c" d="M424.647,227.948l-1.313-.657v-.407l1.313.657Z" transform="translate(-423.333 -226.227)"/><path class="e" d="M424.647,224.353l-1.313-.657,1.313-.657,1.313.657Z" transform="translate(-423.333 -223.04)"/><path class="d" d="M432.335,227.291l-1.313.657v-.407l1.313-.657Z" transform="translate(-429.709 -226.227)"/></g><g transform="translate(0.69)"><g transform="translate(0 15.946)"><path class="p" d="M426.812,222.639h-.867v.669h1.734v-.669Z" transform="translate(-425.944 -222.206)"/><path class="p" d="M427.425,224.144c.339.169.339.444,0,.613a1.545,1.545,0,0,1-1.227,0c-.339-.169-.339-.444,0-.613A1.545,1.545,0,0,1,427.425,224.144Z" transform="translate(-425.945 -223.348)"/><ellipse class="e" cx="0.867" cy="0.434" rx="0.867" ry="0.434" transform="translate(0)"/></g><g transform="translate(0.101)"><path class="p" d="M427.3,128.975h-.766v15.846h1.532V128.975Z" transform="translate(-426.536 -128.592)"/><ellipse class="p" cx="0.766" cy="0.383" rx="0.766" ry="0.383" transform="translate(0 15.846)"/><path class="w" d="M427.844,126.844c.3.15.3.392,0,.542a1.365,1.365,0,0,1-1.083,0c-.3-.15-.3-.392,0-.542A1.364,1.364,0,0,1,427.844,126.844Z" transform="translate(-426.536 -126.732)"/></g></g></g><g transform="translate(0.69 1.292)"><path class="p" d="M426.812,125.94h-.867v.669h1.734v-.669Z" transform="translate(-425.944 -125.506)"/><ellipse class="p" cx="0.867" cy="0.434" rx="0.867" ry="0.434" transform="translate(0 0.669)"/><ellipse class="w" cx="0.867" cy="0.434" rx="0.867" ry="0.434" transform="translate(0)"/></g><g transform="translate(0.244 0.636)"><path class="x" d="M424.647,124.465l-1.313-.657V123.4l1.313.657Z" transform="translate(-423.333 -122.744)"/><path class="w" d="M424.647,120.87l-1.313-.657,1.313-.657,1.313.657Z" transform="translate(-423.333 -119.557)"/><path class="y" d="M432.335,123.808l-1.313.657v-.407l1.313-.657Z" transform="translate(-429.709 -122.744)"/></g><path class="c" d="M423.461,121.655l-1.557-.779v-.483l1.557.779Z" transform="translate(-421.904 -119.615)"/><path class="w" d="M423.461,117.392l-1.557-.779,1.557-.779,1.557.779Z" transform="translate(-421.904 -115.834)"/><path class="p" d="M432.58,120.876l-1.557.779v-.483l1.557-.779Z" transform="translate(-429.465 -119.615)"/></g><path class="o" d="M331.077,125.614l.158-.351-2.511,1.236.117-.857-18.159,8.515,1.172,9.817,1.477-1.145,1.462-1.356.443-.411.852.026.228-.139.811-.683V139.9l1.763-1.078,1.27-1.432.852-.148.209.06.83-.428v-.153l1.192-.769v1.2l2.757-3,.209.163.831-.726v10.481l3.76.022.139-.413.153-.072.143-.336-.361-.317,0-.67.2-.171.029-15.642-.177-.023-.011-.6.319-.156Z" transform="translate(-307.841 -117.309)"/><g transform="translate(2.836 15.75)"><g transform="translate(0 1.861)"><g transform="translate(0 16.759)"><path class="c" d="M312.2,285.757l-1.557-.779V284.5l1.557.779Z" transform="translate(-310.648 -283.717)"/><path class="e" d="M312.205,281.494l-1.557-.779,1.557-.779,1.557.779Z" transform="translate(-310.648 -279.936)"/><path class="d" d="M321.323,284.978l-1.557.779v-.483l1.557-.779Z" transform="translate(-318.209 -283.717)"/></g><g transform="translate(0.244 16.449)"><path class="c" d="M313.39,283.024l-1.313-.657v-.407l1.313.657Z" transform="translate(-312.077 -281.303)"/><path class="e" d="M313.391,279.429l-1.313-.657,1.313-.657,1.313.657Z" transform="translate(-312.077 -278.116)"/><path class="d" d="M321.079,282.367l-1.313.657v-.407l1.313-.657Z" transform="translate(-318.453 -281.303)"/></g><g transform="translate(0.69)"><g transform="translate(0 15.947)"><path class="p" d="M315.556,277.715h-.867v.669h1.734v-.669Z" transform="translate(-314.688 -277.282)"/><ellipse class="p" cx="0.867" cy="0.434" rx="0.867" ry="0.434" transform="translate(0 0.669)"/><path class="e" d="M316.169,275.3c.339.169.339.444,0,.613a1.545,1.545,0,0,1-1.226,0c-.339-.169-.339-.444,0-.613A1.545,1.545,0,0,1,316.169,275.3Z" transform="translate(-314.689 -275.177)"/></g><g transform="translate(0.101)"><path class="p" d="M316.046,184.051h-.766V199.9h1.532V184.051Z" transform="translate(-315.28 -183.668)"/><ellipse class="p" cx="0.766" cy="0.383" rx="0.766" ry="0.383" transform="translate(0 15.846)"/><ellipse class="w" cx="0.766" cy="0.383" rx="0.766" ry="0.383" transform="translate(0)"/></g></g></g><g transform="translate(0.69 1.292)"><path class="p" d="M315.556,181.016h-.867v.669h1.734v-.669Z" transform="translate(-314.688 -180.582)"/><ellipse class="p" cx="0.867" cy="0.434" rx="0.867" ry="0.434" transform="translate(0 0.669)"/><path class="w" d="M316.169,178.6c.339.169.339.444,0,.613a1.543,1.543,0,0,1-1.226,0c-.339-.169-.339-.444,0-.613A1.543,1.543,0,0,1,316.169,178.6Z" transform="translate(-314.689 -178.477)"/></g><g transform="translate(0.244 0.636)"><path class="x" d="M313.39,179.541l-1.313-.657v-.407l1.313.657Z" transform="translate(-312.077 -177.82)"/><path class="w" d="M313.391,175.946l-1.313-.657,1.313-.657,1.313.657Z" transform="translate(-312.077 -174.633)"/><path class="y" d="M321.079,178.884l-1.313.657v-.407l1.313-.657Z" transform="translate(-318.453 -177.82)"/></g><path class="c" d="M312.2,176.731l-1.557-.779v-.483l1.557.779Z" transform="translate(-310.648 -174.691)"/><path class="w" d="M312.205,172.468l-1.557-.779,1.557-.779,1.557.779Z" transform="translate(-310.648 -170.91)"/><path class="p" d="M321.323,175.952l-1.557.779v-.483l1.557-.779Z" transform="translate(-318.209 -174.691)"/></g><g transform="translate(9.042 12.618)"><g transform="translate(0 1.861)"><g transform="translate(0 16.759)"><path class="c" d="M348.542,267.416l-1.557-.779v-.483l1.557.779Z" transform="translate(-346.984 -265.376)"/><path class="e" d="M348.542,263.152l-1.557-.779,1.557-.779,1.557.779Z" transform="translate(-346.984 -261.595)"/><path class="d" d="M357.66,266.637l-1.557.779v-.483l1.557-.779Z" transform="translate(-354.545 -265.376)"/></g><g transform="translate(0.244 16.449)"><path class="c" d="M349.727,264.683l-1.313-.657v-.407l1.313.657Z" transform="translate(-348.414 -262.962)"/><path class="e" d="M349.727,261.087l-1.313-.657,1.313-.657,1.313.657Z" transform="translate(-348.414 -259.774)"/><path class="d" d="M357.416,264.026l-1.313.657v-.407l1.313-.657Z" transform="translate(-354.79 -262.962)"/></g><g transform="translate(0.69)"><g transform="translate(0 15.947)"><path class="p" d="M351.892,259.374h-.867v.669h1.734v-.669Z" transform="translate(-351.025 -258.94)"/><ellipse class="p" cx="0.867" cy="0.434" rx="0.867" ry="0.434" transform="translate(0 0.669)"/><ellipse class="e" cx="0.867" cy="0.434" rx="0.867" ry="0.434" transform="translate(0)"/></g><g transform="translate(0.101)"><path class="p" d="M352.383,165.709h-.766v15.846h1.532V165.709Z" transform="translate(-351.617 -165.326)"/><ellipse class="p" cx="0.766" cy="0.383" rx="0.766" ry="0.383" transform="translate(0 15.846)"/><ellipse class="w" cx="0.766" cy="0.383" rx="0.766" ry="0.383"/></g></g></g><g transform="translate(0.69 1.292)"><path class="p" d="M351.892,162.675h-.867v.669h1.734v-.669Z" transform="translate(-351.025 -162.241)"/><ellipse class="p" cx="0.867" cy="0.434" rx="0.867" ry="0.434" transform="translate(0 0.669)"/><ellipse class="w" cx="0.867" cy="0.434" rx="0.867" ry="0.434" transform="translate(0)"/></g><g transform="translate(0.244 0.636)"><path class="x" d="M349.727,161.2l-1.313-.657v-.407l1.313.657Z" transform="translate(-348.414 -159.479)"/><path class="w" d="M349.727,157.6l-1.313-.657,1.313-.657,1.313.657Z" transform="translate(-348.414 -156.291)"/><path class="y" d="M357.416,160.543l-1.313.657v-.407l1.313-.657Z" transform="translate(-354.79 -159.479)"/></g><path class="c" d="M348.542,158.39l-1.557-.779v-.483l1.557.779Z" transform="translate(-346.984 -156.35)"/><path class="w" d="M348.542,154.126l-1.557-.779,1.557-.779,1.557.779Z" transform="translate(-346.984 -152.569)"/><path class="p" d="M357.66,157.611l-1.557.779v-.483l1.557-.779Z" transform="translate(-354.545 -156.35)"/></g><g transform="translate(15.317 9.511)"><g transform="translate(0 1.861)"><g transform="translate(0 16.759)"><path class="c" d="M385.287,249.224l-1.557-.779v-.483l1.557.779Z" transform="translate(-383.729 -247.183)"/><path class="e" d="M385.287,244.96l-1.557-.779,1.557-.779,1.557.779Z" transform="translate(-383.729 -243.403)"/><path class="d" d="M394.405,248.445l-1.557.779v-.483l1.557-.779Z" transform="translate(-391.291 -247.183)"/></g><g transform="translate(0.244 16.449)"><path class="c" d="M386.472,246.49l-1.313-.657v-.407l1.313.657Z" transform="translate(-385.159 -244.77)"/><path class="e" d="M386.472,242.9l-1.313-.657,1.313-.657,1.313.657Z" transform="translate(-385.159 -241.582)"/><path class="d" d="M394.161,245.834l-1.313.657v-.407l1.313-.657Z" transform="translate(-391.535 -244.77)"/></g><g transform="translate(0.69)"><g transform="translate(0 15.947)"><path class="p" d="M388.637,241.182h-.867v.669H389.5v-.669Z" transform="translate(-387.77 -240.748)"/><ellipse class="p" cx="0.867" cy="0.434" rx="0.867" ry="0.434" transform="translate(0 0.669)"/><path class="e" d="M389.25,238.77c.339.169.339.444,0,.613a1.543,1.543,0,0,1-1.226,0c-.339-.169-.339-.444,0-.613A1.543,1.543,0,0,1,389.25,238.77Z" transform="translate(-387.77 -238.643)"/></g><g transform="translate(0.101)"><path class="p" d="M389.128,147.517h-.766v15.846h1.532V147.517Z" transform="translate(-388.362 -147.134)"/><ellipse class="p" cx="0.766" cy="0.383" rx="0.766" ry="0.383" transform="translate(0 15.846)"/><ellipse class="w" cx="0.766" cy="0.383" rx="0.766" ry="0.383"/></g></g></g><g transform="translate(0.69 1.292)"><path class="p" d="M388.637,144.483h-.867v.669H389.5v-.669Z" transform="translate(-387.77 -144.049)"/><ellipse class="p" cx="0.867" cy="0.434" rx="0.867" ry="0.434" transform="translate(0 0.669)"/><path class="w" d="M389.25,142.071c.339.169.339.444,0,.613a1.545,1.545,0,0,1-1.226,0c-.339-.169-.339-.444,0-.613A1.545,1.545,0,0,1,389.25,142.071Z" transform="translate(-387.77 -141.944)"/></g><g transform="translate(0.244 0.636)"><path class="x" d="M386.472,143.008l-1.313-.657v-.407l1.313.657Z" transform="translate(-385.159 -141.287)"/><path class="w" d="M386.472,139.412l-1.313-.657,1.313-.657,1.313.657Z" transform="translate(-385.159 -138.099)"/><path class="y" d="M394.161,142.351l-1.313.657V142.6l1.313-.657Z" transform="translate(-391.535 -141.287)"/></g><path class="c" d="M385.287,140.2l-1.557-.779v-.483l1.557.779Z" transform="translate(-383.729 -138.158)"/><path class="w" d="M385.287,135.934l-1.557-.779,1.557-.779,1.557.779Z" transform="translate(-383.729 -134.377)"/><path class="p" d="M394.405,139.419l-1.557.779v-.483l1.557-.779Z" transform="translate(-391.291 -138.158)"/></g><path class="z" d="M306.964,80.95l-4.641-2.259-8.279,9.794,2.188,3.394.648.347Z" transform="translate(-294.044 -78.69)"/><path class="aa" d="M342.517,78.69l10.923,1.77,2.907,1.484-9.189-.994Z" transform="translate(-334.238 -78.69)"/><g transform="translate(4.393 2.626)"><path class="p" d="M340.35,98.615l-20.584,10.136v-2.946l9.879-11.739,10.7,1.6Z" transform="translate(-319.766 -94.066)"/><g transform="translate(0.804 0.841)"><path class="u" d="M343.212,107.174l.064,1.478-18.8,9.241v.521l19.188-9.43-.064-1.752Z" transform="translate(-324.472 -105.777)"/><path class="ab" d="M343.212,100.39l-9.338-1.4-9.4,10.939v1.177l18.8-9.241Z" transform="translate(-324.472 -98.993)"/></g></g><path class="c" d="M312.205,158.772v2.946l-1.557-.782v-2.994Z" transform="translate(-307.812 -144.407)"/><path class="u" d="M310.648,101.179l1.557.83,9.886-11.739-1.557-.782Z" transform="translate(-307.812 -87.643)"/><path class="ac" d="M368.532,89.488l1.557.782,10.7,1.606-1.557-.782Z" transform="translate(-355.81 -87.643)"/><path class="e" d="M310.135,163.851l-.418.209-1.566-.784.429-.215Z" transform="translate(-305.742 -148.652)"/><path class="x" d="M311.787,166.138v.553l-1.133-.538-.006-.585Z" transform="translate(-307.812 -150.73)"/><path class="p" d="M317.737,167.683v.551l-.418.215v-.557Z" transform="translate(-313.344 -152.484)"/></g><path class="ad" d="M158.73,38.373l7.447-1.841,35.909-17.917-7.454,1.817Z" transform="translate(-157.431 -18.615)"/><path class="o" d="M440.855,233.422v.226l.329.632v.226l.363.616v.228l1.3-.478v-.683l-1.757-.882Z" transform="translate(-391.372 -196.64)"/><path class="o" d="M362.538,195.793l.38,6.374.209.292.83,1.608V205l1.107.186,1.557.779-2.94.254L361.9,205.8l-.345-7.163-.26-.312-.079-1.5.846-.954Z" transform="translate(-325.337 -165.533)"/><path class="o" d="M385.286,144.051l-.183.3.183.092-.316.158v.6l.185.025v15.645l-.185.177v.669l.316.309-.316.249-.152.072-.273.346-.817-.409V161.8l.244-.122v-.311l.446-.223v-.5a.3.3,0,0,1,.111-.213l-.017-15.438a.259.259,0,0,1-.094-.2v-.316Z" transform="translate(-344.002 -122.628)"/><path class="o" d="M348.541,162.136l-.186.313.186.093-.224.2v.569l.151.013v15.645l-.217.179v.669l.29.3-.411.2-.139.078-.287.34-.72-.36V179.9l.244-.122v-.311l.446-.223v-.5a.225.225,0,0,1,.1-.2V163.1a.273.273,0,0,1-.1-.2v-.334Z" transform="translate(-313.533 -137.624)"/><path class="ae" d="M312.092,179.62l.186.093-.224.2v.569l.151.013v15.645l-.217.179v.669l.29.3-.411.2-.139.078-.287.34-.72-.36v-.483l.244-.122v-.311l.446-.223v-.5a.225.225,0,0,1,.1-.2v-15.44a.287.287,0,0,1-.1-.178c-.008-.056,0-.193,0-.476v-.022l-.446-.223v-.316Z" transform="translate(-283.463 -151.654)"/></g><path class="ae" d="M166.973,131.949l-2.358-.532-13.489-6.747h1.3l7.447-1.841Z" transform="translate(-151.125 -105.029)"/><path class="af" d="M279.318,84.434l-10.276,9.1.1,2.775-5.566,3.667,2.038-.116L270.2,97.57l1.412-.7L281.312,85.4Z" transform="translate(-244.371 -73.192)"/></g><g transform="translate(-1824.046 151.798)"><path class="ag" d="M677.652,56.49l-.012-.006-.013,0-.008,0h-.005l-.015,0h-.035l-.021,0-.011,0-.009,0-.01,0a.335.335,0,0,0-.038.019l-1.716.991a.3.3,0,0,1-.046.021l-.009,0a.2.2,0,0,1-.041.009h0a.151.151,0,0,1-.041,0h0a.122.122,0,0,1-.037-.014l1.356.788h0l.013.006.013,0,.01,0h0l.015,0h.036l.022,0,.01,0,.009,0,.011,0,.036-.018,1.716-.991a.306.306,0,0,1,.049-.022l.009,0a.2.2,0,0,1,.041-.009h0a.146.146,0,0,1,.039,0h0a.123.123,0,0,1,.035.013l-1.356-.788Z" transform="translate(-671.767 -55.773)"/><path class="ah" d="M628.559,131.235l0-.009a.165.165,0,0,0-.021-.041l0-.005a.124.124,0,0,0-.034-.03l-1.356-.788a.125.125,0,0,1,.034.03l0,.005a.16.16,0,0,1,.021.041l0,.009a.244.244,0,0,1,.01.052s0,.005,0,.008a.369.369,0,0,1,0,.061s0,0,0,.006l0,.009c0,.012,0,.024-.007.037l-.525,2.182,0,.014c0,.009,0,.017,0,.025l0,.011v0s0,0,0,0a.338.338,0,0,0,0,.062s0,.005,0,.007a.227.227,0,0,0,.011.051l0,.009a.155.155,0,0,0,.021.039l0,.005a.128.128,0,0,0,.032.028l1.356.788a.126.126,0,0,1-.032-.028l0-.005a.154.154,0,0,1-.021-.039l0-.009a.22.22,0,0,1-.011-.051s0,0,0-.007a.349.349,0,0,1,0-.062s0,0,0-.007l0-.011c0-.013,0-.025.007-.039l.525-2.182,0-.013c0-.008,0-.016,0-.024l0-.009v0s0,0,0,0a.357.357,0,0,0,0-.061s0-.005,0-.008A.244.244,0,0,0,628.559,131.235Z" transform="translate(-625.612 -125.491)"/><path class="ai" d="M611.159,44.043l-.012-.006-.013,0-.013,0h0l-.015,0h-.035l-.023,0-.013,0-.009,0-.008,0a.305.305,0,0,0-.037.018.4.4,0,0,0-.042.028l-.013.011-.027.024-.006,0-.017.018-.008.009,0,0-.02.024-.007.009,0,.005-.005.007-.014.021-.008.013,0,0,0,0-.011.02-.01.021v.006l-.007.015-.009.023,0,.011,0,.005,0,.008-.008.028,0,.019-.525,2.181c0,.017-.009.033-.015.05l0,.005c-.006.015-.012.031-.019.046l0,0c-.007.016-.015.031-.024.046h0q-.014.023-.029.045l0,0c-.01.013-.02.026-.03.038l0,0c-.01.012-.021.023-.032.034l-.027.024-.013.011a.4.4,0,0,1-.042.028l-1.716.991a.4.4,0,0,0-.043.029l-.013.011-.026.023,0,0-.027.029h0l0,0-.016.02-.011.015,0,0,0,0-.014.021-.01.016,0,0v0l-.012.021-.01.019h0l-.01.022-.009.021h0l-.009.025,0,.016,0,.007v0q0,.015-.008.031v0l0,.014c0,.007,0,.013,0,.02s0,0,0,0a.362.362,0,0,0,0,.057s0,.007,0,.01a.241.241,0,0,0,.008.047l0,.007a.163.163,0,0,0,.021.042l.006.008a.122.122,0,0,0,.034.031l1.356.788a.124.124,0,0,1-.034-.031l-.006-.008a.163.163,0,0,1-.021-.042l0-.007a.24.24,0,0,1-.008-.046s0-.007,0-.01a.362.362,0,0,1,0-.057c0-.008,0-.016,0-.024l0-.014c0-.013.006-.026.01-.039l0-.007c0-.014.009-.027.014-.041h0c.006-.015.012-.03.019-.044h0c.007-.014.015-.029.023-.043l0,0c.008-.013.017-.027.026-.039l0,0q.013-.018.027-.035l0,0c.01-.012.02-.022.031-.033l.026-.023.014-.012a.387.387,0,0,1,.043-.029l1.716-.991a.392.392,0,0,0,.042-.028l.013-.011.027-.024,0,0,.028-.03,0,0,0,0,.015-.019.014-.02,0,0h0l.015-.022.013-.021h0l.01-.019.011-.021,0-.006,0,0,.005-.011.009-.023,0-.012,0-.005,0-.007.008-.026,0-.017.525-2.181a.542.542,0,0,1,.016-.054l0-.005q.009-.025.02-.049v0c.008-.016.016-.032.025-.048l0,0c.009-.014.018-.028.027-.041l0-.005.029-.036.008-.009.023-.023.027-.024.013-.011a.385.385,0,0,1,.041-.028.311.311,0,0,1,.045-.021l.009,0a.219.219,0,0,1,.041-.01h0a.151.151,0,0,1,.042,0h0a.118.118,0,0,1,.039.014l-1.356-.788Z" transform="translate(-608.007 -44.027)"/><g transform="translate(1.356 0.788)"><path class="aj" d="M637.753,58.739l-1.716.991c-.11.063-.207.039-.241-.062L635.26,58.1c-.038-.112-.14-.12-.241-.062a.55.55,0,0,0-.24.34l-.525,2.182a.563.563,0,0,1-.24.34l-1.716.991c-.245.142-.346.56-.147.611l1.392.358c.089.023.126.132.093.272l-.525,2.182c-.057.237.084.334.242.242a.482.482,0,0,0,.148-.142l1.385-1.96a.486.486,0,0,1,.148-.141.2.2,0,0,1,.149-.03l1.392.357a.2.2,0,0,0,.148-.029.52.52,0,0,0,.24-.521l-.536-1.57a.461.461,0,0,1,.091-.378l1.385-1.961C638.1,58.9,638,58.6,637.753,58.739Z" transform="translate(-632.046 -58.001)"/></g><g transform="translate(1.342 0.777)"><path class="ak" d="M634.972,57.821a.141.141,0,0,0-.1-.027.344.344,0,0,0-.181.082.574.574,0,0,0-.13.152.633.633,0,0,0-.044.091c-.013.032-.021.065-.03.095-.069.246-.138.491-.2.738s-.128.493-.193.74l-.092.371-.046.186-.023.093a.5.5,0,0,1-.026.076.511.511,0,0,1-.087.138.4.4,0,0,1-.057.054l-.032.021-.041.024-.33.194c-.218.131-.438.26-.655.395s-.434.268-.65.4a.563.563,0,0,0-.239.317.467.467,0,0,0-.02.2.357.357,0,0,0,.012.048.2.2,0,0,0,.024.044.135.135,0,0,0,.081.051.145.145,0,0,1-.091-.146.436.436,0,0,1,.039-.178.508.508,0,0,1,.237-.261c.226-.119.451-.239.674-.361s.446-.247.669-.37l.332-.189.042-.024a.526.526,0,0,0,.048-.031.581.581,0,0,0,.083-.076.681.681,0,0,0,.118-.183.618.618,0,0,0,.035-.1l.022-.093.044-.186.087-.372c.055-.249.113-.5.165-.747s.1-.5.155-.749c.006-.032.011-.062.02-.09a.547.547,0,0,1,.135-.233.312.312,0,0,1,.153-.092.122.122,0,0,1,.086.012.148.148,0,0,1,.058.072A.155.155,0,0,0,634.972,57.821Z" transform="translate(-631.794 -57.794)"/></g></g><g transform="translate(-1796.604 139.3)"><path class="ag" d="M677.652,56.49l-.012-.006-.013,0-.008,0h-.005l-.015,0h-.035l-.021,0-.011,0-.009,0-.01,0a.335.335,0,0,0-.038.019l-1.716.991a.3.3,0,0,1-.046.021l-.009,0a.2.2,0,0,1-.041.009h0a.151.151,0,0,1-.041,0h0a.122.122,0,0,1-.037-.014l1.356.788h0l.013.006.013,0,.01,0h0l.015,0h.036l.022,0,.01,0,.009,0,.011,0,.036-.018,1.716-.991a.306.306,0,0,1,.049-.022l.009,0a.2.2,0,0,1,.041-.009h0a.146.146,0,0,1,.039,0h0a.123.123,0,0,1,.035.013l-1.356-.788Z" transform="translate(-671.767 -55.773)"/><path class="ah" d="M628.559,131.235l0-.009a.165.165,0,0,0-.021-.041l0-.005a.124.124,0,0,0-.034-.03l-1.356-.788a.125.125,0,0,1,.034.03l0,.005a.16.16,0,0,1,.021.041l0,.009a.244.244,0,0,1,.01.052s0,.005,0,.008a.369.369,0,0,1,0,.061s0,0,0,.006l0,.009c0,.012,0,.024-.007.037l-.525,2.182,0,.014c0,.009,0,.017,0,.025l0,.011v0s0,0,0,0a.338.338,0,0,0,0,.062s0,.005,0,.007a.227.227,0,0,0,.011.051l0,.009a.155.155,0,0,0,.021.039l0,.005a.128.128,0,0,0,.032.028l1.356.788a.126.126,0,0,1-.032-.028l0-.005a.154.154,0,0,1-.021-.039l0-.009a.22.22,0,0,1-.011-.051s0,0,0-.007a.349.349,0,0,1,0-.062s0,0,0-.007l0-.011c0-.013,0-.025.007-.039l.525-2.182,0-.013c0-.008,0-.016,0-.024l0-.009v0s0,0,0,0a.357.357,0,0,0,0-.061s0-.005,0-.008A.244.244,0,0,0,628.559,131.235Z" transform="translate(-625.612 -125.491)"/><path class="ai" d="M611.159,44.043l-.012-.006-.013,0-.013,0h0l-.015,0h-.035l-.023,0-.013,0-.009,0-.008,0a.305.305,0,0,0-.037.018.4.4,0,0,0-.042.028l-.013.011-.027.024-.006,0-.017.018-.008.009,0,0-.02.024-.007.009,0,.005-.005.007-.014.021-.008.013,0,0,0,0-.011.02-.01.021v.006l-.007.015-.009.023,0,.011,0,.005,0,.008-.008.028,0,.019-.525,2.181c0,.017-.009.033-.015.05l0,.005c-.006.015-.012.031-.019.046l0,0c-.007.016-.015.031-.024.046h0q-.014.023-.029.045l0,0c-.01.013-.02.026-.03.038l0,0c-.01.012-.021.023-.032.034l-.027.024-.013.011a.4.4,0,0,1-.042.028l-1.716.991a.4.4,0,0,0-.043.029l-.013.011-.026.023,0,0-.027.029h0l0,0-.016.02-.011.015,0,0,0,0-.014.021-.01.016,0,0v0l-.012.021-.01.019h0l-.01.022-.009.021h0l-.009.025,0,.016,0,.007v0q0,.015-.008.031v0l0,.014c0,.007,0,.013,0,.02s0,0,0,0a.362.362,0,0,0,0,.057s0,.007,0,.01a.241.241,0,0,0,.008.047l0,.007a.163.163,0,0,0,.021.042l.006.008a.122.122,0,0,0,.034.031l1.356.788a.124.124,0,0,1-.034-.031l-.006-.008a.163.163,0,0,1-.021-.042l0-.007a.24.24,0,0,1-.008-.046s0-.007,0-.01a.362.362,0,0,1,0-.057c0-.008,0-.016,0-.024l0-.014c0-.013.006-.026.01-.039l0-.007c0-.014.009-.027.014-.041h0c.006-.015.012-.03.019-.044h0c.007-.014.015-.029.023-.043l0,0c.008-.013.017-.027.026-.039l0,0q.013-.018.027-.035l0,0c.01-.012.02-.022.031-.033l.026-.023.014-.012a.387.387,0,0,1,.043-.029l1.716-.991a.392.392,0,0,0,.042-.028l.013-.011.027-.024,0,0,.028-.03,0,0,0,0,.015-.019.014-.02,0,0h0l.015-.022.013-.021h0l.01-.019.011-.021,0-.006,0,0,.005-.011.009-.023,0-.012,0-.005,0-.007.008-.026,0-.017.525-2.181a.542.542,0,0,1,.016-.054l0-.005q.009-.025.02-.049v0c.008-.016.016-.032.025-.048l0,0c.009-.014.018-.028.027-.041l0-.005.029-.036.008-.009.023-.023.027-.024.013-.011a.385.385,0,0,1,.041-.028.311.311,0,0,1,.045-.021l.009,0a.219.219,0,0,1,.041-.01h0a.151.151,0,0,1,.042,0h0a.118.118,0,0,1,.039.014l-1.356-.788Z" transform="translate(-608.007 -44.027)"/><g transform="translate(1.356 0.788)"><path class="aj" d="M637.753,58.739l-1.716.991c-.11.063-.207.039-.241-.062L635.26,58.1c-.038-.112-.14-.12-.241-.062a.55.55,0,0,0-.24.34l-.525,2.182a.563.563,0,0,1-.24.34l-1.716.991c-.245.142-.346.56-.147.611l1.392.358c.089.023.126.132.093.272l-.525,2.182c-.057.237.084.334.242.242a.482.482,0,0,0,.148-.142l1.385-1.96a.486.486,0,0,1,.148-.141.2.2,0,0,1,.149-.03l1.392.357a.2.2,0,0,0,.148-.029.52.52,0,0,0,.24-.521l-.536-1.57a.461.461,0,0,1,.091-.378l1.385-1.961C638.1,58.9,638,58.6,637.753,58.739Z" transform="translate(-632.046 -58.001)"/></g><g transform="translate(1.342 0.777)"><path class="ak" d="M634.972,57.821a.141.141,0,0,0-.1-.027.344.344,0,0,0-.181.082.574.574,0,0,0-.13.152.633.633,0,0,0-.044.091c-.013.032-.021.065-.03.095-.069.246-.138.491-.2.738s-.128.493-.193.74l-.092.371-.046.186-.023.093a.5.5,0,0,1-.026.076.511.511,0,0,1-.087.138.4.4,0,0,1-.057.054l-.032.021-.041.024-.33.194c-.218.131-.438.26-.655.395s-.434.268-.65.4a.563.563,0,0,0-.239.317.467.467,0,0,0-.02.2.357.357,0,0,0,.012.048.2.2,0,0,0,.024.044.135.135,0,0,0,.081.051.145.145,0,0,1-.091-.146.436.436,0,0,1,.039-.178.508.508,0,0,1,.237-.261c.226-.119.451-.239.674-.361s.446-.247.669-.37l.332-.189.042-.024a.526.526,0,0,0,.048-.031.581.581,0,0,0,.083-.076.681.681,0,0,0,.118-.183.618.618,0,0,0,.035-.1l.022-.093.044-.186.087-.372c.055-.249.113-.5.165-.747s.1-.5.155-.749c.006-.032.011-.062.02-.09a.547.547,0,0,1,.135-.233.312.312,0,0,1,.153-.092.122.122,0,0,1,.086.012.148.148,0,0,1,.058.072A.155.155,0,0,0,634.972,57.821Z" transform="translate(-631.794 -57.794)"/></g></g><g transform="translate(-1808.287 140.116)"><path class="ag" d="M677.652,56.49l-.012-.006-.013,0-.008,0h-.005l-.015,0h-.035l-.021,0-.011,0-.009,0-.01,0a.335.335,0,0,0-.038.019l-1.716.991a.3.3,0,0,1-.046.021l-.009,0a.2.2,0,0,1-.041.009h0a.151.151,0,0,1-.041,0h0a.122.122,0,0,1-.037-.014l1.356.788h0l.013.006.013,0,.01,0h0l.015,0h.036l.022,0,.01,0,.009,0,.011,0,.036-.018,1.716-.991a.306.306,0,0,1,.049-.022l.009,0a.2.2,0,0,1,.041-.009h0a.146.146,0,0,1,.039,0h0a.123.123,0,0,1,.035.013l-1.356-.788Z" transform="translate(-671.767 -55.773)"/><path class="ah" d="M628.559,131.235l0-.009a.165.165,0,0,0-.021-.041l0-.005a.124.124,0,0,0-.034-.03l-1.356-.788a.125.125,0,0,1,.034.03l0,.005a.16.16,0,0,1,.021.041l0,.009a.244.244,0,0,1,.01.052s0,.005,0,.008a.369.369,0,0,1,0,.061s0,0,0,.006l0,.009c0,.012,0,.024-.007.037l-.525,2.182,0,.014c0,.009,0,.017,0,.025l0,.011v0s0,0,0,0a.338.338,0,0,0,0,.062s0,.005,0,.007a.227.227,0,0,0,.011.051l0,.009a.155.155,0,0,0,.021.039l0,.005a.128.128,0,0,0,.032.028l1.356.788a.126.126,0,0,1-.032-.028l0-.005a.154.154,0,0,1-.021-.039l0-.009a.22.22,0,0,1-.011-.051s0,0,0-.007a.349.349,0,0,1,0-.062s0,0,0-.007l0-.011c0-.013,0-.025.007-.039l.525-2.182,0-.013c0-.008,0-.016,0-.024l0-.009v0s0,0,0,0a.357.357,0,0,0,0-.061s0-.005,0-.008A.244.244,0,0,0,628.559,131.235Z" transform="translate(-625.612 -125.491)"/><path class="ai" d="M611.159,44.043l-.012-.006-.013,0-.013,0h0l-.015,0h-.035l-.023,0-.013,0-.009,0-.008,0a.305.305,0,0,0-.037.018.4.4,0,0,0-.042.028l-.013.011-.027.024-.006,0-.017.018-.008.009,0,0-.02.024-.007.009,0,.005-.005.007-.014.021-.008.013,0,0,0,0-.011.02-.01.021v.006l-.007.015-.009.023,0,.011,0,.005,0,.008-.008.028,0,.019-.525,2.181c0,.017-.009.033-.015.05l0,.005c-.006.015-.012.031-.019.046l0,0c-.007.016-.015.031-.024.046h0q-.014.023-.029.045l0,0c-.01.013-.02.026-.03.038l0,0c-.01.012-.021.023-.032.034l-.027.024-.013.011a.4.4,0,0,1-.042.028l-1.716.991a.4.4,0,0,0-.043.029l-.013.011-.026.023,0,0-.027.029h0l0,0-.016.02-.011.015,0,0,0,0-.014.021-.01.016,0,0v0l-.012.021-.01.019h0l-.01.022-.009.021h0l-.009.025,0,.016,0,.007v0q0,.015-.008.031v0l0,.014c0,.007,0,.013,0,.02s0,0,0,0a.362.362,0,0,0,0,.057s0,.007,0,.01a.241.241,0,0,0,.008.047l0,.007a.163.163,0,0,0,.021.042l.006.008a.122.122,0,0,0,.034.031l1.356.788a.124.124,0,0,1-.034-.031l-.006-.008a.163.163,0,0,1-.021-.042l0-.007a.24.24,0,0,1-.008-.046s0-.007,0-.01a.362.362,0,0,1,0-.057c0-.008,0-.016,0-.024l0-.014c0-.013.006-.026.01-.039l0-.007c0-.014.009-.027.014-.041h0c.006-.015.012-.03.019-.044h0c.007-.014.015-.029.023-.043l0,0c.008-.013.017-.027.026-.039l0,0q.013-.018.027-.035l0,0c.01-.012.02-.022.031-.033l.026-.023.014-.012a.387.387,0,0,1,.043-.029l1.716-.991a.392.392,0,0,0,.042-.028l.013-.011.027-.024,0,0,.028-.03,0,0,0,0,.015-.019.014-.02,0,0h0l.015-.022.013-.021h0l.01-.019.011-.021,0-.006,0,0,.005-.011.009-.023,0-.012,0-.005,0-.007.008-.026,0-.017.525-2.181a.542.542,0,0,1,.016-.054l0-.005q.009-.025.02-.049v0c.008-.016.016-.032.025-.048l0,0c.009-.014.018-.028.027-.041l0-.005.029-.036.008-.009.023-.023.027-.024.013-.011a.385.385,0,0,1,.041-.028.311.311,0,0,1,.045-.021l.009,0a.219.219,0,0,1,.041-.01h0a.151.151,0,0,1,.042,0h0a.118.118,0,0,1,.039.014l-1.356-.788Z" transform="translate(-608.007 -44.027)"/><g transform="translate(1.356 0.788)"><path class="aj" d="M637.753,58.739l-1.716.991c-.11.063-.207.039-.241-.062L635.26,58.1c-.038-.112-.14-.12-.241-.062a.55.55,0,0,0-.24.34l-.525,2.182a.563.563,0,0,1-.24.34l-1.716.991c-.245.142-.346.56-.147.611l1.392.358c.089.023.126.132.093.272l-.525,2.182c-.057.237.084.334.242.242a.482.482,0,0,0,.148-.142l1.385-1.96a.486.486,0,0,1,.148-.141.2.2,0,0,1,.149-.03l1.392.357a.2.2,0,0,0,.148-.029.52.52,0,0,0,.24-.521l-.536-1.57a.461.461,0,0,1,.091-.378l1.385-1.961C638.1,58.9,638,58.6,637.753,58.739Z" transform="translate(-632.046 -58.001)"/></g><g transform="translate(1.342 0.777)"><path class="ak" d="M634.972,57.821a.141.141,0,0,0-.1-.027.344.344,0,0,0-.181.082.574.574,0,0,0-.13.152.633.633,0,0,0-.044.091c-.013.032-.021.065-.03.095-.069.246-.138.491-.2.738s-.128.493-.193.74l-.092.371-.046.186-.023.093a.5.5,0,0,1-.026.076.511.511,0,0,1-.087.138.4.4,0,0,1-.057.054l-.032.021-.041.024-.33.194c-.218.131-.438.26-.655.395s-.434.268-.65.4a.563.563,0,0,0-.239.317.467.467,0,0,0-.02.2.357.357,0,0,0,.012.048.2.2,0,0,0,.024.044.135.135,0,0,0,.081.051.145.145,0,0,1-.091-.146.436.436,0,0,1,.039-.178.508.508,0,0,1,.237-.261c.226-.119.451-.239.674-.361s.446-.247.669-.37l.332-.189.042-.024a.526.526,0,0,0,.048-.031.581.581,0,0,0,.083-.076.681.681,0,0,0,.118-.183.618.618,0,0,0,.035-.1l.022-.093.044-.186.087-.372c.055-.249.113-.5.165-.747s.1-.5.155-.749c.006-.032.011-.062.02-.09a.547.547,0,0,1,.135-.233.312.312,0,0,1,.153-.092.122.122,0,0,1,.086.012.148.148,0,0,1,.058.072A.155.155,0,0,0,634.972,57.821Z" transform="translate(-631.794 -57.794)"/></g></g></g></svg>