<svg xmlns="http://www.w3.org/2000/svg" width="35.593" height="64.487" viewBox="0 0 35.593 64.487"><defs><style>.a,.aj,.y{mix-blend-mode:multiply;}.a,.aj,.y,.z{isolation:isolate;}.aj,.b{fill:#afafaf;}.c{fill:#886bb2;}.d{fill:#b2b09a;}.e{fill:#b495d8;}.f{fill:#dfddc6;}.g{fill:#a57b6a;}.h{fill:#bfbfbf;}.i{fill:#664436;}.j{fill:#8c6452;}.k{fill:#adadad;}.l{fill:#969696;}.m{fill:#e5e5e5;}.n{fill:#9fffff;}.o{fill:#5afbff;}.p{fill:#65b7a4;}.q{fill:#92e5d3;}.r{fill:#b2aa60;}.s{fill:#e5e092;}.t{fill:#fff;}.u{fill:#a8a8a8;}.v{fill:#bf7e71;}.w{fill:#e5a392;}.x{fill:#edecdf;}.y{fill:#bbb;}.aa{fill:#421313;}.ab{fill:#210a0a;}.ac{fill:#611b1b;}.ad{fill:#471414;}.ae{fill:#330f0f;}.af{fill:#ddd;}.ag{fill:#919191;}.ah{fill:#f2f2f2;}.ai{fill:#c9c9c9;}.ak{fill:#b75809;}.al{fill:#ef8935;}.am{fill:#631313;}.an{fill:#db7214;}.ao{fill:#558919;}.ap{fill:#71b22d;}.aq{fill:#8fcc48;}.ar{fill:#a7db63;}</style></defs><g transform="translate(-358.785 -384.48)"><g transform="translate(358.785 384.48)"><g class="a" transform="translate(4.111 44.604)"><path class="b" d="M399.969,497.53l-13.5-7.793-17.983,10.4,10.142,8.319,3.326-.525Z" transform="translate(-368.487 -489.736)"/></g><g transform="translate(14.237 7.794)"><path class="c" d="M410.4,402.872l-18.014,10.4.016,34.738,18.013-10.4Z" transform="translate(-392.382 -402.872)"/></g><g transform="translate(14.253 43.005)"><path class="d" d="M411.219,485.962l-18.8,9.928v10.391l18.8-10.852Z" transform="translate(-392.42 -485.962)"/></g><g transform="translate(0.754 10.401)"><path class="e" d="M374.048,416.817l-13.468-7.794-.015,34.738,13.5,7.794Z" transform="translate(-360.565 -409.023)"/></g><g transform="translate(0 45.576)"><path class="f" d="M373.069,509.778l-14.284-8.227V492.03l14.253,7.356Z" transform="translate(-358.785 -492.03)"/></g><g transform="translate(0.77)"><path class="g" d="M392.083,392.274l-13.5-7.794L360.6,394.88l13.468,7.794Z" transform="translate(-360.601 -384.48)"/></g><g transform="translate(2.723 1.129)"><path class="h" d="M392.786,393.971l-11.824-6.827-15.75,9.111,11.8,6.826Z" transform="translate(-365.212 -387.144)"/></g><g transform="translate(14.237 7.794)"><path class="i" d="M410.4,402.872l-18.014,10.4.016,1.825,18-10.537Z" transform="translate(-392.382 -402.872)"/></g><g transform="translate(0.754 10.401)"><path class="j" d="M360.58,409.023l-.015,1.662,13.5,7.956-.016-1.825Z" transform="translate(-360.565 -409.023)"/></g><g transform="translate(18.473 1.129)"><path class="k" d="M402.379,387.144v1.469l10.529,6.1,1.3-.747Z" transform="translate(-402.379 -387.144)"/></g><g transform="translate(2.723 1.129)"><path class="l" d="M380.962,387.144l-15.75,9.111,1.382.8,14.368-8.441Z" transform="translate(-365.212 -387.144)"/></g><g transform="translate(25.327 45.389)"><g transform="translate(0.356 0.627)"><path class="c" d="M425.063,493.068l-5.67,3.293v5.886l.1.07,5.566-3.36Z" transform="translate(-419.393 -493.068)"/></g><g transform="translate(0.483 0.499)"><path class="e" d="M425.362,492.765l-5.671,3.493v5.884l5.671-3.289Z" transform="translate(-419.692 -492.765)"/></g><g transform="translate(0.764 1.354)"><path class="m" d="M425.463,494.783l-5.107,2.969v4.9l5.107-2.965Z" transform="translate(-420.356 -494.783)"/></g><g transform="translate(0.926 1.728)"><path class="n" d="M425.522,495.666l-4.784,2.783v4.332L425.522,500Z" transform="translate(-420.738 -495.666)"/></g><g transform="translate(0.926 3.793)"><path class="o" d="M421.975,500.538l-1.237.719,3.339,2.392,1.445-.84Z" transform="translate(-420.738 -500.538)"/></g><g transform="translate(3.375 1.728)"><path class="o" d="M426.517,497.03l2.335,1.3v-2.665Z" transform="translate(-426.517 -495.666)"/></g><g transform="translate(0.926 6.637)"><path class="o" d="M422.453,508.46l-1.715-1.211v2.207Z" transform="translate(-420.738 -507.249)"/></g><path class="c" d="M424.842,492.061l-6.175,3.731-.115-.089v-.452l6.29-3.664.114.055Z" transform="translate(-418.552 -491.588)"/><g transform="translate(0.115 0.055)"><path class="e" d="M425.112,492.191l-6.289,3.676v-.486l6.289-3.663Z" transform="translate(-418.823 -491.718)"/></g></g><g transform="translate(16.118 50.64)"><g transform="translate(0.355 0.627)"><path class="p" d="M403.329,505.458l-5.672,3.3v5.884l.1.071,5.567-3.361Z" transform="translate(-397.657 -505.458)"/></g><g transform="translate(0.481 0.5)"><path class="q" d="M403.627,505.159l-5.672,3.493v5.884l5.672-3.29Z" transform="translate(-397.956 -505.159)"/></g><g transform="translate(0.764 1.354)"><path class="m" d="M403.729,507.175l-5.107,2.969v4.9l5.107-2.964Z" transform="translate(-398.622 -507.175)"/></g><g transform="translate(0.925 1.73)"><path class="n" d="M403.788,508.062,399,510.844v4.331l4.784-2.779Z" transform="translate(-399.003 -508.062)"/></g><g transform="translate(0.925 3.792)"><path class="o" d="M400.241,512.928l-1.238.721,3.34,2.392,1.444-.839Z" transform="translate(-399.003 -512.928)"/></g><g transform="translate(3.375 1.73)"><path class="o" d="M404.784,509.425l2.335,1.3v-2.663Z" transform="translate(-404.784 -508.062)"/></g><g transform="translate(0.925 6.636)"><path class="o" d="M400.718,520.851,399,519.639v2.208Z" transform="translate(-399.003 -519.639)"/></g><path class="p" d="M403.108,504.452l-6.175,3.732-.114-.089v-.452l6.289-3.664.115.055Z" transform="translate(-396.82 -503.979)"/><g transform="translate(0.114 0.055)"><path class="q" d="M403.378,504.583l-6.29,3.676v-.486l6.29-3.664Z" transform="translate(-397.088 -504.11)"/></g></g><g transform="translate(0.665 47.574)"><g transform="translate(0.377 0.627)"><path class="r" d="M361.245,498.224l5.671,3.3V507.4l-.1.072-5.566-3.361Z" transform="translate(-361.245 -498.224)"/></g><g transform="translate(0.25 0.5)"><path class="s" d="M360.945,497.924l5.672,3.493V507.3l-5.672-3.29Z" transform="translate(-360.945 -497.924)"/></g><g transform="translate(0.532 1.354)"><path class="m" d="M361.611,499.941l5.107,2.97v4.9l-5.107-2.965Z" transform="translate(-361.611 -499.941)"/></g><g transform="translate(0.694 1.731)"><path class="n" d="M361.992,500.829l4.784,2.783v4.331l-4.784-2.779Z" transform="translate(-361.992 -500.829)"/></g><g transform="translate(0.694 3.793)"><path class="o" d="M365.539,505.7l1.238.721-3.34,2.392-1.445-.839Z" transform="translate(-361.992 -505.696)"/></g><g transform="translate(0.694 1.731)"><path class="o" d="M364.327,502.193l-2.335,1.3v-2.663Z" transform="translate(-361.992 -500.829)"/></g><g transform="translate(3.763 6.636)"><path class="o" d="M369.236,513.618l1.715-1.213v2.209Z" transform="translate(-369.236 -512.405)"/></g><path class="r" d="M360.471,497.22l6.175,3.731.114-.088v-.452l-6.289-3.665-.115.056Z" transform="translate(-360.356 -496.745)"/><g transform="translate(0 0.056)"><path class="s" d="M360.356,497.35l6.29,3.676v-.486l-6.29-3.664Z" transform="translate(-360.356 -496.877)"/></g></g><g transform="translate(2.74 27.459)"><g transform="translate(23.926)"><g transform="translate(0.355 0.627)"><path class="m" d="M425.912,450.758,422.55,452.7v5.885l.106.07,3.257-2.006Z" transform="translate(-422.55 -450.758)"/></g><g transform="translate(0.482 0.697)"><path class="t" d="M426.211,450.923l-3.362,1.941v5.884l3.362-1.935Z" transform="translate(-422.849 -450.923)"/></g><g transform="translate(0.764 1.354)"><path class="m" d="M426.313,452.475l-2.8,1.615v4.9l2.8-1.612Z" transform="translate(-423.516 -452.475)"/></g><g transform="translate(0.926 1.73)"><path class="n" d="M426.372,453.36l-2.476,1.429v4.332l2.476-1.425Z" transform="translate(-423.896 -453.36)"/></g><g transform="translate(0.926 2.694)"><path class="o" d="M424.7,455.636l-.8.465,2.476,2.907v-1.486Z" transform="translate(-423.896 -455.636)"/></g><g transform="translate(2.641 1.73)"><path class="o" d="M427.943,453.8l.761.833V453.36Z" transform="translate(-427.943 -453.36)"/></g><g transform="translate(0.926 5.283)"><path class="o" d="M425.134,463.239l-1.238-1.494v2.208Z" transform="translate(-423.896 -461.744)"/></g><g transform="translate(2.036 2.382)"><path class="u" d="M426.723,454.9l-.207.119v4.346l.207-.119Z" transform="translate(-426.517 -454.899)"/></g><g transform="translate(0.926 2.851)"><path class="u" d="M426.372,456.006,423.9,457.4v.187c0,.02,2.476-1.391,2.476-1.391Z" transform="translate(-423.896 -456.006)"/></g><g transform="translate(2.083 2.323)"><path class="m" d="M426.835,454.76l-.207.119v4.392l.207-.119Z" transform="translate(-426.627 -454.76)"/></g><g transform="translate(0.926 2.899)"><path class="m" d="M426.372,456.119l-2.476,1.389v.19c0,.019,2.476-1.392,2.476-1.392Z" transform="translate(-423.896 -456.119)"/></g><g transform="translate(0.926 4.331)"><path class="u" d="M426.372,459.5l-2.476,1.392v.188c0,.02,2.476-1.391,2.476-1.391Z" transform="translate(-423.896 -459.499)"/></g><g transform="translate(0.926 4.378)"><path class="m" d="M426.372,459.61,423.9,461v.188c0,.021,2.476-1.39,2.476-1.39Z" transform="translate(-423.896 -459.61)"/></g><path class="u" d="M425.692,449.752l-3.866,2.378-.114-.09v-.452l3.98-2.31.115.056Z" transform="translate(-421.712 -449.279)"/><g transform="translate(0.114 0.056)"><path class="m" d="M425.961,449.884l-3.98,2.322v-.485l3.98-2.31Z" transform="translate(-421.98 -449.411)"/></g></g><g transform="translate(18.493 3.137)"><g transform="translate(0.355 0.627)"><path class="m" d="M413.092,458.159,409.73,460.1v5.884l.105.071,3.258-2.006Z" transform="translate(-409.73 -458.159)"/></g><g transform="translate(0.482 0.698)"><path class="t" d="M413.39,458.327l-3.362,1.941v5.884l3.362-1.936Z" transform="translate(-410.028 -458.327)"/></g><g transform="translate(0.765 1.354)"><path class="m" d="M413.493,459.877l-2.8,1.615v4.9l2.8-1.612Z" transform="translate(-410.696 -459.877)"/></g><g transform="translate(0.926 1.729)"><path class="n" d="M413.551,460.761l-2.475,1.43v4.331l2.475-1.424Z" transform="translate(-411.076 -460.761)"/></g><g transform="translate(0.926 2.695)"><path class="o" d="M411.88,463.039l-.8.464,2.475,2.907v-1.486Z" transform="translate(-411.076 -463.039)"/></g><g transform="translate(2.64 1.729)"><path class="o" d="M415.121,461.2l.761.833v-1.272Z" transform="translate(-415.121 -460.761)"/></g><g transform="translate(0.926 5.282)"><path class="o" d="M412.314,470.641l-1.238-1.5v2.208Z" transform="translate(-411.076 -469.146)"/></g><g transform="translate(2.037 2.382)"><path class="u" d="M413.9,462.3l-.207.119v4.346l.207-.119Z" transform="translate(-413.697 -462.301)"/></g><g transform="translate(0.926 2.851)"><path class="u" d="M413.551,463.409l-2.475,1.39v.188c0,.02,2.475-1.39,2.475-1.39Z" transform="translate(-411.076 -463.409)"/></g><g transform="translate(2.084 2.322)"><path class="m" d="M414.014,462.16l-.206.12v4.392l.206-.119Z" transform="translate(-413.808 -462.16)"/></g><g transform="translate(0.926 2.898)"><path class="m" d="M413.551,463.519l-2.475,1.39v.189c0,.019,2.475-1.392,2.475-1.392Z" transform="translate(-411.076 -463.519)"/></g><g transform="translate(0.926 4.331)"><path class="u" d="M413.551,466.9l-2.475,1.392v.188c0,.02,2.475-1.391,2.475-1.391Z" transform="translate(-411.076 -466.9)"/></g><g transform="translate(0.926 4.378)"><path class="m" d="M413.551,467.011l-2.475,1.391v.189c0,.02,2.475-1.391,2.475-1.391Z" transform="translate(-411.076 -467.011)"/></g><path class="u" d="M412.87,457.154,409,459.532l-.114-.09v-.451l3.98-2.31.114.056Z" transform="translate(-408.891 -456.681)"/><g transform="translate(0.114 0.056)"><path class="m" d="M413.14,457.285l-3.98,2.323v-.486l3.98-2.31Z" transform="translate(-409.16 -456.812)"/></g></g><g transform="translate(13.017 6.296)"><g transform="translate(0.356 0.626)"><path class="m" d="M400.17,465.612l-3.362,1.942v5.883l.105.072,3.257-2.006Z" transform="translate(-396.808 -465.612)"/></g><g transform="translate(0.482 0.697)"><path class="t" d="M400.467,465.78l-3.362,1.941v5.885l3.362-1.936Z" transform="translate(-397.105 -465.78)"/></g><g transform="translate(0.765 1.354)"><path class="m" d="M400.571,467.331l-2.8,1.614v4.9l2.8-1.61Z" transform="translate(-397.773 -467.331)"/></g><g transform="translate(0.926 1.729)"><path class="n" d="M400.628,468.215l-2.475,1.43v4.331l2.475-1.425Z" transform="translate(-398.153 -468.215)"/></g><g transform="translate(0.926 2.694)"><path class="o" d="M398.957,470.492l-.8.465,2.475,2.906v-1.485Z" transform="translate(-398.153 -470.492)"/></g><g transform="translate(2.642 1.729)"><path class="o" d="M402.2,468.654l.759.833v-1.272Z" transform="translate(-402.202 -468.215)"/></g><g transform="translate(0.926 5.282)"><path class="o" d="M399.39,478.095l-1.237-1.5v2.208Z" transform="translate(-398.153 -476.599)"/></g><g transform="translate(2.036 2.382)"><path class="u" d="M400.981,469.755l-.207.119v4.348l.207-.119Z" transform="translate(-400.774 -469.755)"/></g><g transform="translate(0.926 2.85)"><path class="u" d="M400.628,470.861l-2.475,1.391v.188c0,.021,2.475-1.39,2.475-1.39Z" transform="translate(-398.153 -470.861)"/></g><g transform="translate(2.083 2.323)"><path class="m" d="M401.092,469.616l-.207.118v4.394l.207-.12Z" transform="translate(-400.885 -469.616)"/></g><g transform="translate(0.926 2.897)"><path class="m" d="M400.628,470.972l-2.475,1.392v.188c0,.02,2.475-1.392,2.475-1.392Z" transform="translate(-398.153 -470.972)"/></g><g transform="translate(0.926 4.331)"><path class="u" d="M400.628,474.356l-2.475,1.39v.189c0,.02,2.475-1.392,2.475-1.392Z" transform="translate(-398.153 -474.356)"/></g><g transform="translate(0.926 4.379)"><path class="m" d="M400.628,474.467l-2.475,1.39v.189c0,.019,2.475-1.39,2.475-1.39Z" transform="translate(-398.153 -474.467)"/></g><path class="u" d="M399.948,464.608l-3.866,2.377-.114-.089v-.452l3.98-2.31.115.055Z" transform="translate(-395.968 -464.135)"/><g transform="translate(0.114 0.055)"><path class="m" d="M400.218,464.739l-3.981,2.321v-.485l3.981-2.31Z" transform="translate(-396.237 -464.265)"/></g></g><g transform="translate(0 2.917)"><g transform="translate(0.375 0.626)"><path class="m" d="M366.138,457.639l3.363,1.942v5.884l-.1.071-3.258-2.006Z" transform="translate(-366.138 -457.639)"/></g><g transform="translate(0.25 0.697)"><path class="t" d="M365.842,457.808l3.362,1.94v5.885l-3.362-1.936Z" transform="translate(-365.842 -457.808)"/></g><g transform="translate(0.532 1.353)"><path class="m" d="M366.507,459.356l2.8,1.615v4.9l-2.8-1.61Z" transform="translate(-366.507 -459.356)"/></g><g transform="translate(0.693 1.729)"><path class="n" d="M366.887,460.243l2.476,1.429V466l-2.476-1.425Z" transform="translate(-366.887 -460.243)"/></g><g transform="translate(0.693 2.694)"><path class="o" d="M368.558,462.519l.8.465-2.476,2.906v-1.486Z" transform="translate(-366.887 -462.519)"/></g><g transform="translate(0.693 1.729)"><path class="o" d="M367.648,460.682l-.761.832v-1.271Z" transform="translate(-366.887 -460.243)"/></g><g transform="translate(1.93 5.282)"><path class="o" d="M369.807,470.121l1.238-1.5v2.208Z" transform="translate(-369.807 -468.626)"/></g><g transform="translate(1.851 2.381)"><path class="u" d="M369.619,461.78l.207.12v4.346l-.207-.119Z" transform="translate(-369.619 -461.78)"/></g><g transform="translate(0.693 2.851)"><path class="u" d="M366.887,462.89l2.476,1.39v.189c0,.02-2.476-1.392-2.476-1.392Z" transform="translate(-366.887 -462.89)"/></g><g transform="translate(1.804 2.322)"><path class="m" d="M369.509,461.641l.206.12v4.392l-.206-.119Z" transform="translate(-369.509 -461.641)"/></g><g transform="translate(0.693 2.898)"><path class="m" d="M366.887,463l2.476,1.391v.189c0,.019-2.476-1.392-2.476-1.392Z" transform="translate(-366.887 -463)"/></g><g transform="translate(0.693 4.329)"><path class="u" d="M366.887,466.379l2.476,1.393v.187c0,.021-2.476-1.39-2.476-1.39Z" transform="translate(-366.887 -466.379)"/></g><g transform="translate(0.693 4.378)"><path class="m" d="M366.887,466.493l2.476,1.392v.186c0,.021-2.476-1.39-2.476-1.39Z" transform="translate(-366.887 -466.493)"/></g><path class="u" d="M365.365,456.635l3.866,2.378.114-.09v-.451l-3.98-2.31-.114.055Z" transform="translate(-365.251 -456.162)"/><g transform="translate(0 0.055)"><path class="m" d="M365.251,456.766l3.98,2.323V458.6l-3.98-2.31Z" transform="translate(-365.251 -456.292)"/></g></g><g transform="translate(5.432 6.054)"><g transform="translate(0.377 0.626)"><path class="m" d="M378.961,465.041l3.362,1.942v5.884l-.1.071-3.257-2.006Z" transform="translate(-378.961 -465.041)"/></g><g transform="translate(0.25 0.697)"><path class="t" d="M378.66,465.209l3.362,1.94v5.886L378.66,471.1Z" transform="translate(-378.66 -465.209)"/></g><g transform="translate(0.532 1.353)"><path class="m" d="M379.327,466.757l2.8,1.616v4.9l-2.8-1.611Z" transform="translate(-379.327 -466.757)"/></g><g transform="translate(0.693 1.73)"><path class="n" d="M379.707,467.646l2.475,1.429v4.332l-2.475-1.425Z" transform="translate(-379.707 -467.646)"/></g><g transform="translate(0.693 2.696)"><path class="o" d="M381.379,469.925l.8.463-2.475,2.908V471.81Z" transform="translate(-379.707 -469.925)"/></g><g transform="translate(0.693 1.73)"><path class="o" d="M380.467,468.084l-.76.833v-1.271Z" transform="translate(-379.707 -467.646)"/></g><g transform="translate(1.932 5.282)"><path class="o" d="M382.629,477.523l1.237-1.5v2.209Z" transform="translate(-382.629 -476.028)"/></g><g transform="translate(1.852 2.381)"><path class="u" d="M382.44,469.181l.206.12v4.347l-.206-.119Z" transform="translate(-382.44 -469.181)"/></g><g transform="translate(0.693 2.851)"><path class="u" d="M379.707,470.292l2.475,1.39v.189c0,.019-2.475-1.392-2.475-1.392Z" transform="translate(-379.707 -470.292)"/></g><g transform="translate(1.804 2.323)"><path class="m" d="M382.328,469.045l.207.119v4.393l-.207-.12Z" transform="translate(-382.328 -469.045)"/></g><g transform="translate(0.693 2.897)"><path class="m" d="M379.707,470.4l2.475,1.391v.188c0,.021-2.475-1.391-2.475-1.391Z" transform="translate(-379.707 -470.4)"/></g><g transform="translate(0.693 4.331)"><path class="u" d="M379.707,473.783l2.475,1.391v.188c0,.021-2.475-1.391-2.475-1.391Z" transform="translate(-379.707 -473.783)"/></g><g transform="translate(0.693 4.378)"><path class="m" d="M379.707,473.895l2.475,1.392v.187c0,.02-2.475-1.39-2.475-1.39Z" transform="translate(-379.707 -473.895)"/></g><path class="u" d="M378.185,464.037l3.866,2.378.114-.09v-.452l-3.98-2.31-.114.055Z" transform="translate(-378.071 -463.564)"/><g transform="translate(0 0.055)"><path class="m" d="M378.071,464.167l3.98,2.323V466l-3.98-2.31Z" transform="translate(-378.071 -463.694)"/></g></g></g><g transform="translate(2.74 19.789)"><g transform="translate(23.926)"><g transform="translate(0.355 0.627)"><path class="m" d="M425.912,432.658,422.55,434.6v5.885l.106.07,3.257-2.005Z" transform="translate(-422.55 -432.658)"/></g><g transform="translate(0.482 0.697)"><path class="t" d="M426.211,432.824l-3.362,1.94v5.884l3.362-1.935Z" transform="translate(-422.849 -432.824)"/></g><g transform="translate(0.764 1.354)"><path class="m" d="M426.313,434.375l-2.8,1.615v4.9l2.8-1.612Z" transform="translate(-423.516 -434.375)"/></g><g transform="translate(0.926 1.729)"><path class="n" d="M426.372,435.259l-2.476,1.43v4.332l2.476-1.425Z" transform="translate(-423.896 -435.259)"/></g><g transform="translate(0.926 2.694)"><path class="o" d="M424.7,437.536l-.8.465,2.476,2.907v-1.486Z" transform="translate(-423.896 -437.536)"/></g><g transform="translate(2.641 1.729)"><path class="o" d="M427.943,435.7l.761.833v-1.272Z" transform="translate(-427.943 -435.259)"/></g><g transform="translate(0.926 5.282)"><path class="o" d="M425.134,445.138l-1.238-1.495v2.208Z" transform="translate(-423.896 -443.644)"/></g><g transform="translate(2.036 2.382)"><path class="u" d="M426.723,436.8l-.207.119v4.346l.207-.119Z" transform="translate(-426.517 -436.799)"/></g><g transform="translate(0.926 2.851)"><path class="u" d="M426.372,437.907,423.9,439.3v.188c0,.02,2.476-1.391,2.476-1.391Z" transform="translate(-423.896 -437.907)"/></g><g transform="translate(2.083 2.322)"><path class="m" d="M426.835,436.658l-.207.12v4.393l.207-.119Z" transform="translate(-426.627 -436.658)"/></g><g transform="translate(0.926 2.899)"><path class="m" d="M426.372,438.019l-2.476,1.39v.189c0,.019,2.476-1.392,2.476-1.392Z" transform="translate(-423.896 -438.019)"/></g><g transform="translate(0.926 4.33)"><path class="u" d="M426.372,441.4l-2.476,1.392v.188c0,.021,2.476-1.391,2.476-1.391Z" transform="translate(-423.896 -441.397)"/></g><g transform="translate(0.926 4.378)"><path class="m" d="M426.372,441.51,423.9,442.9v.188c0,.021,2.476-1.39,2.476-1.39Z" transform="translate(-423.896 -441.51)"/></g><path class="u" d="M425.692,431.652l-3.866,2.378-.114-.09v-.452l3.98-2.31.115.056Z" transform="translate(-421.712 -431.179)"/><g transform="translate(0.114 0.056)"><path class="m" d="M425.961,431.784l-3.98,2.322v-.486l3.98-2.31Z" transform="translate(-421.98 -431.311)"/></g></g><g transform="translate(18.493 3.137)"><g transform="translate(0.355 0.627)"><path class="m" d="M413.092,440.059,409.73,442v5.885l.105.07,3.258-2.006Z" transform="translate(-409.73 -440.059)"/></g><g transform="translate(0.482 0.697)"><path class="t" d="M413.39,440.226l-3.362,1.941v5.884l3.362-1.936Z" transform="translate(-410.028 -440.226)"/></g><g transform="translate(0.765 1.354)"><path class="m" d="M413.493,441.777l-2.8,1.615v4.9l2.8-1.612Z" transform="translate(-410.696 -441.777)"/></g><g transform="translate(0.926 1.729)"><path class="n" d="M413.551,442.662l-2.475,1.429v4.331L413.551,447Z" transform="translate(-411.076 -442.662)"/></g><g transform="translate(0.926 2.695)"><path class="o" d="M411.88,444.939l-.8.464,2.475,2.907v-1.486Z" transform="translate(-411.076 -444.939)"/></g><g transform="translate(2.64 1.729)"><path class="o" d="M415.121,443.1l.761.832v-1.271Z" transform="translate(-415.121 -442.662)"/></g><g transform="translate(0.926 5.283)"><path class="o" d="M412.314,452.542l-1.238-1.5v2.208Z" transform="translate(-411.076 -451.046)"/></g><g transform="translate(2.037 2.381)"><path class="u" d="M413.9,444.2l-.207.119v4.346l.207-.119Z" transform="translate(-413.697 -444.2)"/></g><g transform="translate(0.926 2.851)"><path class="u" d="M413.551,445.309l-2.475,1.39v.188c0,.02,2.475-1.391,2.475-1.391Z" transform="translate(-411.076 -445.309)"/></g><g transform="translate(2.084 2.323)"><path class="m" d="M414.014,444.061l-.206.12v4.392l.206-.119Z" transform="translate(-413.808 -444.061)"/></g><g transform="translate(0.926 2.898)"><path class="m" d="M413.551,445.42l-2.475,1.39V447c0,.019,2.475-1.392,2.475-1.392Z" transform="translate(-411.076 -445.42)"/></g><g transform="translate(0.926 4.331)"><path class="u" d="M413.551,448.8l-2.475,1.392v.188c0,.019,2.475-1.391,2.475-1.391Z" transform="translate(-411.076 -448.8)"/></g><g transform="translate(0.926 4.378)"><path class="m" d="M413.551,448.911l-2.475,1.391v.189c0,.02,2.475-1.391,2.475-1.391Z" transform="translate(-411.076 -448.911)"/></g><path class="u" d="M412.87,439.054,409,441.432l-.114-.09v-.451l3.98-2.31.114.056Z" transform="translate(-408.891 -438.581)"/><g transform="translate(0.114 0.056)"><path class="m" d="M413.14,439.185l-3.98,2.323v-.486l3.98-2.31Z" transform="translate(-409.16 -438.712)"/></g></g><g transform="translate(13.017 6.296)"><g transform="translate(0.356 0.626)"><path class="m" d="M400.17,447.512l-3.362,1.942v5.883l.105.072,3.257-2.007Z" transform="translate(-396.808 -447.512)"/></g><g transform="translate(0.482 0.697)"><path class="t" d="M400.467,447.68l-3.362,1.941v5.884l3.362-1.936Z" transform="translate(-397.105 -447.68)"/></g><g transform="translate(0.765 1.355)"><path class="m" d="M400.571,449.232l-2.8,1.613v4.9l2.8-1.61Z" transform="translate(-397.773 -449.232)"/></g><g transform="translate(0.926 1.73)"><path class="n" d="M400.628,450.117l-2.475,1.429v4.331l2.475-1.425Z" transform="translate(-398.153 -450.117)"/></g><g transform="translate(0.926 2.694)"><path class="o" d="M398.957,452.392l-.8.465,2.475,2.906v-1.485Z" transform="translate(-398.153 -452.392)"/></g><g transform="translate(2.642 1.73)"><path class="o" d="M402.2,450.554l.759.834v-1.271Z" transform="translate(-402.202 -450.117)"/></g><g transform="translate(0.926 5.281)"><path class="o" d="M399.39,459.994l-1.237-1.5v2.208Z" transform="translate(-398.153 -458.498)"/></g><g transform="translate(2.036 2.381)"><path class="u" d="M400.981,451.654l-.207.119v4.348l.207-.119Z" transform="translate(-400.774 -451.654)"/></g><g transform="translate(0.926 2.85)"><path class="u" d="M400.628,452.761l-2.475,1.391v.188c0,.021,2.475-1.39,2.475-1.39Z" transform="translate(-398.153 -452.761)"/></g><g transform="translate(2.083 2.323)"><path class="m" d="M401.092,451.516l-.207.118v4.393l.207-.119Z" transform="translate(-400.885 -451.516)"/></g><g transform="translate(0.926 2.897)"><path class="m" d="M400.628,452.872l-2.475,1.392v.187c0,.02,2.475-1.391,2.475-1.391Z" transform="translate(-398.153 -452.872)"/></g><g transform="translate(0.926 4.331)"><path class="u" d="M400.628,456.256l-2.475,1.39v.189c0,.02,2.475-1.392,2.475-1.392Z" transform="translate(-398.153 -456.256)"/></g><g transform="translate(0.926 4.379)"><path class="m" d="M400.628,456.368l-2.475,1.389v.189c0,.02,2.475-1.39,2.475-1.39Z" transform="translate(-398.153 -456.368)"/></g><path class="u" d="M399.948,446.508l-3.866,2.377-.114-.088v-.452l3.98-2.31.115.055Z" transform="translate(-395.968 -446.035)"/><g transform="translate(0.114 0.055)"><path class="m" d="M400.218,446.639l-3.981,2.321v-.485l3.981-2.31Z" transform="translate(-396.237 -446.165)"/></g></g><g transform="translate(0 2.917)"><g transform="translate(0.375 0.626)"><path class="m" d="M366.138,439.539l3.363,1.942v5.884l-.1.071-3.258-2.006Z" transform="translate(-366.138 -439.539)"/></g><g transform="translate(0.25 0.697)"><path class="t" d="M365.842,439.707l3.362,1.941v5.885l-3.362-1.937Z" transform="translate(-365.842 -439.707)"/></g><g transform="translate(0.532 1.354)"><path class="m" d="M366.507,441.257l2.8,1.614v4.9l-2.8-1.61Z" transform="translate(-366.507 -441.257)"/></g><g transform="translate(0.693 1.729)"><path class="n" d="M366.887,442.143l2.476,1.429V447.9l-2.476-1.425Z" transform="translate(-366.887 -442.143)"/></g><g transform="translate(0.693 2.694)"><path class="o" d="M368.558,444.42l.8.465-2.476,2.906v-1.485Z" transform="translate(-366.887 -444.42)"/></g><g transform="translate(0.693 1.729)"><path class="o" d="M367.648,442.582l-.761.832v-1.271Z" transform="translate(-366.887 -442.143)"/></g><g transform="translate(1.93 5.282)"><path class="o" d="M369.807,452.021l1.238-1.5v2.208Z" transform="translate(-369.807 -450.526)"/></g><g transform="translate(1.851 2.381)"><path class="u" d="M369.619,443.68l.207.119v4.347l-.207-.119Z" transform="translate(-369.619 -443.68)"/></g><g transform="translate(0.693 2.85)"><path class="u" d="M366.887,444.788l2.476,1.39v.189c0,.019-2.476-1.391-2.476-1.391Z" transform="translate(-366.887 -444.788)"/></g><g transform="translate(1.804 2.322)"><path class="m" d="M369.509,443.542l.206.12v4.392l-.206-.119Z" transform="translate(-369.509 -443.542)"/></g><g transform="translate(0.693 2.898)"><path class="m" d="M366.887,444.9l2.476,1.39v.19c0,.019-2.476-1.393-2.476-1.393Z" transform="translate(-366.887 -444.901)"/></g><g transform="translate(0.693 4.33)"><path class="u" d="M366.887,448.281l2.476,1.393v.186c0,.021-2.476-1.39-2.476-1.39Z" transform="translate(-366.887 -448.281)"/></g><g transform="translate(0.693 4.377)"><path class="m" d="M366.887,448.392l2.476,1.392v.187c0,.021-2.476-1.389-2.476-1.389Z" transform="translate(-366.887 -448.392)"/></g><path class="u" d="M365.365,438.535l3.866,2.378.114-.089v-.451l-3.98-2.31-.114.055Z" transform="translate(-365.251 -438.062)"/><g transform="translate(0 0.055)"><path class="m" d="M365.251,438.666l3.98,2.322V440.5l-3.98-2.31Z" transform="translate(-365.251 -438.192)"/></g></g><g transform="translate(5.432 6.054)"><g transform="translate(0.377 0.626)"><path class="m" d="M378.961,446.941l3.362,1.942v5.884l-.1.071-3.257-2.006Z" transform="translate(-378.961 -446.941)"/></g><g transform="translate(0.25 0.697)"><path class="t" d="M378.66,447.109l3.362,1.94v5.886L378.66,453Z" transform="translate(-378.66 -447.109)"/></g><g transform="translate(0.532 1.353)"><path class="m" d="M379.327,448.657l2.8,1.616v4.9l-2.8-1.61Z" transform="translate(-379.327 -448.657)"/></g><g transform="translate(0.693 1.729)"><path class="n" d="M379.707,449.545l2.475,1.429v4.332l-2.475-1.424Z" transform="translate(-379.707 -449.545)"/></g><g transform="translate(0.693 2.696)"><path class="o" d="M381.379,451.825l.8.462-2.475,2.908v-1.486Z" transform="translate(-379.707 -451.825)"/></g><g transform="translate(0.693 1.729)"><path class="o" d="M380.467,449.983l-.76.833v-1.271Z" transform="translate(-379.707 -449.545)"/></g><g transform="translate(1.932 5.282)"><path class="o" d="M382.629,459.422l1.237-1.495v2.208Z" transform="translate(-382.629 -457.928)"/></g><g transform="translate(1.852 2.381)"><path class="u" d="M382.44,451.081l.206.12v4.346l-.206-.117Z" transform="translate(-382.44 -451.081)"/></g><g transform="translate(0.693 2.851)"><path class="u" d="M379.707,452.192l2.475,1.39v.188c0,.02-2.475-1.392-2.475-1.392Z" transform="translate(-379.707 -452.192)"/></g><g transform="translate(1.804 2.323)"><path class="m" d="M382.328,450.945l.207.12v4.392l-.207-.119Z" transform="translate(-382.328 -450.945)"/></g><g transform="translate(0.693 2.897)"><path class="m" d="M379.707,452.3l2.475,1.392v.188c0,.021-2.475-1.391-2.475-1.391Z" transform="translate(-379.707 -452.3)"/></g><g transform="translate(0.693 4.331)"><path class="u" d="M379.707,455.683l2.475,1.391v.188c0,.021-2.475-1.39-2.475-1.39Z" transform="translate(-379.707 -455.683)"/></g><g transform="translate(0.693 4.378)"><path class="m" d="M379.707,455.8l2.475,1.391v.187c0,.02-2.475-1.39-2.475-1.39Z" transform="translate(-379.707 -455.795)"/></g><path class="u" d="M378.185,445.937l3.866,2.378.114-.09v-.452l-3.98-2.31-.114.055Z" transform="translate(-378.071 -445.464)"/><g transform="translate(0 0.055)"><path class="m" d="M378.071,446.067l3.98,2.323V447.9l-3.98-2.31Z" transform="translate(-378.071 -445.594)"/></g></g></g><g transform="translate(2.74 12.119)"><g transform="translate(23.926)"><g transform="translate(0.355 0.627)"><path class="m" d="M425.912,414.558,422.55,416.5v5.885l.106.07,3.257-2.006Z" transform="translate(-422.55 -414.558)"/></g><g transform="translate(0.482 0.697)"><path class="t" d="M426.211,414.724l-3.362,1.941v5.883l3.362-1.935Z" transform="translate(-422.849 -414.724)"/></g><g transform="translate(0.764 1.354)"><path class="m" d="M426.313,416.274l-2.8,1.616v4.9l2.8-1.612Z" transform="translate(-423.516 -416.274)"/></g><g transform="translate(0.926 1.729)"><path class="n" d="M426.372,417.159l-2.476,1.429v4.332l2.476-1.424Z" transform="translate(-423.896 -417.159)"/></g><g transform="translate(0.926 2.694)"><path class="o" d="M424.7,419.436l-.8.464,2.476,2.908v-1.486Z" transform="translate(-423.896 -419.436)"/></g><g transform="translate(2.641 1.729)"><path class="o" d="M427.943,417.6l.761.833v-1.272Z" transform="translate(-427.943 -417.159)"/></g><g transform="translate(0.926 5.282)"><path class="o" d="M425.134,427.038l-1.238-1.495v2.208Z" transform="translate(-423.896 -425.543)"/></g><g transform="translate(2.036 2.381)"><path class="u" d="M426.723,418.7l-.207.12v4.346l.207-.119Z" transform="translate(-426.517 -418.698)"/></g><g transform="translate(0.926 2.851)"><path class="u" d="M426.372,419.807,423.9,421.2v.188c0,.02,2.476-1.391,2.476-1.391Z" transform="translate(-423.896 -419.807)"/></g><g transform="translate(2.083 2.322)"><path class="m" d="M426.835,418.558l-.207.12v4.393l.207-.119Z" transform="translate(-426.627 -418.558)"/></g><g transform="translate(0.926 2.898)"><path class="m" d="M426.372,419.918l-2.476,1.39v.189c0,.02,2.476-1.392,2.476-1.392Z" transform="translate(-423.896 -419.918)"/></g><g transform="translate(0.926 4.331)"><path class="u" d="M426.372,423.3,423.9,424.69v.188c0,.021,2.476-1.391,2.476-1.391Z" transform="translate(-423.896 -423.298)"/></g><g transform="translate(0.926 4.378)"><path class="m" d="M426.372,423.41,423.9,424.8v.188c0,.021,2.476-1.391,2.476-1.391Z" transform="translate(-423.896 -423.41)"/></g><path class="u" d="M425.692,413.552l-3.866,2.377-.114-.09v-.452l3.98-2.31.115.056Z" transform="translate(-421.712 -413.078)"/><g transform="translate(0.114 0.056)"><path class="m" d="M425.961,413.684l-3.98,2.322v-.486l3.98-2.31Z" transform="translate(-421.98 -413.211)"/></g></g><g transform="translate(18.493 3.137)"><g transform="translate(0.355 0.627)"><path class="m" d="M413.092,421.959,409.73,423.9v5.885l.105.07,3.258-2.006Z" transform="translate(-409.73 -421.959)"/></g><g transform="translate(0.482 0.697)"><path class="t" d="M413.39,422.126l-3.362,1.941v5.884l3.362-1.936Z" transform="translate(-410.028 -422.126)"/></g><g transform="translate(0.765 1.354)"><path class="m" d="M413.493,423.677l-2.8,1.615v4.9l2.8-1.612Z" transform="translate(-410.696 -423.677)"/></g><g transform="translate(0.926 1.729)"><path class="n" d="M413.551,424.56l-2.475,1.43v4.332l2.475-1.425Z" transform="translate(-411.076 -424.56)"/></g><g transform="translate(0.926 2.694)"><path class="o" d="M411.88,426.838l-.8.464,2.475,2.907v-1.486Z" transform="translate(-411.076 -426.838)"/></g><g transform="translate(2.64 1.729)"><path class="o" d="M415.121,425l.761.833V424.56Z" transform="translate(-415.121 -424.56)"/></g><g transform="translate(0.926 5.282)"><path class="o" d="M412.314,434.441l-1.238-1.5v2.208Z" transform="translate(-411.076 -432.946)"/></g><g transform="translate(2.037 2.381)"><path class="u" d="M413.9,426.1l-.207.119v4.346l.207-.119Z" transform="translate(-413.697 -426.1)"/></g><g transform="translate(0.926 2.851)"><path class="u" d="M413.551,427.209l-2.475,1.39v.188c0,.02,2.475-1.39,2.475-1.39Z" transform="translate(-411.076 -427.209)"/></g><g transform="translate(2.084 2.323)"><path class="m" d="M414.014,425.961l-.206.119v4.393l.206-.119Z" transform="translate(-413.808 -425.961)"/></g><g transform="translate(0.926 2.898)"><path class="m" d="M413.551,427.319l-2.475,1.39v.189c0,.019,2.475-1.392,2.475-1.392Z" transform="translate(-411.076 -427.319)"/></g><g transform="translate(0.926 4.331)"><path class="u" d="M413.551,430.7l-2.475,1.392v.187c0,.02,2.475-1.391,2.475-1.391Z" transform="translate(-411.076 -430.7)"/></g><g transform="translate(0.926 4.377)"><path class="m" d="M413.551,430.81l-2.475,1.392v.189c0,.02,2.475-1.391,2.475-1.391Z" transform="translate(-411.076 -430.81)"/></g><path class="u" d="M412.87,420.954,409,423.332l-.114-.09v-.451l3.98-2.31.114.056Z" transform="translate(-408.891 -420.481)"/><g transform="translate(0.114 0.056)"><path class="m" d="M413.14,421.085l-3.98,2.323v-.485l3.98-2.31Z" transform="translate(-409.16 -420.612)"/></g></g><g transform="translate(13.017 6.295)"><g transform="translate(0.356 0.626)"><path class="m" d="M400.17,429.411l-3.362,1.942v5.883l.105.072,3.257-2.006Z" transform="translate(-396.808 -429.411)"/></g><g transform="translate(0.482 0.697)"><path class="t" d="M400.467,429.58l-3.362,1.941v5.884l3.362-1.936Z" transform="translate(-397.105 -429.58)"/></g><g transform="translate(0.765 1.355)"><path class="m" d="M400.571,431.131l-2.8,1.614v4.9l2.8-1.61Z" transform="translate(-397.773 -431.131)"/></g><g transform="translate(0.926 1.729)"><path class="n" d="M400.628,432.014l-2.475,1.43v4.331l2.475-1.426Z" transform="translate(-398.153 -432.014)"/></g><g transform="translate(0.926 2.694)"><path class="o" d="M398.957,434.292l-.8.465,2.475,2.906v-1.485Z" transform="translate(-398.153 -434.292)"/></g><g transform="translate(2.642 1.729)"><path class="o" d="M402.2,432.453l.759.834v-1.273Z" transform="translate(-402.202 -432.014)"/></g><g transform="translate(0.926 5.282)"><path class="o" d="M399.39,441.894l-1.237-1.5v2.209Z" transform="translate(-398.153 -440.398)"/></g><g transform="translate(2.036 2.382)"><path class="u" d="M400.981,433.555l-.207.118v4.348l.207-.119Z" transform="translate(-400.774 -433.555)"/></g><g transform="translate(0.926 2.85)"><path class="u" d="M400.628,434.66l-2.475,1.391v.188c0,.02,2.475-1.391,2.475-1.391Z" transform="translate(-398.153 -434.66)"/></g><g transform="translate(2.083 2.323)"><path class="m" d="M401.092,433.416l-.207.118v4.394l.207-.119Z" transform="translate(-400.885 -433.416)"/></g><g transform="translate(0.926 2.897)"><path class="m" d="M400.628,434.771l-2.475,1.392v.188c0,.021,2.475-1.391,2.475-1.391Z" transform="translate(-398.153 -434.771)"/></g><g transform="translate(0.926 4.332)"><path class="u" d="M400.628,438.156l-2.475,1.39v.189c0,.02,2.475-1.392,2.475-1.392Z" transform="translate(-398.153 -438.156)"/></g><g transform="translate(0.926 4.378)"><path class="m" d="M400.628,438.266l-2.475,1.39v.189c0,.02,2.475-1.39,2.475-1.39Z" transform="translate(-398.153 -438.266)"/></g><path class="u" d="M399.948,428.408l-3.866,2.377-.114-.088v-.452l3.98-2.31.115.055Z" transform="translate(-395.968 -427.934)"/><g transform="translate(0.114 0.055)"><path class="m" d="M400.218,428.538l-3.981,2.321v-.485l3.981-2.31Z" transform="translate(-396.237 -428.065)"/></g></g><g transform="translate(0 2.917)"><g transform="translate(0.375 0.626)"><path class="m" d="M366.138,421.439l3.363,1.942v5.884l-.1.071-3.258-2.005Z" transform="translate(-366.138 -421.439)"/></g><g transform="translate(0.25 0.697)"><path class="t" d="M365.842,421.607l3.362,1.94v5.885l-3.362-1.936Z" transform="translate(-365.842 -421.607)"/></g><g transform="translate(0.532 1.354)"><path class="m" d="M366.507,423.157l2.8,1.615v4.9l-2.8-1.61Z" transform="translate(-366.507 -423.157)"/></g><g transform="translate(0.693 1.73)"><path class="n" d="M366.887,424.043l2.476,1.429V429.8l-2.476-1.425Z" transform="translate(-366.887 -424.043)"/></g><g transform="translate(0.693 2.694)"><path class="o" d="M368.558,426.319l.8.465-2.476,2.906V428.2Z" transform="translate(-366.887 -426.319)"/></g><g transform="translate(0.693 1.73)"><path class="o" d="M367.648,424.482l-.761.832v-1.271Z" transform="translate(-366.887 -424.043)"/></g><g transform="translate(1.93 5.282)"><path class="o" d="M369.807,433.92l1.238-1.495v2.208Z" transform="translate(-369.807 -432.426)"/></g><g transform="translate(1.851 2.381)"><path class="u" d="M369.619,425.579l.207.12v4.347l-.207-.119Z" transform="translate(-369.619 -425.579)"/></g><g transform="translate(0.693 2.851)"><path class="u" d="M366.887,426.69l2.476,1.39v.19c0,.019-2.476-1.392-2.476-1.392Z" transform="translate(-366.887 -426.69)"/></g><g transform="translate(1.804 2.323)"><path class="m" d="M369.509,425.443l.206.119v4.393l-.206-.119Z" transform="translate(-369.509 -425.443)"/></g><g transform="translate(0.693 2.898)"><path class="m" d="M366.887,426.8l2.476,1.39v.189c0,.019-2.476-1.393-2.476-1.393Z" transform="translate(-366.887 -426.8)"/></g><g transform="translate(0.693 4.33)"><path class="u" d="M366.887,430.179l2.476,1.393v.186c0,.022-2.476-1.39-2.476-1.39Z" transform="translate(-366.887 -430.179)"/></g><g transform="translate(0.693 4.378)"><path class="m" d="M366.887,430.292l2.476,1.392v.187c0,.021-2.476-1.39-2.476-1.39Z" transform="translate(-366.887 -430.292)"/></g><path class="u" d="M365.365,420.434l3.866,2.378.114-.09v-.451l-3.98-2.31-.114.055Z" transform="translate(-365.251 -419.961)"/><g transform="translate(0 0.055)"><path class="m" d="M365.251,420.566l3.98,2.323V422.4l-3.98-2.31Z" transform="translate(-365.251 -420.092)"/></g></g><g transform="translate(5.432 6.054)"><g transform="translate(0.377 0.626)"><path class="m" d="M378.961,428.841l3.362,1.942v5.885l-.1.07-3.257-2.006Z" transform="translate(-378.961 -428.841)"/></g><g transform="translate(0.25 0.697)"><path class="t" d="M378.66,429.008l3.362,1.941v5.885L378.66,434.9Z" transform="translate(-378.66 -429.008)"/></g><g transform="translate(0.532 1.353)"><path class="m" d="M379.327,430.556l2.8,1.616v4.9l-2.8-1.611Z" transform="translate(-379.327 -430.556)"/></g><g transform="translate(0.693 1.729)"><path class="n" d="M379.707,431.445l2.475,1.429v4.332l-2.475-1.425Z" transform="translate(-379.707 -431.445)"/></g><g transform="translate(0.693 2.695)"><path class="o" d="M381.379,433.723l.8.464-2.475,2.907v-1.486Z" transform="translate(-379.707 -433.723)"/></g><g transform="translate(0.693 1.729)"><path class="o" d="M380.467,431.883l-.76.833v-1.271Z" transform="translate(-379.707 -431.445)"/></g><g transform="translate(1.932 5.281)"><path class="o" d="M382.629,441.323l1.237-1.5v2.208Z" transform="translate(-382.629 -439.828)"/></g><g transform="translate(1.852 2.38)"><path class="u" d="M382.44,432.981l.206.12v4.346l-.206-.119Z" transform="translate(-382.44 -432.981)"/></g><g transform="translate(0.693 2.851)"><path class="u" d="M379.707,434.092l2.475,1.39v.188c0,.019-2.475-1.392-2.475-1.392Z" transform="translate(-379.707 -434.092)"/></g><g transform="translate(1.804 2.322)"><path class="m" d="M382.328,432.845l.207.119v4.392l-.207-.119Z" transform="translate(-382.328 -432.845)"/></g><g transform="translate(0.693 2.897)"><path class="m" d="M379.707,434.2l2.475,1.391v.188c0,.021-2.475-1.391-2.475-1.391Z" transform="translate(-379.707 -434.2)"/></g><g transform="translate(0.693 4.33)"><path class="u" d="M379.707,437.583l2.475,1.391v.188c0,.02-2.475-1.391-2.475-1.391Z" transform="translate(-379.707 -437.583)"/></g><g transform="translate(0.693 4.378)"><path class="m" d="M379.707,437.7l2.475,1.392v.187c0,.02-2.475-1.39-2.475-1.39Z" transform="translate(-379.707 -437.695)"/></g><path class="u" d="M378.185,427.837l3.866,2.378.114-.09v-.452l-3.98-2.309-.114.055Z" transform="translate(-378.071 -427.364)"/><g transform="translate(0 0.055)"><path class="m" d="M378.071,427.967l3.98,2.323V429.8l-3.98-2.31Z" transform="translate(-378.071 -427.493)"/></g></g></g><g transform="translate(8.246 52.406)"><path class="v" d="M378.3,508.148l3.362,1.941v7.478l-.1.069-3.317-1.914Z" transform="translate(-378.244 -508.148)"/></g><g transform="translate(8.18 52.28)"><path class="w" d="M378.089,507.85l3.362,2.137v7.477l-3.362-1.934Z" transform="translate(-378.089 -507.85)"/></g><g transform="translate(8.462 53.134)"><path class="m" d="M378.753,509.866l2.8,1.615v3.08l-2.8-1.612Z" transform="translate(-378.753 -509.866)"/></g><g transform="translate(8.624 53.51)"><path class="n" d="M379.135,510.752l2.475,1.429V514.9l-2.475-1.425Z" transform="translate(-379.135 -510.752)"/></g><g transform="translate(8.624 54.474)"><path class="o" d="M380.806,513.028l.8.464-1.555,1.826-.92-.529Z" transform="translate(-379.135 -513.028)"/></g><g transform="translate(8.624 53.51)"><path class="o" d="M379.895,511.19l-.76.833v-1.27Z" transform="translate(-379.135 -510.752)"/></g><g transform="translate(8.624 56.111)"><path class="u" d="M379.135,516.889l2.475,1.391v.188c0,.02-2.475-1.391-2.475-1.391Z" transform="translate(-379.135 -516.889)"/></g><g transform="translate(8.624 56.157)"><path class="m" d="M379.135,517l2.475,1.393v.187c0,.021-2.475-1.39-2.475-1.39Z" transform="translate(-379.135 -516.999)"/></g><g transform="translate(7.93 51.78)"><path class="v" d="M377.612,507.143l3.866,2.377.114-.089v-.451l-3.98-2.311-.114.057Z" transform="translate(-377.498 -506.669)"/></g><g transform="translate(7.93 51.836)"><path class="w" d="M377.5,507.276l3.98,2.321v-.486L377.5,506.8Z" transform="translate(-377.498 -506.802)"/></g><g transform="translate(2.74 35.13)"><g transform="translate(23.926)"><g transform="translate(0.355 0.625)"><path class="m" d="M425.912,468.853l-3.362,1.941v5.884l.106.071,3.257-2.006Z" transform="translate(-422.55 -468.853)"/></g><g transform="translate(0.482 0.696)"><path class="t" d="M426.211,469.022l-3.362,1.942v5.883l3.362-1.935Z" transform="translate(-422.849 -469.022)"/></g><g transform="translate(0.764 1.353)"><path class="m" d="M426.313,470.572l-2.8,1.615v4.9l2.8-1.611Z" transform="translate(-423.516 -470.572)"/></g><g transform="translate(0.926 1.728)"><path class="n" d="M426.372,471.457l-2.476,1.429v4.331l2.476-1.424Z" transform="translate(-423.896 -471.457)"/></g><g transform="translate(0.926 2.693)"><path class="o" d="M424.7,473.733l-.8.464,2.476,2.908v-1.486Z" transform="translate(-423.896 -473.733)"/></g><g transform="translate(2.641 1.728)"><path class="o" d="M427.943,471.9l.761.833v-1.271Z" transform="translate(-427.943 -471.457)"/></g><g transform="translate(0.926 5.281)"><path class="o" d="M425.134,481.337l-1.238-1.5v2.207Z" transform="translate(-423.896 -479.841)"/></g><g transform="translate(2.036 2.38)"><path class="u" d="M426.723,472.994l-.207.12v4.346l.207-.119Z" transform="translate(-426.517 -472.994)"/></g><g transform="translate(0.926 2.85)"><path class="u" d="M426.372,474.1l-2.476,1.39v.188c0,.021,2.476-1.39,2.476-1.39Z" transform="translate(-423.896 -474.104)"/></g><g transform="translate(2.083 2.321)"><path class="m" d="M426.835,472.857l-.207.12v4.393l.207-.119Z" transform="translate(-426.627 -472.857)"/></g><g transform="translate(0.926 2.897)"><path class="m" d="M426.372,474.214,423.9,475.6v.189c0,.019,2.476-1.392,2.476-1.392Z" transform="translate(-423.896 -474.214)"/></g><g transform="translate(0.926 4.329)"><path class="u" d="M426.372,477.6l-2.476,1.392v.188c0,.021,2.476-1.39,2.476-1.39Z" transform="translate(-423.896 -477.595)"/></g><g transform="translate(0.926 4.377)"><path class="m" d="M426.372,477.707,423.9,479.1v.188c0,.021,2.476-1.391,2.476-1.391Z" transform="translate(-423.896 -477.707)"/></g><path class="u" d="M425.692,467.85l-3.866,2.378-.114-.09v-.451l3.98-2.309.115.055Z" transform="translate(-421.712 -467.378)"/><g transform="translate(0.114 0.055)"><path class="m" d="M425.961,467.98l-3.98,2.323v-.486l3.98-2.309Z" transform="translate(-421.98 -467.509)"/></g></g><g transform="translate(18.493 3.136)"><g transform="translate(0.355 0.626)"><path class="m" d="M413.092,476.257,409.73,478.2v5.884l.105.07,3.258-2.006Z" transform="translate(-409.73 -476.257)"/></g><g transform="translate(0.482 0.697)"><path class="t" d="M413.39,476.425l-3.362,1.94v5.884l3.362-1.936Z" transform="translate(-410.028 -476.425)"/></g><g transform="translate(0.765 1.353)"><path class="m" d="M413.493,477.973l-2.8,1.615v4.9l2.8-1.611Z" transform="translate(-410.696 -477.973)"/></g><g transform="translate(0.926 1.729)"><path class="n" d="M413.551,478.859l-2.475,1.429v4.332l2.475-1.424Z" transform="translate(-411.076 -478.859)"/></g><g transform="translate(0.926 2.694)"><path class="o" d="M411.88,481.136l-.8.464,2.475,2.908v-1.486Z" transform="translate(-411.076 -481.136)"/></g><g transform="translate(2.64 1.729)"><path class="o" d="M415.121,479.3l.761.832v-1.271Z" transform="translate(-415.121 -478.859)"/></g><g transform="translate(0.926 5.281)"><path class="o" d="M412.314,488.737l-1.238-1.5v2.208Z" transform="translate(-411.076 -487.241)"/></g><g transform="translate(2.037 2.38)"><path class="u" d="M413.9,480.4l-.207.119v4.346l.207-.118Z" transform="translate(-413.697 -480.397)"/></g><g transform="translate(0.926 2.851)"><path class="u" d="M413.551,481.507l-2.475,1.391v.188c0,.02,2.475-1.391,2.475-1.391Z" transform="translate(-411.076 -481.507)"/></g><g transform="translate(2.084 2.322)"><path class="m" d="M414.014,480.259l-.206.12v4.393l.206-.119Z" transform="translate(-413.808 -480.259)"/></g><g transform="translate(0.926 2.897)"><path class="m" d="M413.551,481.617l-2.475,1.39v.189c0,.02,2.475-1.391,2.475-1.391Z" transform="translate(-411.076 -481.617)"/></g><g transform="translate(0.926 4.33)"><path class="u" d="M413.551,485l-2.475,1.392v.188c0,.02,2.475-1.391,2.475-1.391Z" transform="translate(-411.076 -484.997)"/></g><g transform="translate(0.926 4.377)"><path class="m" d="M413.551,485.108l-2.475,1.392v.188c0,.021,2.475-1.391,2.475-1.391Z" transform="translate(-411.076 -485.108)"/></g><path class="u" d="M412.87,475.253,409,477.63l-.114-.091v-.451l3.98-2.309.114.055Z" transform="translate(-408.891 -474.78)"/><g transform="translate(0.114 0.055)"><path class="m" d="M413.14,475.383l-3.98,2.322v-.486l3.98-2.309Z" transform="translate(-409.16 -474.91)"/></g></g><g transform="translate(0 2.846)"><g transform="translate(0.375 0.627)"><path class="m" d="M366.138,475.573l3.363,1.941V483.4l-.1.07-3.258-2.006Z" transform="translate(-366.138 -475.573)"/></g><g transform="translate(0.25 0.697)"><path class="t" d="M365.842,475.739l3.362,1.941v5.883l-3.362-1.935Z" transform="translate(-365.842 -475.739)"/></g><g transform="translate(0.532 1.354)"><path class="m" d="M366.507,477.29l2.8,1.616v4.9l-2.8-1.61Z" transform="translate(-366.507 -477.29)"/></g><g transform="translate(0.693 1.73)"><path class="n" d="M366.887,478.177l2.476,1.428v4.331l-2.476-1.424Z" transform="translate(-366.887 -478.177)"/></g><g transform="translate(0.693 2.695)"><path class="o" d="M368.558,480.453l.8.464-2.476,2.907v-1.487Z" transform="translate(-366.887 -480.453)"/></g><g transform="translate(0.693 1.73)"><path class="o" d="M367.648,478.616l-.761.831v-1.271Z" transform="translate(-366.887 -478.177)"/></g><g transform="translate(1.93 5.283)"><path class="o" d="M369.807,488.055l1.238-1.494v2.206Z" transform="translate(-369.807 -486.561)"/></g><g transform="translate(1.851 2.381)"><path class="u" d="M369.619,479.714l.207.119v4.346l-.207-.118Z" transform="translate(-369.619 -479.714)"/></g><g transform="translate(0.693 2.851)"><path class="u" d="M366.887,480.821l2.476,1.392v.188c0,.02-2.476-1.392-2.476-1.392Z" transform="translate(-366.887 -480.821)"/></g><g transform="translate(1.804 2.323)"><path class="m" d="M369.509,479.577l.206.12v4.392l-.206-.119Z" transform="translate(-369.509 -479.577)"/></g><g transform="translate(0.693 2.898)"><path class="m" d="M366.887,480.934l2.476,1.391v.188c0,.021-2.476-1.391-2.476-1.391Z" transform="translate(-366.887 -480.934)"/></g><g transform="translate(0.693 4.332)"><path class="u" d="M366.887,484.316l2.476,1.39v.187c0,.022-2.476-1.39-2.476-1.39Z" transform="translate(-366.887 -484.316)"/></g><g transform="translate(0.693 4.378)"><path class="m" d="M366.887,484.425l2.476,1.391V486c0,.02-2.476-1.391-2.476-1.391Z" transform="translate(-366.887 -484.425)"/></g><path class="u" d="M365.365,474.568l3.866,2.377.114-.089V476.4l-3.98-2.31-.114.056Z" transform="translate(-365.251 -474.094)"/><g transform="translate(0 0.056)"><path class="m" d="M365.251,474.7l3.98,2.321v-.485l-3.98-2.31Z" transform="translate(-365.251 -474.226)"/></g></g><g transform="translate(5.432 5.984)"><g transform="translate(0.377 0.626)"><path class="u" d="M378.961,482.976l3.362,1.94V490.8l-.1.07-3.257-2Z" transform="translate(-378.961 -482.976)"/></g><g transform="translate(0.25 0.696)"><path class="t" d="M378.66,483.141l3.362,1.941v5.883l-3.362-1.935Z" transform="translate(-378.66 -483.141)"/></g><g transform="translate(0.532 1.353)"><path class="m" d="M379.327,484.693l2.8,1.615v4.9l-2.8-1.611Z" transform="translate(-379.327 -484.693)"/></g><g transform="translate(0.693 1.728)"><path class="n" d="M379.707,485.577l2.475,1.429v4.331l-2.475-1.424Z" transform="translate(-379.707 -485.577)"/></g><g transform="translate(0.693 2.694)"><path class="o" d="M381.379,487.855l.8.464-2.475,2.907V489.74Z" transform="translate(-379.707 -487.855)"/></g><g transform="translate(0.693 1.728)"><path class="o" d="M380.467,486.016l-.76.833v-1.272Z" transform="translate(-379.707 -485.577)"/></g><g transform="translate(1.932 5.282)"><path class="o" d="M382.629,495.457l1.237-1.5v2.207Z" transform="translate(-382.629 -493.962)"/></g><g transform="translate(1.852 2.38)"><path class="u" d="M382.44,487.116l.206.12v4.346l-.206-.119Z" transform="translate(-382.44 -487.116)"/></g><g transform="translate(0.693 2.849)"><path class="u" d="M379.707,488.222l2.475,1.392v.188c0,.02-2.475-1.392-2.475-1.392Z" transform="translate(-379.707 -488.222)"/></g><g transform="translate(1.804 2.322)"><path class="m" d="M382.328,486.978l.207.12v4.392l-.207-.119Z" transform="translate(-382.328 -486.978)"/></g><g transform="translate(0.693 2.896)"><path class="m" d="M379.707,488.333l2.475,1.391v.189c0,.02-2.475-1.391-2.475-1.391Z" transform="translate(-379.707 -488.333)"/></g><g transform="translate(0.693 4.331)"><path class="u" d="M379.707,491.718l2.475,1.39v.188c0,.02-2.475-1.391-2.475-1.391Z" transform="translate(-379.707 -491.718)"/></g><g transform="translate(0.693 4.376)"><path class="m" d="M379.707,491.826l2.475,1.392v.188c0,.02-2.475-1.392-2.475-1.392Z" transform="translate(-379.707 -491.826)"/></g><path class="u" d="M378.185,481.972l3.866,2.377.114-.089v-.451l-3.98-2.309-.114.055Z" transform="translate(-378.071 -481.499)"/><g transform="translate(0 0.055)"><path class="m" d="M378.071,482.1l3.98,2.321v-.484l-3.98-2.31Z" transform="translate(-378.071 -481.628)"/></g></g><g transform="translate(13.017 6.294)"><g transform="translate(0.356 0.627)"><path class="m" d="M400.17,483.71l-3.362,1.941v5.884l.105.07,3.257-2.006Z" transform="translate(-396.808 -483.71)"/></g><g transform="translate(0.482 0.698)"><path class="t" d="M400.467,483.877l-3.362,1.941V491.7l3.362-1.935Z" transform="translate(-397.105 -483.877)"/></g><g transform="translate(0.765 1.355)"><path class="m" d="M400.571,485.428l-2.8,1.614v4.9l2.8-1.61Z" transform="translate(-397.773 -485.428)"/></g><g transform="translate(0.926 1.73)"><path class="n" d="M400.628,486.312l-2.475,1.428v4.332l2.475-1.426Z" transform="translate(-398.153 -486.312)"/></g><g transform="translate(0.926 2.695)"><path class="o" d="M398.957,488.59l-.8.463,2.475,2.906v-1.485Z" transform="translate(-398.153 -488.59)"/></g><g transform="translate(2.642 1.73)"><path class="o" d="M402.2,486.751l.759.833v-1.271Z" transform="translate(-402.202 -486.312)"/></g><g transform="translate(0.926 5.283)"><path class="o" d="M399.39,496.192l-1.237-1.5V496.9Z" transform="translate(-398.153 -494.696)"/></g><g transform="translate(2.036 2.382)"><path class="u" d="M400.981,487.851l-.207.119v4.348l.207-.119Z" transform="translate(-400.774 -487.851)"/></g><g transform="translate(0.926 2.852)"><path class="u" d="M400.628,488.96l-2.475,1.39v.188c0,.02,2.475-1.39,2.475-1.39Z" transform="translate(-398.153 -488.96)"/></g><g transform="translate(2.083 2.324)"><path class="m" d="M401.092,487.714l-.207.119v4.392l.207-.119Z" transform="translate(-400.885 -487.714)"/></g><g transform="translate(0.926 2.898)"><path class="m" d="M400.628,489.068l-2.475,1.392v.188c0,.019,2.475-1.391,2.475-1.391Z" transform="translate(-398.153 -489.068)"/></g><g transform="translate(0.926 4.332)"><path class="u" d="M400.628,492.452l-2.475,1.391v.188c0,.02,2.475-1.391,2.475-1.391Z" transform="translate(-398.153 -492.452)"/></g><g transform="translate(0.926 4.379)"><path class="m" d="M400.628,492.563l-2.475,1.39v.189c0,.02,2.475-1.391,2.475-1.391Z" transform="translate(-398.153 -492.563)"/></g><path class="u" d="M399.948,482.7l-3.866,2.377-.114-.089v-.453l3.98-2.31.115.055Z" transform="translate(-395.968 -482.23)"/><g transform="translate(0.114 0.055)"><path class="m" d="M400.218,482.835l-3.981,2.323v-.487l3.981-2.31Z" transform="translate(-396.237 -482.361)"/></g></g></g><g transform="translate(14.237 42.533)"><path class="f" d="M411.2,485.321l-.787-.471-18.013,10.4-.016.841Z" transform="translate(-392.382 -484.849)"/></g><g transform="translate(0 45.139)"><path class="x" d="M359.539,491l-.754.437,14.237,8.2.016-.841Z" transform="translate(-358.785 -490.998)"/></g><g transform="translate(7.458 5.385)"><g transform="translate(5.738)"><path class="y" d="M390.689,402.606l1.919-1.107-.763-.444-1.919,1.107Z" transform="translate(-389.926 -399.416)"/><g transform="translate(0.015 2.285)"><g class="z"><g transform="translate(0 0.249)"><path class="aa" d="M390.136,403.37l.177-.1-.174-.1-.177.1Z" transform="translate(-389.962 -403.167)"/></g><g transform="translate(0.22 0.077)"><path class="ab" d="M390.48,403.187l.176-.1v-.325l-.177.1Z" transform="translate(-390.48 -402.76)"/></g><g transform="translate(0.925 0.785)"><path class="aa" d="M392.145,404.559l.177-.1v-.025l-.177.1Z" transform="translate(-392.145 -404.432)"/></g><g transform="translate(0.75 0.683)"><path class="ac" d="M391.907,404.4l.177-.1-.176-.1-.177.1Z" transform="translate(-391.731 -404.191)"/></g><g transform="translate(0.75 0.334)"><path class="aa" d="M391.731,403.819l.177-.1v-.35l-.177.1Z" transform="translate(-391.731 -403.366)"/></g><g transform="translate(0.176)"><path class="ad" d="M390.951,403.016l.177-.1-.575-.334-.177.1Z" transform="translate(-390.376 -402.579)"/></g><g transform="translate(0 0.103)"><path class="ae" d="M390.137,402.822v.349l-.174-.1v.025l.22.127V402.9l.486.282v.324l.221.127v-.025l-.176-.1v-.349Z" transform="translate(-389.962 -402.822)"/></g></g></g><g transform="translate(1.571 1.39)"><g class="z"><g transform="translate(0 0.249)"><path class="aa" d="M393.807,401.259l.177-.1-.174-.1-.177.1Z" transform="translate(-393.633 -401.056)"/></g><g transform="translate(0.219 0.076)"><path class="ab" d="M394.15,401.076l.177-.1v-.326l-.177.1Z" transform="translate(-394.15 -400.648)"/></g><g transform="translate(0.925 0.785)"><path class="aa" d="M395.816,402.448l.177-.1v-.026l-.177.1Z" transform="translate(-395.816 -402.32)"/></g><g transform="translate(0.749 0.684)"><path class="ac" d="M395.576,402.287l.177-.1-.176-.1-.177.1Z" transform="translate(-395.4 -402.083)"/></g><g transform="translate(0.749 0.334)"><path class="aa" d="M395.4,401.709l.177-.1v-.35l-.177.1Z" transform="translate(-395.4 -401.257)"/></g><g transform="translate(0.175)"><path class="ad" d="M394.621,400.906l.177-.1-.575-.334-.177.1Z" transform="translate(-394.046 -400.468)"/></g><g transform="translate(0 0.103)"><path class="ae" d="M393.808,400.711v.35l-.174-.1v.026l.219.126v-.324l.486.282v.324l.22.127V401.5l-.176-.1v-.349Z" transform="translate(-393.633 -400.711)"/></g></g></g><g transform="translate(0.763 0.334)"><path class="af" d="M393.461,399.365l-1.731,1,0-1.389,1.73-1Zm-.591.2a1.067,1.067,0,0,0,.484-.839c0-.308-.22-.433-.488-.278a1.069,1.069,0,0,0-.485.839c0,.308.219.433.488.278Z" transform="translate(-391.727 -397.975)"/></g><g transform="translate(1.418 0.745)"><path class="ag" d="M393.758,399.012a1.069,1.069,0,0,0-.485.839c0,.308.219.433.488.278a1.067,1.067,0,0,0,.484-.839C394.244,398.982,394.026,398.857,393.758,399.012Z" transform="translate(-393.273 -398.945)"/></g><g transform="translate(0.188)"><path class="ah" d="M392.675,397.521l-.575-.334-1.731,1,.575.335Z" transform="translate(-390.37 -397.187)"/></g><g transform="translate(0.188 0.999)"><path class="ai" d="M390.945,399.88l-.575-.335,0,1.39.575.334Z" transform="translate(-390.37 -399.545)"/></g><g transform="translate(1.413 0.757)"><path class="af" d="M393.316,399.818a.894.894,0,0,1,.116-.391l-.039-.024c.008-.013.015-.027.024-.04l.039.022a.908.908,0,0,1,.281-.3v-.062l.017-.011.017-.009v.063a.308.308,0,0,1,.282-.029l.039-.066.024.013-.039.067a.3.3,0,0,1,.118.256l.054-.031c0,.006,0,.012,0,.018a.149.149,0,0,1,0,.02l-.054.032a.906.906,0,0,1-.116.391l.039.022c-.008.014-.016.028-.025.042l-.039-.023a.9.9,0,0,1-.282.3v.062l-.017.01-.017.009V400.1a.307.307,0,0,1-.282.028l-.039.067-.024-.014.039-.067a.308.308,0,0,1-.118-.257l-.056.032v-.019c0-.007,0-.013,0-.02Zm.458.243a.864.864,0,0,0,.271-.285l-.05-.028a.729.729,0,0,1-.221.232v.082Zm-.372-.293a.721.721,0,0,1,.091-.307l-.05-.029a.857.857,0,0,0-.112.377l.071-.041Zm.664-.7-.05.086a.243.243,0,0,1,.092.2l.07-.041a.292.292,0,0,0-.112-.247Zm-.327,1.009V400a.248.248,0,0,1-.221.022l-.049.086a.293.293,0,0,0,.27-.026Zm.329-.347a.843.843,0,0,0,.111-.376l-.07.041a.718.718,0,0,1-.09.306l.05.028Zm-.3-.566a.248.248,0,0,1,.221-.022l.05-.087a.3.3,0,0,0-.271.027v.082Zm-.034-.061a.853.853,0,0,0-.27.285l.05.028a.721.721,0,0,1,.22-.233v-.081Zm-.293.988.05-.087a.245.245,0,0,1-.092-.2l-.071.041a.3.3,0,0,0,.113.247Zm.327-.827a.186.186,0,0,1,.16-.016l.05-.086a.239.239,0,0,0-.21.022v.081Zm-.282.49-.071.041a.234.234,0,0,0,.088.191l.05-.087a.183.183,0,0,1-.067-.145Zm.248-.551a.681.681,0,0,0-.209.221l.051.028a.542.542,0,0,1,.159-.168v-.081Zm-.248.511a.538.538,0,0,1,.066-.221l-.05-.028a.659.659,0,0,0-.086.29l.07-.041Zm.467-.047.051.03a.7.7,0,0,0,.086-.292l-.071.041a.543.543,0,0,1-.066.222Zm.066-.26.071-.041a.234.234,0,0,0-.088-.19l-.05.086a.187.187,0,0,1,.067.145Zm-.248.551a.69.69,0,0,0,.209-.22l-.05-.029a.575.575,0,0,1-.159.169v.08Zm-.034-.061a.191.191,0,0,1-.159.016l-.05.087a.236.236,0,0,0,.209-.022V399.9Zm.034-.039a.506.506,0,0,0,.147-.156l-.051-.029a.365.365,0,0,1-.1.1v.082Zm-.035-.063a.129.129,0,0,1-.1.011l-.05.087a.177.177,0,0,0,.148-.015V399.8Zm.2-.338.071-.042a.177.177,0,0,0-.061-.135l-.05.088a.133.133,0,0,1,.041.089Zm.072,0-.072.042a.371.371,0,0,1-.041.135l.051.029a.513.513,0,0,0,.061-.206Zm-.389.073-.052-.028a.525.525,0,0,0-.061.206l.072-.042a.359.359,0,0,1,.04-.136Zm-.04.175-.072.041a.177.177,0,0,0,.061.135l.051-.087a.127.127,0,0,1-.04-.089Zm.161-.4a.511.511,0,0,0-.148.156l.052.028a.358.358,0,0,1,.1-.1V399.3Zm.033.063a.129.129,0,0,1,.1-.01l.051-.088a.177.177,0,0,0-.148.015v.083Zm-.179.29.082-.047a.159.159,0,0,1,.011-.04l-.058-.033a.326.326,0,0,0-.035.12Zm.082-.008-.081.047a.111.111,0,0,0,.036.079l.057-.1a.054.054,0,0,1-.011-.026Zm.1.111a.319.319,0,0,0,.086-.09l-.058-.033a.253.253,0,0,1-.029.031v.093Zm0-.281a.073.073,0,0,1,.029,0l.058-.1a.115.115,0,0,0-.087.008v.094Zm.147.029-.081.047a.185.185,0,0,1-.012.04l.058.033a.328.328,0,0,0,.036-.119Zm-.081.008.081-.047a.113.113,0,0,0-.036-.078l-.057.1a.073.073,0,0,1,.012.026Zm-.1.17a.065.065,0,0,1-.029,0l-.057.1a.109.109,0,0,0,.086-.009v-.094Zm0-.279a.325.325,0,0,0-.086.09l.058.033a.147.147,0,0,1,.029-.03v-.093Z" transform="translate(-393.261 -398.973)"/></g></g><g transform="translate(2.875 1.681)"><path class="y" d="M383.932,406.574l1.919-1.108-.763-.443-1.917,1.108Z" transform="translate(-383.171 -403.384)"/><g transform="translate(0.014 2.285)"><g class="z"><g transform="translate(0 0.249)"><path class="aa" d="M383.379,407.337l.177-.1-.174-.1-.177.1Z" transform="translate(-383.204 -407.134)"/></g><g transform="translate(0.219 0.076)"><path class="ab" d="M383.721,407.153l.178-.1v-.325l-.177.1Z" transform="translate(-383.721 -406.725)"/></g><g transform="translate(0.925 0.784)"><path class="aa" d="M385.387,408.526l.177-.1V408.4l-.177.1Z" transform="translate(-385.387 -408.398)"/></g><g transform="translate(0.749 0.683)"><path class="ac" d="M385.148,408.363l.177-.1-.176-.1-.177.1Z" transform="translate(-384.971 -408.159)"/></g><g transform="translate(0.749 0.334)"><path class="aa" d="M384.971,407.786l.177-.1v-.35l-.176.1Z" transform="translate(-384.971 -407.334)"/></g><g transform="translate(0.176)"><path class="ad" d="M384.194,406.982l.176-.1-.575-.334-.176.1Z" transform="translate(-383.619 -406.546)"/></g><g transform="translate(0 0.102)"><path class="ae" d="M383.38,406.788v.35l-.174-.1v.026l.219.127v-.325l.486.282v.323l.221.129v-.025l-.176-.1,0-.35Z" transform="translate(-383.204 -406.788)"/></g></g></g><g transform="translate(1.57 1.39)"><g class="z"><g transform="translate(0 0.25)"><path class="aa" d="M387.049,405.227l.177-.1-.174-.1-.176.1Z" transform="translate(-386.875 -405.023)"/></g><g transform="translate(0.219 0.077)"><path class="ab" d="M387.392,405.043l.177-.1v-.324l-.177.1Z" transform="translate(-387.392 -404.616)"/></g><g transform="translate(0.925 0.786)"><path class="aa" d="M389.057,406.417l.177-.1v-.026l-.177.1Z" transform="translate(-389.057 -406.289)"/></g><g transform="translate(0.749 0.684)"><path class="ac" d="M388.819,406.253l.177-.1-.176-.1-.177.1Z" transform="translate(-388.643 -406.049)"/></g><g transform="translate(0.749 0.334)"><path class="aa" d="M388.643,405.676l.177-.1v-.35l-.177.1Z" transform="translate(-388.643 -405.223)"/></g><g transform="translate(0.175)"><path class="ad" d="M387.863,404.872l.177-.1-.575-.334-.176.1Z" transform="translate(-387.289 -404.434)"/></g><g transform="translate(0 0.103)"><path class="ae" d="M387.051,404.677v.35l-.174-.1v.026l.219.126v-.324l.486.282v.325l.221.127v-.026l-.176-.1v-.35Z" transform="translate(-386.875 -404.677)"/></g></g></g><g transform="translate(0.762 0.334)"><path class="af" d="M386.7,403.333l-1.73,1,0-1.389,1.731-1Zm-.592.2a1.068,1.068,0,0,0,.484-.839c0-.307-.219-.433-.487-.277a1.065,1.065,0,0,0-.484.839c0,.308.219.433.487.278Z" transform="translate(-384.969 -401.943)"/></g><g transform="translate(1.418 0.745)"><path class="ag" d="M387,402.978a1.065,1.065,0,0,0-.484.839c0,.308.219.433.487.278a1.068,1.068,0,0,0,.484-.839C387.487,402.948,387.269,402.823,387,402.978Z" transform="translate(-386.516 -402.911)"/></g><g transform="translate(0.187)"><path class="ah" d="M385.918,401.488l-.575-.335-1.73,1,.575.335Z" transform="translate(-383.612 -401.154)"/></g><g transform="translate(0.187 0.999)"><path class="ai" d="M384.187,403.846l-.575-.335,0,1.389.575.335Z" transform="translate(-383.612 -403.511)"/></g><g transform="translate(1.412 0.757)"><path class="af" d="M386.558,403.784a.879.879,0,0,1,.116-.392l-.039-.023c.007-.013.015-.027.024-.041l.039.023a.9.9,0,0,1,.281-.3v-.063l.017-.011a.111.111,0,0,1,.017-.008v.063a.308.308,0,0,1,.282-.029l.04-.066.023.014-.039.067a.3.3,0,0,1,.118.257l.054-.033c0,.008,0,.013,0,.02s0,.014,0,.02l-.054.032a.891.891,0,0,1-.115.391l.038.023c-.007.013-.015.028-.023.041l-.039-.022a.912.912,0,0,1-.281.3v.062l-.017.011-.017.008v-.062a.31.31,0,0,1-.283.028l-.039.067-.023-.014.038-.066a.308.308,0,0,1-.117-.257l-.055.031c0-.006,0-.013,0-.019s0-.014,0-.019Zm.459.243a.872.872,0,0,0,.27-.286l-.051-.028a.723.723,0,0,1-.22.232v.082Zm-.372-.293a.717.717,0,0,1,.091-.306l-.05-.028a.853.853,0,0,0-.111.376l.07-.042Zm.664-.695-.05.086a.245.245,0,0,1,.092.2l.071-.042a.29.29,0,0,0-.114-.246Zm-.326,1.009v-.082a.247.247,0,0,1-.22.022l-.05.087a.3.3,0,0,0,.271-.027Zm.328-.347a.858.858,0,0,0,.111-.376l-.071.041a.72.72,0,0,1-.091.306l.05.03Zm-.3-.567a.249.249,0,0,1,.221-.022l.05-.087a.3.3,0,0,0-.271.028v.081Zm-.035-.061a.886.886,0,0,0-.271.285l.05.029a.73.73,0,0,1,.221-.233v-.081Zm-.292.988.049-.086a.246.246,0,0,1-.092-.2l-.07.041a.291.291,0,0,0,.114.246Zm.327-.827a.183.183,0,0,1,.159-.016l.05-.086a.236.236,0,0,0-.209.021v.081Zm-.283.49-.071.041a.231.231,0,0,0,.088.19l.05-.086a.182.182,0,0,1-.067-.145Zm.249-.552a.684.684,0,0,0-.209.221l.05.029a.556.556,0,0,1,.159-.168v-.082Zm-.249.513a.533.533,0,0,1,.066-.221l-.051-.028a.688.688,0,0,0-.086.29l.071-.04Zm.467-.048.051.029a.694.694,0,0,0,.086-.291l-.071.04a.534.534,0,0,1-.066.222Zm.066-.26.071-.041a.234.234,0,0,0-.087-.191l-.05.087a.187.187,0,0,1,.066.145Zm-.248.55a.669.669,0,0,0,.209-.22l-.05-.028a.55.55,0,0,1-.159.167v.081Zm-.034-.061a.189.189,0,0,1-.16.015l-.05.087a.239.239,0,0,0,.21-.021v-.081Zm.034-.039a.5.5,0,0,0,.148-.157l-.052-.028a.369.369,0,0,1-.1.1v.083Zm-.034-.063a.127.127,0,0,1-.1.01l-.05.087a.174.174,0,0,0,.148-.015v-.082Zm.195-.338.072-.042a.181.181,0,0,0-.062-.135l-.051.088a.125.125,0,0,1,.041.089Zm.072,0-.072.041a.377.377,0,0,1-.041.136l.052.028a.529.529,0,0,0,.06-.205Zm-.389.073-.051-.028a.516.516,0,0,0-.061.206l.072-.041a.351.351,0,0,1,.039-.136Zm-.039.175-.072.042a.178.178,0,0,0,.061.135l.051-.088a.124.124,0,0,1-.04-.089Zm.16-.4a.514.514,0,0,0-.147.157l.051.028a.35.35,0,0,1,.1-.1v-.083Zm.034.063a.123.123,0,0,1,.1-.01l.051-.088a.179.179,0,0,0-.149.015v.083Zm-.179.29.081-.047a.178.178,0,0,1,.011-.039l-.058-.034a.322.322,0,0,0-.035.12Zm.081-.008-.081.047a.108.108,0,0,0,.036.079l.057-.1a.07.07,0,0,1-.011-.026Zm.1.111a.339.339,0,0,0,.086-.091l-.058-.033a.2.2,0,0,1-.029.031v.093Zm0-.281a.063.063,0,0,1,.029,0l.058-.1a.11.11,0,0,0-.086.008v.093Zm.146.029-.081.047a.208.208,0,0,1-.011.04l.058.033a.331.331,0,0,0,.035-.119Zm-.081.008.081-.047a.109.109,0,0,0-.036-.078l-.057.1a.07.07,0,0,1,.011.026Zm-.1.169a.061.061,0,0,1-.028,0l-.057.1a.111.111,0,0,0,.086-.008v-.094Zm0-.28a.334.334,0,0,0-.086.091l.058.033a.148.148,0,0,1,.028-.03v-.093Z" transform="translate(-386.502 -402.939)"/></g></g><g transform="translate(0 3.321)"><path class="y" d="M377.148,410.443l1.919-1.107-.763-.444L376.386,410Z" transform="translate(-376.386 -407.253)"/><g transform="translate(0.015 2.284)"><g class="z"><g transform="translate(0 0.249)"><path class="aa" d="M376.595,411.205l.177-.1-.175-.1-.177.1Z" transform="translate(-376.42 -411.002)"/></g><g transform="translate(0.219 0.076)"><path class="ab" d="M376.938,411.022l.177-.1v-.326l-.177.1Z" transform="translate(-376.938 -410.594)"/></g><g transform="translate(0.925 0.785)"><path class="aa" d="M378.6,412.4l.177-.1v-.026l-.177.1Z" transform="translate(-378.604 -412.267)"/></g><g transform="translate(0.75 0.683)"><path class="ac" d="M378.365,412.232l.177-.1-.175-.1-.177.1Z" transform="translate(-378.189 -412.027)"/></g><g transform="translate(0.75 0.334)"><path class="aa" d="M378.189,411.656l.177-.1V411.2l-.177.1Z" transform="translate(-378.189 -411.203)"/></g><g transform="translate(0.175)"><path class="ad" d="M377.409,410.851l.177-.1-.575-.334-.177.1Z" transform="translate(-376.834 -410.414)"/></g><g transform="translate(0 0.103)"><path class="ae" d="M376.6,410.657v.35l-.174-.1v.026l.219.126v-.324l.486.282v.324l.22.128v-.025l-.176-.1v-.35Z" transform="translate(-376.42 -410.657)"/></g></g></g><g transform="translate(1.57 1.39)"><g class="z"><g transform="translate(0 0.249)"><path class="aa" d="M380.265,409.1l.177-.1-.175-.1-.177.1Z" transform="translate(-380.091 -408.892)"/></g><g transform="translate(0.22 0.077)"><path class="ab" d="M380.609,408.913l.177-.1v-.325l-.177.1Z" transform="translate(-380.609 -408.486)"/></g><g transform="translate(0.926 0.786)"><path class="aa" d="M382.275,410.286l.177-.1v-.026l-.177.1Z" transform="translate(-382.275 -410.158)"/></g><g transform="translate(0.749 0.685)"><path class="ac" d="M382.035,410.124l.177-.1-.176-.1-.177.1Z" transform="translate(-381.859 -409.919)"/></g><g transform="translate(0.749 0.335)"><path class="aa" d="M381.859,409.546l.177-.1v-.35l-.176.1Z" transform="translate(-381.859 -409.093)"/></g><g transform="translate(0.176)"><path class="ad" d="M381.081,408.741l.176-.1-.574-.335-.177.1Z" transform="translate(-380.506 -408.304)"/></g><g transform="translate(0 0.103)"><path class="ae" d="M380.266,408.547v.35l-.175-.1v.025l.22.127v-.325l.486.282v.325l.221.127v-.025l-.176-.1v-.35Z" transform="translate(-380.091 -408.547)"/></g></g></g><g transform="translate(0.763 0.334)"><path class="af" d="M379.92,407.2l-1.729,1,0-1.39,1.73-1Zm-.591.2a1.069,1.069,0,0,0,.484-.839c0-.309-.219-.433-.487-.278a1.066,1.066,0,0,0-.484.839c0,.309.219.433.487.278Z" transform="translate(-378.186 -405.812)"/></g><g transform="translate(1.418 0.745)"><path class="ag" d="M380.217,406.847a1.066,1.066,0,0,0-.484.839c0,.309.219.433.487.278a1.069,1.069,0,0,0,.484-.839C380.7,406.817,380.485,406.692,380.217,406.847Z" transform="translate(-379.733 -406.781)"/></g><g transform="translate(0.187)"><path class="ah" d="M379.134,405.358l-.575-.334-1.731,1,.576.334Z" transform="translate(-376.828 -405.023)"/></g><g transform="translate(0.187 0.999)"><path class="ai" d="M377.4,407.716l-.576-.334,0,1.389.575.335Z" transform="translate(-376.828 -407.382)"/></g><g transform="translate(1.413 0.757)"><path class="af" d="M379.776,407.654a.888.888,0,0,1,.116-.392l-.039-.022.025-.041.038.022a.9.9,0,0,1,.282-.3v-.061a.1.1,0,0,1,.017-.013l.017-.008v.063a.311.311,0,0,1,.282-.028l.039-.067.023.014-.039.066a.305.305,0,0,1,.118.257l.055-.032v.04l-.055.031a.9.9,0,0,1-.116.392l.039.022-.024.042-.039-.022a.917.917,0,0,1-.282.3v.061l-.017.011L380.2,408v-.061a.314.314,0,0,1-.283.028l-.038.067-.024-.014.038-.067a.306.306,0,0,1-.118-.256l-.055.031c0-.006,0-.013,0-.019a.147.147,0,0,0,0-.019Zm.458.243a.861.861,0,0,0,.271-.286l-.051-.028a.722.722,0,0,1-.221.232v.082Zm-.372-.293a.724.724,0,0,1,.092-.307l-.051-.028a.864.864,0,0,0-.112.376l.071-.041Zm.664-.695-.05.086a.245.245,0,0,1,.093.2l.071-.041a.294.294,0,0,0-.114-.246Zm-.326,1.008v-.083a.248.248,0,0,1-.221.022l-.049.087a.3.3,0,0,0,.271-.027Zm.328-.347a.865.865,0,0,0,.111-.376l-.071.041a.735.735,0,0,1-.091.307l.051.028Zm-.3-.567a.247.247,0,0,1,.22-.022l.05-.086a.3.3,0,0,0-.271.028V407Zm-.034-.061a.858.858,0,0,0-.27.286l.049.029a.728.728,0,0,1,.221-.233v-.082Zm-.292.989.05-.087a.244.244,0,0,1-.092-.2l-.07.041a.292.292,0,0,0,.113.247Zm.327-.827a.185.185,0,0,1,.159-.016l.05-.087a.237.237,0,0,0-.209.021v.082Zm-.282.489-.072.041a.233.233,0,0,0,.089.19l.05-.086a.184.184,0,0,1-.067-.145Zm.248-.552a.7.7,0,0,0-.209.22l.05.029a.557.557,0,0,1,.16-.168v-.081Zm-.248.512a.522.522,0,0,1,.065-.221l-.05-.029a.7.7,0,0,0-.087.291l.072-.041Zm.467-.047.051.029a.7.7,0,0,0,.086-.291l-.071.041a.543.543,0,0,1-.066.222Zm.066-.26.071-.042a.234.234,0,0,0-.087-.191l-.05.087a.185.185,0,0,1,.066.145Zm-.249.551a.671.671,0,0,0,.21-.221l-.05-.028a.562.562,0,0,1-.16.168v.081Zm-.033-.061a.187.187,0,0,1-.159.016l-.05.086a.231.231,0,0,0,.209-.021v-.081Zm.033-.039a.493.493,0,0,0,.148-.156l-.051-.029a.363.363,0,0,1-.1.1v.082Zm-.034-.062a.126.126,0,0,1-.1.01l-.05.087a.172.172,0,0,0,.149-.015v-.082Zm.2-.338.072-.041a.175.175,0,0,0-.063-.135l-.05.087a.126.126,0,0,1,.041.089Zm.072,0-.072.041a.36.36,0,0,1-.04.135l.05.03a.507.507,0,0,0,.061-.206Zm-.389.073-.051-.029a.515.515,0,0,0-.06.206l.072-.04a.369.369,0,0,1,.04-.136Zm-.04.175-.072.042a.172.172,0,0,0,.061.134l.05-.088a.128.128,0,0,1-.04-.088Zm.161-.4a.531.531,0,0,0-.149.156l.051.029a.367.367,0,0,1,.1-.1v-.083Zm.033.064a.126.126,0,0,1,.1-.011l.051-.087a.173.173,0,0,0-.148.014v.083Zm-.178.289.081-.047a.148.148,0,0,1,.012-.04l-.058-.033a.33.33,0,0,0-.035.12Zm.081-.008-.081.047a.112.112,0,0,0,.035.079l.058-.1a.054.054,0,0,1-.012-.026Zm.1.11a.325.325,0,0,0,.086-.09l-.058-.033a.191.191,0,0,1-.028.031v.092Zm0-.28a.056.056,0,0,1,.029,0l.057-.1a.115.115,0,0,0-.086.01v.093Zm.147.029-.081.047a.148.148,0,0,1-.012.04l.058.033a.333.333,0,0,0,.035-.12Zm-.081.008.081-.047a.108.108,0,0,0-.036-.078l-.057.1a.063.063,0,0,1,.012.026Zm-.1.17a.076.076,0,0,1-.028,0l-.058.1a.112.112,0,0,0,.086-.009v-.094Zm0-.281a.342.342,0,0,0-.086.091l.058.033a.2.2,0,0,1,.028-.031v-.093Z" transform="translate(-379.72 -406.809)"/></g></g></g><g transform="translate(12.039 58.12)"><path class="aj" d="M388.788,534.931a1.049,1.049,0,0,0-.953-.01c-.267.15-.273.4-.014.553a1.052,1.052,0,0,0,.953.01C389.041,535.334,389.047,535.087,388.788,534.931Z" transform="translate(-387.446 -529.227)"/><path class="ak" d="M388.777,533.811a1.061,1.061,0,0,1-.962-.01.373.373,0,0,1-.186-.22l.213.878a.254.254,0,0,0,.126.15.722.722,0,0,0,.655.006.258.258,0,0,0,.136-.153l.218-.876A.382.382,0,0,1,388.777,533.811Z" transform="translate(-387.445 -528.517)"/><path class="al" d="M388.691,531.822a1.285,1.285,0,0,0-1.166-.012c-.327.183-.334.486-.017.675a1.284,1.284,0,0,0,1.166.012C389,532.314,389.009,532.012,388.691,531.822Z" transform="translate(-387.241 -527.419)"/><path class="am" d="M388.779,531.9a1.072,1.072,0,0,0-.973-.01c-.272.153-.278.406-.014.564a1.07,1.07,0,0,0,.973.01C389.038,532.306,389.044,532.053,388.779,531.9Z" transform="translate(-387.427 -527.476)"/><path class="an" d="M388.674,533.144a1.284,1.284,0,0,1-1.166-.012.407.407,0,0,1-.233-.334v.276a.407.407,0,0,0,.233.334,1.286,1.286,0,0,0,1.166.012.417.417,0,0,0,.25-.342V532.8A.415.415,0,0,1,388.674,533.144Z" transform="translate(-387.24 -528.066)"/><path class="ao" d="M389.472,525.091a.6.6,0,0,0-.166-.421.062.062,0,0,1-.036-.042l-.069-.486a.516.516,0,0,1,.013-.176,2.023,2.023,0,0,0,.009-.578,1.6,1.6,0,0,0-.176-.645.289.289,0,0,1-.062-.12l-.1-.719a.329.329,0,0,0-.331-.272.377.377,0,0,0-.4.323l.1.151a.437.437,0,0,1-.061.154,1.127,1.127,0,0,0-.065.37,1.091,1.091,0,0,0,.039.377.443.443,0,0,1,.053.156l-.021.631a.178.178,0,0,1-.063.112,1.194,1.194,0,0,0-.19.694,1.132,1.132,0,0,0,.148.718.143.143,0,0,1,.052.1l-.005.158a.635.635,0,0,0,1.27.049.516.516,0,0,1,.044-.159A.887.887,0,0,0,389.472,525.091Z" transform="translate(-387.621 -521.632)"/><path class="ap" d="M387.376,525.949l-.015.173a.7.7,0,0,0,.295.633,1.11,1.11,0,0,0,.813-.005.7.7,0,0,0,.286-.5.578.578,0,0,1,.058-.172.974.974,0,0,0,.053-.41.667.667,0,0,0-.158-.473.067.067,0,0,1-.038-.047l-.047-.539a.566.566,0,0,1,.025-.193,2.223,2.223,0,0,0,.044-.635,1.758,1.758,0,0,0-.156-.72.314.314,0,0,1-.061-.136l-.07-.8a.35.35,0,0,0-.7,0l-.016.185a.483.483,0,0,1-.076.166,1.5,1.5,0,0,0-.075.82.469.469,0,0,1,.05.175l-.061.693a.2.2,0,0,1-.076.12,1.318,1.318,0,0,0-.25.752,1.251,1.251,0,0,0,.12.8A.158.158,0,0,1,387.376,525.949Z" transform="translate(-387.195 -521.735)"/><path class="aq" d="M388.1,522.356a.247.247,0,0,0-.244.224l-.015.172a.332.332,0,0,1-.058.147c-.008.014-.016.026-.022.039a1.051,1.051,0,0,0-.079.347,1.028,1.028,0,0,0,.015.359.453.453,0,0,0,.017.043.319.319,0,0,1,.033.152l-.057.648a.258.258,0,0,1-.1.165,1.159,1.159,0,0,0-.208.65,1.115,1.115,0,0,0,.092.685.229.229,0,0,1,.068.166l-.014.162a.573.573,0,0,0,1.14.106.534.534,0,0,1,.054-.172l.006-.014a.851.851,0,0,0,.042-.346.605.605,0,0,0-.107-.376.138.138,0,0,1-.075-.108l-.044-.5a.619.619,0,0,1,.025-.209,2.016,2.016,0,0,0,.039-.569,1.576,1.576,0,0,0-.133-.634l-.006-.009a.349.349,0,0,1-.064-.155l-.065-.745A.247.247,0,0,0,388.1,522.356Z" transform="translate(-387.296 -522.049)"/><path class="ar" d="M388.166,528.135c-.02.008-.047,0-.047-.021.006-.429-.2-.562-.265-.173a.035.035,0,0,1-.061.015c-.1-.11-.217.106-.217.423,0,.249.072.451.16.451s.138-.142.155-.334c.01-.115.12-.113.12.136,0,.277.08.5.178.5s.178-.225.178-.5C388.368,528.329,388.273,528.094,388.166,528.135Z" transform="translate(-387.415 -525.134)"/><path class="ar" d="M388.73,523.108c.006-.264-.069-.5-.167-.5s-.15.213-.163.375c0,.052-.057.082-.09.122-.142.172-.094.76.056.76.066,0,.114-.127.136-.3.017-.126.105-.093.119,0,.044.289.19.22.19-.091C388.812,523.257,388.728,523.216,388.73,523.108Z" transform="translate(-387.789 -522.195)"/></g><g transform="translate(5.799 54.845)"><path class="aj" d="M374.063,527.2a1.05,1.05,0,0,0-.954-.01c-.267.15-.273.4-.014.553a1.053,1.053,0,0,0,.954.01C374.317,527.605,374.323,527.358,374.063,527.2Z" transform="translate(-372.721 -521.498)"/><path class="ak" d="M374.053,526.082a1.061,1.061,0,0,1-.962-.01.373.373,0,0,1-.186-.22l.213.878a.253.253,0,0,0,.127.149.72.72,0,0,0,.654.007.259.259,0,0,0,.136-.153l.218-.876A.379.379,0,0,1,374.053,526.082Z" transform="translate(-372.721 -520.788)"/><path class="al" d="M373.966,524.093a1.285,1.285,0,0,0-1.166-.012c-.327.183-.334.486-.017.676a1.286,1.286,0,0,0,1.166.012C374.277,524.585,374.284,524.283,373.966,524.093Z" transform="translate(-372.517 -519.69)"/><path class="am" d="M374.054,524.165a1.071,1.071,0,0,0-.973-.01c-.273.153-.279.405-.014.564a1.072,1.072,0,0,0,.973.01C374.313,524.576,374.319,524.324,374.054,524.165Z" transform="translate(-372.702 -519.746)"/><path class="an" d="M373.949,525.414a1.286,1.286,0,0,1-1.166-.012.408.408,0,0,1-.234-.334v.276a.406.406,0,0,0,.233.334,1.283,1.283,0,0,0,1.166.012.415.415,0,0,0,.25-.341v-.276A.415.415,0,0,1,373.949,525.414Z" transform="translate(-372.516 -520.336)"/><path class="ao" d="M374.747,517.362a.6.6,0,0,0-.166-.421.06.06,0,0,1-.036-.041l-.069-.486a.508.508,0,0,1,.013-.177,1.992,1.992,0,0,0,.009-.578,1.591,1.591,0,0,0-.176-.645.29.29,0,0,1-.062-.12l-.1-.719a.328.328,0,0,0-.331-.272.377.377,0,0,0-.4.323l.1.151a.444.444,0,0,1-.061.155,1.113,1.113,0,0,0-.066.37,1.1,1.1,0,0,0,.039.377.442.442,0,0,1,.053.156l-.021.631a.178.178,0,0,1-.063.112,1.193,1.193,0,0,0-.191.695,1.137,1.137,0,0,0,.148.718.145.145,0,0,1,.052.1l-.005.157a.635.635,0,0,0,1.27.049.523.523,0,0,1,.044-.159A.88.88,0,0,0,374.747,517.362Z" transform="translate(-372.896 -513.903)"/><path class="ap" d="M372.652,518.22l-.015.173a.7.7,0,0,0,.295.633,1.109,1.109,0,0,0,.813-.005.7.7,0,0,0,.286-.5.575.575,0,0,1,.058-.172.969.969,0,0,0,.053-.411.666.666,0,0,0-.158-.473.066.066,0,0,1-.037-.047l-.047-.539a.563.563,0,0,1,.025-.193,2.2,2.2,0,0,0,.044-.635,1.755,1.755,0,0,0-.156-.72.316.316,0,0,1-.061-.136l-.069-.8a.349.349,0,0,0-.7,0l-.017.185a.48.48,0,0,1-.076.166,1.494,1.494,0,0,0-.074.82.468.468,0,0,1,.049.174l-.061.693a.193.193,0,0,1-.076.119,1.313,1.313,0,0,0-.25.752,1.248,1.248,0,0,0,.12.8A.156.156,0,0,1,372.652,518.22Z" transform="translate(-372.471 -514.006)"/><path class="aq" d="M373.372,514.627a.246.246,0,0,0-.244.224l-.015.172a.335.335,0,0,1-.058.147c-.008.014-.016.026-.022.039a1.051,1.051,0,0,0-.079.347,1.036,1.036,0,0,0,.016.359.432.432,0,0,0,.016.043.32.32,0,0,1,.033.152l-.057.648a.258.258,0,0,1-.1.165,1.158,1.158,0,0,0-.208.651,1.115,1.115,0,0,0,.092.685.231.231,0,0,1,.068.166l-.014.162a.573.573,0,0,0,1.14.106.557.557,0,0,1,.054-.172l.006-.014a.853.853,0,0,0,.043-.347.6.6,0,0,0-.107-.376.138.138,0,0,1-.075-.108l-.044-.5a.6.6,0,0,1,.025-.209,2.035,2.035,0,0,0,.039-.569,1.571,1.571,0,0,0-.133-.634l-.005-.009a.345.345,0,0,1-.064-.155l-.065-.745A.247.247,0,0,0,373.372,514.627Z" transform="translate(-372.572 -514.32)"/><path class="ar" d="M373.441,520.406c-.021.008-.047,0-.047-.021.006-.429-.2-.562-.265-.173a.035.035,0,0,1-.061.015c-.1-.11-.217.106-.217.423,0,.249.072.451.161.451s.137-.141.155-.334c.01-.116.12-.113.119.136,0,.277.08.5.178.5s.178-.225.178-.5C373.643,520.6,373.548,520.365,373.441,520.406Z" transform="translate(-372.69 -517.405)"/><path class="ar" d="M374.005,515.379c.006-.264-.069-.5-.167-.5s-.149.213-.163.375c0,.051-.057.082-.09.122-.142.172-.094.76.056.76.066,0,.114-.128.136-.3.017-.126.106-.093.12,0,.043.289.19.22.19-.091C374.088,515.528,374,515.487,374.005,515.379Z" transform="translate(-373.065 -514.466)"/></g></g></g></svg>