<svg xmlns="http://www.w3.org/2000/svg" width="34.362" height="65.119" viewBox="0 0 34.362 65.119"><defs><style>.a{fill:#c6c6c6;}.a,.c{mix-blend-mode:multiply;}.a,.c,.g{isolation:isolate;}.b{fill:#7c2112;}.c{fill:#bac2c9;}.d{fill:#055d07;}.e{fill:#902f19;}.f{fill:#2e8207;}.g{fill:#fff;opacity:0.4;mix-blend-mode:overlay;}</style></defs><g transform="translate(0 0)"><path class="a" d="M408.642,387.9c-3.692-1.487-2.149-3.144,3.693-2.357-.666-.65-1.2-1.169-1.6-1.576a20.68,20.68,0,0,1,10.458.037,7.152,7.152,0,0,1,1.023-.77l6-.8c3.078,2.375,1.307,1.335-3.3,3.142,5.6,3.483,3.017,9.236.266,6.844-2.553-2.223-3.683-2.412-1.016,3.3-4.958,2.626-6.556-.44-8.24-3.39-.283,3.753-2.918,1.956-3.446-1.45-3.584.345-5.972-.365-4.918-1.5a23.374,23.374,0,0,0-3.283,2.21C403.913,391.881,401.244,391.482,408.642,387.9Z" transform="translate(-400.316 -331.603)"/><path class="b" d="M441.055,382.844c-.207.412-4.742-1.235-6.8,1.718l-3.85-3.368C436.04,379.614,438.788,379.958,441.055,382.844Z" transform="translate(-411.363 -330.709)"/><path class="c" d="M433.942,380.512l1.378,1.169a9.636,9.636,0,0,1,5.488.974c.083.1.167.19.247.293-.207.412-4.742-1.235-6.8,1.718L430.4,381.3A28.39,28.39,0,0,1,433.942,380.512Z" transform="translate(-411.363 -330.813)"/><path class="d" d="M421.119,332.8c5.272,3.8,7.832-.641,11.99-9.775s-.917-4.376-4.056-1.03c2.3-14.023-5.052-14.145-6.652-9.969-4.1-17.083-8.485-23.489-8.492-3.289-2.075-3.345-15.958-6.265-3.338,12.372-6.551-2.6-7.671-1.7-3.038,4.865C397.3,325.585,408.335,344.417,421.119,332.8Z" transform="translate(-400.316 -296.167)"/><path class="a" d="M433.9,336.39c1.111-3.767,1.7-5.067,2.416-1.411l2.783,3.656c1.649.1,3.4,1.2,0,1.272,1.272.824-.55.755-1.512.447-.721,3.2-3.1,3.471-2.5,1.993C431.3,340.388,431.238,333.894,433.9,336.39Z" transform="translate(-412.039 -311.219)"/><path class="a" d="M407.534,343.52a19.671,19.671,0,0,1-2.689-4.634c1.388,1.3,4.33,2.261,7.548,2.623-2.954.55,1.1,1.649,4.574,2.818.173,4.122,1.2,4.122,4.756,2.68,2.114,4.509,5.047,3.254,8.33-.22-2.653,4.69-5.062,6.344-8.932,3.558C408.335,361.964,397.3,343.132,407.534,343.52Z" transform="translate(-400.316 -313.714)"/><path class="e" d="M410.676,376.5c-1.718-4.742-10.5-12.9,8.331-11.682l.339.021c.887-4.684-5.1-5.862-5.1-5.862s-.549.345,0-.686c6.4,2.589,7.911,5.462,8.271,6.649,7.959-.035,2.3-3.039-2.514-5.091a18.316,18.316,0,0,0,1.932-1.532c1.829,1.317,3.332,1.64,4.687,1.122,3.745,3.537,6.1,7.509-2.03,9.123-13.435,2.668,4.923,3.993,3.751,12.338-.118.836-.817,1.389-1.438.875-3.763-3.1-4.927-2.109-3.127,2.287.415,1.011-1.187,1.193-1.716.154-5.518-10.831-11.108-6.651-16.128-3.94C404.781,379.094,405.784,377.743,410.676,376.5Z" transform="translate(-401.133 -321.685)"/><path class="c" d="M405.936,380.276c5.02-2.711,10.61-6.891,16.128,3.94.529,1.039,2.131.857,1.716-.154-1.8-4.4-.636-5.386,3.127-2.287.621.514,1.32-.039,1.438-.875a5.2,5.2,0,0,0-.085-1.942c.223,1.389.18,2.079-.372,1.939-1.96-.493-2.861-2.721-4.363-4.075-2.533-2.28-5.3-3.367-6.363-4.3-1.546-1.358-5.1-4.348.875-5.43-9.071.774-2.937,5.566.31,7.113,2.352,1.119,4.644,2.038,5.4,3.33-1.971-.946-3.418-.07-1.567,3.732.633,1.3,1.094,2.323,1.408,3.127-.833,1.29-3.195-3.967-4.57-5.653-1.163-1.425-8.263-4.69-6.1-9.687,1.642-3.781,8.284-2.649,10.774-2.51,8.1.457,5.63-2.109,2.057-4.668-.034-.113-.069-.227-.11-.348a19.267,19.267,0,0,0,3.409.64,17.777,17.777,0,0,0-2.428-2.724c-1.355.518-2.858.194-4.687-1.122A18.316,18.316,0,0,1,420,359.848c4.809,2.052,10.473,5.056,2.514,5.091-.359-1.187-1.876-4.06-8.271-6.649-.549,1.031,0,.686,0,.686s5.984,1.178,5.1,5.862l-.339-.021c-18.835-1.214-10.049,6.94-8.331,11.682C405.784,377.743,404.781,379.094,405.936,380.276ZM411.1,372.8c-.623-.6-1.268-1.276-1.931-2.05-3.393-3.973-.64-4.973,5.559-4.814C411.4,366.653,408.93,368.712,411.1,372.8Z" transform="translate(-401.133 -321.685)"/><path class="f" d="M398.935,348.409c-.843-.752-1.18-1.436-.432-1.862,2.531-1.444,6.977,1.58,6.977,1.58s-6.919-8.246,2.976.825c-1.857-5.221-1.152-6.281.674-3.63.712-1.508,1.154.146,1.184,1.973.447.817.9,1.618,1.28,2.379.691-2.235,1.866-.3.921,2.494.3,1.844-.78,3.1-5.151,3.159-2.617,1.393-3.819,1.2-2.882-.1-.336-.025-.682-.054-1.041-.087-12.369-1.168,2.4-2.748,2.4-2.748s-2.13-.949-4.158-2.11C399.911,350.256,397.433,349.486,398.935,348.409Z" transform="translate(-398.089 -315.783)"/><g transform="translate(5.94 1.026)"><path class="f" d="M436.94,327.152a24.865,24.865,0,0,1,.3-2.767c-1.1-3.317-.042-3.816.814-2.887.605-1.221,1.416-1.421,2.358.388,1.189,2.287,2.533,8.246.407,11.183,1.846.373.642.892-1.338,1.165-.057.029-.11.062-.168.089-1.272.593-1.988-1.006-2.266-3.3C434.055,326.563,435.337,325.212,436.94,327.152Z" transform="translate(-419.29 -307.21)"/><path class="f" d="M435.791,337.219c.9,1.817,2.061,6.957,0,5.36S434.206,334.016,435.791,337.219Z" transform="translate(-418.951 -313.713)"/><path class="f" d="M436.683,326.181c-.689-1.34-.07-3.3.514-1.168C437.5,326.116,437.369,327.521,436.683,326.181Z" transform="translate(-419.757 -308.654)"/><path class="f" d="M426.519,311.673c-.061-.25-.123-.5-.182-.76-1.487-2.473-2.531-6.513-.844-4.4-.1-.623-.189-1.2-.258-1.694-.593-4.192-.979-8.3,0-6.46.233.443.47.9.7,1.374.163-1.169,1.118.851,1.725,3.712,2.472,5.749,4.224,11.933,2.337,13.4-.814.633-1.545,0-2.18-1.289C424.74,312.856,422.849,309.343,426.519,311.673Z" transform="translate(-414.879 -297.908)"/><path class="f" d="M422.594,305.6c-.325-.27-.1-2.027.266-4.02s.626.275.765,2.68S423.421,306.285,422.594,305.6Z" transform="translate(-414.03 -299.103)"/><path class="f" d="M428.048,326.99c.737.443,1.855,3.195,1.065,3.366S425.076,325.206,428.048,326.99Z" transform="translate(-415.829 -309.703)"/><path class="f" d="M411.165,315.212c-.236-.688-.27-1.173-.008-1.322,1.288-.734,3.412.466,5.083,2.513.434-4.495,1.4-8.215,1.038,1.487a11.255,11.255,0,0,1,.956,2.045c1.9,5.49.995,6-.725,4.5-5.022-1.461-5.686-4.1-3.173-3.711-.537-.748-1.054-1.524-1.515-2.275C407.3,316.5,408.679,314.853,411.165,315.212Z" transform="translate(-408.507 -303.611)"/><path class="f" d="M451.008,336.864c-1.957.412-.722-1.428,1.305-2.742C453.033,333.658,452.967,336.452,451.008,336.864Z" transform="translate(-425.361 -312.762)"/><path class="f" d="M451.115,339.7c1.187-.764,1.58-.275.31.86S449.569,340.7,451.115,339.7Z" transform="translate(-425.429 -314.922)"/><path class="f" d="M449.689,339.044c.608.023.761.322,0,.567S448.658,339.006,449.689,339.044Z" transform="translate(-424.946 -314.805)"/><path class="f" d="M414.088,332.166c.378-1.42.523-.568.687,1.106.862,1.51,1.1,2.3-.53.784C412.566,332.492,412.756,330.341,414.088,332.166Z" transform="translate(-410.169 -311.685)"/><path class="f" d="M408.655,314.2c.595-.913,1.6.378.463.893S407.915,315.33,408.655,314.2Z" transform="translate(-408.169 -304.467)"/></g><path class="d" d="M421.333,347.425c1.689.158,2.449.309,1.091,1.924S418.4,347.15,421.333,347.425Z" transform="translate(-407.094 -317.216)"/><path class="f" d="M419.76,307.434c-.246-2.578-1.168-3.228-1.065-1.717S419.945,309.379,419.76,307.434Z" transform="translate(-406.549 -299.76)"/><path class="f" d="M433.393,306.535c.451-1.373,1.392-1.194,1.418,1.236.042,3.986-.813,5.167-1.313,3.126a10.491,10.491,0,0,1-.326-3.1C431.97,305.122,432.811,305.127,433.393,306.535Z" transform="translate(-412.248 -300.041)"/><path class="f" d="M437.6,317.659c.918.587,1.049,2.485-1.019,1.2S436.528,316.974,437.6,317.659Z" transform="translate(-413.531 -304.878)"/><path class="f" d="M446.049,323.868c.21,1.569.755,1.889,1.132-.515s.344-2.371-.566-2.3S445.808,322.081,446.049,323.868Z" transform="translate(-417.72 -306.38)"/><path class="f" d="M405.014,324.393c1.218.372,5.359,3.654,1.633,3.276S402.162,323.524,405.014,324.393Z" transform="translate(-400.222 -307.708)"/><path class="f" d="M407.907,323.467c.285.978.078.943-1.639-.157S407.621,322.49,407.907,323.467Z" transform="translate(-401.235 -307.025)"/><path class="f" d="M405.993,342.149c1,.109,3.273,1.7.9.9S404.808,342.02,405.993,342.149Z" transform="translate(-400.969 -315.041)"/><path class="f" d="M401.485,355.434c2.237.983,4.355,1.391-.387,1.29S399.374,354.507,401.485,355.434Z" transform="translate(-398.289 -320.415)"/><path class="f" d="M412.9,346.195c.257.676.6,1.77-.293,1.013S412.406,344.889,412.9,346.195Z" transform="translate(-403.876 -316.51)"/><path class="f" d="M402.041,346.642c.625.509.945.327,1.048,0S400.924,345.732,402.041,346.642Z" transform="translate(-399.585 -316.7)"/><path class="d" d="M400.048,348.2c-.747.052.129,2.719,7.807,4.89-6.029-1.385-9.765-1.4-8.3-2.757C397.7,348.025,400.048,348.2,400.048,348.2Z" transform="translate(-398.399 -317.541)"/><path class="d" d="M412.017,356.541c-3.016-.636-7.812-2.112-2.25.554S413.562,356.868,412.017,356.541Z" transform="translate(-401.835 -320.562)"/><path class="d" d="M399.743,360.471c-.552.656,2.434.965,4.725.81-.995-1.023-.541-1.117,1.177-.283,1.153-.686,3.078-.045,1.842.735-1.464.928-3.039,1.657-2.553.194C402.242,361.444,396.853,361.03,399.743,360.471Z" transform="translate(-398.428 -322.566)"/><path class="d" d="M451.649,345.464c-.483,1.077-.9,1.929,1.6-.3S452.592,343.362,451.649,345.464Z" transform="translate(-419.939 -315.681)"/><path class="d" d="M449.568,334.171c.729-1.134,1.562-2.125.187-2.313S447.818,336.889,449.568,334.171Z" transform="translate(-418.785 -310.825)"/><path class="g" d="M412.176,372.442c1.12-.59-2.469-.438-2.281,1.358.05.486.735.289.965-.141A3.087,3.087,0,0,1,412.176,372.442Z" transform="translate(-402.935 -327.371)"/><path class="g" d="M432.468,373.295c.411-.037,1.065.4-5.528.836-4.449.286.14,5.929-1.818,4.363C418.207,372.974,426.867,373.8,432.468,373.295Z" transform="translate(-408.14 -327.847)"/><path class="g" d="M428.027,392.589c-1.527-3.775-2.235-5.6-4.674-7.525s-3.951-1.807-5.12-4.8c.86,4.94,4.488,4.566,6.631,7.206S428.739,394.351,428.027,392.589Z" transform="translate(-406.363 -330.711)"/></g></svg>