<svg xmlns="http://www.w3.org/2000/svg" width="66.488" height="51.413" viewBox="0 0 66.488 51.413"><defs><style>.a{fill:#7ba302;}.a,.b,.c,.d,.e,.f,.g,.h,.i,.j,.k,.l{fill-rule:evenodd;}.b{fill:#bab2c4;}.c{fill:#7c7187;}.d{fill:#a096ab;}.e{fill:#739900;}.f{fill:#769d01;}.g{fill:#96c40a;}.h{fill:#56321a;}.i{fill:#325c0f;}.j{fill:#44731d;}.k{fill:#54872a;}.l{fill:#659e36;}</style></defs><g transform="translate(-827.276 -438.531)"><g transform="translate(827.276 443.641)"><g transform="translate(0 18.165)"><path class="a" d="M36.883,174.072,9.041,189.91Z" transform="translate(-9.041 -174.072)"/><path class="a" d="M225.908,312.433l7.122,1.994,7.1-4.277-7.242-4.256Z" transform="translate(-195.152 -287.198)"/></g><g transform="translate(9.643 0)"><path class="b" d="M221.95,211.071l-4.506,2.822.358-8.387-1.16-4.74-.347-6.425,6.376-3.976-.593,8.186-.1,3.486.568,3.419-.35.729Z" transform="translate(-196.546 -169.89)"/><path class="c" d="M271.762,214.357l-4.586-1.378.079-12.018,1.589-7.647,3.006.421.241,2.744,1.71,8.729-.339,4.669-1.079-.891Z" transform="translate(-240.21 -172.421)"/><path class="b" d="M382.162,183.055l-5.7,6.318-4.37-9.253-.966-13.094,2.89,3.223,1.085,2.731,5.885,5.057Z" transform="translate(-329.419 -149.86)"/><path class="b" d="M325.493,154.3l-6.174,5.543-.938,5.444,3.364,7.107.3,9.3,2.11-3.5,3.165-7.83Z" transform="translate(-284.153 -138.938)"/><path class="d" d="M360.825,178.451l-7.042-.251.971-9.65-1.85-4.343,2.216-9.908,2.077,10.179,2.319,2.625Z" transform="translate(-313.779 -138.938)"/><path class="b" d="M149.115,218.676l1.453,16.064-6.264,1.529,1.819-5.931-.524-5.6,1.436-1.5.008-4.546Z" transform="translate(-134.763 -194.186)"/><path class="d" d="M203.221,276.829l-2.84-1.259.21-6.4-.869-3.392,2.7-2.079,1.16,4.74Z" transform="translate(-182.322 -232.827)"/><path class="c" d="M81.4,204.512l-4.366-3.593.621-8.355,1.661-1.458L79.7,187.2l-.393-4.018,5.754.843-2.4,7.22,1.456-.367-2.429,7.345Z" transform="translate(-77.036 -163.723)"/><path class="d" d="M113,210.907l-5.174-1.293.278-6.292,2.43-7.345-1.456.366,2.4-7.22,4.258,3.6-.009,5.154-1.436,1.5.524,5.6Z" transform="translate(-103.457 -168.824)"/><path class="e" d="M119.538,118.083l7.485.93-.233.739-1.5,1.784,3.829.931-.359.752-6.174,5.543-3.6,1.17-2.934-1.18-2.508-.418-7.076,4.413-2.934-3.869-1.945,3.609-1.894-.121-4.257-4.208-5.754-.843-.55-1.166L92.694,122l4.527-1.285,11.9-2.053,9.439.633Z" transform="translate(-87.423 -107.859)"/><path class="c" d="M184.068,225.824l-2.7,2.079.869,3.392-.21,6.4-2.254-2.19-1.4-9.123-.042-6.815Z" transform="translate(-163.971 -194.948)"/><path class="b" d="M345.562,129.851l.991,2.991-2.488-1.207Z" transform="translate(-306.195 -117.958)"/><path class="f" d="M176.964,190.029l5.925,6.248,5.441,1.926,1.481-.276,10.573.928,3.094-.977,5.443-.91,5.44-3.392.383-.75-2.6-.5-11.713,3.755-12.3-1.555-6.289-4.239-2.9-5.155Z" transform="translate(-162.792 -165.401)"/><path class="d" d="M301.689,193.383l-.938,5.444,2.708,3.444-3.925.036-1.7-5.04.254-2.714Z" transform="translate(-266.523 -172.48)"/><path class="d" d="M257.667,190.365l2.509.418-1.589,7.647-1.512.121Z" transform="translate(-231.541 -169.89)"/><path class="g" d="M119.279,111.687l7.744,1.837-1.989,1.616,4.088,1.838-6.793,5.388-2.9,1.323-3.344-1.009-2.271-.965-7.628,5.041-4.143-.016-2.346-.472-4.517-4.507-6.045-1.1,3.3-5.059,4.527-1.285,11.9-2.053,9.439.633Z" transform="translate(-87.422 -102.37)"/><path class="g" d="M180.159,185.068l5.666,5.728,4.732,2.08,2.18-.165,10.4.841,3.319-1.256,5.145-.585,5.887-3.589-1.537-1.9-2.621-.416,1.332,1.254-3.446,1.743-5.318.077-3.428,1.612-3.925.036-5.965-1.287-1.512.121-6.289-4.551-2.9-5.155Z" transform="translate(-165.534 -160.697)"/><path class="d" d="M301.531,279.395l-.317,4.355-1.079-.891-.62,5.371,6.341.821-.3-9.3Z" transform="translate(-267.963 -246.293)"/><path class="d" d="M256.3,275.617l.46,2.765-.35.729L256.164,284l1.562-.623.053-8.032Z" transform="translate(-230.76 -242.815)"/><path class="a" d="M99.623,137.994l4.044,1.08,5.092,1.117,4.229-1.165,5.958,3.405-.631-6.75L103.8,134.545l-2.369.672Z" transform="translate(-96.419 -121.986)"/><path class="d" d="M217.044,114.47l2.67,3.2-.261-3.858,1.81-5.86-.51-2.261-3.277.226,1.409,2.107Z" transform="translate(-197.188 -97.225)"/><path class="c" d="M261.33,93.836l.582,11.408,3.6.271-.893-7.146L262.92,94Z" transform="translate(-235.193 -87.05)"/><path class="b" d="M234.294,107.5l4.193-2.252-.3-6.326-.281-5.082-2.571,1.681.51,2.261-1.81,5.86Z" transform="translate(-211.768 -87.05)"/><path class="b" d="M281.082,80.766l.779-4.731-1.969-4.644-1.464-.132-2.4-3.919-1.435.722,1.018,2.218,1.467,1.821Z" transform="translate(-246.574 -64.313)"/><path class="d" d="M275.129,100.567l4.191-2.011-4.005-8.664-1.467-1.821-1.309.986,1.663,5.17Z" transform="translate(-244.812 -82.103)"/><path class="e" d="M298.183,89.38l.486.793-.492.88.162.178,1.794-.926.388-.526Z" transform="translate(-266.814 -83.227)"/><path class="c" d="M197.578,107.283l1.409,2.107-1.842,6.446-3.289-.205,1.533-3.242-.309-3.678Z" transform="translate(-177.289 -98.59)"/><path class="b" d="M164.04,119.113l4.229-1.165,1.533-3.242-.309-3.678-2.8-1.045-.732,3.008-.007,3.856Z" transform="translate(-151.701 -100.908)"/><path class="d" d="M147.993,110.594l3.1-.612-.732,3.008-.007,3.856-1.912,2.266-2.578-1.8.224-1.825Z" transform="translate(-136.101 -100.907)"/><path class="c" d="M126.851,91.916l.224-1.825,1.906-4.89-4.353-4.808-.161,7.867-.758,2.426Z" transform="translate(-117.09 -75.514)"/><path class="e" d="M135.039,46.662c-3.029,1.661-5.635,2.457-6.72,3.521l.265.688,4.353,4.808,3.1-.611,2.8,1.045,2.5-1.428,3.277-.226,2.571-1.681,1.59.168,1.309-.986-1.018-2.218,1.435-.722.281-.3-5.808-2.128-3.7.7-4.15-1.3Z" transform="translate(-121.046 -45.992)"/><path class="g" d="M128.319,50.182l4.861,4.751,2.984-.644L139,55.707l2.53-1.9,3.115.1,2.571-1.681,1.59.168,1.1-.827-.838-1.827.032-.551,1.684-.475-2.6-1.287-3.212-.84-3.7.7-4.15-1.3-2.08.67C131.882,48.392,129.328,49.071,128.319,50.182Z" transform="translate(-121.046 -45.992)"/><path class="g" d="M296.839,87.126l.638,1.042-.449.951,2.344-1.274Z" transform="translate(-265.666 -81.292)"/><path class="e" d="M99.094,246.481l4.916.619,1.42.7,2.345.3-.492.514-3.383,1.514-5.44-2.041-2.557-2.15-.478-.766Z" transform="translate(-92.817 -216.918)"/><path class="g" d="M99.094,246.481l4.967.566,1.37.751,2.345.3-3.948,1.391-5.15-1.742-3.251-2.578Z" transform="translate(-92.817 -216.918)"/></g><g transform="translate(48.863 33.492)"><path class="a" d="M358.562,328.1c-1.249.082-2.129.718-1.965,1.419s1.309,1.2,2.558,1.122,2.128-.718,1.965-1.419S359.81,328.02,358.562,328.1Z" transform="translate(-356.151 -321.577)"/><path class="h" d="M369.979,311.106v-.014c.13-1.413.15-4.237.391-4.239s.245,2.827.368,4.242v.025l0,.012v.009l0,.012,0,.009-.006.012,0,.009-.009.011-.006.008-.012.013-.007.007-.016.013-.006,0-.026.018-.033.017h0l-.006,0-.03.012-.006,0-.006,0-.021.007-.008,0h-.005l-.018,0-.011,0h-.006l-.015,0-.012,0h-.146l-.021,0h-.015l-.033-.006h-.01l-.03-.008-.007,0-.036-.012h0l-.024-.01-.006,0-.028-.014h0a.3.3,0,0,1-.028-.018h0l-.007-.005-.016-.012v0h0l-.007-.007-.012-.012,0,0v0l0,0-.008-.01,0-.005v0l0,0-.005-.01v0h0l0-.006,0-.009,0,0v-.007l0-.008v-.02Z" transform="translate(-367.653 -303.349)"/><g transform="translate(0 1.242)"><path class="i" d="M356.735,297.043c.188.117.516.089.572-.073.122-.349.207-.4.578-.294.18.052.455-.034.461-.266.009-.344.193-.509.484-.378s.1-.2.083-.234l-2.172-3.8a.512.512,0,0,0-.92,0l-2.172,3.8c-.021.037-.2.361.083.234s.475.034.484.378c.006.232.281.318.461.266.371-.107.456-.056.578.294.057.162.395.2.572.073C356.167,296.793,356.327,296.787,356.735,297.043Z" transform="translate(-353.576 -291.594)"/><path class="j" d="M358.029,295.911c.173.11.475.083.527-.069.113-.328.191-.376.532-.275.166.049.419-.032.425-.249.008-.323.178-.478.446-.355s.1-.184.077-.219l-2-3.568a.467.467,0,0,0-.847,0l-2,3.568c-.02.035-.183.339.077.219s.437.032.446.355c.006.217.259.3.425.249.341-.1.42-.052.532.275.052.152.363.192.527.069C357.506,295.677,357.653,295.672,358.029,295.911Z" transform="translate(-354.902 -290.906)"/><path class="k" d="M360.28,297.26c.146.093.4.07.446-.058.1-.277.161-.318.45-.233.141.041.355-.027.36-.211.007-.273.15-.4.377-.3s.081-.156.065-.186l-1.693-3.02a.4.4,0,0,0-.717,0l-1.693,3.02c-.016.029-.155.287.065.186s.37.027.377.3c0,.184.219.253.36.211.289-.085.355-.044.451.233.044.128.307.162.446.058C359.837,297.062,359.961,297.057,360.28,297.26Z" transform="translate(-357.216 -292.723)"/><path class="l" d="M362.34,298.443c.122.078.335.059.372-.049.08-.231.135-.265.376-.194.117.035.3-.023.3-.176.006-.228.125-.337.315-.25s.068-.13.054-.155l-1.412-2.519a.33.33,0,0,0-.6,0l-1.412,2.519c-.014.025-.129.239.054.155s.309.022.315.25c0,.153.183.211.3.176.241-.071.3-.037.376.194.037.107.256.136.372.049C361.97,298.278,362.074,298.274,362.34,298.443Z" transform="translate(-359.335 -294.342)"/></g><g transform="translate(0.494)"><path class="i" d="M359.641,287.166c.153.1.422.072.468-.06.1-.285.169-.328.473-.24.147.043.372-.028.377-.217.008-.281.158-.416.4-.309s.086-.161.068-.191l-1.776-3.11a.418.418,0,0,0-.752,0l-1.776,3.11c-.017.03-.163.3.068.191s.388.028.4.309c.005.189.23.26.377.217.3-.088.373-.046.473.24.046.132.322.167.468.06C359.177,286.962,359.307,286.957,359.641,287.166Z" transform="translate(-357.059 -282.711)"/><path class="j" d="M360.7,286.241c.141.09.388.068.431-.056.092-.268.156-.307.435-.225.136.04.343-.026.347-.2.007-.264.145-.391.364-.29s.079-.151.063-.179L360.7,282.37a.382.382,0,0,0-.692,0l-1.635,2.917c-.016.029-.15.277.063.179s.357.026.364.29c0,.177.212.244.347.2.279-.082.343-.043.435.225.043.124.3.157.431.056C360.272,286.05,360.392,286.045,360.7,286.241Z" transform="translate(-358.143 -282.15)"/><path class="k" d="M362.539,287.343c.119.076.328.057.365-.047.078-.227.132-.26.368-.191.115.034.29-.022.294-.173.006-.224.123-.331.308-.245s.067-.128.053-.152l-1.384-2.469a.323.323,0,0,0-.586,0l-1.384,2.469c-.014.024-.127.234.053.152s.3.022.308.245c0,.15.179.206.294.173.236-.07.29-.036.368.191.036.1.251.133.365.047C362.177,287.181,362.279,287.177,362.539,287.343Z" transform="translate(-360.035 -283.634)"/><path class="l" d="M364.223,288.311c.1.064.274.048.3-.04.065-.189.11-.217.307-.159.1.028.242-.019.245-.144,0-.186.1-.276.257-.2s.056-.106.044-.126l-1.154-2.059a.27.27,0,0,0-.489,0l-1.154,2.059c-.011.02-.106.2.044.126s.252.018.257.2c0,.125.149.172.245.144.2-.058.242-.03.307.159.03.088.21.111.3.04C363.921,288.176,364.006,288.173,364.223,288.311Z" transform="translate(-361.767 -284.958)"/></g></g><g transform="translate(14.77 10.008)"><path class="a" d="M118.172,162.513c-1.249.082-2.129.717-1.965,1.419s1.309,1.2,2.558,1.122,2.128-.717,1.965-1.419S119.42,162.431,118.172,162.513Z" transform="translate(-115.762 -155.988)"/><path class="h" d="M129.589,145.516V145.5c.13-1.413.15-4.237.391-4.239s.245,2.827.368,4.242v.025l0,.012v.009l0,.012,0,.01-.006.012,0,.009-.009.011-.006.008-.012.013-.007.007-.016.014-.006,0-.026.018-.033.017h0l-.006,0-.03.012-.006,0-.006,0-.021.007-.009,0h0l-.018,0-.011,0h-.006l-.015,0-.012,0h-.146l-.021,0h-.015l-.033-.006h-.01l-.03-.008-.007,0-.036-.012h0l-.024-.01-.006,0-.028-.014h0l-.028-.018h0l-.007-.005-.016-.012v0h0l-.007-.007-.012-.012,0,0v0l0,0-.008-.01,0,0v0l0,0-.005-.01v0l0,0h0l0-.006,0-.009,0,0v-.007l0-.008v-.02Z" transform="translate(-127.263 -137.76)"/><g transform="translate(0 1.242)"><path class="i" d="M116.346,131.453c.187.117.516.088.572-.073.122-.349.207-.4.578-.294.18.052.455-.034.462-.266.009-.344.193-.509.484-.378s.1-.2.083-.234l-2.172-3.8a.512.512,0,0,0-.92,0l-2.172,3.8c-.021.037-.2.361.083.234s.475.034.484.378c.006.231.281.318.461.266.371-.107.456-.056.578.294.057.162.395.2.572.073C115.777,131.2,115.937,131.2,116.346,131.453Z" transform="translate(-113.187 -126.004)"/><path class="j" d="M117.639,130.322c.173.11.475.083.527-.069.113-.328.191-.376.532-.275.166.049.419-.032.425-.249.008-.323.178-.478.446-.355s.1-.184.077-.219l-2-3.568a.467.467,0,0,0-.847,0l-2,3.568c-.019.035-.183.338.077.219s.437.032.446.355c.006.217.259.3.425.249.341-.1.419-.052.532.275.052.152.363.192.527.069C117.116,130.088,117.263,130.082,117.639,130.322Z" transform="translate(-114.512 -125.317)"/><path class="k" d="M119.89,131.67c.146.093.4.07.446-.058.1-.277.162-.318.451-.233.141.042.355-.027.36-.211.007-.274.15-.4.377-.3s.082-.156.065-.186l-1.693-3.021a.4.4,0,0,0-.716,0l-1.693,3.021c-.017.029-.155.286.065.186s.37.027.377.3c0,.184.219.253.36.211.289-.085.355-.044.45.233.044.128.307.163.446.058C119.447,131.472,119.572,131.467,119.89,131.67Z" transform="translate(-116.827 -127.134)"/><path class="l" d="M121.95,132.854c.122.078.335.058.372-.048.08-.231.135-.266.376-.194.117.035.3-.023.3-.176.006-.228.126-.337.315-.25s.068-.13.054-.155l-1.412-2.519a.33.33,0,0,0-.6,0l-1.412,2.519c-.014.025-.129.239.054.155s.309.022.315.25c0,.153.183.211.3.176.241-.071.3-.037.376.194.037.107.256.136.372.048C121.58,132.689,121.684,132.685,121.95,132.854Z" transform="translate(-118.945 -128.753)"/></g><g transform="translate(0.494)"><path class="i" d="M119.252,121.576c.153.1.421.072.468-.06.1-.286.169-.328.473-.24.147.043.372-.028.377-.217.008-.282.158-.416.4-.309s.086-.161.068-.191l-1.776-3.11a.418.418,0,0,0-.752,0l-1.776,3.11c-.017.03-.162.3.068.191s.388.027.4.309c.005.189.23.26.377.217.3-.088.373-.046.473.24.046.132.322.167.468.06C118.787,121.372,118.918,121.367,119.252,121.576Z" transform="translate(-116.67 -117.121)"/><path class="j" d="M120.31,120.651c.141.09.388.068.431-.056.092-.268.156-.307.435-.225.136.04.343-.026.347-.2.007-.264.145-.391.364-.29s.079-.151.063-.179l-1.635-2.917a.382.382,0,0,0-.692,0l-1.635,2.917c-.016.029-.149.277.063.179s.357.026.364.29c0,.178.212.244.347.2.279-.082.343-.043.435.225.043.124.3.157.431.056C119.882,120.46,120,120.455,120.31,120.651Z" transform="translate(-117.754 -116.56)"/><path class="k" d="M122.149,121.754c.119.076.328.057.364-.048.078-.227.132-.26.368-.19.115.034.29-.022.294-.173.006-.224.123-.331.308-.245s.067-.128.053-.152l-1.384-2.469a.323.323,0,0,0-.586,0l-1.384,2.469c-.013.024-.127.234.053.152s.3.022.308.245c0,.15.179.206.294.173.236-.07.29-.036.368.19.036.1.251.133.364.048C121.787,121.592,121.889,121.588,122.149,121.754Z" transform="translate(-119.645 -118.045)"/><path class="l" d="M123.833,122.721c.1.063.274.048.3-.04.065-.189.11-.217.307-.159.1.028.242-.019.245-.144,0-.186.1-.276.257-.2s.055-.106.044-.127l-1.154-2.059a.27.27,0,0,0-.489,0l-1.154,2.059c-.011.02-.106.2.044.127s.252.018.257.2c0,.125.149.172.245.144.2-.058.242-.03.307.159.03.088.209.111.3.04C123.532,122.586,123.616,122.583,123.833,122.721Z" transform="translate(-121.377 -119.369)"/></g></g><g transform="translate(59.318 26.662)"><g transform="translate(1.757)"><path class="a" d="M444.671,279.945c-1.249.082-2.129.717-1.965,1.419s1.309,1.2,2.558,1.122,2.128-.717,1.965-1.419S445.919,279.863,444.671,279.945Z" transform="translate(-442.261 -273.42)"/><path class="h" d="M456.088,262.949v-.014c.13-1.413.15-4.237.391-4.239s.245,2.827.368,4.242v.025l0,.012v.009l0,.012,0,.009-.006.012,0,.009-.009.012-.006.008-.012.013-.007.007-.016.013-.006,0-.026.018-.033.016h0l-.006,0-.03.012-.006,0-.006,0-.021.007-.009,0h0l-.018,0-.011,0h-.006l-.015,0-.012,0h-.146l-.021,0h-.015l-.033-.006h-.01l-.03-.008-.007,0-.036-.011h0l-.023-.01-.006,0-.028-.014h0a.3.3,0,0,1-.028-.018h0l-.007-.005-.016-.012v0h0l-.007-.007-.012-.012,0,0v0l0,0-.008-.01,0,0v0l0,0-.005-.01v0l0,0h0l0-.006,0-.008,0-.005v-.007l0-.008v-.02Z" transform="translate(-453.762 -255.192)"/><g transform="translate(0 1.242)"><path class="i" d="M442.845,248.886c.187.117.516.089.572-.073.122-.349.207-.4.578-.294.18.052.455-.034.462-.266.009-.345.193-.509.484-.378s.1-.2.083-.234l-2.172-3.8a.512.512,0,0,0-.92,0l-2.172,3.8c-.021.037-.2.361.083.234s.475.034.484.378c.006.232.281.318.461.266.371-.107.456-.056.578.294.057.162.395.2.572.073C442.276,248.636,442.436,248.63,442.845,248.886Z" transform="translate(-439.686 -243.437)"/><path class="j" d="M444.138,247.754c.173.11.475.083.527-.069.113-.328.191-.376.532-.275.166.049.419-.032.425-.249.009-.323.178-.478.446-.355s.1-.184.077-.219l-2-3.568a.468.468,0,0,0-.847,0l-2,3.568c-.019.035-.183.339.077.219s.437.032.446.355c.006.217.259.3.425.249.342-.1.42-.052.532.275.052.151.363.192.527.069C443.615,247.52,443.762,247.515,444.138,247.754Z" transform="translate(-441.011 -242.749)"/><path class="k" d="M446.389,249.1c.146.093.4.07.446-.058.1-.277.162-.318.45-.233.141.041.355-.027.36-.211.007-.273.15-.4.377-.3s.082-.156.065-.186l-1.693-3.02a.4.4,0,0,0-.716,0l-1.693,3.02c-.017.029-.155.287.065.186s.37.027.377.3c0,.184.219.253.359.211.289-.085.355-.044.451.233.044.128.307.163.446.058C445.946,248.9,446.07,248.9,446.389,249.1Z" transform="translate(-443.326 -244.566)"/><path class="l" d="M448.449,250.286c.122.078.335.059.372-.048.08-.231.135-.265.376-.194.117.034.3-.023.3-.176.006-.228.125-.337.315-.25s.068-.13.054-.155l-1.412-2.519a.33.33,0,0,0-.6,0l-1.412,2.519c-.014.025-.129.239.054.155s.309.022.315.25c0,.153.183.211.3.176.241-.071.3-.037.376.194.037.107.256.136.372.048C448.079,250.121,448.183,250.117,448.449,250.286Z" transform="translate(-445.444 -246.185)"/></g><g transform="translate(0.494)"><path class="i" d="M445.751,239.009c.153.1.422.072.468-.06.1-.285.169-.328.473-.24.147.043.372-.028.377-.217.008-.282.158-.416.4-.309s.086-.161.068-.191l-1.776-3.11a.418.418,0,0,0-.752,0l-1.776,3.11c-.017.03-.162.295.068.191s.388.028.4.309c.005.189.23.26.377.217.3-.088.373-.046.473.24.046.132.322.167.468.06C445.286,238.8,445.417,238.8,445.751,239.009Z" transform="translate(-443.169 -234.554)"/><path class="j" d="M446.809,238.084c.141.09.388.068.431-.056.092-.268.156-.307.435-.225.136.04.343-.026.347-.2.007-.264.145-.391.364-.29s.079-.151.063-.179l-1.635-2.917a.382.382,0,0,0-.692,0l-1.635,2.917c-.016.028-.149.277.063.179s.357.026.364.29c0,.178.212.244.347.2.279-.082.343-.043.435.225.043.124.3.157.431.056C446.381,237.893,446.5,237.888,446.809,238.084Z" transform="translate(-444.253 -233.993)"/><path class="k" d="M448.648,239.186c.119.076.328.057.365-.048.078-.227.132-.26.368-.191.115.034.29-.022.294-.173.006-.224.123-.331.308-.245s.067-.128.053-.152l-1.384-2.469a.324.324,0,0,0-.586,0l-1.384,2.469c-.013.024-.127.234.053.152s.3.022.308.245c0,.15.179.206.294.173.236-.07.29-.036.368.191.036.1.251.133.365.048C448.286,239.024,448.388,239.02,448.648,239.186Z" transform="translate(-446.144 -235.477)"/><path class="l" d="M450.332,240.153c.1.064.274.048.3-.04.065-.189.11-.217.307-.159.1.028.242-.019.245-.144.005-.186.1-.276.257-.2s.055-.106.044-.126l-1.154-2.059a.27.27,0,0,0-.489,0l-1.154,2.059c-.011.02-.106.2.044.126s.252.018.257.2c0,.125.149.172.245.144.2-.058.242-.03.307.159.03.087.21.111.3.04C450.03,240.018,450.115,240.015,450.332,240.153Z" transform="translate(-447.876 -236.801)"/></g></g><g transform="translate(0 3.759)"><path class="a" d="M431.253,296.956c-.991.065-1.689.569-1.559,1.126s1.039.955,2.029.89,1.689-.569,1.559-1.126S432.244,296.891,431.253,296.956Z" transform="translate(-429.341 -291.779)"/><path class="h" d="M440.312,283.471v-.011c.1-1.121.119-3.362.311-3.364s.195,2.243.292,3.366v.02l0,.01v.007l0,.009,0,.008,0,.01,0,.007-.007.009,0,.006-.009.01-.005.005-.013.011-.005,0-.02.014-.026.013h0l0,0-.024.009-.005,0h-.005l-.017.005-.007,0h0l-.014,0-.009,0h0l-.012,0h-.126l-.017,0h-.011l-.026,0h-.008l-.024-.006h-.006l-.028-.009h0l-.019-.008,0,0-.022-.011h0l-.022-.014h0l-.006,0-.012-.009h0l-.005-.006-.01-.009,0,0h0l0,0-.006-.008,0,0h0l0,0,0-.008v0h0l0,0,0-.007,0,0h0v-.027Z" transform="translate(-438.466 -277.316)"/><g transform="translate(0 0.985)"><path class="i" d="M429.8,272.313c.149.093.409.07.454-.058.1-.277.164-.318.459-.233.143.041.361-.027.366-.211.007-.273.153-.4.384-.3s.083-.156.066-.186l-1.723-3.018a.406.406,0,0,0-.73,0l-1.723,3.018c-.017.03-.158.286.066.186s.377.027.384.3c0,.184.223.253.366.211.294-.085.362-.044.459.233.045.128.313.162.454.058C429.353,272.115,429.48,272.11,429.8,272.313Z" transform="translate(-427.297 -267.989)"/><path class="j" d="M430.831,271.415c.137.087.377.066.418-.054.089-.26.151-.3.422-.219.132.039.333-.026.337-.2.007-.256.141-.379.354-.281s.076-.146.061-.174l-1.587-2.831a.371.371,0,0,0-.672,0l-1.586,2.831c-.016.028-.145.269.061.174s.347.025.354.281c0,.172.205.237.337.2.271-.08.333-.041.422.219.041.12.288.152.418.054C430.415,271.23,430.532,271.225,430.831,271.415Z" transform="translate(-428.349 -267.444)"/><path class="k" d="M432.616,272.485c.116.074.319.056.354-.046.076-.22.128-.253.357-.185.112.033.281-.022.285-.168.006-.217.119-.321.3-.238s.065-.124.051-.147l-1.343-2.4a.314.314,0,0,0-.569,0l-1.343,2.4c-.013.023-.123.227.051.147s.294.021.3.238c0,.146.174.2.285.168.229-.068.282-.035.357.185.035.1.244.129.354.046C432.265,272.328,432.364,272.324,432.616,272.485Z" transform="translate(-430.186 -268.886)"/><path class="l" d="M434.251,273.424c.1.062.266.047.3-.038.063-.184.107-.211.3-.154.093.027.235-.018.238-.14,0-.181.1-.267.25-.2s.054-.1.043-.123l-1.12-2a.262.262,0,0,0-.474,0l-1.12,2c-.011.019-.1.189.043.123s.245.018.25.2c0,.122.145.167.238.14.191-.056.235-.029.3.154.029.085.2.107.3.038C433.958,273.293,434.04,273.29,434.251,273.424Z" transform="translate(-431.867 -270.17)"/></g><g transform="translate(0.392)"><path class="i" d="M432.11,264.476c.122.076.334.057.371-.048.079-.226.134-.26.375-.19.117.034.3-.022.3-.172.006-.223.125-.33.314-.245s.068-.128.054-.152l-1.409-2.468a.332.332,0,0,0-.6,0l-1.409,2.468c-.014.024-.129.234.054.152s.308.022.314.245c0,.15.182.206.3.172.24-.07.3-.036.375.19.037.1.256.133.371.048C431.741,264.314,431.845,264.31,432.11,264.476Z" transform="translate(-430.061 -260.941)"/><path class="j" d="M432.949,263.742c.112.071.308.054.342-.045.073-.212.124-.244.345-.179.108.032.272-.021.276-.162.005-.21.115-.31.289-.23s.062-.12.05-.142l-1.3-2.314a.3.3,0,0,0-.549,0l-1.3,2.314c-.013.023-.119.22.05.142s.284.02.289.23c0,.141.168.194.276.162.222-.065.272-.034.345.179.034.1.236.125.342.045C432.61,263.59,432.706,263.586,432.949,263.742Z" transform="translate(-430.921 -260.496)"/><path class="k" d="M434.409,264.617c.095.06.26.046.289-.038.062-.18.1-.206.292-.151.091.027.23-.018.233-.137,0-.177.1-.262.245-.195s.053-.1.042-.12l-1.1-1.959a.257.257,0,0,0-.465,0l-1.1,1.959c-.011.019-.1.186.042.12s.24.017.245.195c0,.119.142.164.233.137.188-.055.23-.029.292.151.029.083.2.105.289.038C434.122,264.489,434.2,264.485,434.409,264.617Z" transform="translate(-432.422 -261.674)"/><path class="l" d="M435.745,265.384c.079.05.217.038.241-.031.052-.15.087-.172.244-.126.076.022.192-.015.195-.114,0-.148.081-.219.2-.162s.044-.084.035-.1l-.916-1.634a.214.214,0,0,0-.388,0l-.916,1.634c-.009.016-.084.155.035.1s.2.014.2.162c0,.1.118.137.194.114.156-.046.192-.024.244.126.024.069.166.088.241.031C435.506,265.277,435.573,265.275,435.745,265.384Z" transform="translate(-433.796 -262.724)"/></g></g></g><g transform="translate(35.555 37.998)"><path class="d" d="M297.655,341.738l1.085,1.3-.106-1.567.735-2.38-.207-.919-1.331.092.572.856Z" transform="translate(-292.278 -334.733)"/><path class="c" d="M315.645,333.357l.237,4.634,1.461.11-.363-2.9-.689-1.773Z" transform="translate(-307.716 -330.6)"/><path class="b" d="M304.663,338.906l1.7-.915-.123-2.57-.114-2.064-1.045.683.207.919-.735,2.381Z" transform="translate(-298.201 -330.6)"/><path class="b" d="M323.668,328.047l.317-1.922-.8-1.886-.595-.054-.976-1.592-.583.293.413.9.6.74Z" transform="translate(-312.34 -321.364)"/><path class="d" d="M321.25,336.091l1.7-.817-1.627-3.519-.6-.74-.532.4.675,2.1Z" transform="translate(-311.624 -328.591)"/><path class="c" d="M289.748,338.819l.572.856-.748,2.618-1.336-.083.623-1.317-.126-1.494Z" transform="translate(-284.195 -335.288)"/><path class="b" d="M276.124,343.624l1.718-.473.623-1.317-.126-1.494-1.138-.424-.3,1.222,0,1.566Z" transform="translate(-273.801 -336.229)"/><path class="d" d="M269.606,340.164l1.258-.248-.3,1.222,0,1.566-.776.92-1.047-.733.091-.741Z" transform="translate(-267.464 -336.229)"/><path class="c" d="M261.018,332.577l.091-.741.774-1.986-1.768-1.953-.065,3.2-.308.985Z" transform="translate(-259.742 -325.914)"/><path class="f" d="M264.344,314.194a20.124,20.124,0,0,0-2.73,1.43l.108.28,1.768,1.953,1.258-.248,1.138.424,1.015-.58,1.331-.092,1.045-.683.646.068.532-.4-.414-.9.583-.293.114-.123-2.359-.864-1.5.284-1.686-.527Z" transform="translate(-261.348 -313.922)"/><path class="g" d="M261.614,315.624l1.975,1.93,1.212-.262,1.151.576,1.028-.771,1.265.04,1.045-.683.646.069.446-.336-.341-.742.013-.224.684-.193-1.055-.523-1.3-.341-1.5.284-1.686-.527-.845.272A16.6,16.6,0,0,0,261.614,315.624Z" transform="translate(-261.348 -313.922)"/></g></g><g transform="translate(845.104 438.531)"><path class="a" d="M140.718,69.751c-1.53.1-2.608.879-2.407,1.738s1.6,1.475,3.133,1.374,2.607-.879,2.407-1.738S142.248,69.65,140.718,69.751Z" transform="translate(-137.784 -61.263)"/><path class="h" d="M155.308,54.782v-.014c.13-1.413.15-4.237.391-4.239s.245,2.827.368,4.242V54.8l0,.012v.009l0,.012,0,.01-.006.012,0,.009-.009.011-.006.008-.012.013-.007.007-.016.013-.006,0-.026.018-.033.016,0,0-.006,0-.03.012-.007,0-.006,0-.021.007-.008,0h-.005l-.018,0-.011,0h-.006l-.015,0-.012,0h-.146l-.021,0H155.6l-.033-.006h-.01l-.03-.008-.007,0-.036-.011h0l-.024-.01-.006,0-.028-.014h0a.286.286,0,0,1-.028-.018h0l-.007-.005-.016-.012v0h0l-.007-.007-.012-.012,0,0v0l0,0-.008-.01,0,0v0l0,0-.005-.01v0h0l0-.006,0-.009,0,0V54.81l0-.008v-.02Z" transform="translate(-152.391 -44.776)"/><g transform="translate(0 2.447)"><path class="i" d="M138.591,34.692c.228.143.628.108.7-.089.149-.425.252-.488.7-.358.22.064.555-.042.562-.324.011-.42.235-.62.59-.461s.127-.239.1-.285L138.6,28.542a.624.624,0,0,0-1.12,0l-2.646,4.634c-.026.045-.242.44.1.285s.579.041.59.461c.007.282.342.387.562.324.452-.131.555-.068.7.358.069.2.481.249.7.089C137.9,34.388,138.093,34.38,138.591,34.692Z" transform="translate(-134.742 -28.054)"/><path class="j" d="M140.167,33.313c.21.134.578.1.642-.084.137-.4.232-.458.648-.335.2.06.511-.039.518-.3.01-.394.216-.582.543-.432s.117-.225.093-.267l-2.436-4.347a.569.569,0,0,0-1.031,0l-2.436,4.347c-.024.042-.223.412.093.267s.533.039.543.432c.007.264.315.363.518.3.416-.123.511-.064.648.335.063.185.442.234.642.084C139.53,33.028,139.709,33.021,140.167,33.313Z" transform="translate(-136.358 -27.217)"/><path class="k" d="M142.908,34.956c.178.113.489.086.543-.071.116-.338.2-.388.549-.284.171.05.432-.033.438-.257.009-.333.183-.493.46-.366s.1-.19.079-.226l-2.062-3.679a.482.482,0,0,0-.873,0l-2.062,3.679c-.02.036-.189.349.079.226s.451.032.46.366c.006.224.267.308.438.257.352-.1.433-.054.549.284.054.156.374.2.543.071C142.369,34.714,142.521,34.709,142.908,34.956Z" transform="translate(-139.177 -29.429)"/><path class="l" d="M145.418,36.4c.148.094.408.071.453-.059.1-.282.164-.323.458-.237.143.042.36-.028.365-.214.007-.278.153-.411.383-.305s.083-.159.066-.189l-1.72-3.068a.4.4,0,0,0-.728,0l-1.72,3.068c-.017.03-.157.291.066.189s.376.027.383.305c0,.187.223.257.365.214.294-.087.361-.045.458.237.045.13.312.165.453.059C144.968,36.2,145.094,36.192,145.418,36.4Z" transform="translate(-141.757 -31.402)"/></g><g transform="translate(0.59 1.242)"><path class="i" d="M142.064,24.858c.188.117.516.088.572-.073.122-.349.207-.4.578-.294.18.052.455-.034.461-.266.009-.344.193-.509.484-.378s.1-.2.083-.234l-2.172-3.8a.512.512,0,0,0-.92,0l-2.172,3.8c-.021.037-.2.361.083.234s.475.034.484.378c.006.232.281.318.462.266.371-.107.456-.056.578.294.057.162.395.2.572.073C141.5,24.608,141.656,24.6,142.064,24.858Z" transform="translate(-138.905 -19.409)"/><path class="j" d="M143.358,23.726c.173.11.475.083.527-.069.113-.328.191-.376.532-.275.166.049.419-.032.425-.249.009-.323.178-.478.446-.355s.1-.184.077-.219l-2-3.568a.467.467,0,0,0-.847,0l-2,3.568c-.019.035-.183.339.077.219s.437.032.446.355c.006.217.259.3.425.249.341-.1.42-.052.532.275.052.152.363.192.527.069C142.835,23.492,142.982,23.487,143.358,23.726Z" transform="translate(-140.231 -18.721)"/><path class="k" d="M145.609,25.075c.146.093.4.07.446-.058.1-.277.161-.318.45-.233.141.041.355-.027.36-.211.007-.273.15-.4.377-.3s.081-.156.065-.186l-1.693-3.02a.4.4,0,0,0-.717,0l-1.692,3.02c-.017.03-.155.287.065.186s.37.027.377.3c0,.184.219.253.36.211.289-.085.355-.044.451.233.044.128.307.163.446.058C145.166,24.877,145.29,24.872,145.609,25.075Z" transform="translate(-142.545 -20.538)"/><path class="l" d="M147.669,26.258c.122.078.335.059.372-.049.08-.231.135-.265.376-.194.117.034.3-.023.3-.176.006-.228.126-.337.315-.25s.068-.13.054-.155l-1.412-2.519a.33.33,0,0,0-.6,0l-1.412,2.519c-.014.025-.129.239.054.155s.309.022.315.25c0,.153.183.211.3.176.241-.071.3-.037.376.194.037.107.256.136.372.049C147.3,26.093,147.4,26.089,147.669,26.258Z" transform="translate(-144.664 -22.157)"/></g><g transform="translate(1.084)"><path class="i" d="M144.971,14.981c.153.1.421.072.468-.06.1-.285.169-.328.473-.24.148.043.372-.028.377-.217.007-.282.158-.416.4-.309s.086-.161.068-.191l-1.776-3.11a.418.418,0,0,0-.752,0l-1.776,3.11c-.017.03-.162.295.068.191s.388.028.4.309c.005.189.23.26.377.217.3-.088.373-.046.473.24.046.132.323.167.468.06C144.506,14.777,144.637,14.772,144.971,14.981Z" transform="translate(-142.388 -10.526)"/><path class="j" d="M146.028,14.056c.141.09.388.068.431-.056.092-.268.156-.307.435-.225.136.04.343-.026.347-.2.007-.264.145-.391.364-.29s.079-.151.063-.179l-1.635-2.917a.382.382,0,0,0-.692,0L143.707,13.1c-.016.029-.15.277.063.179s.357.026.364.29c0,.178.212.244.347.2.279-.082.343-.043.435.225.043.124.3.157.431.056C145.6,13.865,145.721,13.86,146.028,14.056Z" transform="translate(-143.472 -9.965)"/><path class="k" d="M147.868,15.158c.119.076.328.057.364-.048.078-.227.132-.26.368-.191.115.034.29-.022.294-.173.006-.224.123-.331.308-.245s.067-.127.053-.152l-1.384-2.469a.323.323,0,0,0-.586,0L145.9,14.35c-.013.024-.127.234.053.152s.3.022.308.245c0,.15.179.206.294.173.236-.07.29-.036.368.191.036.1.251.133.364.048C147.506,15,147.608,14.992,147.868,15.158Z" transform="translate(-145.364 -11.449)"/><path class="l" d="M149.552,16.126c.1.064.274.048.3-.04.065-.189.11-.217.307-.159.1.028.242-.019.245-.144,0-.186.1-.276.257-.2s.055-.106.044-.127l-1.154-2.059a.27.27,0,0,0-.489,0l-1.154,2.059c-.011.02-.106.2.044.127s.252.018.257.2c0,.125.149.172.245.144.2-.058.242-.03.307.159.03.088.21.111.3.04C149.25,15.99,149.335,15.987,149.552,16.126Z" transform="translate(-147.096 -12.773)"/></g><path class="a" d="M168.419,82.162c-1.249.082-2.129.718-1.965,1.419s1.309,1.2,2.558,1.122,2.128-.717,1.965-1.419S169.667,82.08,168.419,82.162Z" transform="translate(-161.939 -71.915)"/><path class="h" d="M179.836,65.166v-.014c.13-1.413.15-4.237.391-4.239s.245,2.827.368,4.242v.025l0,.012V65.2l0,.012,0,.01-.006.012,0,.009-.009.011-.006.008-.012.013-.007.007-.016.014-.006,0-.026.018-.033.017h0l-.006,0-.03.012-.007,0-.006,0-.021.007-.008,0h-.005l-.018,0-.011,0h-.006l-.015,0-.012,0h-.146l-.021,0h-.015l-.033-.006h-.01l-.03-.008-.007,0-.036-.012h0l-.024-.01-.006,0-.028-.014h0l-.028-.018h0l-.007-.005-.016-.012v0h0l-.007-.007-.012-.012,0,0v0l0,0-.008-.01,0,0v0l0,0-.005-.01v0h0l0-.006,0-.008,0,0v-.007l0-.008v-.02Z" transform="translate(-173.441 -53.687)"/><g transform="translate(4.069 4.964)"><path class="i" d="M166.593,51.1c.187.117.516.088.572-.073.122-.349.207-.4.578-.293.18.052.455-.034.461-.266.009-.344.193-.509.484-.378s.1-.2.083-.234l-2.172-3.8a.512.512,0,0,0-.92,0l-2.172,3.8c-.021.037-.2.361.083.234s.475.034.484.378c.006.231.281.318.461.266.371-.107.456-.056.578.293.057.162.395.2.572.073C166.024,50.854,166.184,50.848,166.593,51.1Z" transform="translate(-163.433 -45.654)"/><path class="j" d="M167.886,49.972c.173.11.475.083.527-.069.113-.328.191-.376.532-.275.166.049.419-.032.425-.249.008-.323.178-.478.446-.355s.1-.184.077-.219l-2-3.568a.467.467,0,0,0-.847,0l-2,3.568c-.019.035-.183.338.077.219s.437.032.446.355c.006.217.259.3.425.249.341-.1.419-.052.532.275.052.152.363.192.527.069C167.363,49.738,167.51,49.732,167.886,49.972Z" transform="translate(-164.759 -44.967)"/><path class="k" d="M170.137,51.32c.146.093.4.07.446-.058.1-.277.161-.318.45-.233.141.042.355-.027.36-.211.007-.274.15-.4.377-.3s.081-.156.065-.185l-1.693-3.021a.4.4,0,0,0-.717,0l-1.692,3.021c-.017.03-.155.286.065.185s.37.027.377.3c0,.184.219.253.36.211.289-.085.355-.044.451.233.044.128.307.163.446.058C169.694,51.122,169.818,51.117,170.137,51.32Z" transform="translate(-167.073 -46.784)"/><path class="l" d="M172.2,52.5c.122.078.335.059.372-.048.08-.231.135-.265.376-.194.117.035.3-.023.3-.176.006-.228.126-.337.315-.25s.068-.13.054-.155L172.2,49.161a.33.33,0,0,0-.6,0l-1.412,2.519c-.014.025-.129.239.054.155s.309.022.315.25c0,.153.183.211.3.176.241-.071.3-.037.376.194.037.107.256.135.372.048C171.827,52.339,171.931,52.335,172.2,52.5Z" transform="translate(-169.192 -48.403)"/></g><g transform="translate(4.563 3.722)"><path class="i" d="M169.5,41.226c.153.1.422.072.468-.06.1-.286.169-.328.473-.24.147.043.372-.028.377-.217.008-.282.158-.416.4-.309s.086-.161.068-.191L169.5,37.1a.418.418,0,0,0-.752,0l-1.776,3.11c-.017.03-.162.3.068.191s.388.028.4.309c.005.189.23.26.377.217.3-.088.373-.046.473.24.046.132.322.167.468.06C169.034,41.022,169.165,41.017,169.5,41.226Z" transform="translate(-166.916 -36.771)"/><path class="j" d="M170.556,40.3c.141.09.388.068.431-.056.092-.268.156-.307.435-.225.136.04.343-.026.347-.2.007-.264.145-.391.364-.29s.079-.151.063-.179l-1.635-2.917a.382.382,0,0,0-.692,0l-1.635,2.917c-.016.029-.15.277.063.179s.357.026.364.29c0,.177.212.244.347.2.279-.082.343-.043.435.225.043.124.3.157.431.056C170.129,40.11,170.249,40.105,170.556,40.3Z" transform="translate(-168 -36.21)"/><path class="k" d="M172.4,41.4c.119.076.328.057.365-.048.078-.227.132-.26.368-.19.115.034.29-.022.294-.173.006-.224.123-.331.308-.245s.066-.128.053-.152L172.4,38.127a.323.323,0,0,0-.586,0L170.431,40.6c-.013.024-.127.234.053.152s.3.022.308.245c0,.15.179.206.294.173.236-.07.29-.036.368.19.036.1.251.133.365.048C172.034,41.242,172.136,41.238,172.4,41.4Z" transform="translate(-169.892 -37.695)"/><path class="l" d="M174.08,42.371c.1.063.274.048.3-.04.065-.189.11-.217.307-.159.1.028.242-.019.245-.144,0-.187.1-.276.257-.2s.055-.106.044-.126l-1.154-2.059a.27.27,0,0,0-.489,0L172.442,41.7c-.011.02-.106.2.044.126s.252.018.257.2c0,.125.149.172.245.144.2-.058.242-.03.307.159.03.088.21.111.3.04C173.778,42.236,173.863,42.233,174.08,42.371Z" transform="translate(-171.624 -39.019)"/></g></g></g></svg>