<svg xmlns="http://www.w3.org/2000/svg" xmlns:xlink="http://www.w3.org/1999/xlink" width="35" height="36" viewBox="0 0 35 36"><defs><style>.a,.r,.x{fill:#fff;}.a{stroke:#707070;}.b{clip-path:url(#a);}.c{fill:#fdb993;}.d{fill:#e79b71;}.e{fill:#5e2115;}.f{fill:#4b1c13;}.g{fill:#ffb300;}.h{fill:#de9368;}.i{fill:#f79e89;}.j{fill:#e88169;}.k{fill:#fcc8b8;}.l{fill:#fecfb4;}.m{fill:#3b1515;}.n{fill:#251010;}.o{fill:#e65d59;}.p{fill:#f17975;}.q{fill:#f59f9d;}.s{fill:#cd8156;}.t{fill:#c36041;}.u{fill:#583325;}.v{fill:#773829;}.w{fill:#0082b8;}.x{opacity:0.7;}.y{fill:#f38904;}.z{fill:#ffc93f;}.aa{fill:#ffde81;}.ab,.ad{fill:none;}.ab{stroke:#2a2a2a;}.ac{stroke:none;}</style><clipPath id="a"><ellipse class="a" cx="17.5" cy="18" rx="17.5" ry="18" transform="translate(-1)"/></clipPath></defs><g transform="translate(-1167.804 -20.528)"><g class="b" transform="translate(1168.804 20.528)"><g transform="translate(-0.103 4.492)"><g transform="translate(9.308 26.303)"><path class="c" d="M204.58,170.013s-.238,1.32-.3,1.685a13.568,13.568,0,0,0,2.075.677l-.639,2.036-4.575-.686-.049-2.444a10.949,10.949,0,0,0,2.142.218c.12-.74.273-1.732.273-1.732Z" transform="translate(-201.096 -169.766)"/><path class="d" d="M203.189,171.475c.211.013.436.022.676.024.12-.74.273-1.732.273-1.732l1.07.247s-.238,1.32-.3,1.685c.182.073.35.136.511.194C203.894,172.435,203.313,171.681,203.189,171.475Z" transform="translate(-201.724 -169.766)"/></g><g transform="translate(2.051)"><g transform="translate(1.509 23.722)"><path class="e" d="M212.581,167.793c-.639-.5-1.687.065-1,1.127-1.686-.968-1.169.72-.688,1-.77.071-.93.839-.308,1.156-1.132.614.323,1.724.8,1.24.423.663,1.013.093,1.007-.47,1.483.751,1.469-.421,1.075-.759,1.189.028,1.118-.763.475-1.313.622-.2.255-1.247.255-1.247Z" transform="translate(-210.168 -166.685)"/><path class="f" d="M211.531,167.86c.717.459,1.912,1.617,1.187,2.026.359.527-.12.66-.637.576.389.778.141,1.051-.519.751a1.047,1.047,0,0,1-.866.435s.853.813,1.2-.057c.675.48,1.255-.008.761-.782.943-.1.964-.65.6-1.039a1.408,1.408,0,0,0,.359-1.146Z" transform="translate(-209.793 -166.744)"/><path class="g" d="M211.965,169.261a4.633,4.633,0,0,1-2.439-1.852c-.02-1.05.834-1,.834-1a4.557,4.557,0,0,1,2.268,1.938C212.659,168.9,211.965,169.261,211.965,169.261Z" transform="translate(-207.916 -166.408)"/></g><path class="e" d="M183.684,154.373a1.377,1.377,0,0,1-.5-2.451c-1.747.414-2.122-2.685.055-3.759-.772-1.885.619-3.377,2.026-4.6.423-2.064.146-2.457,2.059-2.172-.832-2.264.844-3.555,1.9-2.661-.1-1.5,1.661-3,3.59-.706.686-2.068,2.126-1.945,2.534-.49.317-2.2,3.453-1.435,2.851,1.523.933-1.892,1.962-.162,1.848.867,1.521-1.7,4.726-.4,3.7,1.413,1.218-.359,3.215-.078,2.519.23,1.287.027,1.536,1.738,1.071,3.409,2.174-.548,1.6,2.771-.369,2.662,1.932.8,1.934,3.421.845,2.931-1,.689,1.093-.057-.951,1.629,1.557,2.243.284,4.515-.37,4.127,1.26,2.291-.46,5.3-2.139,3.866.43,1.336-1.157,2.935-2.16,1.9-.185,1.108-.927,1.133-1.906.647-.084,1.373-3.216,1.694-3.776.355-3.639.229-7.589-.765-9.639-2.762-1.991.354-2.428-1.227-2.077-2.1C183.186,158.506,182.585,155.42,183.684,154.373Z" transform="translate(-181.734 -135.711)"/><path class="f" d="M195.8,165.6c-.172-.024-2.771,1.287-2.3,2.568-.663.133-1.619.234-1.9.973-.69.437-2.3,1.543-3.429.909s.226-3.663.226-3.663Z" transform="translate(-173.294 -142.499)"/><g transform="translate(1.029 0.958)"><g transform="translate(1.627 6.506)"><path class="c" d="M188.456,151.221c-1.172,2.666-2.213,10.974,5.074,13.709,7.247,2.721,11.862-2.141,13.53-7.341,2.013-6.272-2.477-10.8-6.791-11.9C193.538,143.97,190.03,147.649,188.456,151.221Z" transform="translate(-187.624 -145.254)"/><path class="h" d="M207.439,160.037a.151.151,0,0,1-.171.061c-.011-.007-.023-.011-.034-.018l-2.953-1.7c-.025.106-.053.211-.087.317a3.451,3.451,0,0,1-4.395,2.238,3.594,3.594,0,0,1-2.175-4.521c.011-.035.025-.068.036-.1l-.933-.35c-.013.043-.025.085-.039.127a3.936,3.936,0,0,1-5.012,2.552,4.1,4.1,0,0,1-2.481-5.156,3.935,3.935,0,0,1,5.011-2.553,4.093,4.093,0,0,1,2.608,4.675l.986.371a3.436,3.436,0,0,1,4.219-1.8,3.582,3.582,0,0,1,2.321,3.891l3.058,1.762A.156.156,0,0,1,207.439,160.037Zm-13.345-8.761a3.581,3.581,0,0,0-4.563,2.323,3.734,3.734,0,0,0,2.258,4.695,3.585,3.585,0,0,0,4.564-2.325A3.734,3.734,0,0,0,194.094,151.276Zm7.812,3.243a3.1,3.1,0,0,0-3.947,2.008,3.23,3.23,0,0,0,1.953,4.06,3.1,3.1,0,0,0,3.947-2.011A3.229,3.229,0,0,0,201.906,154.519Z" transform="translate(-188.55 -146.518)"/><path class="d" d="M188.045,151.221c1.574-3.572,5.082-7.252,11.813-5.531a9.8,9.8,0,0,1,1.572.553,10.748,10.748,0,0,1,2.52,1.6l.032.028c.071.061.14.124.207.185.049.045.1.089.146.135s.081.075.12.113a8.762,8.762,0,0,1,2.194,9.281c-.143.452-.314.9-.5,1.343-.018-.035-.035-.066-.052-.106-1.634,1.118-3.123.038-1.643-1.477-1.441.241-1.775-1.514-.93-2.626-.472.277-1.818-.374-1.746-2.048-1.382.83-1.9-.1-1.455-1.231a1.4,1.4,0,0,1-2.3-1.13c-.541.412-1.8.206-1.609-.82-.123.9-1.509.822-2.161-.294.016.774-1.721,1.163-2.027.013-.135.79-.635,1.923-1.687.754.237.785-.684,1.244-1.193,1.009-.072.519-1.314,1.318-1.724,1.508A8.543,8.543,0,0,1,188.045,151.221Z" transform="translate(-187.212 -145.254)"/><path class="i" d="M211.962,161.315c-.089.692-1.128,1.1-2.113.728a1.884,1.884,0,0,1-1.273-2.1c.142-.744,1.13-1.245,2.044-.364C211.475,160.406,212.057,160.6,211.962,161.315Z" transform="translate(-207.674 -148.461)"/><path class="j" d="M209.019,159.159a3.574,3.574,0,0,0,1.567,1.088,3.411,3.411,0,0,0,.624.15,1.562,1.562,0,0,1,.334.4,3.864,3.864,0,0,1-1.071-.206,3.939,3.939,0,0,1-1.792-1.282A1.023,1.023,0,0,1,209.019,159.159Z" transform="translate(-207.347 -148.471)"/><path class="k" d="M212.727,160.252a.214.214,0,1,1-.179-.2A.194.194,0,0,1,212.727,160.252Z" transform="translate(-211.246 -148.678)"/><path class="l" d="M204.465,160.452c-.015.091-.135.143-.269.121s-.227-.115-.214-.2.134-.142.268-.121S204.48,160.363,204.465,160.452Z" transform="translate(-196.756 -148.722)"/><path class="i" d="M197.878,163.575c-.187.932-1.16,1.443-2.358,1.31-1.157-.129-2.184-1.208-1.845-2.047.324-.8.906-.406,2.31-.689C197.342,161.876,198.064,162.644,197.878,163.575Z" transform="translate(-182.448 -149.151)"/><path class="j" d="M194.34,163.26a3.06,3.06,0,0,0,3.39-.994,1.152,1.152,0,0,1,.309.185,3.412,3.412,0,0,1-3.812,1.154c-.007,0-.011-.006-.017-.008a1.113,1.113,0,0,1-.069-.42C194.207,163.207,194.272,163.234,194.34,163.26Z" transform="translate(-182.978 -149.19)"/><path class="k" d="M194.26,163.574a.178.178,0,0,1-.226.111.183.183,0,0,1-.162-.194.18.18,0,0,1,.224-.112A.187.187,0,0,1,194.26,163.574Z" transform="translate(-178.996 -149.447)"/><path class="f" d="M208.428,152.423c1.079-.3,1.286.925.572.915-.766-.01-1.409.267-1.506.188C207.287,153.357,207.82,152.588,208.428,152.423Z" transform="translate(-204.3 -146.902)"/><path class="f" d="M195.838,155.449c-.894-.689-1.529.361-.865.628.713.286,1.21.791,1.326.755C196.555,156.755,196.34,155.835,195.838,155.449Z" transform="translate(-181.761 -147.559)"/><path class="d" d="M207.01,159.6a5.955,5.955,0,0,0-.548-4.733,7.235,7.235,0,0,1,.055,4.1c-1.506,5.146-6.541,10.072-13.115,7.39-4.519-1.847-5.563-6.35-5.575-9.776-.215,3.489.3,7.783,5.586,10.175C199.641,169.574,205.5,164.748,207.01,159.6Z" transform="translate(-187.46 -147.479)"/><g transform="translate(5.233 13.439)"><path class="m" d="M200.821,162.739s-.693,4.08,2.107,4.669,2.711-3.506,2.711-3.506A7.739,7.739,0,0,1,200.821,162.739Z" transform="translate(-200.745 -162.739)"/><path class="n" d="M200.745,164.063a3.784,3.784,0,0,0,1.3,3.2,4.941,4.941,0,0,0,.936-3.054A6.2,6.2,0,0,1,200.745,164.063Z" transform="translate(-198.088 -163.045)"/><path class="o" d="M201.168,167.075a2.394,2.394,0,0,0,1.588,1.1,1.959,1.959,0,0,0,2.395-1.5.817.817,0,0,0-.993-.226C203.716,165.625,201.923,166.137,201.168,167.075Z" transform="translate(-200.573 -163.502)"/><path class="p" d="M204.412,166.6a.74.74,0,0,0-.6.009.687.687,0,0,0-.649-.4c-1.045-.088-2.369.981-1.054,1.569C203.436,168.371,205.191,166.968,204.412,166.6Z" transform="translate(-200.315 -163.541)"/><path class="q" d="M203.462,166.628c.231-.22.788-.345.936-.194.176.181-.311.447-.626.478S203.315,166.77,203.462,166.628Z" transform="translate(-201.527 -163.579)"/><path class="r" d="M201.87,163.276a.731.731,0,0,0,.469,1.013,5.5,5.5,0,0,0,1.793.458c.631.034.958-.236.947-.68A8.491,8.491,0,0,1,201.87,163.276Z" transform="translate(-200.98 -162.863)"/></g><g transform="translate(16.56 12.756)"><path class="c" d="M187.954,162.579a1.749,1.749,0,0,1,2.032-.6c1.341.514.9,2.571-.4,3.376s-2.79.232-2.736-.922Z" transform="translate(-186.851 -161.85)"/><path class="d" d="M190.107,162.042a1.575,1.575,0,0,0-.856-.091,1.094,1.094,0,0,1,.615.081c1.236.533.7,2.053-.108,2.725-1.1.911-2.3.489-2.587-.434-.051,1.074,1.356,1.6,2.566.859S191.365,162.52,190.107,162.042Z" transform="translate(-187.159 -161.868)"/><path class="s" d="M189.769,162.807c-.726-.611-2.281.755-1.64,2.242.164-1.466.81-1.652,1.092-.759a.641.641,0,0,0-.386-.979A1.179,1.179,0,0,1,189.769,162.807Z" transform="translate(-186.661 -162.037)"/></g><path class="t" d="M203.78,161.453a.048.048,0,0,1-.03-.005.811.811,0,0,1-.451-.892.776.776,0,0,1,.608-.636c.174-.017.5.047.738.659a.055.055,0,0,1-.029.071.051.051,0,0,1-.068-.032c-.158-.4-.383-.616-.634-.592h-.01a.662.662,0,0,0-.5.549.7.7,0,0,0,.4.776.056.056,0,0,1,.02.072A.058.058,0,0,1,203.78,161.453Z" transform="translate(-196.419 -148.647)"/><path class="u" d="M198.569,160.519a.122.122,0,0,1-.036,0,.124.124,0,0,1-.1-.147,1.8,1.8,0,0,0-1.134-2.161c-.556-.112-.981.271-1.139,1.028a.122.122,0,0,1-.144.1.127.127,0,0,1-.1-.15c.222-1.072.883-1.337,1.426-1.224a2.046,2.046,0,0,1,1.328,2.455A.123.123,0,0,1,198.569,160.519Z" transform="translate(-184.986 -148.189)"/><path class="u" d="M208.449,157.05a.184.184,0,0,1-.036,0,.125.125,0,0,1-.1-.147,1.7,1.7,0,0,0-1.074-2.045c-.522-.108-.923.256-1.072.969a.122.122,0,1,1-.239-.051c.21-1.023.839-1.274,1.359-1.167a1.953,1.953,0,0,1,1.268,2.339A.125.125,0,0,1,208.449,157.05Z" transform="translate(-202.342 -147.413)"/></g><path class="e" d="M185.84,151.377c-.09.516,1.385-.182,1.509-1.079.509.235,1.253-.98,1.016-1.765,1.051,1.171,2.048.4,2.246-.383.307,1.15,2.378.8,2.363.022.652,1.118,2.036,1.188,2.16.294-.19,1.028,1.066,1.232,1.61.819a1.4,1.4,0,0,0,2.3,1.133c-.438,1.131.074,2.059,1.457,1.228-.074,1.678,1.272,2.326,1.744,2.048-.845,1.114-.51,2.868.928,2.628-1.478,1.515.01,2.6,1.645,1.477.354.93,1.4.162,1.746-.719s.452-11.116-9.741-12.871A9.309,9.309,0,0,0,185.84,151.377Z" transform="translate(-183.772 -138.466)"/><path class="f" d="M191.076,148.19c-.226.743,1.043,1.5,2.006.1a1.589,1.589,0,0,0,2.68.1,1.4,1.4,0,0,0,2.47.307c.082,1.775.563,1.1,1.277.674.327,1.535,1.208,2.054,2.42,1.532.019,1.271.3,1.492,1.353,1.031.088,1.317,1.148,2.276,2.237,1.855a2.724,2.724,0,0,1-1.344-2.911c-1.23.328-1.766-.27-1.722-1.071-1.019.466-2.689-.369-2.584-1.4-.993.585-1.207.1-1.391-.65-1.29.936-2.249.447-2.668-.211a1.812,1.812,0,0,1-2.671-.175C191.884,149.046,191.076,148.19,191.076,148.19Z" transform="translate(-186.521 -139.239)"/><path class="v" d="M198.731,138.064c-1.276-1.47,5.129-2.161,6.472.7C203.45,137.688,199.815,139.312,198.731,138.064Z" transform="translate(-191.819 -136.789)"/><path class="v" d="M186.116,139.63c2.518-2.178,7.185.083,8.374,2.476s-.167,1.907-1.361.574S188.915,138.1,186.116,139.63Z" transform="translate(-172.264 -137.243)"/><path class="f" d="M187.981,153.312c.525,1.036,1.057,4.334-1.418,4.238.489.913-1.979,1.971-1.8-.46-.731.735-1.76.254-1.445-1.378-.846.958-1.363,2.392.466,2.493-.624.845-.134,1.7.965.933.582.67.964,1.042,1.246.6a2.7,2.7,0,0,1-.108,3.529,3.4,3.4,0,0,0,.761-3.833c1.361.917,1.559.347.782-.874C190.3,156.208,187.981,153.312,187.981,153.312Z" transform="translate(-163.516 -140.613)"/><path class="f" d="M215.12,144.627a4.653,4.653,0,0,0-2.762,5.7,1.711,1.711,0,0,0,.028,3.175c-.507-1.925.54-2.165.54-2.165s1.54-.611,1.335-1.377c.64-.232,1.107-.535.819-1.43-.753.934-1.54.6-1.211-.419C212.252,149.88,213.175,146.154,215.12,144.627Z" transform="translate(-211.3 -138.603)"/></g><g transform="translate(2.789 11.55)"><path class="w" d="M203.346,157.307h-.005l-1.209-.38a.182.182,0,0,1-.117-.228.172.172,0,0,1,.219-.12l1.209.38a.18.18,0,0,1,.117.226A.175.175,0,0,1,203.346,157.307Z" transform="translate(-194.518 -151.959)"/><path class="x" d="M206.838,154.451l4.734-3.46.5.16-5.164,4.512A5.333,5.333,0,0,1,206.838,154.451Z" transform="translate(-206.619 -150.668)"/><path class="x" d="M196.256,157.95l4.3-3.253.3.119-4.519,3.818S196.211,158.563,196.256,157.95Z" transform="translate(-187.508 -151.526)"/><path class="x" d="M195.522,159.491l4.732-4.385.077.055-4.718,4.5S195.621,159.8,195.522,159.491Z" transform="translate(-186.435 -151.62)"/><path class="w" d="M200.208,158.747a3.572,3.572,0,0,0-2.4-4.378,3.447,3.447,0,0,0-4.257,2.465,3.569,3.569,0,0,0,2.4,4.377A3.444,3.444,0,0,0,200.208,158.747Zm-.34-.1a3.093,3.093,0,0,1-3.821,2.212,3.207,3.207,0,0,1-2.153-3.931,3.093,3.093,0,0,1,3.821-2.213A3.2,3.2,0,0,1,199.868,158.65Z" transform="translate(-184.873 -151.419)"/><path class="w" d="M211.309,155.714a4.072,4.072,0,0,0-2.733-4.993,3.932,3.932,0,0,0-4.855,2.811,4.071,4.071,0,0,0,2.733,4.992A3.934,3.934,0,0,0,211.309,155.714Zm-.34-.1a3.58,3.58,0,0,1-4.42,2.561,3.708,3.708,0,0,1-2.488-4.546,3.58,3.58,0,0,1,4.419-2.56A3.707,3.707,0,0,1,210.969,155.615Z" transform="translate(-203.574 -150.571)"/><path class="w" d="M192.428,161.13a.1.1,0,0,1-.034-.013l-3.163-1.6a.154.154,0,0,1-.052-.206.142.142,0,0,1,.2-.056l3.164,1.6a.157.157,0,0,1,.053.208A.146.146,0,0,1,192.428,161.13Z" transform="translate(-173.962 -152.575)"/></g><g transform="translate(17.453 25.987)"><path class="e" d="M190.517,170.861c.766-.423,1.784.371.869,1.38,1.961-.732,1.127.978.565,1.194.947-.034.972,1.673.132,1.287.865,1.184-.6,1.915-1.057,1.181-.564.631-1.1-.083-.995-.682-1.709.536-1.5-.712-1.018-1-1.274-.182-1.063-1.013-.285-1.483-.63-.324-.061-1.374-.061-1.374Z" transform="translate(-187.91 -169.677)"/><path class="f" d="M192.2,171.066c-.841.361-2.312,1.383-1.608,1.949-.472.5.016.726.581.727-.546.759-.328,1.1.425.892a1.15,1.15,0,0,0,.852.621s-1.048.713-1.271-.278c-.8.392-1.336-.232-.681-.968-.988-.277-.917-.867-.463-1.215a1.528,1.528,0,0,1-.188-1.287Z" transform="translate(-188.875 -169.751)"/><path class="g" d="M190.459,172.2a7.384,7.384,0,0,1,2.822-1.628c.2-1.115-.72-1.214-.72-1.214a4.863,4.863,0,0,0-2.746,1.659C189.688,171.6,190.459,172.2,190.459,172.2Z" transform="translate(-189.8 -169.355)"/></g><path class="v" d="M202.859,140.205c-1.571-.221-4.509-.233-4.465,1.771S202.859,140.205,202.859,140.205Z" transform="translate(-188.32 -136.599)"/><g transform="translate(1.494)"><path class="y" d="M174.658,155.5a5.737,5.737,0,0,1,6.937.048C181.234,157.263,176.846,159.512,174.658,155.5Z" transform="translate(-150.812 -139.892)"/><path class="g" d="M176.092,155.89a4.136,4.136,0,0,1,5,.036A2.759,2.759,0,0,1,176.092,155.89Z" transform="translate(-151.379 -140.058)"/><path class="y" d="M177.468,156.179a6.281,6.281,0,0,1,4.835,5.365C180.911,162.463,176.341,160.667,177.468,156.179Z" transform="translate(-153.488 -140.319)"/><path class="g" d="M178.613,157.253a4.523,4.523,0,0,1,3.484,3.863C181.093,161.78,177.8,160.484,178.613,157.253Z" transform="translate(-154.174 -140.567)"/><path class="g" d="M204.845,153.523s-3.456-5.243-11.473-8.02-12.676.479-12.676.479,2.249-14.443,16.95-9.351C212.891,141.911,204.845,153.523,204.845,153.523Z" transform="translate(-180.696 -135.543)"/><path class="z" d="M199.327,148.849a27.456,27.456,0,0,0-7.043-4,17.9,17.9,0,0,0-8.481-.837c-1.257.177-1.882-2.283,5.666-1.743-.1-1.121-6.967-2.332-4.8-3.9,2.57-1.855,6.26-2.81,11.441-.913a11.341,11.341,0,0,1,7.466,7.535C204.9,149.369,202.466,151.131,199.327,148.849Z" transform="translate(-179.426 -135.746)"/><path class="aa" d="M196,145.5c-.516-1.842-1.7-5.55-8.5-7.908,5.735,4.2,5.846,5.175,5.8,5.023-1.707-1.293-9.7-3.1-9.48-2.428s8.868,3.19,8.823,5.3-6.653-2.337-8.175-1.516c3.662,1.178,7.845,4.761,9.69,4.95S196.614,147.694,196,145.5Z" transform="translate(-172.287 -136.017)"/></g></g></g></g><g class="ab" transform="translate(1167.804 20.528)"><ellipse class="ac" cx="17.5" cy="18" rx="17.5" ry="18"/><ellipse class="ad" cx="17.5" cy="18" rx="17" ry="17.5"/></g></g></svg>