<svg xmlns="http://www.w3.org/2000/svg" xmlns:xlink="http://www.w3.org/1999/xlink" width="70.025" height="58.315" viewBox="0 0 70.025 58.315"><defs><style>.a,.ar{fill:#bdb0aa;mix-blend-mode:multiply;isolation:isolate;}.a{opacity:0.15;}.b{fill:#a47758;}.c{fill:#cbaa92;}.d{fill:#b99b85;}.e{fill:#d6b78a;}.f{fill:#f0c78b;}.g{fill:#b49782;}.h{fill:#d9985b;}.i{fill:#664e43;}.j{fill:#fbd192;}.k{fill:#e4a060;}.l{fill:#faf1b6;}.m{fill:#f3e5b7;}.n{fill:#b34f2f;}.o{fill:#72667c;}.p{fill:#ff7c24;}.q{fill:#feb331;}.r{fill:#ef3b42;}.s{fill:#931620;}.t{fill:#fceed4;}.u{fill:#ffc552;}.v{fill:url(#a);}.w{fill:#f3b233;}.x{fill:#a82e2c;}.y{fill:#b3593d;}.z{fill:#fff;}.aa{fill:#af9e97;}.ab{fill:#413c4b;}.ac{fill:#47963d;}.ad{fill:#d8c2b9;}.ae{fill:#387831;}.af{fill:#e6cfc6;}.ag{fill:#418938;}.ah{fill:#c5b1a9;}.ai{fill:#336c2c;}.aj{fill:#93857e;}.ak{fill:#2c5d26;}.al{fill:#8c796f;}.am{fill:#72677c;}.an{fill:#ffe6db;}.ao{fill:#c9b6ad;}.ap{fill:#a04f36;}.aq{fill:#934932;}</style><linearGradient id="a" y1="0.5" x2="1" y2="0.5" gradientUnits="objectBoundingBox"><stop offset="0" stop-color="#f3b233"/><stop offset="1" stop-color="#df7a2a"/></linearGradient></defs><g transform="translate(1809.994 -28.873)"><g transform="translate(-1785.181 28.873)"><path class="a" d="M168.764,158.287l15.986,1.021-6.162.4-.523,1.134h11.684l-1.163,4.368h3.081l1.57-3.971.988-1.021,10.173-.4v-1.134l-8.836.227-1.046-2.609.174-.851h-5.174L173.3,151.536Z" transform="translate(-159.185 -127.637)"/><g transform="translate(0)"><path class="b" d="M158.631,92.768l-.117.33-.081.04-.263.21-.241.273-.2.319-.15.342-.088.342-.019.319.049.27h-.008l-.256-.023-.977-.087-.372-.033-.922-.082-.54-.048-.089-.008-.645-.058-3.864-.345.954-2.459Z" transform="translate(-144.828 -82.5)"/><path class="c" d="M185.211,96.522l-.221-.045-.252.045-.266.132-.262.21-.24.274-.2.319-1.22-.7.2-.319.241-.273.263-.21.081-.04.186-.092.253-.044.221.046.9.515Z" transform="translate(-169.648 -85.315)"/><path class="d" d="M182.367,102.156l-1.22-.7-.131-.1-.365-.209-.044-.033-.016-.029.256.023h.008l-.049-.27.019-.319.088-.342.15-.342,1.22.7-.15.342-.088.342-.019.319.05.274.116.211Z" transform="translate(-168.162 -88.394)"/><path class="e" d="M149.652,91.406l-.954,2.459-.365-.211.954-2.459Z" transform="translate(-143.678 -81.837)"/><path class="f" d="M146.938,85.055l-.954,2.459.365.211,3.864.345v1.656l-4.975-.761V83.106l4.975.761v1.481Z" transform="translate(-141.329 -75.697)"/><path class="e" d="M160.486,92.105l-7.829-.7-.365-.211,3.275.292.511.046.394.035,1.633.146,1.189.106h0l.826.073Z" transform="translate(-146.683 -81.837)"/><path class="e" d="M188.686,52.673l-3.541,10.034-.365-.211.29-.821.09-.253.043-.123,3.118-8.836Z" transform="translate(-171.342 -52.438)"/><path class="g" d="M171.321,88.89l-.1.115h0L170.03,88.9l-1.633-.146L168,88.717l.067-.153.367-.581.437-.5Z" transform="translate(-158.608 -79.021)"/><path class="h" d="M169.512,77.521v2.024l-.426-.244-.4-.083-.459.082-.484.24-.477.382-.437.5-.367.581-.067.153-.511-.046V79.628Z" transform="translate(-156.999 -71.458)"/><path class="c" d="M175.213,85.662l-.043.123-.09.253-.054.009-.484.24-.477.383-2.446-1.4.477-.382.484-.24.459-.082.4.083.426.244Z" transform="translate(-161.352 -76.802)"/><path class="e" d="M199.837,52.673l-.365-.211,1.7.023.365.211Z" transform="translate(-182.493 -52.438)"/><path class="b" d="M189.835,53.336l1.7.023-3.524,9.986-.061.173-1.655-.148Z" transform="translate(-172.491 -53.101)"/><path class="b" d="M187.581,95.119l-.214.608-.9-.515-.221-.046L186,95.21l-.186.092.117-.33Z" transform="translate(-172.124 -84.703)"/><path class="b" d="M198.365,96.11l-.954,2.459-4.828-.431.09-.142.15-.342.087-.343.019-.319-.05-.274-.116-.21-.174-.132-.319-.183.214-.608Z" transform="translate(-177.027 -85.168)"/><path class="e" d="M193.221,94.868l5.455.487.365.211-5.88-.525Z" transform="translate(-177.703 -84.624)"/><path class="b" d="M172.46,106.959l-.99,2.806-2.322,6.579-1.7-.023h0l3.591-10.176.131.1,1.22.7Z" transform="translate(-158.188 -93.184)"/><path class="e" d="M169.892,105.486,166.3,115.662l-.365-.211.321-.908,2.863-8.114h0l.406-1.153Z" transform="translate(-157.039 -92.524)"/><path class="i" d="M177.54,104.806l-.406,1.153h0l-.02,0-.317-.241-.212-.383-.091-.5.01-.174.977.087.016.029Z" transform="translate(-165.052 -92.054)"/><path class="j" d="M144.7,117.287h0l-.366-.211.321-.909-.333-7.988-4.976-.762-1.87,16.229,1.941.3.059.009.234-6.507.178.026,3.368.516-.218,6.057-.014.453.059.009,1.934.3Zm-4.1-6.781.2.031,1.952.3-.124,3.5-.016.417-2.154-.328Z" transform="translate(-135.437 -94.149)"/><path class="g" d="M171.091,105.414l-1.486-.853-.961-.552-.086-.065.089.008.54.048.922.082.372.033-.01.174.091.5.212.383Z" transform="translate(-159.03 -91.514)"/><path class="h" d="M167.574,104.38l-1.691.982v-1.656l.645.058.086.065Z" transform="translate(-156.999 -91.332)"/><path class="i" d="M182.467,90.69l-.29.821-.826-.073.1-.115.477-.383.484-.24Z" transform="translate(-168.739 -81.453)"/><path class="k" d="M173.272,132.042l-5.5,3.193-.313-7.512,1.7.023,2.322-6.58Z" transform="translate(-158.195 -104.585)"/><path class="k" d="M169.079,107.36l-2.863,8.114-.333-7.989,1.691-.982,1.486.853Z" transform="translate(-156.999 -93.455)"/><path class="l" d="M131.056,114.613l-2.039-4.346,2.563-14.751,1.346,2.868Z" transform="translate(-129.017 -85.117)"/><path class="l" d="M141,79.931l-1.346-2.868V71.2L141,74.072Z" transform="translate(-137.09 -66.663)"/><path class="l" d="M143.4,60.9l1.1,2.348v2.622l-1.1-2.348V60.9Z" transform="translate(-139.932 -58.84)"/><path class="j" d="M147.969,70.64l4.073.623v2.622l-4.073-.623Z" transform="translate(-143.402 -66.235)"/><path class="h" d="M164.87,67.793l2.971-1.725V68.69l-2.971,1.725Z" transform="translate(-156.23 -62.765)"/><path class="m" d="M148.7,69.153l.9,1.923-3.629,2.107L141,72.422l-1.346-2.868.9-.524v.662l1.1,2.348,4.073.623,2.971-1.725Z" transform="translate(-137.09 -65.013)"/><path class="k" d="M146.184,149.052l0,.059-.216,6-.131.286-.063.138.234-6.507Z" transform="translate(-141.734 -125.731)"/><path class="n" d="M149.948,155.707l-3.369-.515.217-6.057,3.369.515Z" transform="translate(-142.347 -125.813)"/><path class="k" d="M149.869,124.151l.14-3.917.2.031-.125,3.5Z" transform="translate(-144.844 -103.878)"/><path class="j" d="M152.023,135.6l-2.154-.33.217-.386,1.952.3Z" transform="translate(-144.844 -114.996)"/><path class="o" d="M150.767,123.861l.125-3.5,1.952.3-.125,3.5Z" transform="translate(-145.526 -103.975)"/><path class="p" d="M147.969,56.767l4.073.623-1.1-5.028-2.971,4.4Z" transform="translate(-143.402 -52.362)"/><path class="q" d="M143.4,54.419l1.1,2.348,2.971-4.4Z" transform="translate(-139.932 -52.362)"/><path class="r" d="M161.4,57.39l2.971-1.725-4.073-3.3Z" transform="translate(-152.76 -52.362)"/><path class="s" d="M163.269,53.317l1.1,2.348-4.073-3.3Z" transform="translate(-152.76 -52.362)"/><path class="q" d="M146.368,52.694,143.4,54.419l4.073-2.057Z" transform="translate(-139.932 -52.362)"/><path class="t" d="M149.465,119.623l2.154.329-.14,3.917-2.154-.33.14-3.917Zm-.161-.194-.007.188-.14,3.917-.005.149.147.022,2.154.33.186.028.007-.188.14-3.917.005-.149-.147-.023-2.154-.329-.186-.028Z" transform="translate(-144.3 -103.267)"/><g transform="translate(5.928 0.903)"><path class="e" d="M198.993,99.457l-.237-.024.338-.87a.117.117,0,0,0-.219-.085l-.361.93-2.07-.211.223-.574a.117.117,0,1,0-.219-.085l-.246.634-1.554-.158a.117.117,0,0,0-.024.233l1.49.152-.214.553a.117.117,0,0,0,.067.152.113.113,0,0,0,.042.008.117.117,0,0,0,.109-.075l.238-.612,2.07.211-.272.7a.117.117,0,0,0,.067.152.114.114,0,0,0,.042.008.117.117,0,0,0,.109-.075l.295-.76.3.031h.012a.117.117,0,0,0,.012-.234Z" transform="translate(-184.663 -88.21)"/><path class="e" d="M159.311,94.833l-.222.572a.117.117,0,0,0,.067.152.115.115,0,0,0,.042.008.118.118,0,0,0,.109-.075l.246-.634.49.046h.011a.117.117,0,0,0,.011-.234l-.424-.04.167-.43a.117.117,0,1,0-.219-.085l-.191.491-2.636-.249.222-.572a.117.117,0,1,0-.219-.085l-.246.634-2.279-.215.321-.827a.117.117,0,1,0-.219-.085L154,94.1l-.128-.012a.117.117,0,1,0-.022.233l.062.006-.287.74a.117.117,0,0,0,.067.152.113.113,0,0,0,.042.008.117.117,0,0,0,.109-.075l.311-.8,2.279.215-.237.611a.117.117,0,0,0,.067.152.113.113,0,0,0,.042.008.117.117,0,0,0,.109-.075l.261-.673Z" transform="translate(-153.616 -84.209)"/><path class="e" d="M192.427,98.093a.118.118,0,0,0-.152.067l-.654,1.686a.117.117,0,0,0,.067.152.119.119,0,0,0,.042.008.117.117,0,0,0,.109-.075l.654-1.686A.118.118,0,0,0,192.427,98.093Z" transform="translate(-182.456 -87.969)"/><path class="e" d="M190.21,64.433h0a.117.117,0,0,0,0-.234l-.21,0,1.3-3.717.391.005h0a.117.117,0,0,0,0-.234l-.313,0,1.229-3.523.435.006h0a.117.117,0,0,0,0-.234l-.357,0,.079-.226a.117.117,0,1,0-.221-.077l-.1.3-.589-.008h0a.117.117,0,0,0,0,.234l.511.007-1.229,3.523-.633-.009h0a.117.117,0,0,0,0,.234l.555.007-1.3,3.717-.5-.007h0a.117.117,0,0,0,0,.234l.421.006-.253.724a.118.118,0,0,0,.072.149.12.12,0,0,0,.039.007.117.117,0,0,0,.111-.079l.279-.8Z" transform="translate(-180.578 -56.107)"/><path class="e" d="M174.419,109.125l-.27,0,.17-.5a.117.117,0,0,0-.222-.076l-.194.571-.44-.006a.109.109,0,0,0-.119.116.117.117,0,0,0,.115.119l.364,0-1.082,3.179-.555-.007h0a.117.117,0,0,0,0,.234l.479.007-1.191,3.5-.5-.007h0a.117.117,0,0,0,0,.234l.424.006-.25.734a.117.117,0,0,0,.073.149.115.115,0,0,0,.038.006.117.117,0,0,0,.111-.08l.274-.806.522.007h0a.117.117,0,0,0,0-.234l-.446-.006,1.191-3.5.467.006h0a.117.117,0,0,0,0-.234l-.391-.005,1.082-3.179.347,0h0a.117.117,0,0,0,0-.234Z" transform="translate(-166.698 -95.85)"/></g><path class="i" d="M188.586,99.34l-.019.319-.087.343-.15.342-.09.142-.112.177-.24.274-.262.21-.266.132-.252.045-.153-.032-.068-.014-.174-.132-.116-.211-.05-.274.019-.319.088-.342.15-.342.2-.319.24-.274.262-.21.266-.132.252-.045.221.045.174.132.116.21Z" transform="translate(-172.683 -87.517)"/><g transform="translate(3.979 23.227)"><path class="t" d="M149.428,149.3l-.234,6.568h0l-.117-.02.229-6.45L146,148.9l-.12-.019-.227,6.3-.063.138-.059-.009.237-6.565Z" transform="translate(-145.528 -148.744)"/></g></g></g><g transform="translate(-1809.994 45.585)"><g transform="translate(0)"><g transform="translate(21.031 20.807)"><path class="u" d="M99.963,216.216l-2.726-1.574v-2.259l2.726,1.574Z" transform="translate(-97.237 -210.808)"/><path class="v" d="M109.713,214.642l-2.726,1.574v-2.259l2.726-1.574Z" transform="translate(-104.26 -210.808)"/><path class="w" d="M99.963,209.9l-2.726-1.574,2.726-1.574,2.726,1.574Z" transform="translate(-97.237 -206.753)"/></g><g transform="translate(21.031 18.548)"><path class="u" d="M99.963,208.138l-2.726-1.574V204.3l2.726,1.574Z" transform="translate(-97.237 -202.73)"/><path class="v" d="M109.713,206.563l-2.726,1.574v-2.259l2.726-1.574Z" transform="translate(-104.26 -202.73)"/><path class="w" d="M99.963,201.824l-2.726-1.574,2.726-1.574,2.726,1.574Z" transform="translate(-97.237 -198.675)"/></g><g transform="translate(21.031 16.289)"><path class="u" d="M99.963,200.059l-2.726-1.574v-2.259l2.726,1.574Z" transform="translate(-97.237 -194.652)"/><path class="v" d="M109.713,198.485l-2.726,1.574V197.8l2.726-1.574Z" transform="translate(-104.26 -194.652)"/><path class="w" d="M99.963,193.745l-2.726-1.574,2.726-1.574,2.726,1.574Z" transform="translate(-97.237 -190.597)"/></g><g transform="translate(25.074 23.268)"><path class="u" d="M114.42,225.018l-2.726-1.574v-2.259l2.726,1.574Z" transform="translate(-111.694 -219.611)"/><path class="v" d="M124.17,223.444l-2.726,1.574v-2.259l2.726-1.574Z" transform="translate(-118.717 -219.611)"/><path class="w" d="M114.42,218.7l-2.726-1.574,2.726-1.574,2.726,1.574Z" transform="translate(-111.694 -215.556)"/></g><g transform="translate(25.074 21.009)"><path class="u" d="M114.42,216.94l-2.726-1.574v-2.259l2.726,1.574Z" transform="translate(-111.694 -211.533)"/><path class="v" d="M124.17,215.366l-2.726,1.574v-2.259l2.726-1.574Z" transform="translate(-118.717 -211.533)"/><path class="w" d="M114.42,210.626l-2.726-1.574,2.726-1.574,2.726,1.574Z" transform="translate(-111.694 -207.478)"/></g><g transform="translate(25.074 18.75)"><path class="u" d="M114.42,208.862l-2.726-1.574v-2.259l2.726,1.574Z" transform="translate(-111.694 -203.454)"/><path class="v" d="M124.17,207.287l-2.726,1.574V206.6l2.726-1.574Z" transform="translate(-118.717 -203.454)"/><path class="w" d="M114.42,202.548l-2.726-1.574,2.726-1.574,2.726,1.574Z" transform="translate(-111.694 -199.399)"/></g><path class="x" d="M100.095,221.436l.373-.215,2.9,4.378-.449.1Z" transform="translate(-78.264 -196.369)"/><path class="x" d="M95.4,199.368l-.373.215L95,199.6v10.724l-1.936,1.118V199.2l4.207-2.429,6.778-3.913,3.422-1.975h0V203.1l-1.226.733V193.108l-4.538,2.62-.374.216-4.374,2.526Z" transform="translate(-73.199 -174.515)"/><path class="y" d="M36.7,190.3l.324.188v0Zm-.734-.647-.272.065,1.006.582v-.223Zm-5.7-3.068,1.928,1.115.324.185-.324-.188ZM41.5,190.853l-.234-.136-.013-.008-1.975-1.14-.324-.185-.454-.264-1.474-.851-.324-.188-.185-.106-1.746-1.006-.307-.18-.014-.008-.084-.049-1.847-1.063-.324-.188-1.928-1.115-.288-.166-.035-.019-1.928-1.115-.324-.185-1.931-1.115-.321-.188L23.5,180.465l-.324-.188-.6-.348v0l-.237-.136-.307-.177v12.223l.544.315.6.351.324.185,1.866,1.077.065.038.321.188,1.931,1.115.324.188,1.928,1.115.324.188,1.928,1.115.324.188,1.931,1.115.321.188,1.931,1.115.324.188,1.928,1.115.324.185,1.757,1.017.231.133.634.367V191.084Zm-2.546,6.207-1.928-1.112-.324-.188-1.931-1.112-.321-.188-1.931-1.115-.324-.185-1.928-1.115-.324-.185-.3-.174-1.629-.941-.324-.188-1.931-1.112-.321-.188L24.3,188.6v-5.459l.713.411.419.242.321.188,1.931,1.112.324.188.043.025,1.885,1.088.324.188,1.928,1.115.324.185L34.445,189l.321.185.925.533,1.006.582.324.188L38.95,191.6l.324.188.267.152V197.4l-.267-.155Z" transform="translate(-22.031 -166.397)"/><path class="z" d="M22.029,179.53v0Z" transform="translate(-22.029 -166.312)"/><path class="x" d="M107.47,174.542v3.72l-3.422,1.975V176.47l-1.259.727-5.519,3.187v3.767l-4.207,2.429V182.82l3.6-5.3,3.6-3.415,3.6-.744Z" transform="translate(-73.199 -161.893)"/><path class="x" d="M125.745,200.427l-1.782,1.028v10.725l4.539-2.622V198.833Zm2,4.3-1.757,1.015-1.1.636V201.74l.552-.318.549-.318,1.382-.8.375-.218Z" transform="translate(-95.458 -180.241)"/><path class="aa" d="M114.884,196.077l-6.778,3.913v-1.453l5.52-3.187Z" transform="translate(-84.035 -177.732)"/><path class="aa" d="M123,218.931l-.374-.216V208.424l.374-.216Z" transform="translate(-94.497 -186.994)"/><path class="aa" d="M129.1,188.244l-1.259-.727V185.2l1.259-.727Z" transform="translate(-98.254 -169.899)"/><path class="ab" d="M113.626,187.075v2.314l-5.52,3.187v-2.314Z" transform="translate(-84.035 -171.771)"/><path class="ac" d="M41.893,177.642V181.4l-.647-.374L22.029,169.933v-3.759l.545.314,18.685,10.788Z" transform="translate(-22.029 -156.715)"/><path class="ad" d="M39.048,135.321l-3.6,3.409,0,.006-.541-.312,3.6-3.415Z" transform="translate(-31.306 -134.266)"/><path class="ad" d="M107.922,175.11l-3.6,3.415-.63-.364,3.584-3.4.034-.007Z" transform="translate(-80.854 -162.897)"/><path class="ae" d="M59.153,146.927l-.034.007-3.584,3.4L36.841,139.539l0-.006,3.6-3.409Z" transform="translate(-32.699 -135.068)"/><path class="af" d="M26.171,147.533l-3.6,5.294v.008l-.545-.314,3.6-5.3Z" transform="translate(-22.029 -143.062)"/><path class="af" d="M95.032,187.3l-3.6,5.3-.634-.366,3.588-5.281.017-.017Z" transform="translate(-71.566 -171.668)"/><path class="ag" d="M46.268,159.13l-.017.017-3.588,5.281L23.977,153.64v-.008l3.6-5.294Z" transform="translate(-23.432 -143.866)"/><path class="ah" d="M51.922,132.657l-3.59.742-.006.005-.539-.311,3.6-.744Z" transform="translate(-40.584 -132.349)"/><path class="ai" d="M72.1,144.3l-.107-.035L68.427,145,49.715,134.2l.006-.005,3.59-.742Z" transform="translate(-41.973 -133.143)"/><path class="aj" d="M64.778,133.824l-3.567-1.169-.011,0-.534-.308,3.6,1.181Z" transform="translate(-49.862 -132.349)"/><path class="aj" d="M133.91,173.738l-3.6-1.18-.54-.312.107.035,3.495,1.146Z" transform="translate(-99.64 -161.089)"/><path class="ak" d="M84.966,145.474l-3.495-1.146-.107-.035-18.79-10.849.011,0,3.46,1.134h0l.106.035h0Z" transform="translate(-51.237 -133.137)"/><path class="ah" d="M120.844,172.468l-3.6.744-.613-.354,3.568-.737.107.035Z" transform="translate(-90.175 -160.999)"/><path class="x" d="M110.625,247.6l-.449.1V236.976l.449-.1Z" transform="translate(-85.526 -207.647)"/><path class="y" d="M102.835,226.253v10.724l-2.849-4.308v-10.66l.03-.018Z" transform="translate(-78.186 -196.923)"/><path class="aa" d="M127.255,220.565l2.483-1.434.374.216L127.255,221Z" transform="translate(-97.829 -194.863)"/><path class="ab" d="M129.738,208.306l-2.483,1.434v-4.2l2.483-1.434Z" transform="translate(-97.829 -184.038)"/><path class="aa" d="M136.134,207.749v-4.2l.374-.216v4.635Z" transform="translate(-104.226 -183.481)"/><path class="z" d="M45.387,219.5l-15.238-8.8.714-.412,14.524,8.386Z" transform="translate(-27.878 -188.491)"/><path class="al" d="M30.149,197.7v-5.459l.714.412v4.635Z" transform="translate(-27.878 -175.49)"/><path class="am" d="M32.7,198.346v-4.635L47.227,202.1v4.635Z" transform="translate(-29.718 -176.552)"/><path class="an" d="M90.8,205.876v3.751l.634.374v-3.759Z" transform="translate(-71.566 -185.315)"/><path class="an" d="M22.574,166.48v3.768l-.545-.314v-3.759Z" transform="translate(-22.029 -156.715)"/><path class="ao" d="M93.823,186.205v-3.1l3.134-5,3.7-3.547,3.207-.764,3.063,1.062V190.8l.541-.323V174.542l-3.6-1.18-3.6.744-3.6,3.415-3.6,5.3v3.759Z" transform="translate(-73.199 -161.893)"/><path class="ao" d="M129.413,202.122l-1.643.949-1.061.612-.152.09-.114.065V209l.34-.2.987-.571,1.869-1.08.114-.065v-5.157Zm.114,4.831-1.757,1.015-1.1.636v-4.635l.552-.318.549-.318,1.382-.8.375-.218Z" transform="translate(-97.244 -182.469)"/><g transform="translate(23.892 14.27)"><path class="ao" d="M107.647,188.366v2.258l.177-.1v-2.258Zm1.572-1.882-1.662.96-.09.052v4.178l1.183-.683.275-.158.308-.18.767-.441.06-.035,2.668-1.539,1.784-1.031.09-.051v-4.178Zm5.026.865-1.874,1.082-2.312,1.336-.413.239-1,.574-.082.049-.2.114-.547.315V187.7l1.749-1.009,3.593-2.075,1.08-.623Z" transform="translate(-107.467 -183.378)"/></g><path class="ao" d="M125.745,200.427l-1.782,1.028v10.725l4.539-2.622V198.833Zm2.532,9-4.085,2.361v-10.2l.152-.087,1.626-.941,2.306-1.333Zm-4.249-7.73-.065.035v2.184l.065.038.163-.1V201.6Z" transform="translate(-95.458 -180.241)"/><path class="an" d="M100.8,223.263l-.813-1.213v10.662l.78,1.18,2.067,3.128V226.3Zm1.809,13-1.841-2.785-.555-.838v-9.852l.555.827,1.841,2.744Z" transform="translate(-78.187 -196.966)"/><path class="an" d="M22.574,179.931v12.24l-.545-.331V179.616Z" transform="translate(-22.029 -166.398)"/><path class="an" d="M90.8,219.291v12.247l.634.367.759-.438V219.291l-.759.374Z" transform="translate(-71.566 -194.978)"/><path class="ao" d="M93.063,219.665V231.9l.759-.438V219.291Z" transform="translate(-73.199 -194.978)"/><path class="ap" d="M26.461,182.175V194.4l-.323-.187V181.989Z" transform="translate(-24.989 -168.107)"/><path class="ap" d="M34.518,186.826v2.218l-.323-.187V186.64Z" transform="translate(-30.793 -171.458)"/><path class="ap" d="M34.195,214.1l.323.186v4.549l-.323-.187Z" transform="translate(-30.793 -191.236)"/><path class="ap" d="M42.573,191.477V193.7l-.323-.187v-2.218Z" transform="translate(-36.595 -174.808)"/><path class="ap" d="M42.25,218.747l.323.186v4.55l-.323-.187Z" transform="translate(-36.595 -194.586)"/><path class="ap" d="M50.63,196.128v2.218l-.323-.186v-2.218Z" transform="translate(-42.399 -178.158)"/><path class="ap" d="M50.307,223.4l.323.187v4.552l-.323-.187Z" transform="translate(-42.399 -197.937)"/><path class="ap" d="M58.686,200.78V203l-.323-.186v-2.218Z" transform="translate(-48.203 -181.51)"/><path class="ap" d="M58.363,228.05l.323.186v4.554l-.323-.187Z" transform="translate(-48.203 -201.288)"/><path class="ap" d="M66.741,205.431v2.218l-.323-.186v-2.218Z" transform="translate(-54.005 -184.86)"/><path class="ap" d="M66.418,232.7l.323.186v4.556l-.323-.187Z" transform="translate(-54.005 -204.638)"/><path class="ap" d="M74.8,210.082V212.3l-.323-.187V209.9Z" transform="translate(-59.809 -188.21)"/><path class="ap" d="M74.475,237.352l.323.187V242.1l-.323-.187Z" transform="translate(-59.809 -207.988)"/><path class="ap" d="M82.853,214.733v2.219l-.323-.187v-2.218Z" transform="translate(-65.612 -191.561)"/><path class="ap" d="M82.53,242l.323.187v4.56l-.323-.187Z" transform="translate(-65.612 -211.339)"/><path class="aq" d="M23.977,219.829l18.685,10.787v-1.673L23.977,218.012Z" transform="translate(-23.432 -194.057)"/><g transform="translate(0.17 13.157)"><rect class="an" width="0.549" height="22.121" transform="translate(0 0.476) rotate(-60.018)"/></g><g transform="translate(2.076 16.411)"><path class="an" d="M44.619,199.788,44.3,199.6l-1.928-1.115-.324-.185-.734-.424-1.2-.691L39.791,197l-1.931-1.115-.324-.188-1.928-1.112-.324-.188-1.692-.977-.237-.136-.324-.188L31.1,191.985l-.321-.185-1.327-.767v5.907l1.327.767.321.185,1.931,1.115.324.188,1.4.808.525.3.324.188,1.928,1.112.324.188,1.931,1.115.321.185,1.931,1.115.324.185,1.928,1.115.324.185.46.267v-5.907Zm.074,5.5-9.482-5.472-5.369-3.1V191.7l.52.3,1.665.963,1.18.68,7.558,4.365,3.928,2.268Z" transform="translate(-29.453 -191.033)"/></g></g><path class="a" d="M93.063,198.82H95.78V188.185l.643.1,1.874,2.833v10.724l9.051,1.518-.42-2.171s3.582,2.278,5.416,2.3,8.565-2.04,8.523-6.294-13.4-10-13.4-10V174.542l-3.6-1.18-3.6.744-3.6,3.415-3.6,5.3v16Z" transform="translate(-73.199 -161.893)"/><path class="ar" d="M30.842,198.449l2.2.67-.016-4.42-2.185-1.262Z" transform="translate(-28.378 -176.354)"/></g></g></svg>